<?xml version="1.0" encoding="UTF-8"?>
<svg width="20px" height="18px" viewBox="0 0 20 18" version="1.1" xmlns="http://www.w3.org/2000/svg" xmlns:xlink="http://www.w3.org/1999/xlink">
    <title>icon/日历@3x</title>
    <defs>
        <linearGradient x1="50%" y1="0%" x2="50%" y2="100%" id="linearGradient-1">
            <stop stop-color="#4285F4" offset="0%"></stop>
            <stop stop-color="#4285F4" stop-opacity="0.8" offset="100%"></stop>
        </linearGradient>
    </defs>
    <g id="pc首页后台配置" stroke="none" stroke-width="1" fill="none" fill-rule="evenodd">
        <g id="编组-24备份" transform="translate(-280.000000, -43.000000)">
            <g id="编组-23备份-5" transform="translate(255.000000, 28.000000)">
                <g id="编组" transform="translate(23.000000, 12.000000)">
                    <rect id="矩形" x="0" y="0" width="24" height="24"></rect>
                    <path d="M20,4.25 C20.9664983,4.25 21.75,5.03350169 21.75,6 L21.75,6 L21.75,8 L2.25,8 L2.25,6 C2.25,5.0818266 2.95711027,4.32880766 3.85647279,4.2558012 L4,4.25 Z" id="形状结合" fill="#4285F4" fill-rule="nonzero" opacity="0.5"></path>
                    <path d="M21.75,8 L21.75,19 C21.75,19.9181734 21.0428897,20.6711923 20.1435272,20.7441988 L20,20.75 L4,20.75 C3.0818266,20.75 2.32880766,20.0428897 2.2558012,19.1435272 L2.25,19 L2.25,8 L21.75,8 Z M13,15 L11,15 L11,17 L13,17 L13,15 Z M17,15 L15,15 L15,17 L17,17 L17,15 Z M9,15 L7,15 L7,17 L9,17 L9,15 Z M13,12 L11,12 L11,14 L13,14 L13,12 Z M17,12 L15,12 L15,14 L17,14 L17,12 Z M9,12 L7,12 L7,14 L9,14 L9,12 Z" id="形状结合" fill="url(#linearGradient-1)" fill-rule="nonzero"></path>
                    <path d="M13,15 L13,17 L11,17 L11,15 L13,15 Z M17,15 L17,17 L15,17 L15,15 L17,15 Z M9,15 L9,17 L7,17 L7,15 L9,15 Z M13,12 L13,14 L11,14 L11,12 L13,12 Z M17,12 L17,14 L15,14 L15,12 L17,12 Z M9,12 L9,14 L7,14 L7,12 L9,12 Z" id="形状结合" fill="#2778FF" opacity="0.5"></path>
                    <polygon id="路径-14" fill="#4285F4" fill-rule="nonzero" points="8.75 3 8.75 7 7.25 7 7.25 3"></polygon>
                    <polygon id="路径-14备份" fill="#4285F4" fill-rule="nonzero" points="16.75 3 16.75 7 15.25 7 15.25 3"></polygon>
                </g>
            </g>
        </g>
    </g>
</svg>