<?xml version="1.0" encoding="UTF-8"?>
<svg width="12px" height="12px" viewBox="0 0 12 12" version="1.1" xmlns="http://www.w3.org/2000/svg" xmlns:xlink="http://www.w3.org/1999/xlink">
    <title>icon/删除</title>
    <defs>
        <filter id="filter-1">
            <feColorMatrix in="SourceGraphic" type="matrix" values="0 0 0 0 0.600000 0 0 0 0 0.600000 0 0 0 0 0.600000 0 0 0 1.000000 0"></feColorMatrix>
        </filter>
    </defs>
    <g id="pc首页后台配置" stroke="none" stroke-width="1" fill="none" fill-rule="evenodd">
        <g id="B9-PC端首页-部件设置-交互说明" transform="translate(-211.000000, -205.000000)">
            <g id="编组-10" transform="translate(43.000000, 96.000000)">
                <g id="编组-20" transform="translate(16.000000, 88.000000)">
                    <g id="编组-9" transform="translate(96.000000, 12.000000)">
                        <g id="icon/删除" transform="translate(56.000000, 9.000000)" filter="url(#filter-1)">
                            <g>
                                <rect id="矩形" x="0" y="0" width="12" height="12"></rect>
                                <path d="M2,2.5 L2,10.5 C2,10.7454599 2.17687516,10.9496084 2.41012437,10.9919443 L2.5,11 L9.5,11 C9.74545989,11 9.94960837,10.8231248 9.99194433,10.5898756 L10,10.5 L10,2.5 L11,2.5 L11,10.5 C11,11.2796961 10.4051119,11.9204487 9.64446001,11.9931334 L9.5,12 L2.5,12 C1.72030388,12 1.07955132,11.4051119 1.00686658,10.64446 L1,10.5 L1,2.5 L2,2.5 Z" id="路径" fill="#4285F4" fill-rule="nonzero"></path>
                                <polygon id="路径" fill="#4285F4" fill-rule="nonzero" points="12 2 12 3 0 3 0 2"></polygon>
                                <path d="M7.5,0 C8.27969612,0 8.92044868,0.594888083 8.99313342,1.35553999 L9,1.5 L9,2.5 L8,2.5 L8,1.5 C8,1.25454011 7.82312484,1.05039163 7.58987563,1.00805567 L7.5,1 L4.5,1 C4.25454011,1 4.05039163,1.17687516 4.00805567,1.41012437 L4,1.5 L4,2.5 L3,2.5 L3,1.5 C3,0.720303883 3.59488808,0.0795513218 4.35553999,0.00686657806 L4.5,0 L7.5,0 Z" id="路径" fill="#4285F4" fill-rule="nonzero"></path>
                                <polygon id="路径" fill="#4285F4" fill-rule="nonzero" points="5 5 5 9 4 9 4 5"></polygon>
                                <polygon id="路径" fill="#4285F4" fill-rule="nonzero" points="8 5 8 9 7 9 7 5"></polygon>
                            </g>
                        </g>
                    </g>
                </g>
            </g>
        </g>
    </g>
</svg>