<?xml version="1.0" encoding="UTF-8"?>
<svg width="18px" height="18px" viewBox="0 0 18 18" version="1.1" xmlns="http://www.w3.org/2000/svg" xmlns:xlink="http://www.w3.org/1999/xlink">
    <title>icon/甘特图@3x</title>
    <defs>
        <linearGradient x1="50%" y1="0%" x2="50%" y2="100%" id="linearGradient-1">
            <stop stop-color="#4285F4" offset="0%"></stop>
            <stop stop-color="#4285F4" stop-opacity="0.8" offset="100%"></stop>
        </linearGradient>
    </defs>
    <g id="pc首页后台配置" stroke="none" stroke-width="1" fill="none" fill-rule="evenodd">
        <g id="编组-24备份" transform="translate(-26.000000, -128.000000)">
            <g id="编组-23备份-4" transform="translate(0.000000, 113.000000)">
                <g id="控件/默认" transform="translate(17.000000, 12.000000)">
                    <g id="编组" transform="translate(6.000000, 0.000000)">
                        <rect id="矩形" x="0" y="0" width="24" height="24"></rect>
                        <path d="M19.75,3.25 C20.3022847,3.25 20.75,3.69771525 20.75,4.25 L20.75,4.25 L20.75,19.75 C20.75,20.3022847 20.3022847,20.75 19.75,20.75 L19.75,20.75 L16.25,20.75 C15.6977153,20.75 15.25,20.3022847 15.25,19.75 L15.25,19.75 L15.25,4.25 C15.25,3.69771525 15.6977153,3.25 16.25,3.25 L16.25,3.25 Z M7.75,11.25 C8.30228475,11.25 8.75,11.6977153 8.75,12.25 L8.75,12.25 L8.75,19.75 C8.75,20.3022847 8.30228475,20.75 7.75,20.75 L7.75,20.75 L4.25,20.75 C3.69771525,20.75 3.25,20.3022847 3.25,19.75 L3.25,19.75 L3.25,12.25 C3.25,11.6977153 3.69771525,11.25 4.25,11.25 L4.25,11.25 Z M13.75,7.25 C14.3022847,7.25 14.75,7.69771525 14.75,8.25 L14.75,8.25 L14.75,19.75 C14.75,20.3022847 14.3022847,20.75 13.75,20.75 L13.75,20.75 L10.25,20.75 C9.69771525,20.75 9.25,20.3022847 9.25,19.75 L9.25,19.75 L9.25,8.25 C9.25,7.69771525 9.69771525,7.25 10.25,7.25 L10.25,7.25 Z" id="形状结合" fill="url(#linearGradient-1)" fill-rule="nonzero"></path>
                        <path d="M8,7.25 L8,8.75 L3.5,8.75 L3.5,7.25 L8,7.25 Z M14,3.25 L14,4.75 L3.5,4.75 L3.5,3.25 L14,3.25 Z" id="形状结合" fill="#4285F4" fill-rule="nonzero" opacity="0.5"></path>
                    </g>
                </g>
            </g>
        </g>
    </g>
</svg>