<?xml version="1.0" encoding="UTF-8"?>
<svg width="9px" height="12px" viewBox="0 0 9 12" version="1.1" xmlns="http://www.w3.org/2000/svg" xmlns:xlink="http://www.w3.org/1999/xlink">
    <title>icon/多语言</title>
    <defs>
        <filter id="filter-1">
            <feColorMatrix in="SourceGraphic" type="matrix" values="0 0 0 0 0.258824 0 0 0 0 0.521569 0 0 0 0 0.956863 0 0 0 1.000000 0"></feColorMatrix>
        </filter>
    </defs>
    <g id="pc首页后台配置" stroke="none" stroke-width="1" fill="none" fill-rule="evenodd">
        <g id="B4-PC端首页-部件设置-文本部件-选择图片" transform="translate(-1148.000000, -751.000000)">
            <g id="右侧" transform="translate(1063.000000, 117.000000)">
                <g id="编组-3" transform="translate(15.923588, 395.000000)">
                    <g id="编组-22" transform="translate(0.076412, 164.000000)">
                        <g id="编组-2" transform="translate(0.000000, 28.000000)">
                            <g id="编组" transform="translate(58.000000, 38.000000)">
                                <g transform="translate(7.000000, 7.000000)" id="icon/多语言" filter="url(#filter-1)">
                                    <g>
                                        <rect id="矩形" x="0" y="0" width="16" height="16"></rect>
                                        <path d="M9,2 C10.6568542,2 12,3.34314575 12,5 C12,5.88760049 11.6145309,6.68516984 11.001863,7.23443771 L10.922,7.301 L10.945544,7.31151934 C12.1022206,7.83675032 12.9226284,8.97288096 12.9948211,10.3079648 L13,10.5 C13,12.3685634 11.5357224,13.8951264 9.6920352,13.9948211 L9.5,14 L5,14 L5,2 L9,2 Z M7,13 L8.5,13 C9.88071187,13 11,11.8807119 11,10.5 C11,9.1745166 9.96846406,8.08996133 8.66437569,8.00531768 L8.5,8 L7,8 L7,13 Z M7,7 L8,7 C9.1045695,7 10,6.1045695 10,5 C10,3.9456382 9.18412221,3.08183488 8.14926234,3.00548574 L8,3 L7,3 L7,7 Z" id="路径" fill="#4285F4" fill-rule="nonzero"></path>
                                        <polygon id="路径" fill="#4285F4" fill-rule="nonzero" points="6 13 6 14 4 14 4 13"></polygon>
                                        <polygon id="路径" fill="#4285F4" fill-rule="nonzero" points="6 2 6 3 4 3 4 2"></polygon>
                                    </g>
                                </g>
                            </g>
                        </g>
                    </g>
                </g>
            </g>
        </g>
    </g>
</svg>