<?xml version="1.0" encoding="UTF-8"?>
<svg width="20px" height="19px" viewBox="0 0 20 19" version="1.1" xmlns="http://www.w3.org/2000/svg" xmlns:xlink="http://www.w3.org/1999/xlink">
    <title>icon/门户部件（未选中）@3x</title>
    <defs>
        <filter id="filter-1">
            <feColorMatrix in="SourceGraphic" type="matrix" values="0 0 0 0 0.600000 0 0 0 0 0.600000 0 0 0 0 0.600000 0 0 0 1.000000 0"></feColorMatrix>
        </filter>
    </defs>
    <g id="pc首页后台配置" stroke="none" stroke-width="1" fill="none" fill-rule="evenodd">
        <g id="编组-24备份" transform="translate(-196.000000, -129.000000)">
            <g id="编组-23备份-3" transform="translate(170.000000, 115.000000)">
                <g id="控件/默认" transform="translate(11.000000, 12.000000)">
                    <g id="icon/门户部件（未选中）" transform="translate(12.000000, 0.000000)" filter="url(#filter-1)">
                        <g>
                            <rect id="矩形" x="0" y="0" width="24" height="24"></rect>
                            <g id="部件" transform="translate(3.250224, 2.313068)">
                                <rect id="矩形" fill="#000000" fill-rule="nonzero" opacity="0" x="0.21459833" y="0.123761869" width="17.973737" height="17.9999946"></rect>
                                <path d="M5.19445358,3.34539912 C5.54103411,4.31008488 6.46389746,5 7.54789911,5 C8.63190076,5 9.55476411,4.31008488 9.90134464,3.34539912 L14.0001498,3.34515473 C14.5524345,3.34515473 15.0001498,3.79286998 15.0001498,4.34515473 L15.0001948,8.84493779 L14.9409192,8.8908599 C15.3684143,8.54933613 15.9104375,8.34515473 16.5001498,8.34515473 C17.8808616,8.34515473 19.0001498,9.46444286 19.0001498,10.8451547 C19.0001498,12.2258666 17.8808616,13.3451547 16.5001498,13.3451547 C15.9104375,13.3451547 15.3684143,13.1409733 14.9409192,12.7994496 L15.0001948,12.8453717 L15.0001498,17.3451547 C15.0001498,17.8974395 14.5524345,18.3451547 14.0001498,18.3451547 L1.00014977,18.3451547 C0.447865023,18.3451547 0.000149772676,17.8974395 0.000149772676,17.3451547 L1.78745907e-14,12.8452253 C0.417855922,13.1591379 0.937279565,13.3451547 1.50014977,13.3451547 C2.88086165,13.3451547 4.00014977,12.2258666 4.00014977,10.8451547 C4.00014977,9.46444286 2.88086165,8.34515473 1.50014977,8.34515473 C0.937279565,8.34515473 0.417855922,8.53117159 1.78190795e-14,8.84508414 L0.000149772676,4.34515473 C0.000149772676,3.79286998 0.447865023,3.34515473 1.00014977,3.34515473 L5.19445358,3.34539912 Z" id="形状结合" fill="#4080EA"></path>
                                <circle id="椭圆形备份-3" fill="#4080EA" opacity="0.5" cx="7.54789911" cy="2.5" r="2.5"></circle>
                            </g>
                        </g>
                    </g>
                </g>
            </g>
        </g>
    </g>
</svg>