<?xml version="1.0" encoding="UTF-8"?>
<svg width="18px" height="18px" viewBox="0 0 18 18" version="1.1" xmlns="http://www.w3.org/2000/svg" xmlns:xlink="http://www.w3.org/1999/xlink">
    <title>icon/资源面板（未选中）@3x</title>
    <defs>
        <filter id="filter-1">
            <feColorMatrix in="SourceGraphic" type="matrix" values="0 0 0 0 0.600000 0 0 0 0 0.600000 0 0 0 0 0.600000 0 0 0 1.000000 0"></feColorMatrix>
        </filter>
        <linearGradient x1="50%" y1="0%" x2="50%" y2="100%" id="linearGradient-2">
            <stop stop-color="#4285F4" offset="0%"></stop>
            <stop stop-color="#4285F4" stop-opacity="0.8" offset="100%"></stop>
        </linearGradient>
    </defs>
    <g id="pc首页后台配置" stroke="none" stroke-width="1" fill="none" fill-rule="evenodd">
        <g id="编组-24备份" transform="translate(-111.000000, -130.000000)">
            <g id="编组-23备份-2" transform="translate(85.000000, 115.000000)">
                <g id="控件/默认" transform="translate(11.000000, 12.000000)">
                    <g id="icon/资源面板（未选中）" transform="translate(12.000000, 0.000000)" filter="url(#filter-1)">
                        <g>
                            <rect id="矩形" x="0" y="0" width="24" height="24"></rect>
                            <path d="M10,12.25 C10.9664983,12.25 11.75,13.0335017 11.75,14 L11.75,14 L11.75,19 C11.75,19.9664983 10.9664983,20.75 10,20.75 L10,20.75 L5,20.75 C4.03350169,20.75 3.25,19.9664983 3.25,19 L3.25,19 L3.25,14 C3.25,13.0335017 4.03350169,12.25 5,12.25 L5,12.25 Z M19,12.25 C19.9664983,12.25 20.75,13.0335017 20.75,14 L20.75,14 L20.75,19 C20.75,19.9664983 19.9664983,20.75 19,20.75 L19,20.75 L14,20.75 C13.0335017,20.75 12.25,19.9664983 12.25,19 L12.25,19 L12.25,14 C12.25,13.0335017 13.0335017,12.25 14,12.25 L14,12.25 Z M10,3.25 C10.9664983,3.25 11.75,4.03350169 11.75,5 L11.75,5 L11.75,10 C11.75,10.9664983 10.9664983,11.75 10,11.75 L10,11.75 L5,11.75 C4.03350169,11.75 3.25,10.9664983 3.25,10 L3.25,10 L3.25,5 C3.25,4.03350169 4.03350169,3.25 5,3.25 L5,3.25 Z" id="形状结合" fill="url(#linearGradient-2)" fill-rule="nonzero"></path>
                            <path d="M16.5,3.25 C14.1527898,3.25 12.25,5.15278981 12.25,7.5 C12.25,9.84721019 14.1527898,11.75 16.5,11.75 C18.8472102,11.75 20.75,9.84721019 20.75,7.5 C20.75,5.15278981 18.8472102,3.25 16.5,3.25 Z" id="路径" fill="#4285F4" fill-rule="nonzero" opacity="0.5"></path>
                        </g>
                    </g>
                </g>
            </g>
        </g>
    </g>
</svg>