<?xml version="1.0" encoding="UTF-8"?>
<svg width="10px" height="12px" viewBox="0 0 10 12" version="1.1" xmlns="http://www.w3.org/2000/svg" xmlns:xlink="http://www.w3.org/1999/xlink">
    <title>icon/下划线（未选中）</title>
    <defs>
        <filter id="filter-1">
            <feColorMatrix in="SourceGraphic" type="matrix" values="0 0 0 0 0.600000 0 0 0 0 0.600000 0 0 0 0 0.600000 0 0 0 1.000000 0"></feColorMatrix>
        </filter>
    </defs>
    <g id="pc首页后台配置" stroke="none" stroke-width="1" fill="none" fill-rule="evenodd">
        <g id="B4-PC端首页-部件设置-文本部件-选择图片" transform="translate(-1223.000000, -751.000000)">
            <g id="右侧" transform="translate(1063.000000, 117.000000)">
                <g id="编组-3" transform="translate(15.923588, 395.000000)">
                    <g id="编组-22" transform="translate(0.076412, 164.000000)">
                        <g id="编组-2" transform="translate(0.000000, 28.000000)">
                            <g id="编组" transform="translate(134.000000, 38.000000)">
                                <g transform="translate(7.000000, 7.000000)" id="icon/下划线（未选中）" filter="url(#filter-1)">
                                    <g>
                                        <rect id="矩形" x="0" y="0" width="16" height="16"></rect>
                                        <path d="M6,2.5 L6,8.5 C6,9.88071187 7.11928813,11 8.5,11 C9.8254834,11 10.9100387,9.96846406 10.9946823,8.66437569 L11,8.5 L11,2.5 L12,2.5 L12,8.5 C12,10.4329966 10.4329966,12 8.5,12 C6.6314366,12 4.60487355,10.5357224 4.50517886,8.6920352 L4.5,8.5 L4.5,2.5 L6,2.5 Z" id="路径" fill="#4285F4" fill-rule="nonzero"></path>
                                        <path d="M5,2.5 L5,8 C5,9.59768088 6.24891996,10.9036609 7.82372721,10.9949073 L8,11 L8.5,11 L8.5,12 L8,12 C5.85780461,12 4.10892112,10.3160315 4.00489531,8.19964034 L4,8 L4,2.5 L5,2.5 Z" id="路径" fill="#4285F4" fill-rule="nonzero"></path>
                                        <polygon id="路径" fill="#4285F4" fill-rule="nonzero" points="6.5 2 6.5 3 3.5 3 3.5 2"></polygon>
                                        <polygon id="路径" fill="#4285F4" fill-rule="nonzero" points="12.5 2 12.5 3 10.5 3 10.5 2"></polygon>
                                        <polygon id="路径" fill="#4285F4" fill-rule="nonzero" points="12.5 13 12.5 14 3.5 14 3.5 13"></polygon>
                                    </g>
                                </g>
                            </g>
                        </g>
                    </g>
                </g>
            </g>
        </g>
    </g>
</svg>