<?xml version="1.0" encoding="UTF-8"?>
<svg width="14px" height="12px" viewBox="0 0 14 12" version="1.1" xmlns="http://www.w3.org/2000/svg" xmlns:xlink="http://www.w3.org/1999/xlink">
    <title>icon/可访问者</title>
    <defs>
        <filter id="filter-1">
            <feColorMatrix in="SourceGraphic" type="matrix" values="0 0 0 0 0.200000 0 0 0 0 0.200000 0 0 0 0 0.200000 0 0 0 1.000000 0"></feColorMatrix>
        </filter>
        <filter id="filter-2">
            <feColorMatrix in="SourceGraphic" type="matrix" values="0 0 0 0 0.200000 0 0 0 0 0.200000 0 0 0 0 0.200000 0 0 0 1.000000 0"></feColorMatrix>
        </filter>
        <path d="M7,1 C8.65685425,1 10,2.34314575 10,4 C10,5.15045905 9.35241488,6.14966649 8.4018805,6.65298647 C11.2444323,7.2761862 13.3899672,9.762023 13.495897,12.7668659 L13.5,13 L12.5,13 C12.5,9.96243388 10.0375661,7.5 7,7.5 C4.03652085,7.5 1.62046086,9.84378001 1.5043672,12.7787929 L1.5,13 L0.5,13 C0.5,9.89127792 2.68235915,7.29227314 5.59861096,6.65145212 C4.64758512,6.14966649 4,5.15045905 4,4 C4,2.34314575 5.34314575,1 7,1 Z M7,2 C5.8954305,2 5,2.8954305 5,4 C5,5.1045695 5.8954305,6 7,6 C8.1045695,6 9,5.1045695 9,4 C9,2.8954305 8.1045695,2 7,2 Z" id="path-3"></path>
    </defs>
    <g id="pc首页后台配置" stroke="none" stroke-width="1" fill="none" fill-rule="evenodd">
        <g id="A1-PC端首页-基本设置" transform="translate(-1386.000000, -308.000000)">
            <g id="右侧" transform="translate(1064.000000, 117.000000)">
                <g id="编组-3" transform="translate(16.000000, 126.000000)">
                    <g id="通用/14px/g-输入框/c-选择人员-2" transform="translate(0.000000, 28.000000)" filter="url(#filter-1)">
                        <g transform="translate(306.000000, 36.000000)" id="icon/可访问者" filter="url(#filter-2)">
                            <g>
                                <mask id="mask-4" fill="white">
                                    <use xlink:href="#path-3"></use>
                                </mask>
                                <use id="蒙版" fill="#FFFFFF" fill-rule="nonzero" xlink:href="#path-3"></use>
                                <g id="编组" mask="url(#mask-4)" fill="#4285F4">
                                    <g id="color/bg/grey">
                                        <rect id="color/brand/lanblue" x="0" y="0" width="14" height="14"></rect>
                                    </g>
                                </g>
                            </g>
                        </g>
                    </g>
                </g>
            </g>
        </g>
    </g>
</svg>