<?xml version="1.0" encoding="UTF-8"?>
<svg width="12px" height="12px" viewBox="0 0 12 12" version="1.1" xmlns="http://www.w3.org/2000/svg" xmlns:xlink="http://www.w3.org/1999/xlink">
    <title>通用图标/面形/12/[通用类-火热&amp;推荐]iconCommon_surface_12_fire</title>
    <defs>
        <linearGradient x1="50%" y1="0%" x2="50%" y2="100%" id="linearGradient-1">
            <stop stop-color="#4285F4" offset="0%"></stop>
            <stop stop-color="#4285F4" stop-opacity="0.8" offset="100%"></stop>
        </linearGradient>
    </defs>
    <g id="通用图标/面形/12/[通用类-火热&amp;推荐]iconCommon_surface_12_fire" stroke="none" stroke-width="1" fill="none" fill-rule="evenodd">
        <rect id="矩形" x="0" y="0" width="12" height="12"></rect>
        <path d="M10.9169316,6.22025331 C10.8255961,5.73360797 10.6620101,5.2696283 10.4302633,4.84298034 C10.3457439,4.68698717 10.2503187,4.53099401 10.15762,4.38033395 C9.85907558,3.89102206 9.54962545,3.38571087 9.55916796,2.82573541 C9.55916796,2.79640337 9.56053118,2.76573804 9.56189439,2.73507272 C9.56871048,2.57241318 9.57552656,2.40575382 9.47464854,2.2737596 C9.35741192,2.11909972 9.14066051,2.08976767 8.97707453,2.13109919 C8.79849317,2.17643054 8.65262901,2.29242545 8.53402918,2.39908745 C8.33554701,2.5788053 8.10458995,2.88424624 7.84115799,3.31541028 L7.84115127,3.31540617 C7.78356486,3.40965893 7.66047489,3.43938288 7.56622213,3.38179647 C7.52060758,3.35392696 7.48804833,3.30895659 7.47581079,3.25692161 C7.25569452,2.32097024 7.23673029,1.61859933 7.41891811,1.14980886 C7.43527671,1.10847734 7.45299852,1.06714582 7.46935712,1.0258143 C7.52252256,0.895153358 7.57841444,0.761825868 7.59886268,0.617832179 C7.62340058,0.444506442 7.58795695,0.213849884 7.41482846,0.0858554937 C7.2362471,-0.0448054465 6.97882677,-0.0219148963 6.63779507,0.124520466 C5.91057599,0.436780558 5.34794098,1.0258143 4.78827304,1.87406391 C4.2286051,2.72231351 3.70456218,4.27927005 3.59482567,4.27927005 C3.48508915,4.27927005 3.34017444,3.21905151 3.09479548,3.12038917 C2.79625107,3.00039443 2.48543772,3.25371666 2.32730461,3.41504292 C1.9619626,3.78569334 1.66478141,4.22567406 1.44257712,4.7229856 C1.23127857,5.19763146 1.09359371,5.7109423 1.03361218,6.25091863 C0.915012349,7.32153838 1.11267874,8.41615707 1.58844128,9.3334502 C1.97695798,10.0827507 2.58086287,10.7307223 3.33472158,11.2067014 C4.08721707,11.6826806 4.93786414,11.9546687 5.79669051,11.9946669 C5.86894099,11.9986667 5.94255468,12 6.01616837,12 C6.80274427,12 7.59613625,11.8066751 8.32409384,11.4346914 C9.12021226,11.0307091 9.78409868,10.4427349 10.2435026,9.73343267 C10.8992097,8.72147702 11.1445887,7.44153312 10.9169316,6.22025331 Z" id="路径" fill="#FF943E" fill-rule="nonzero"></path>
    </g>
</svg>