<?xml version="1.0" encoding="UTF-8"?>
<svg width="72px" height="40px" viewBox="0 0 72 40" version="1.1" xmlns="http://www.w3.org/2000/svg" xmlns:xlink="http://www.w3.org/1999/xlink">
    <title>icon/ocr-jinyong@1x</title>
    <g id="pc端" stroke="none" stroke-width="1" fill="none" fill-rule="evenodd">
        <g id="前台-仅识别" transform="translate(-505.000000, -149.000000)">
            <g id="icon/ocr-jinyong" transform="translate(505.000000, 149.000000)">
                <rect id="矩形" stroke="#EEEEEE" fill="#C3C3C3" x="0.5" y="0.5" width="71" height="39" rx="2"></rect>
                <path d="M48.5,26 L48.5,32.5 L42,32.5 L42,31.5 L47.5,31.5 L47.5,26 L48.5,26 Z M24.5,26 L24.5,31.5 L30,31.5 L30,32.5 L23.5,32.5 L23.5,26 L24.5,26 Z M46,25 L46,26 L26,26 L26,25 L46,25 Z M29.474,15.448 C30.446,15.448 31.22,15.763 31.787,16.402 C32.327,17.005 32.597,17.806 32.597,18.796 C32.597,19.777 32.327,20.569 31.787,21.181 C31.22,21.811 30.446,22.126 29.474,22.126 C28.493,22.126 27.719,21.802 27.161,21.172 C26.621,20.56 26.36,19.768 26.36,18.796 C26.36,17.815 26.621,17.023 27.161,16.411 C27.719,15.763 28.493,15.448 29.474,15.448 Z M36.377,15.448 C37.124,15.448 37.745,15.637 38.231,16.033 C38.699,16.411 38.987,16.933 39.086,17.581 L39.086,17.581 L38.132,17.581 C38.024,17.149 37.817,16.825 37.511,16.618 C37.205,16.411 36.827,16.312 36.359,16.312 C35.666,16.312 35.144,16.546 34.793,17.023 C34.46,17.455 34.298,18.049 34.298,18.796 C34.298,19.57 34.46,20.164 34.784,20.587 C35.126,21.037 35.657,21.262 36.377,21.262 C36.845,21.262 37.241,21.145 37.547,20.911 C37.871,20.659 38.096,20.281 38.222,19.777 L38.222,19.777 L39.176,19.777 C39.032,20.524 38.699,21.109 38.168,21.532 C37.673,21.928 37.079,22.126 36.386,22.126 C35.333,22.126 34.541,21.784 34.01,21.118 C33.542,20.542 33.317,19.768 33.317,18.796 C33.317,17.842 33.551,17.068 34.037,16.465 C34.577,15.781 35.351,15.448 36.377,15.448 Z M43.01,15.574 C43.658,15.574 44.18,15.718 44.558,16.015 C44.954,16.339 45.152,16.798 45.152,17.41 C45.152,17.752 45.062,18.049 44.882,18.31 C44.675,18.598 44.396,18.787 44.045,18.877 L44.045,18.877 L44.045,18.895 C44.621,19.021 44.936,19.399 45.008,20.029 L45.008,20.029 L45.116,21.055 C45.152,21.451 45.278,21.766 45.494,22 L45.494,22 L44.432,22 C44.279,21.802 44.189,21.514 44.153,21.154 L44.153,21.154 L44.072,20.353 C44.036,19.993 43.919,19.741 43.73,19.579 C43.532,19.417 43.253,19.345 42.884,19.345 L42.884,19.345 L41.147,19.345 L41.147,22 L40.166,22 L40.166,15.574 Z M29.474,16.312 C28.79,16.312 28.259,16.537 27.881,17.005 C27.521,17.446 27.341,18.04 27.341,18.796 C27.341,19.543 27.521,20.137 27.881,20.578 C28.259,21.028 28.79,21.262 29.474,21.262 C30.158,21.262 30.689,21.037 31.058,20.596 C31.418,20.164 31.607,19.561 31.607,18.796 C31.607,18.022 31.418,17.419 31.058,16.978 C30.689,16.528 30.158,16.312 29.474,16.312 Z M42.875,16.411 L41.147,16.411 L41.147,18.508 L42.884,18.508 C43.316,18.508 43.64,18.409 43.856,18.229 C44.063,18.049 44.171,17.788 44.171,17.446 C44.171,17.086 44.063,16.825 43.865,16.663 C43.649,16.492 43.325,16.411 42.875,16.411 L42.875,16.411 Z M30,7.5 L30,8.5 L24.5,8.5 L24.5,14 L23.5,14 L23.5,7.5 L30,7.5 Z M48.5,7.5 L48.5,14 L47.5,14 L47.5,8.5 L42,8.5 L42,7.5 L48.5,7.5 Z" id="形状结合" fill="#999999" fill-rule="nonzero"></path>
            </g>
        </g>
    </g>
</svg>