<?xml version="1.0" standalone="no"?><!DOCTYPE svg PUBLIC "-//W3C//DTD SVG 1.1//EN" "http://www.w3.org/Graphics/SVG/1.1/DTD/svg11.dtd"><svg t="1521092248733" class="icon" style="" viewBox="0 0 1024 1024" version="1.1" xmlns="http://www.w3.org/2000/svg" p-id="11978" xmlns:xlink="http://www.w3.org/1999/xlink" width="200" height="200"><defs><style type="text/css"></style></defs><path d="M796.2 182.1h-28.4c-0.6-31.9-26.7-57.8-58.8-57.8h-50.7v-1.4c0-32.5-26.4-58.9-58.9-58.9h-172c-32.5 0-58.9 26.4-58.9 58.9l-53.5 1.4c-32.1 0-58.2 25.8-58.8 57.8h-28.4c-35.1 0-63.6 28.5-63.6 63.6v650.7c0 35.1 28.5 63.6 63.6 63.6h568.4c35.1 0 63.6-28.5 63.6-63.6V245.7c0-35.1-28.5-63.6-63.6-63.6z m-484 1c0-1.5 1.2-2.7 2.8-2.7h81.6c15.5 0 28.1-12.6 28.1-28.1v-29.4c0-1.5 1.2-2.7 2.7-2.7h172.1c1.5 0 2.7 1.2 2.7 2.7v29.4c0 15.5 12.6 28.1 28.1 28.1H709c1.5 0 2.7 1.2 2.7 2.7v69.4c0 1.5-1.2 2.7-2.7 2.7H315c-1.5 0-2.8-1.2-2.8-2.7v-69.4z m491.5 713.3c0 4.1-3.3 7.5-7.5 7.5H227.8c-4.1 0-7.5-3.3-7.5-7.5V245.7c0-4.1 3.3-7.5 7.5-7.5h28.3v14.3c0 32.5 26.4 58.9 58.9 58.9h394c32.5 0 58.9-26.4 58.9-58.9v-14.3h28.3c4.1 0 7.5 3.3 7.5 7.5v650.7z" p-id="11979"></path><path d="M520.2 700.5H360c-15.5 0-28.1 12.6-28.1 28.1s12.6 28.1 28.1 28.1h160.2c15.5 0 28.1-12.6 28.1-28.1s-12.6-28.1-28.1-28.1zM666.8 548.6H360c-15.5 0-28.1 12.6-28.1 28.1s12.6 28.1 28.1 28.1h306.8c15.5 0 28.1-12.6 28.1-28.1s-12.6-28.1-28.1-28.1zM666.8 402.3H360c-15.5 0-28.1 12.6-28.1 28.1 0 15.5 12.6 28.1 28.1 28.1h306.8c15.5 0 28.1-12.6 28.1-28.1 0-15.6-12.6-28.1-28.1-28.1z" p-id="11980"></path></svg>