<?xml version="1.0" encoding="UTF-8"?>
<svg width="28px" height="28px" viewBox="0 0 28 28" version="1.1" xmlns="http://www.w3.org/2000/svg" xmlns:xlink="http://www.w3.org/1999/xlink">
    <!-- Generator: Sketch 63.1 (92452) - https://sketch.com -->
    <title>icon/导航图标/affairs_disputeReg</title>
    <desc>Created with Sketch.</desc>
    <g id="icon/导航图标/affairs_disputeReg" stroke="none" stroke-width="1" fill="none" fill-rule="evenodd">
        <g id="icon/纠纷登记-" fill="#000000" fill-rule="nonzero">
            <path d="M16.25,3 L7.24999999,3 C6.0125,3 5.01124998,4 5.01124998,5.22222224 L5,23 C5,24.2222222 6.00124999,25.2222222 7.23874998,25.2222222 L20.75,25.2222222 C21.9875,25.2222222 23,24.2222222 23,23 L23,9.66666667 L16.25,3 Z M18.5,18.5555556 L15.125,18.5555556 L15.125,21.8888889 L12.875,21.8888889 L12.875,18.5555556 L9.49999999,18.5555556 L9.49999999,16.3333333 L12.875,16.3333333 L12.875,13 L15.125,13 L15.125,16.3333333 L18.5,16.3333333 L18.5,18.5555556 L18.5,18.5555556 Z M15.125,10.7777778 L15.125,4.66666667 L21.3125,10.7777778 L15.125,10.7777778 L15.125,10.7777778 Z" id="形状"></path>
        </g>
    </g>
</svg>