<?xml version="1.0" encoding="UTF-8"?>
<svg width="28px" height="28px" viewBox="0 0 28 28" version="1.1" xmlns="http://www.w3.org/2000/svg" xmlns:xlink="http://www.w3.org/1999/xlink">
    <!-- Generator: Sketch 63.1 (92452) - https://sketch.com -->
    <title>icon/导航图标/affairs_risk</title>
    <desc>Created with Sketch.</desc>
    <g id="icon/导航图标/affairs_risk" stroke="none" stroke-width="1" fill="none" fill-rule="evenodd">
        <g id="icon/风险管理">
            <rect id="矩形" x="0" y="0" width="28" height="28" rx="2"></rect>
            <path d="M4.01106844,4.18994413 C4.01106844,3.93519553 4.22335894,3.67597765 4.48034218,3.63128492 C4.48034218,3.63128492 12.6814595,2 13.9887221,2 C15.2959846,2 23.5194483,3.63128492 23.5194483,3.63128492 C23.7764316,3.68938547 23.9663757,3.92178771 23.9775489,4.18994413 L23.9775489,12.6815642 C23.9775489,15.7988827 21.8769902,19.7653631 19.2512919,21.4972067 C19.2512919,21.4972067 15.3630237,24.3463687 14.0334148,24.3463687 C12.7038059,24.3463687 8.7484986,21.4748603 8.7484986,21.4748603 C6.13397346,19.7430168 4.01106844,15.7988827 4.01106844,12.6815642 L4.01106844,4.18994413 Z M13.2959846,8.06927374 L11.1730796,13.5217877 C11.0948673,13.7094972 11.2065992,13.8793296 11.4188897,13.8793296 L13.4524092,13.8793296 C13.6646997,13.8793296 13.7987779,14.0446927 13.7540852,14.2592179 L13.0948673,17.4413408 C12.9272696,18.2793296 13.1842528,18.3910615 13.6758729,17.698324 L17.7317388,12.0335196 C17.8546439,11.8659218 17.7764316,11.7206704 17.5641411,11.7094972 L15.0278282,11.6424581 C14.8155377,11.6424581 14.7149791,11.4748603 14.7931913,11.2849162 L16.2121858,8.04469274 C16.290398,7.85698324 16.1898394,7.70055866 15.9775489,7.70055866 L13.8211243,7.70055866 C13.5922614,7.7194036 13.3914314,7.8604119 13.2959846,8.06927374 L13.2959846,8.06927374 Z" id="形状" fill="#000000" fill-rule="nonzero"></path>
        </g>
    </g>
</svg>