<?xml version="1.0" encoding="UTF-8"?>
<svg width="28px" height="28px" viewBox="0 0 28 28" version="1.1" xmlns="http://www.w3.org/2000/svg" xmlns:xlink="http://www.w3.org/1999/xlink">
    <!-- Generator: Sketch 63.1 (92452) - https://sketch.com -->
    <title>icon/导航图标/affairs_riskReg</title>
    <desc>Created with Sketch.</desc>
    <g id="icon/导航图标/affairs_riskReg" stroke="none" stroke-width="1" fill="none" fill-rule="evenodd">
        <g id="icon/风险登记" transform="translate(0.000000, -3.000000)" fill="#000000" fill-rule="nonzero">
            <path d="M21.8936121,23.6307445 L21.8936121,25.3230522 L5.94209559,25.3230522 L5.94209559,23.6307445 L21.8936121,23.6307445 Z M14.0631893,10.6946232 C17.0756285,10.6946232 19.517693,13.1366876 19.517693,16.1491268 C19.517693,16.2636774 19.5141007,16.3777164 19.5069956,16.4911061 L19.517693,16.4903493 L19.517693,22.6096048 L8.58340993,22.6096048 L8.58340993,16.4903493 L8.61938312,16.4911061 C8.612278,16.3777164 8.60868566,16.2636774 8.60868566,16.1491268 C8.60868566,13.1366876 11.0507501,10.6946232 14.0631893,10.6946232 Z M5.94209559,15.3403033 L5.94209559,16.5535386 L3.00505515,16.5535386 L3.00505515,15.3403033 L5.94209559,15.3403033 Z M24.9292279,15.3403033 L24.9292279,16.5535386 L21.9921875,16.5535386 L21.9921875,15.3403033 L24.9292279,15.3403033 Z M21.5878768,7.97080882 L22.4457606,8.82866728 L20.3689798,10.9054733 L19.5111213,10.0475643 L21.5878768,7.97080882 Z M6.14465533,7.90615349 L8.22143612,9.98290901 L7.36355239,10.8407927 L5.2867716,8.76401195 L6.14465533,7.90615349 Z M14.7162132,5.00331112 L14.7162132,7.94035156 L13.5029779,7.94035156 L13.5029779,5.00331112 L14.7162132,5.00331112 Z" id="形状结合"></path>
        </g>
    </g>
</svg>