<?xml version="1.0" encoding="UTF-8"?>
<svg width="28px" height="28px" viewBox="0 0 28 28" version="1.1" xmlns="http://www.w3.org/2000/svg" xmlns:xlink="http://www.w3.org/1999/xlink">
    <!-- Generator: Sketch 63.1 (92452) - https://sketch.com -->
    <title>icon/导航图标/agreement_contractChag</title>
    <desc>Created with Sketch.</desc>
    <g id="icon/导航图标/agreement_contractChag" stroke="none" stroke-width="1" fill="none" fill-rule="evenodd">
        <g id="icon/变动管理" fill="#000000">
            <path d="M20.95,2.65 C22.1650264,2.65 23.15,3.63497355 23.15,4.85 L23.15,23 C23.15,24.2150264 22.1650264,25.2 20.95,25.2 L7.2,25.2 C5.98497355,25.2 5,24.2150264 5,23 L5,4.85 C5,3.63497355 5.98497355,2.65 7.2,2.65 L9.41506011,2.65012294 C9.43084273,2.75568436 9.45908261,2.86031531 9.50002671,2.96205553 L10.2705485,4.8471677 C10.2949932,4.90826124 10.3237851,4.96770864 10.3567253,5.02509921 C10.7581439,5.62390882 11.4645583,5.97546075 12.2120607,5.94841945 L15.9430085,5.94841945 C16.6973669,5.9768993 17.4097189,5.61881011 17.8084824,5.01067233 C17.8394874,4.95471297 17.8665817,4.89688079 17.8895899,4.83754978 L18.6499733,2.95724657 C18.6903907,2.85681511 18.7184286,2.75356681 18.7343246,2.64938726 L20.95,2.65 Z M20.4286129,19.2169765 L14.5736847,19.2169765 C14.2568474,19.2169765 14,19.4713851 14,19.7852141 C14,20.0676602 14.2080464,20.3019758 14.4806301,20.3460144 L14.5736847,20.3534517 L19.0480012,20.3540006 L18.364914,21.0299531 C18.1408809,21.2518683 18.1408809,21.6116565 18.364914,21.8335718 C18.5889565,22.0554776 18.9521936,22.0554776 19.1762314,21.8335671 C19.5441737,21.4691184 19.8201304,21.1957819 20.0041015,21.0135576 C20.1880727,20.8313332 20.4640309,20.5579983 20.8319763,20.1935528 C21.0560095,19.9716375 21.0560095,19.6118494 20.8319763,19.3899341 C20.7896286,19.3479902 20.7423078,19.3139744 20.6925583,19.2884858 C20.6185901,19.2429308 20.5298117,19.2169765 20.4286129,19.2169765 Z M15.8237686,15.1664329 C15.4558263,15.5308816 15.1798696,15.8042181 14.9958985,15.9864424 C14.8119273,16.1686668 14.5359691,16.4420017 14.1680237,16.8064472 C13.9439905,17.0283625 13.9439905,17.3881506 14.1680237,17.6100659 C14.2103714,17.6520098 14.2576922,17.6860256 14.3074417,17.7115142 C14.3567539,17.7418842 14.4126483,17.7635428 14.474417,17.7746074 L14.5713871,17.7830235 L20.4263153,17.7830235 C20.7431526,17.7830235 21,17.5286149 21,17.2147859 C21,16.9323398 20.7919536,16.6980242 20.5193699,16.6539856 L20.4263153,16.6465483 L15.9519988,16.6459994 L16.635086,15.9700469 C16.8591191,15.7481317 16.8591191,15.3883435 16.635086,15.1664282 C16.4110435,14.9445224 16.0478064,14.9445224 15.8237686,15.1664329 Z" id="形状结合"></path>
            <path d="M16.671,4.454 C16.524631,4.59699957 16.3253979,4.67270815 16.121,4.663 L12.051,4.663 C11.8476097,4.67285804 11.6489912,4.5993692 11.501,4.4595 L10.8188368,2.67678005 C10.7645582,2.53493205 10.8355472,2.37594004 10.9773952,2.32166147 C11.0087709,2.30965546 11.042081,2.3035 11.0756753,2.3035 L17.0959593,2.3035 C17.2478376,2.3035 17.3709593,2.42662169 17.3709593,2.5785 C17.3709593,2.61217321 17.3647749,2.6455601 17.3527139,2.6769992 L16.671,4.454 L16.671,4.454 Z" id="路径"></path>
        </g>
    </g>
</svg>