<?xml version="1.0" encoding="UTF-8"?>
<svg width="28px" height="28px" viewBox="0 0 28 28" version="1.1" xmlns="http://www.w3.org/2000/svg" xmlns:xlink="http://www.w3.org/1999/xlink">
    <!-- Generator: Sketch 63.1 (92452) - https://sketch.com -->
    <title>icon/导航图标/agreement_borrowing</title>
    <desc>Created with Sketch.</desc>
    <g id="icon/导航图标/agreement_borrowing" stroke="none" stroke-width="1" fill="none" fill-rule="evenodd">
        <g id="icon/合同借阅" fill="#000000" fill-rule="nonzero">
            <path d="M22.1875,6.00976562 C22.8613281,6.03320312 23.4003906,6.5859375 23.4003906,7.265625 L23.4003906,20.9277344 C23.3652344,21.5488281 22.8808594,22.0488281 22.2675781,22.1074219 L16.953125,22.1074219 L14.890625,23.2988281 C14.703125,23.3886719 15.0097656,23.0703125 15.0097656,22.6660156 L15.0097656,7.0078125 L16.3398438,6.15039062 C16.4628906,6.0625 16.6152344,6.00976562 16.7773438,6.00976562 L22.1875,6.00976562 Z M11.6386719,6.00976562 C11.8007812,6.00976562 11.953125,6.0625 12.0761719,6.15039062 L12.0761719,6.15039062 L13.40625,7.0078125 L13.40625,22.6660156 C13.40625,23.0703125 13.7148438,23.3886719 13.5273438,23.2988281 L13.5273438,23.2988281 L11.4648438,22.1074219 L6.1484375,22.1074219 C5.53515625,22.0488281 5.05078125,21.5488281 5.015625,20.9277344 L5.015625,20.9277344 L5.015625,7.265625 C5.015625,6.5859375 5.5546875,6.03320312 6.22851562,6.00976562 L6.22851562,6.00976562 Z M11.0273438,16.984375 L9.50195312,16.984375 C9.06054688,16.984375 8.70117188,17.3417969 8.70117188,17.7851562 C8.70117188,18.2265625 9.05859375,18.5859375 9.50195312,18.5859375 L11.0273438,18.5859375 C11.46875,18.5859375 11.828125,18.2265625 11.828125,17.7851562 C11.828125,17.34375 11.4707031,16.984375 11.0273438,16.984375 Z M11.0273438,13.4101562 L7.91601563,13.4101562 C7.47460938,13.4101562 7.11523438,13.7675781 7.11523438,14.2109375 C7.11523438,14.6523437 7.47265625,15.0117187 7.91601563,15.0117187 L11.0273438,15.0117187 C11.46875,15.0097656 11.828125,14.6523437 11.828125,14.2109375 C11.828125,13.7695312 11.4707031,13.4101562 11.0273438,13.4101562 Z M10.8639863,9.8359375 L8.79226374,9.8359375 C8.26081165,9.8359375 7.828125,10.1933594 7.828125,10.6367187 C7.828125,11.078125 8.2584601,11.4375 8.79226374,11.4375 L10.8639863,11.4375 C11.3954383,11.4355469 11.828125,11.078125 11.828125,10.6367187 C11.828125,10.1953125 11.3977899,9.8359375 10.8639863,9.8359375 Z" id="形状结合"></path>
        </g>
    </g>
</svg>