<?xml version="1.0" encoding="UTF-8"?>
<svg width="28px" height="28px" viewBox="0 0 28 28" version="1.1" xmlns="http://www.w3.org/2000/svg" xmlns:xlink="http://www.w3.org/1999/xlink">
    <!-- Generator: Sketch 63.1 (92452) - https://sketch.com -->
    <title>icon/导航图标/agreement_my</title>
    <desc>Created with Sketch.</desc>
    <g id="icon/导航图标/agreement_my" stroke="none" stroke-width="1" fill="none" fill-rule="evenodd">
        <path d="M9.5854843,16.3759935 C6.51341353,16.3759935 4,18.8903767 4,21.9636327 L4,22.5786672 C4,23.9104391 5.08914068,25 6.42008826,25 L21.5796528,25 C22.910911,25 24,23.9104391 24,22.5786672 L24,21.9636327 C24,18.8904286 21.4862757,16.3759935 18.4145674,16.3759935 L17.3466088,16.3759935 C16.3572153,16.8316092 15.2158187,17.0917464 13.9996892,17.0917464 C12.7841813,17.0917464 11.6424738,16.8316092 10.6530804,16.3759935 L9.5854843,16.3759935 Z M13.9996892,4 C10.9055042,4 8.39690709,6.50956493 8.39690709,9.6052545 C8.39690709,12.7009441 10.9055042,15.2104572 13.9996892,15.2104572 C17.0945475,15.2104572 19.6030929,12.7008923 19.6030929,9.6052545 C19.6030929,6.50956493 17.0945475,4 13.9996892,4 L13.9996892,4 Z" id="形状备份" fill="#000000" fill-rule="nonzero"></path>
    </g>
</svg>