<?xml version="1.0" encoding="UTF-8"?>
<svg width="28px" height="28px" viewBox="0 0 28 28" version="1.1" xmlns="http://www.w3.org/2000/svg" xmlns:xlink="http://www.w3.org/1999/xlink">
    <!-- Generator: Sketch 63.1 (92452) - https://sketch.com -->
    <title>icon/导航图标/agreement_template</title>
    <desc>Created with Sketch.</desc>
    <g id="icon/导航图标/agreement_template" stroke="none" stroke-width="1" fill="none" fill-rule="evenodd">
        <g id="icon/范本管理" fill="#000000" fill-rule="nonzero">
            <path d="M20.8486486,2.08108108 L7.24324324,2.08108108 C5.58848836,2.09594592 4.25827686,3.44792452 4.2701898,5.1027027 L4.2701898,21.2324324 C4.25827686,22.8872106 5.58848836,24.2391892 7.24324324,24.2540541 L20.8486486,24.2540541 C22.5034035,24.2391892 23.833615,22.8872106 23.8217021,21.2324324 L23.8217021,5.0972973 C23.830622,3.44462326 22.5012803,2.09594575 20.8486486,2.08108108 L20.8486486,2.08108108 Z M18.7243243,15.4540541 C19.1721228,15.4540541 19.5351351,15.8170664 19.5351351,16.2648649 L19.5351351,16.2648649 L19.5351351,19.9297297 C19.5351351,20.3775282 19.1721228,20.7405405 18.7243243,20.7405405 C18.2765259,20.7405405 17.9135135,20.3775282 17.9135135,19.9297297 L17.9135135,19.9297297 L17.9135135,16.2648649 C17.9135135,15.8170664 18.2765259,15.4540541 18.7243243,15.4540541 Z M14.9842529,15.4440918 C15.5365377,15.4440918 15.9842529,15.891807 15.9842529,16.4440918 L15.9842529,19.6801758 C15.9842529,20.2324605 15.5365377,20.6801758 14.9842529,20.6801758 L9.57177734,20.6801758 C9.01949259,20.6801758 8.57177734,20.2324605 8.57177734,19.6801758 L8.57177734,16.4440918 C8.57177734,15.891807 9.01949259,15.4440918 9.57177734,15.4440918 L14.9842529,15.4440918 Z M18.7243243,11.5945946 C19.1721228,11.5945946 19.5351351,11.957607 19.5351351,12.4054054 C19.5351351,12.8532039 19.1721228,13.2162162 18.7243243,13.2162162 L18.7243243,13.2162162 L9.40540541,13.2162162 C8.95760696,13.2162162 8.59459459,12.8532039 8.59459459,12.4054054 C8.59459459,11.957607 8.95760696,11.5945946 9.40540541,11.5945946 L9.40540541,11.5945946 Z M18.7243243,7.8 C19.1721228,7.8 19.5351351,8.16301237 19.5351351,8.61081081 C19.5351351,9.05860926 19.1721228,9.42162162 18.7243243,9.42162162 L18.7243243,9.42162162 L9.40540541,9.42162162 C8.95760697,9.42162162 8.59459463,9.05860924 8.59459463,8.61081081 C8.59459463,8.16301238 8.95760697,7.8 9.40540541,7.8 L9.40540541,7.8 Z" id="形状"></path>
        </g>
    </g>
</svg>