<?xml version="1.0" encoding="UTF-8"?>
<svg width="28px" height="28px" viewBox="0 0 28 28" version="1.1" xmlns="http://www.w3.org/2000/svg" xmlns:xlink="http://www.w3.org/1999/xlink">
    <!-- Generator: Sketch 63.1 (92452) - https://sketch.com -->
    <title>icon/导航图标/agreement_contractReg</title>
    <desc>Created with Sketch.</desc>
    <g id="icon/导航图标/agreement_contractReg" stroke="none" stroke-width="1" fill="none" fill-rule="evenodd">
        <g id="icon/合同登记" transform="translate(5.000000, 2.000000)" fill="#000000">
            <path d="M4.41506997,0.650188854 C4.43085449,0.755727914 4.45909113,0.860336485 4.50002671,0.962055527 L5.27054853,2.8471677 C5.29499318,2.90826124 5.32378507,2.96770864 5.35672531,3.02509921 C5.72726556,3.57784655 6.35768391,3.91991278 7.04040968,3.94799894 L10.9430085,3.94841945 C11.6973669,3.9768993 12.4097189,3.61881011 12.8084824,3.01067233 C12.8394874,2.95471297 12.8665817,2.89688079 12.8895899,2.83754978 L13.6499733,0.957246567 C13.6902612,0.857137004 13.7182488,0.754228628 13.7341714,0.650388953 L15.95,0.65 C17.1650264,0.65 18.15,1.63497355 18.15,2.85 L18.15,21 C18.15,22.2150264 17.1650264,23.2 15.95,23.2 L2.2,23.2 C0.98497355,23.2 -2.98106717e-11,22.2150264 -2.98108205e-11,21 L-2.98108205e-11,2.85 C-2.98109693e-11,1.63497355 0.98497355,0.65 2.2,0.65 L4.41506997,0.650188854 Z M13.3714286,12.2628571 L7.2,18.46 L6.94285715,20.4285714 C6.92538341,20.5665978 6.97336408,20.7048665 7.07257966,20.8024005 C7.15195213,20.8804277 7.25683057,20.9252237 7.36611329,20.9298678 L7.44857143,20.9257143 L7.45142857,20.9257143 L9.37142857,20.6371429 L15.5371429,14.4428571 L13.3714286,12.2628571 Z M15.3057143,10.5661446 C15.1785867,10.5661446 15.0556954,10.6068757 14.9544554,10.6810601 L14.8828571,10.7428571 L14.1657143,11.4628571 L16.3371429,13.6428571 L17.0514286,12.92 C17.2580462,12.7120097 17.2810038,12.3904415 17.1203011,12.1572117 L17.0514286,12.0742857 L15.7285714,10.7428571 C15.6169141,10.6297869 15.4646238,10.5661446 15.3057143,10.5661446 Z M6.8265,9.924 L3.5265,9.924 C3.07997778,9.924 2.718,10.2859778 2.718,10.7325 C2.718,11.1446744 3.02643077,11.4848108 3.42508348,11.5347006 L3.5265,11.541 L6.8265,11.541 C7.27302222,11.541 7.635,11.1790222 7.635,10.7325 C7.635,10.2859778 7.27302222,9.924 6.8265,9.924 Z M11.2265,6.0575 L3.5265,6.0575 C3.07997778,6.0575 2.718,6.41947778 2.718,6.866 C2.718,7.27817436 3.02643077,7.61831085 3.42508348,7.66820064 L3.5265,7.6745 L11.2265,7.6745 C11.6730222,7.6745 12.035,7.31252222 12.035,6.866 C12.035,6.41947778 11.6730222,6.0575 11.2265,6.0575 Z M12.0959593,0.3035 C12.2478376,0.3035 12.3709593,0.426621694 12.3709593,0.5785 C12.3709593,0.612173214 12.3647749,0.645560098 12.3527139,0.676999195 L11.671,2.454 C11.524631,2.59699957 11.3253979,2.67270815 11.121,2.663 L7.051,2.663 C6.84760971,2.67285804 6.64899121,2.5993692 6.501,2.4595 L5.81883675,0.676780051 C5.76455818,0.534932046 5.83554723,0.375940041 5.97739524,0.321661468 C6.00877094,0.309655459 6.04208096,0.3035 6.07567529,0.3035 L12.0959593,0.3035 Z" id="形状结合"></path>
        </g>
    </g>
</svg>