<?xml version="1.0" encoding="UTF-8"?>
<svg width="28px" height="28px" viewBox="0 0 28 28" version="1.1" xmlns="http://www.w3.org/2000/svg" xmlns:xlink="http://www.w3.org/1999/xlink">
    <!-- Generator: Sketch 63.1 (92452) - https://sketch.com -->
    <title>icon/导航图标/agreement_contractAud</title>
    <desc>Created with Sketch.</desc>
    <g id="icon/导航图标/agreement_contractAud" stroke="none" stroke-width="1" fill="none" fill-rule="evenodd">
        <g id="icon/审核" fill="#000000" fill-rule="nonzero">
            <path d="M21.7803429,21.4512 C22.2347943,21.4512 22.6032,21.8810066 22.6032,22.4112 C22.6032,22.9413934 22.2347943,23.3712 21.7803429,23.3712 L21.7803429,23.3712 L8.06605714,23.3712 C7.61160569,23.3712 7.2432,22.9413934 7.2432,22.4112 C7.2432,21.8810066 7.61160569,21.4512 8.06605714,21.4512 L8.06605714,21.4512 Z M15.544,3.2496 C18.0782562,3.56441444 20.0631024,5.58106048 20.3376,8.12 C20.5369727,10.1606714 19.5720038,12.1400947 17.8416,13.24 C17.3256071,13.5636406 17.0359573,14.1503671 17.0928,14.7568 L17.2976,16.8112 C17.3769622,17.6308426 18.0677331,18.2550332 18.8912,18.2512 L21.6368,18.2512 C21.8135311,18.2512 21.9568,18.3944689 21.9568,18.5712 L21.9568,19.8512 C21.9568,20.0279311 21.8135311,20.1712 21.6368,20.1712 L8.1968,20.1712 C8.02006888,20.1712 7.8768,20.0279311 7.8768,19.8512 L7.8768,18.5712 C7.8768,18.3944689 8.02006888,18.2512 8.1968,18.2512 L10.9424,18.2512 C11.7658669,18.2550332 12.4566378,17.6308426 12.536,16.8112 L12.76,14.7504 C12.8132343,14.1432185 12.5182514,13.5582103 11.9984,13.24 C9.86334707,11.8774494 8.95110659,9.22170807 9.79822595,6.83478871 C10.6453453,4.44786935 13.0276694,2.96137137 15.544,3.2496 Z" id="形状结合"></path>
        </g>
    </g>
</svg>