<?xml version="1.0" encoding="UTF-8"?>
<svg width="28px" height="28px" viewBox="0 0 28 28" version="1.1" xmlns="http://www.w3.org/2000/svg" xmlns:xlink="http://www.w3.org/1999/xlink">
    <!-- Generator: Sketch 63.1 (92452) - https://sketch.com -->
    <title>icon/导航图标/agreement_templateDraft</title>
    <desc>Created with Sketch.</desc>
    <g id="icon/导航图标/agreement_templateDraft" stroke="none" stroke-width="1" fill="none" fill-rule="evenodd">
        <g id="icon/范本起草" fill="#000000" fill-rule="nonzero">
            <path d="M19.8486486,3.08108108 C21.4422578,3.09541487 22.7352566,4.34999045 22.8175831,5.92143524 L22.8217021,6.0972973 L22.8216778,11.5118227 C21.9441847,11.1810029 20.9932301,11 20,11 C15.581722,11 12,14.581722 12,19 C12,21.5316009 13.175916,23.788552 15.0113372,25.2544424 L6.24324324,25.2540541 C4.64758675,25.2397201 3.35370593,23.982075 3.27400274,22.4085243 L3.2701898,22.2324324 L3.2701898,6.1027027 C3.25870233,4.50702374 4.49518515,3.19290205 6.06723631,3.08774313 L6.24324324,3.08108108 L19.8486486,3.08108108 Z M11.213115,12.5945946 L8.40540541,12.5945946 C7.95760696,12.5945946 7.59459459,12.957607 7.59459459,13.4054054 C7.59459459,13.8532039 7.95760696,14.2162162 8.40540541,14.2162162 L11.213115,14.2162162 C11.6609134,14.2162162 12.0239258,13.8532039 12.0239258,13.4054054 C12.0239258,12.957607 11.6609134,12.5945946 11.213115,12.5945946 Z M17.7243243,7.8 L8.40540541,7.8 C7.95760697,7.8 7.59459463,8.16301238 7.59459463,8.61081081 C7.59459463,9.05860924 7.95760697,9.42162162 8.40540541,9.42162162 L17.7243243,9.42162162 C18.1721228,9.42162162 18.5351351,9.05860926 18.5351351,8.61081081 C18.5351351,8.16301237 18.1721228,7.8 17.7243243,7.8 Z" id="形状结合"></path>
            <path d="M20.1940332,12.5678711 C23.750747,12.5678711 26.6340332,15.4511573 26.6340332,19.0078711 L26.6340332,19.1278711 C26.6340332,22.6845849 23.750747,25.5678711 20.1940332,25.5678711 L20.0740332,25.5678711 C16.5173194,25.5678711 13.6340332,22.6845849 13.6340332,19.1278711 L13.6340332,19.0078711 C13.6340332,15.4511573 16.5173194,12.5678711 20.0740332,12.5678711 L20.1940332,12.5678711 Z M20.084071,14.4306217 C17.5781423,14.4530488 15.5420753,16.4939178 15.4973266,19.0057565 C15.4749522,21.652158 17.5781423,23.7603084 20.1959428,23.7154541 C22.7018714,23.6705998 24.7379384,21.6297309 24.7826871,19.1178922 C24.8050615,16.4939178 22.7018714,14.4081945 20.084071,14.4306217 Z" id="形状备份-4"></path>
            <path d="M20.345459,16.0944824 C20.6216014,16.0944824 20.845459,16.31834 20.845459,16.5944824 L20.845459,18.3304824 L22.595459,18.3311157 C22.8716014,18.3311157 23.095459,18.5549733 23.095459,18.8311157 L23.095459,19.3311157 C23.095459,19.6072581 22.8716014,19.8311157 22.595459,19.8311157 L20.845459,19.8304824 L20.845459,21.5944824 C20.845459,21.8706248 20.6216014,22.0944824 20.345459,22.0944824 L19.845459,22.0944824 C19.5693166,22.0944824 19.345459,21.8706248 19.345459,21.5944824 L19.345459,19.8304824 L17.595459,19.8311157 C17.3193166,19.8311157 17.095459,19.6072581 17.095459,19.3311157 L17.095459,18.8311157 C17.095459,18.5549733 17.3193166,18.3311157 17.595459,18.3311157 L19.345459,18.3304824 L19.345459,16.5944824 C19.345459,16.31834 19.5693166,16.0944824 19.845459,16.0944824 L20.345459,16.0944824 Z" id="形状结合"></path>
        </g>
    </g>
</svg>