<?xml version="1.0" encoding="UTF-8"?>
<svg width="28px" height="28px" viewBox="0 0 28 28" version="1.1" xmlns="http://www.w3.org/2000/svg" xmlns:xlink="http://www.w3.org/1999/xlink">
    <!-- Generator: Sketch 63.1 (92452) - https://sketch.com -->
    <title>icon/导航图标/agreement_charts</title>
    <desc>Created with Sketch.</desc>
    <g id="icon/导航图标/agreement_charts" stroke="none" stroke-width="1" fill="none" fill-rule="evenodd">
        <g id="icon/合同统计" fill="#000000" fill-rule="nonzero">
            <path d="M7.04102564,18.0769231 L5.31282051,18.0769231 C4.74637462,18.0769231 4.28717949,18.5361182 4.28717949,19.1025641 L4.28717949,23.4 C4.28717949,23.9664459 4.74637462,24.425641 5.31282051,24.425641 L7.04102564,24.425641 C7.60747154,24.425641 8.06666667,23.9664459 8.06666667,23.4 L8.06666667,19.1025641 C8.06666667,18.5361182 7.60747154,18.0769231 7.04102564,18.0769231 Z M22.6205128,11.0871795 L20.8923077,11.0871795 C20.3258618,11.0871795 19.8666667,11.5463746 19.8666667,12.1128205 L19.8666667,23.3948718 C19.8666667,23.9613177 20.3258618,24.4205128 20.8923077,24.4205128 L22.6205128,24.4205128 C23.1869587,24.4205128 23.6461667,23.9613177 23.6461667,23.3948718 L23.6461667,12.1128205 C23.6475184,11.8399162 23.5400628,11.577721 23.3475697,11.3842654 C23.1550766,11.1908098 22.8934206,11.0820513 22.6205128,11.0820513 L22.6205128,11.0871795 Z M17.4307692,16.1282051 L15.6974359,16.1282051 C15.13099,16.1282051 14.6717949,16.5874003 14.6717949,17.1538462 L14.6717949,23.4 C14.6717949,23.9664459 15.13099,24.425641 15.6974359,24.425641 L17.425641,24.425641 C17.9920869,24.425641 18.4512821,23.9664459 18.4512821,23.4 L18.4512821,17.1538462 C18.4512821,16.5893969 17.9952114,16.1310274 17.4307692,16.1282051 Z M12.2358974,13.9179487 L10.5076923,13.9179487 C9.94124641,13.9179487 9.48205128,14.3771438 9.48205128,14.9435897 L9.48205128,23.4 C9.48205128,23.9664459 9.94124641,24.425641 10.5076923,24.425641 L12.2358974,24.425641 C12.8023433,24.425641 13.2615385,23.9664459 13.2615385,23.4 L13.2615385,14.9435897 C13.2615385,14.6715728 13.1534802,14.410697 12.9611352,14.218352 C12.7687902,14.026007 12.5079143,13.9179487 12.2358974,13.9179487 Z M15.4102564,11.0102564 L21.9794872,7.21025641 L21.825641,8.28205128 C21.7790219,8.68828409 22.0583687,9.05999554 22.4615385,9.12820513 L22.5692308,9.12820513 C22.9514395,9.12687286 23.2746979,8.84511379 23.3282051,8.46666667 L23.7128205,5.77435897 C23.7673298,5.40697706 23.5515588,5.05311277 23.2,4.93333333 L20.5794872,4.13333333 C20.3174924,4.04997136 20.0309262,4.11271426 19.8277352,4.2979274 C19.6245442,4.48314054 19.5355981,4.76268563 19.5944019,5.03126074 C19.6532057,5.29983585 19.8508257,5.51663803 20.1128205,5.6 L21.1384615,5.92307692 L15.0564103,9.44102564 L12.5487179,7.74358974 C12.313191,7.58528599 12.0096364,7.56951692 11.7589744,7.7025641 L4.66666667,11.4615385 C4.41092879,11.5825358 4.24225054,11.8341498 4.22746911,12.1166808 C4.21268769,12.3992117 4.3541891,12.6670537 4.59590472,12.8140767 C4.83762034,12.9610998 5.14053263,12.9635717 5.38461538,12.8205128 L12.0512821,9.27692308 L14.574359,10.9846154 C14.8236039,11.157106 15.1509078,11.167146 15.4102564,11.0102564 L15.4102564,11.0102564 Z" id="形状"></path>
        </g>
    </g>
</svg>