<?xml version="1.0" encoding="UTF-8"?>
<svg width="28px" height="28px" viewBox="0 0 28 28" version="1.1" xmlns="http://www.w3.org/2000/svg" xmlns:xlink="http://www.w3.org/1999/xlink">
    <!-- Generator: Sketch 63.1 (92452) - https://sketch.com -->
    <title>icon/导航图标/agreement_implement</title>
    <desc>Created with Sketch.</desc>
    <g id="icon/导航图标/agreement_implement" stroke="none" stroke-width="1" fill="none" fill-rule="evenodd">
        <g id="icon/履约计划" fill="#000000">
            <path d="M19.3046289,13.5708008 C22.8613427,13.5708008 25.7446289,16.454087 25.7446289,20.0108008 L25.7446289,20.1308008 C25.7446289,23.6875146 22.8613427,26.5708008 19.3046289,26.5708008 L19.1846289,26.5708008 C15.6279151,26.5708008 12.7446289,23.6875146 12.7446289,20.1308008 L12.7446289,20.0108008 C12.7446289,16.454087 15.6279151,13.5708008 19.1846289,13.5708008 L19.3046289,13.5708008 Z M19.1946667,15.4335514 C16.688738,15.4559785 14.652671,17.4968475 14.6079223,20.0086862 C14.5855479,22.6550877 16.688738,24.7632381 19.3065385,24.7183838 C21.8124671,24.6735295 23.8485341,22.6326606 23.8932828,20.1208218 C23.9156572,17.4968475 21.8124671,15.4111242 19.1946667,15.4335514 Z M19,2 C20.6568542,2 22,3.34314575 22,5 L22.0009677,12.5819088 C21.0742738,12.206651 20.0612698,12 19,12 C14.581722,12 11,15.581722 11,20 C11,21.4576273 11.3898332,22.8242042 12.0709285,24.0011597 L7,24 C5.34314575,24 4,22.6568542 4,21 L4,5 C4,3.34314575 5.34314575,2 7,2 L19,2 Z M18.185049,16.9813165 L19.7793973,17.0313014 L19.8044176,19.5315462 L22.3067948,19.5440314 L22.3249,21.1380175 L19.0255296,21.1164798 L18.2600541,21.0759096 L18.219484,20.3104341 L18.185049,16.9813165 Z M11.25,9 L7.75,9 C7.33578644,9 7,9.33578644 7,9.75 C7,10.1296958 7.28215388,10.443491 7.64822944,10.4931534 L7.75,10.5 L11.25,10.5 C11.6642136,10.5 12,10.1642136 12,9.75 C12,9.33578644 11.6642136,9 11.25,9 Z M15.25,6 L7.75,6 C7.33578644,6 7,6.33578644 7,6.75 C7,7.12969577 7.28215388,7.44349096 7.64822944,7.49315338 L7.75,7.5 L15.25,7.5 C15.6642136,7.5 16,7.16421356 16,6.75 C16,6.33578644 15.6642136,6 15.25,6 Z" id="形状结合"></path>
        </g>
    </g>
</svg>