<?xml version="1.0" encoding="utf-8"?>
<!-- Generator: Adobe Illustrator 19.1.0, SVG Export Plug-In . SVG Version: 6.00 Build 0)  -->
<svg version="1.1" id="imissive_x5F_exchange" xmlns="http://www.w3.org/2000/svg" xmlns:xlink="http://www.w3.org/1999/xlink"
	 x="0px" y="0px" viewBox="0 0 1024 1024" style="enable-background:new 0 0 1024 1024;" xml:space="preserve">
<g>
	<path d="M699.6,538.3c82.4,0,99.4,3.3,183.4,17.6V100c0-21.1-4.7-36-25.8-36H167.6c-21.1,0-40.6,14.9-40.6,36v819.7
		c0,21.1,19.5,40.4,40.6,40.4h357.2c-35.6-40.3-47.6-108.8-47.6-178.6C477.1,642.5,550.5,538.3,699.6,538.3z M349.5,260h321.7
		c15.5,0,28,12.5,28,28c0,15.5-12.5,28-28,28H349.5c-15.5,0-28-12.5-28-28C321.5,272.5,334,260,349.5,260z M349.5,400h321.7
		c15.5,0,28,12.5,28,28s-12.5,28-28,28H349.5c-15.5,0-28-12.5-28-28S334,400,349.5,400z M461.2,610H349.5c-15.5,0-28-12.5-28-28
		s12.5-28,28-28h111.7c15.5,0,28,12.5,28,28S476.6,610,461.2,610z"/>
	<rect x="673" y="568" width="112" height="28"/>
	<rect x="561" y="624" width="336" height="56"/>
	<polygon points="813,904 757,904 757,722 701,722 701,904 645,904 645,708 589,708 589,960 869,960 869,708 813,708 	"/>
</g>
</svg>
