<?xml version="1.0" encoding="utf-8"?>
<!-- Generator: Adobe Illustrator 19.1.0, SVG Export Plug-In . SVG Version: 6.00 Build 0)  -->
<svg version="1.1" id="imissive_x5F_exchange" xmlns="http://www.w3.org/2000/svg" xmlns:xlink="http://www.w3.org/1999/xlink"
	 x="0px" y="0px" viewBox="0 0 1024 1024" style="enable-background:new 0 0 1024 1024;" xml:space="preserve">
<g>
	<path d="M733.9,521.4c-119.6,0-216.5,96.9-216.5,216.5c0,119.6,96.9,216.5,216.5,216.5s216.5-96.9,216.5-216.5
		C950.4,618.3,853.5,521.4,733.9,521.4z M862.2,792H704.1c-15.2,0-28.1-13-28.1-28.3V613.5c0-15.2,21.9-27.5,37.1-27.5
		c15.2,0,32.9,12.3,32.9,27.5V722h116.2c15.2,0,27.5,21.2,27.5,36.4C889.7,773.6,877.4,792,862.2,792z"/>
	<path d="M461.4,736.1c0-144.7,117.1-262.5,261.8-262.5c43.7,0,78.8,10.3,120.8,29.2V100.2c0-21.1-16.7-36.2-37.8-36.2H116.6
		C95.5,64,74,79.1,74,100.2v819.7c0,21.1,21.5,40.2,42.6,40.2h469.7C511.4,918,461.4,830.4,461.4,736.1z M298.5,260h321.7
		c15.5,0,28,12.5,28,28c0,15.5-12.5,28-28,28H298.5c-15.5,0-28-12.5-28-28C270.5,272.5,283,260,298.5,260z M298.5,400h321.7
		c15.5,0,28,12.5,28,28s-12.5,28-28,28H298.5c-15.5,0-28-12.5-28-28S283,400,298.5,400z M410.2,610H298.5c-15.5,0-28-12.5-28-28
		s12.5-28,28-28h111.7c15.5,0,28,12.5,28,28S425.6,610,410.2,610z"/>
</g>
</svg>
