<?xml version="1.0" standalone="no"?><!DOCTYPE svg PUBLIC "-//W3C//DTD SVG 1.1//EN" "http://www.w3.org/Graphics/SVG/1.1/DTD/svg11.dtd"><svg t="1521621570446" class="icon" style="" viewBox="0 0 1024 1024" version="1.1" xmlns="http://www.w3.org/2000/svg" p-id="9244" xmlns:xlink="http://www.w3.org/1999/xlink" width="200" height="200"><defs><style type="text/css"></style></defs><path d="M933.8 111.7H378.7c-14.2 0-25.7 11.5-25.7 25.7v111.8h495.9v289.6h85c14 0 25.4-11.2 25.7-25.2V137.5c-0.4-14.1-11.7-25.5-25.8-25.8z" p-id="9245"></path><path d="M765.5 297.9H93.6c-16.1 0-29.1 13-29.1 29.1v433.2c0 16.1 13 29.1 29.1 29.1h223.6l-14.5 104.5c-3.1 6.4-0.4 14.1 6 17.2 4.4 2.1 9.7 1.5 13.5-1.5L486 788.7h279.5c16.1 0 29.1-13 29.1-29.1V327c0-16.1-13-29.1-29.1-29.1zM280.3 550.6c-15.4 0-28-12.5-28-28 0-15.4 12.5-28 28-28 15.4 0 28 12.5 28 28-0.1 15.5-12.6 28-28 28z m167.7 0c-15.4 0-28-12.5-28-28 0-15.4 12.5-28 28-28 15.4 0 28 12.5 28 28-0.1 15.5-12.6 28-28 28z m167.7 0c-15.4 0-28-12.5-28-28 0-15.4 12.5-28 28-28 15.4 0 28 12.5 28 28-0.1 15.5-12.6 28-28 28z" p-id="9246"></path></svg>