<?xml version="1.0" standalone="no"?><!DOCTYPE svg PUBLIC "-//W3C//DTD SVG 1.1//EN" "http://www.w3.org/Graphics/SVG/1.1/DTD/svg11.dtd"><svg t="1521621649972" class="icon" style="" viewBox="0 0 1024 1024" version="1.1" xmlns="http://www.w3.org/2000/svg" p-id="9353" xmlns:xlink="http://www.w3.org/1999/xlink" width="200" height="200"><defs><style type="text/css"></style></defs><path d="M923.1 134H100.3c-19.8 0-35.8 16-35.8 35.8v532.6c0 19.8 16 35.8 35.8 35.8h272.8L356.3 867c-3.7 8.2-0.1 17.8 8.1 21.5 5.4 2.5 11.8 1.7 16.5-1.9L582 738.3h341.1c19.9 0 36.1-16 36.4-35.8V169.8c0-19.8-16-35.8-35.8-35.8h-0.6zM515.9 649.8c-25.4 0-45.9-20.6-45.9-45.9s20.6-45.9 45.9-45.9c25.4 0 45.9 20.6 45.9 45.9 0 24.9-19.9 45.3-44.8 45.9h-1.1zM550.6 470v18.5c0 19.2-15.5 34.7-34.7 34.7-18.9 0-34.2-15.3-34.2-34.2v-47.6c0-18.9 15.3-34.2 34.2-34.2 20.4 0 37-16.5 37-36.9s-16.5-37-36.9-37h-0.1c-20.4 0-37 16.5-37 37 0 18.9-15.3 34.2-34.2 34.2s-34.2-15.3-34.2-34.2c-0.1-58.4 47-106.1 105.5-106.3 58.5-0.3 106.1 46.9 106.3 105.4 0.2 45.4-28.6 85.9-71.7 100.6z" p-id="9354"></path></svg>