<?xml version="1.0" encoding="utf-8"?>
<!-- Generator: Adobe Illustrator 19.1.0, SVG Export Plug-In . SVG Version: 6.00 Build 0)  -->
<svg version="1.1" id="imissive_x5F_exchange" xmlns="http://www.w3.org/2000/svg" xmlns:xlink="http://www.w3.org/1999/xlink"
	 x="0px" y="0px" viewBox="0 0 1024 1024" style="enable-background:new 0 0 1024 1024;" xml:space="preserve">
<style type="text/css">
	.st0{clip-path:url(#SVGID_2_);}
</style>
<g>
	<g>
		<defs>
			<rect id="SVGID_1_" x="134.3" y="64" width="755.5" height="896"/>
		</defs>
		<clipPath id="SVGID_2_">
			<use xlink:href="#SVGID_1_"  style="overflow:visible;"/>
		</clipPath>
		<g class="st0">
			<path d="M320.8,263h324.6c15.2,0,18.6-7.8,18.6-20.8v-77.6c0-16.2-6.3-23.6-18.6-23.6h-15.2c-15.2,0-24.6-16.8-24.6-29.7
				c0-25.9-21.5-52.3-49-52.3h-144c-27.5,0-49,26.4-49,52.3c0,16.2-12.3,29.7-24.6,29.7h-18.3c-15.2,0-24.8,10.7-24.8,23.6v77.6
				C296,258.5,308.5,263,320.8,263z M486.4,112.9c30.6,0,52.1,25.9,52.1,55c0,35.5-24.6,55-52.1,55c-27.5,0-52.1-25.9-52.1-55
				C434.3,138.7,458.9,112.9,486.4,112.9z"/>
			<path d="M780.2,168H765c-15.2,0-29.7,11.3-29.7,27.5L733,197v113.3c0,16.2-10,25.9-22.3,25.9l-457.2,3.3
				c-15.2,0-25.5-12.9-25.5-25.9V200.3c0-16.2-8.2-32.3-20.5-32.3h-15.2c-39.8,0-60.3,29-60.3,64.7V864c0,29.2,29.6,68,66.5,68
				h572.6c30.6,0,56.9-35.6,56.9-68V229.3C828,200.2,814,168,780.2,168z M701.3,509.3L457.9,762.9c-13.4,14-35.2,14-48.7,0
				l-88.8-101.4c-9.7-7.8-24.1-39.2-8.6-50.7c15.7-11.7,33.1,2.3,39.8,9.3l81.7,70.9l253.9-223.3c8.9-9.3,26.3-10.5,34.4,0
				C727.3,474.9,714.8,495.3,701.3,509.3z"/>
		</g>
	</g>
</g>
</svg>
