<?xml version="1.0" encoding="utf-8"?>
<!-- Generator: Adobe Illustrator 19.1.0, SVG Export Plug-In . SVG Version: 6.00 Build 0)  -->
<svg version="1.1" id="imissive_x5F_exchange" xmlns="http://www.w3.org/2000/svg" xmlns:xlink="http://www.w3.org/1999/xlink"
	 x="0px" y="0px" viewBox="0 0 1024 1024" style="enable-background:new 0 0 1024 1024;" xml:space="preserve">
<g>
	<path d="M482.8,64h-32.8C361.9,64,288,137.8,288,225.2v150.5c0,25.9,14,50.5,28,67.8v123.9c-28,16.7-121.7,65.6-207.8,135.7
		c-22,18-31.2,45.1-31.2,74.1v103.2C77,893,84.5,906,97.5,906c0,0,168.7,0,344.8,0h92.4c-39.9-42-65.4-104.3-65.4-168.8
		c0-99.4,56.8-186.4,140.8-227.1v-66.7c14-17.1,28-41.6,28-67.8V224.9C638,137.5,571,64,482.8,64z"/>
	<g>
		<g>
			<path d="M572.9,761.5v86.1L746.6,960V771.7L572.9,668.3V761.5z M759.7,527.8L572.4,638.5l187.3,112.4l187.3-112.4L759.7,527.8z
				 M772.7,960l173.7-112.4v-86.1v-93.2L772.7,771.7V960z"/>
		</g>
	</g>
</g>
</svg>
