<?xml version="1.0" encoding="utf-8"?>
<!-- Generator: Adobe Illustrator 19.1.0, SVG Export Plug-In . SVG Version: 6.00 Build 0)  -->
<svg version="1.1" id="imissive_x5F_exchange" xmlns="http://www.w3.org/2000/svg" xmlns:xlink="http://www.w3.org/1999/xlink"
	 x="0px" y="0px" viewBox="0 0 1024 1024" style="enable-background:new 0 0 1024 1024;" xml:space="preserve">
<g>
	<g>
		<g>
			<path d="M99.9,548.4v178.5L460,960V569.7L99.9,355.3V548.4z M487,64L98.7,293.5L487,526.6l388.3-233.1L487,64z"/>
		</g>
	</g>
	<g>
		<path d="M788.1,531.5L668,664.4c37.2,10.6,68,37.5,83.2,73.3L867,600.1C857.5,563,825.8,535.6,788.1,531.5z"/>
		<path d="M860.6,524.2c14.5,12.1,25.7,27,33.6,43.5l31-36.9c-3.5-39.5-38.4-68.6-77.9-65.1l-31,34.3
			C832.4,505,847.4,513.1,860.6,524.2z"/>
		<path d="M647.3,697.4l-30,104.9l103.9-39.5C711.5,728.4,682.3,703,647.3,697.4z"/>
	</g>
	<polygon points="763.9,777.7 580.3,845.3 621.4,662.4 878,368.5 878,355.3 514,569.7 514,960 878,726.9 878,636.4 	"/>
</g>
</svg>
