<?xml version="1.0" encoding="utf-8"?>
<!-- Generator: Adobe Illustrator 19.1.0, SVG Export Plug-In . SVG Version: 6.00 Build 0)  -->
<svg version="1.1" id="imissive_x5F_exchange" xmlns="http://www.w3.org/2000/svg" xmlns:xlink="http://www.w3.org/1999/xlink"
	 x="0px" y="0px" viewBox="0 0 1024 1024" style="enable-background:new 0 0 1024 1024;" xml:space="preserve">
<g>
	<g>
		<g>
			<path d="M68.1,547.4v178.1l359.3,232.6V568.7l-359.3-214V547.4z M454.5,64L67,293l387.4,232.6L841.9,293L454.5,64z"/>
		</g>
	</g>
	<g>
		<path d="M594.5,779H936c11.6,0,21-9.4,21-21v-14.8c0-11.2-9.1-20.3-20.3-20.3H748v-70.8L594.5,779z"/>
		<path d="M953.9,829.9H611.7c-9.8,0-17.8,7.9-17.8,17.8v12.1c0,9.5,7.7,17.3,17.3,17.3H803v83L953.9,829.9z"/>
		<polygon points="845,354.7 482,568.7 482,958.1 524,930.8 524,751.3 845,495.8 		"/>
	</g>
</g>
</svg>
