<?xml version="1.0" encoding="utf-8"?>
<!-- Generator: Adobe Illustrator 19.1.0, SVG Export Plug-In . SVG Version: 6.00 Build 0)  -->
<svg version="1.1" id="imissive_x5F_exchange" xmlns="http://www.w3.org/2000/svg" xmlns:xlink="http://www.w3.org/1999/xlink"
	 x="0px" y="0px" viewBox="0 0 1024 1024" style="enable-background:new 0 0 1024 1024;" xml:space="preserve">
<g>
	<g>
		<g>
			<path d="M65.1,547.4v177.8l358.6,232.1V568.6L65.1,355V547.4z M450.7,64.9L64,293.5l386.7,232.1l386.7-232.1L450.7,64.9z"/>
		</g>
	</g>
	<g>
		<path d="M835.2,560.8c-39.8,0.1-77.2,19.1-100.7,51.2c-23.5,32.1-30.3,73.5-18.3,111.5L566.1,873.2c-1.6,1.6-3.1,3.8-3.1,6.1v68.8
			c0,4.8,4.9,10.8,9.7,10.8h60.3c2.3,0,4.5-2,6.1-3.6l18.4-17.9c1.6-1.6,3.6-4.4,3.6-6.6V903h25.3c2.3,0,1.5-0.7,3.2-2.3
			c1.6-1.6-0.4-3.6-0.4-5.9V875h30c2.3,0,4.5-3.1,6.1-4.7l65.8-66.9c38.4,14.5,81.4,8.7,115.1-14.6c33.7-23.3,53.9-61.9,54-102.9
			C959.9,617,904.1,560.9,835.2,560.8z M748.1,753L748.1,753L601.5,899.6c-1.1,1.2-2.7,1.7-4.3,1.3c-1.6-0.4-2.8-1.6-3.2-3.2
			c-0.4-1.6,0.1-3.2,1.4-4.3L742,746.9c1.7-1.6,4.4-1.6,6,0.1C749.7,748.6,749.7,751.3,748.1,753z M897.1,736L897.1,736l-6.1,7.8
			L775.4,628.9l6.1-5.7c15.3-15.4,36.1-23.8,57.8-23.7c21.9,0,42.4,6.9,57.8,22.4C929,653.9,929,708,897.1,736z"/>
		<path d="M842,472.2V355L480,568.6v289l167.1-172C647.1,685.6,631,513.4,842,472.2z"/>
	</g>
</g>
</svg>
