<?xml version="1.0" encoding="utf-8"?>
<!-- Generator: Adobe Illustrator 19.1.0, SVG Export Plug-In . SVG Version: 6.00 Build 0)  -->
<svg version="1.1" id="imissive_x5F_exchange" xmlns="http://www.w3.org/2000/svg" xmlns:xlink="http://www.w3.org/1999/xlink"
	 x="0px" y="0px" viewBox="0 0 1024 1024" style="enable-background:new 0 0 1024 1024;" xml:space="preserve">
<style type="text/css">
	.st0{clip-path:url(#SVGID_1_);}
	.st1{fill-rule:evenodd;clip-rule:evenodd;}
</style>
<g>
	<g>
		<defs>
			<rect id="SVGID_5_" x="64.7" y="64" width="894.6" height="896"/>
		</defs>
		<clipPath id="SVGID_1_">
			<use xlink:href="#SVGID_5_"  style="overflow:visible;"/>
		</clipPath>
		<path class="st0" d="M919.6,136H736V92.2c0-14.5-11.8-26.2-26.2-26.2h-25.3c-13.3,0-32.5,9.5-32.5,22.7V136H363V94.8
			c0-15.9-12.9-28.8-28.8-28.8h-17.6C300.8,66,288,78.8,288,94.6V136H101.8C81,136,64,153,64,173.8v750.5C64,945,81,962,101.8,962
			h819.4c21.3,0,38.8-17.5,38.8-38.8V176.4C960,154.2,941.8,136,919.6,136z M876,878H134V360h742V878z"/>
	</g>
</g>
<path class="st1" d="M732.3,512.2L465.8,789.8c-14.7,15.3-38.6,15.3-53.3,0l-97.2-111c-10.6-8.5-27.4-47.9-10.4-60.5
	c17.2-12.8,42.3-4.4,49.6,3.2L440,692l273-232.4c9.8-10.2,30.8-8.5,39.7,3C758.8,470.6,747,496.9,732.3,512.2z"/>
</svg>
