<?xml version="1.0" encoding="utf-8"?>
<!-- Generator: Adobe Illustrator 19.1.0, SVG Export Plug-In . SVG Version: 6.00 Build 0)  -->
<svg version="1.1" id="imissive_x5F_exchange" xmlns="http://www.w3.org/2000/svg" xmlns:xlink="http://www.w3.org/1999/xlink"
	 x="0px" y="0px" viewBox="0 0 1024 1024" style="enable-background:new 0 0 1024 1024;" xml:space="preserve">
<g>
	<g>
		<path d="M919.6,134H736V90.3c0-14.5-11.8-26.3-26.3-26.3h-28.3c-13.3,0-29.4,9.5-29.4,22.7V134H381V95.5
			c0-17.4-14.1-31.5-31.5-31.5h-30.9C301.8,64,288,77.8,288,94.6V134H104.4C82.2,134,64,152.2,64,174.4v745.9
			c0,21.8,17.9,39.7,39.7,39.7h819.4c20.4,0,36.9-16.5,36.9-36.9V174.4C960,152.2,941.8,134,919.6,134z M876,876H134V358h742V876z"
			/>
	</g>
	<g>
		<path d="M269.1,727.9c25.4,19,55.1,28.5,89.1,28.5c21.5,0,38.6-4.8,51.2-14.3s18.9-23.1,18.9-40.6c0-18-7.5-31.8-22.5-41.3
			S369.8,646,342.7,646h-34v-61.3H340c51.2,0,76.8-17.2,76.8-51.7c0-32.5-19.6-48.7-58.8-48.7c-25.6,0-50.4,8.4-74.6,25.1v-65.7
			c26.3-13.6,57.2-20.4,92.8-20.4c36.1,0,65.4,8.3,87.9,25s33.7,39.7,33.7,69.3c0,49.9-25.3,81.2-75.8,94v1.2
			c26.6,3,47.8,12.7,63.7,29.2s23.9,36.5,23.9,60.2c0,36.3-13.2,64.6-39.7,84.9s-61.8,30.5-105.9,30.5c-39.2,0-70.8-6.5-94.7-19.4
			V727.9z"/>
		<path d="M754.9,421.3v389.6h-80v-300c-9.8,8.5-23.3,16.2-40.4,23s-32.7,11-47,12.7v-68.2c45-13.1,83.8-32.2,116.6-57.1H754.9z"/>
	</g>
</g>
</svg>
