<?xml version="1.0" encoding="utf-8"?>
<!-- Generator: Adobe Illustrator 22.0.1, SVG Export Plug-In . SVG Version: 6.00 Build 0)  -->
<svg version="1.1" id="图层_1" xmlns="http://www.w3.org/2000/svg" xmlns:xlink="http://www.w3.org/1999/xlink" x="0px" y="0px"
	 viewBox="0 0 1024 1024" style="enable-background:new 0 0 1024 1024;" xml:space="preserve">
<g>
	<g>
		<path d="M383.7,672.5V285.7c0-29.3,23.7-53,53-53l0,0c29.3,0,53,23.7,53,53v225.9v2.4v-48.6c0-29.3,23.7-53,53-53l0,0
			c29.3,0,53,23.7,53,53v48.6v49.4v-48.6c0-29.3,23.7-53,53-53l0,0c29.3,0,53,23.7,53,53v48.6v54.9v-48.6c0-29.3,23.7-53,53-53l0,0
			c29.3,0,53,23.7,53,53v155.8l-85,234.1H442.6L300.5,754.1l-84.2-226.7c0,0,74-52.6,109.1,12.5c26.1,48.4,58.2,75.7,58.2,75.7"/>
	</g>
	<path d="M283.9,339.4c-17-28.1-25.9-60.5-25.9-93.5c0-100,81.4-181.4,181.4-181.4s181.4,81.4,181.4,181.4
		c0,30.1-7.5,59.9-21.8,86.2l-49.3-26.7c9.8-18.2,15-38.8,15-59.6c0-69.1-56.2-125.3-125.3-125.3S314,176.8,314,245.9
		c0,22.8,6.2,45.1,17.9,64.5L283.9,339.4z"/>
</g>
</svg>
