<?xml version="1.0" encoding="utf-8"?>
<!-- Generator: Adobe Illustrator 19.1.0, SVG Export Plug-In . SVG Version: 6.00 Build 0)  -->
<svg version="1.1" id="imissive_x5F_exchange" xmlns="http://www.w3.org/2000/svg" xmlns:xlink="http://www.w3.org/1999/xlink"
	 x="0px" y="0px" viewBox="0 0 1024 1024" style="enable-background:new 0 0 1024 1024;" xml:space="preserve">
<style type="text/css">
	.st0{fill-rule:evenodd;clip-rule:evenodd;}
</style>
<g>
	<path d="M916.9,134H736V90.3C736,75,718.4,64,703.2,64h-22.9C667,64,652,73.5,652,86.7V134H358V88.6c0-14.3-11.3-24.6-25.6-24.6
		h-20C296.6,64,288,75.5,288,91.3V134H97.5C77,134,64,154,64,174.4v744.9c0,20.5,13,40.6,33.5,40.6h819.4
		c20.5,0,43.1-20.1,43.1-40.6V174.4C960,154,937.4,134,916.9,134z M876,876H134V358h742V876z"/>
	<g>
		<g>
			<path class="st0" d="M515.1,406.2h-7.3c-20.9,0-37.8,16.9-37.8,37.8v231.1c0,21.6,17.5,39.1,39.1,39.1h5.6
				c21.7,0,39.4-17.6,39.4-39.4V445.1C554,423.6,536.6,406.2,515.1,406.2z M519.5,753.9c-29.2-5.5-54.3,19.6-48.8,48.7
				c3.1,16.2,16.3,29.5,32.5,32.5c29.2,5.5,54.3-19.6,48.8-48.8C549,770.2,535.7,757,519.5,753.9z"/>
		</g>
	</g>
</g>
</svg>
