<?xml version="1.0" encoding="utf-8"?>
<!-- Generator: Adobe Illustrator 19.1.0, SVG Export Plug-In . SVG Version: 6.00 Build 0)  -->
<svg version="1.1" id="imissive_x5F_exchange" xmlns="http://www.w3.org/2000/svg" xmlns:xlink="http://www.w3.org/1999/xlink"
	 x="0px" y="0px" viewBox="0 0 1024 1024" style="enable-background:new 0 0 1024 1024;" xml:space="preserve">
<path d="M830.2,64H193.8c-26.8,0-48.5,21.7-48.5,48.5v799c0,26.8,21.7,48.5,48.5,48.5h636.4c26.8,0,48.5-21.7,48.5-48.5v-799
	C878.7,85.7,857,64,830.2,64z M320.3,774.3c-25.4,0-46.1-20.6-46.1-46.1s20.6-46.1,46.1-46.1s46.1,20.6,46.1,46.1
	S345.8,774.3,320.3,774.3z M320.3,561.1c-25.4,0-46.1-20.6-46.1-46.1c0-25.5,20.6-46.1,46.1-46.1s46.1,20.6,46.1,46.1
	C366.4,540.5,345.8,561.1,320.3,561.1z M320.3,342.6c-25.4,0-46.1-20.6-46.1-46.1s20.6-46.1,46.1-46.1s46.1,20.6,46.1,46.1
	S345.8,342.6,320.3,342.6z M716.1,756.1H446.7c-15.5,0-28-12.5-28-28s12.5-28,28-28h269.4c15.5,0,28,12.5,28,28
	S731.6,756.1,716.1,756.1z M716.1,543H446.7c-15.5,0-28-12.5-28-28s12.5-28,28-28h269.4c15.5,0,28,12.5,28,28S731.6,543,716.1,543z
	 M716.1,324.5H446.7c-15.5,0-28-12.5-28-28s12.5-28,28-28h269.4c15.5,0,28,12.5,28,28S731.6,324.5,716.1,324.5z"/>
</svg>
