<?xml version="1.0" encoding="utf-8"?>
<!-- Generator: Adobe Illustrator 19.1.0, SVG Export Plug-In . SVG Version: 6.00 Build 0)  -->
<svg version="1.1" id="imissive_x5F_exchange" xmlns="http://www.w3.org/2000/svg" xmlns:xlink="http://www.w3.org/1999/xlink"
	 x="0px" y="0px" viewBox="0 0 1024 1024" style="enable-background:new 0 0 1024 1024;" xml:space="preserve">
<g>
	<path d="M443,748.3C438.6,561,582.2,460.2,739,460.2c28.1,0,51,2.8,79,10.5V107.8c0-26.7-13.7-43.8-40.4-43.8H142.2
		C115.5,64,90,81.1,90,107.8v797.7c0,26.7,25.5,54.5,52.2,54.5H546C491.3,908.2,444.9,829.5,443,748.3z M394.7,260h269
		c15.4,0,27.9,12.6,27.9,28s-12.5,28-27.9,28h-269c-15.4,0-27.9-12.6-27.9-28S379.2,260,394.7,260z M268.5,527.7
		c-25.4,0-46-20.6-46-46c0-25.4,20.6-46,46-46s46,20.6,46,46C314.5,507.1,293.9,527.7,268.5,527.7z M268.5,337.5
		c-25.4,0-46-20.6-46-46s20.6-46,46-46s46,20.6,46,46S293.9,337.5,268.5,337.5z M366.8,484c0-15.4,12.5-28,27.9-28h72.8
		c15.4,0,27.9,12.6,27.9,28c0,15.4-12.5,28-27.9,28h-72.8C379.2,512,366.8,499.4,366.8,484z"/>
	<path d="M718.8,526.5c-119.1,0-215.6,96.5-215.6,215.6c0,119,96.5,215.6,215.6,215.6S934.4,861.1,934.4,742
		C934.4,623,837.9,526.5,718.8,526.5z M813.1,764H623.8c-20.7,0-37.6-14.3-37.6-35s16.9-35,37.6-35h189.3c20.7,0,37.6,14.3,37.6,35
		S833.8,764,813.1,764z"/>
</g>
</svg>
