<?xml version="1.0" encoding="utf-8"?>
<!-- Generator: Adobe Illustrator 19.1.0, SVG Export Plug-In . SVG Version: 6.00 Build 0)  -->
<svg version="1.1" id="imissive_x5F_exchange" xmlns="http://www.w3.org/2000/svg" xmlns:xlink="http://www.w3.org/1999/xlink"
	 x="0px" y="0px" viewBox="0 0 1024 1024" style="enable-background:new 0 0 1024 1024;" xml:space="preserve">
<g>
	<path d="M458.9,709.2H931c16,0,29-13,29-29v-20.4c0-15.5-12.5-28-28-28H671v-97.9L458.9,709.2z"/>
	<path d="M955.7,779.6h-473c-13.6,0-24.5,11-24.5,24.5v16.7c0,13.2,10.7,23.9,23.9,23.9h265.1v114.8L955.7,779.6z"/>
	<path d="M399.8,836.7c0-176.1,140.9-345.1,317-345.1c26.6,0,61.2,2.2,75.2,8.3V110c0-26.7-17.9-46-44.7-46h-635
		C85.7,64,64,83.3,64,110v797.2C64,934,85.7,960,112.4,960h311.3C408.3,918,399.8,879.6,399.8,836.7z M364.7,260h268.8
		c15.4,0,27.9,12.6,27.9,28s-12.5,28-27.9,28H364.7c-15.4,0-27.9-12.6-27.9-28S349.3,260,364.7,260z M238.6,529.6
		c-25.4,0-46-20.6-46-46c0-25.4,20.6-46,46-46s46,20.6,46,46C284.6,509,264,529.6,238.6,529.6z M238.6,339.6c-25.4,0-46-20.6-46-46
		c0-25.4,20.6-46,46-46s46,20.6,46,46C284.6,319,264,339.6,238.6,339.6z M336.8,484c0-15.4,12.5-28,27.9-28h72.8
		c15.4,0,27.9,12.6,27.9,28c0,15.4-12.5,28-27.9,28h-72.8C349.3,512,336.8,499.4,336.8,484z"/>
</g>
</svg>
