<?xml version="1.0" encoding="utf-8"?>
<!-- Generator: Adobe Illustrator 19.1.0, SVG Export Plug-In . SVG Version: 6.00 Build 0)  -->
<svg version="1.1" id="imissive_x5F_exchange" xmlns="http://www.w3.org/2000/svg" xmlns:xlink="http://www.w3.org/1999/xlink"
	 x="0px" y="0px" viewBox="0 0 1024 1024" style="enable-background:new 0 0 1024 1024;" xml:space="preserve">
<g>
	<path d="M191.4,517.5h643.3c8.3,0,15-14.8,15-25.7c0-10.9-6.7-25.7-15-25.7H191.4c-8.3,0-15,14.8-15,25.7
		C176.4,502.7,183.1,517.5,191.4,517.5z"/>
	<path d="M191.4,335.8h643.3c8.3,0,15-12.8,15-23.7s-6.7-22.7-15-22.7H191.4c-8.3,0-15,11.8-15,22.7S183.1,335.8,191.4,335.8z"/>
	<path d="M191.4,164.2h643.3c8.3,0,15-11.8,15-22.7s-6.7-24.7-15-24.7H191.4c-8.3,0-15,13.8-15,24.7S183.1,164.2,191.4,164.2z"/>
	<path d="M960,704.2c-5-54.9-53.6-95.4-108.5-90.4l-234.7,59.9c0.3,6.1,0.2,12.3-0.6,18.5c-3.6,26.8-17.4,50.5-38.9,66.9
		c-17.8,13.5-39.1,20.7-61.1,20.7c-4.6,0-9.2-0.3-13.8-1l-188.6-27.4l4.6-32.2l188.5,27.4c18.1,2.4,36.1-2.3,50.6-13.4
		c14.6-11.1,24-27.2,26.4-45.3c2.4-18.2-2.3-36.2-13.4-50.8c-11.1-14.6-27.2-24-45.4-26.5l-228.2-35.9c-34.4-4.7-66,19.2-71.2,53.4
		l-0.4-0.1L64,591.4V797l334.1,76.3l3.8,3c41.3,41.3,108.3,41.3,149.6,0l-3.4,1.4L960,704.2z"/>
</g>
</svg>
