<?xml version="1.0" encoding="utf-8"?>
<!-- Generator: Adobe Illustrator 19.1.0, SVG Export Plug-In . SVG Version: 6.00 Build 0)  -->
<svg version="1.1" id="imissive_x5F_exchange" xmlns="http://www.w3.org/2000/svg" xmlns:xlink="http://www.w3.org/1999/xlink"
	 x="0px" y="0px" viewBox="0 0 1024 1024" style="enable-background:new 0 0 1024 1024;" xml:space="preserve">
<style type="text/css">
	.st0{fill:#040000;}
</style>
<g>
	<g>
		<g>
			<path d="M871.7,717.6h-84.9V604.5L590.4,773.9l196.4,169.4v-113h84.9c31.1,0,56.3-25.2,56.3-56.3v0
				C928,742.8,902.8,717.6,871.7,717.6z"/>
		</g>
	</g>
	<path class="st0" d="M335.3,628h288.3c48-40,106.4-67.2,152.4-76.7V81H149c-26.6,13-53,46.5-53,73.1v713.3
		c0,47.9,31.7,67.6,74.3,67.6h476.2c-26.7-8-47-25-61.8-41H170.3c-16,0-26.6-10.5-26.6-26.5c0-16,10.6-26.5,26.6-26.5h377.9
		c-5.2-12-13.3-48.1-12.9-65c0.8-38.7,12.9-69,31.8-95H335.3c-14.7,0-26.7-11.8-26.7-26.5C308.6,639.8,320.6,628,335.3,628z
		 M232.8,677.9c-16.6,0-30-13.4-30-30c0-16.6,13.4-30,30-30s30,13.4,30,30C262.8,664.4,249.4,677.9,232.8,677.9z M232.8,504.5
		c-16.6,0-30-13.4-30-30c0-16.6,13.4-30,30-30s30,13.4,30,30C262.8,491,249.4,504.5,232.8,504.5z M232.8,331c-16.6,0-30-13.4-30-30
		c0-16.6,13.4-30,30-30s30,13.4,30,30C262.8,317.6,249.4,331,232.8,331z M335.3,281h293.3c14.7,0,26.7,12.3,26.7,27
		s-11.9,27-26.7,27H335.3c-14.7,0-26.7-12.3-26.7-27S320.6,281,335.3,281z M335.3,454h293.3c14.7,0,26.7,12.3,26.7,27
		c0,14.7-11.9,27-26.7,27H335.3c-14.7,0-26.7-12.3-26.7-27C308.6,466.3,320.6,454,335.3,454z"/>
</g>
</svg>
