<?xml version="1.0" encoding="utf-8"?>
<!-- Generator: Adobe Illustrator 19.1.0, SVG Export Plug-In . SVG Version: 6.00 Build 0)  -->
<svg version="1.1" id="imissive_x5F_exchange" xmlns="http://www.w3.org/2000/svg" xmlns:xlink="http://www.w3.org/1999/xlink"
	 x="0px" y="0px" viewBox="0 0 1024 1024" style="enable-background:new 0 0 1024 1024;" xml:space="preserve">
<g>
	<polygon points="366.4,487 333.1,571 400.5,571 367.5,487 	"/>
	<path d="M788.3,438.9c-26.1-126.9-138.1-224-276.3-224c-108.3,0-201.6,59.8-246.4,149.4C149.9,379.1,64,470.8,64,586.6
		C64,709.8,164.8,809,288,809h485.3C877.9,809,960,728.4,960,623.9C960,526.8,881.6,446.3,788.3,438.9z M428.5,655l-18.8-56h-86
		l-18.8,56h-32.5l77-196h34.7l77,196H428.5z M616,655H476V459h28v168h112V655z M784,655H644V459h28v168h112V655z"/>
</g>
</svg>
