<?xml version="1.0" encoding="utf-8"?>
<!-- Generator: Adobe Illustrator 19.1.0, SVG Export Plug-In . SVG Version: 6.00 Build 0)  -->
<svg version="1.1" id="imissive_x5F_exchange" xmlns="http://www.w3.org/2000/svg" xmlns:xlink="http://www.w3.org/1999/xlink"
	 x="0px" y="0px" viewBox="0 0 1024 1024" style="enable-background:new 0 0 1024 1024;" xml:space="preserve">
<style type="text/css">
	.st0{clip-path:url(#SVGID_1_);}
</style>
<g>
	<g>
		<defs>
			<rect id="SVGID_2_" x="64" y="88.5" width="896" height="847"/>
		</defs>
		<clipPath id="SVGID_1_">
			<use xlink:href="#SVGID_2_"  style="overflow:visible;"/>
		</clipPath>
		<path class="st0" d="M373.7,189.2c0,55.1-44.2,99.7-98.9,99.7c-54.5,0-98.8-44.6-98.8-99.7c0-55.1,44.3-99.8,98.8-99.8
			C329.4,89.4,373.7,134.1,373.7,189.2 M664.4,630.5c-83.1,0-150.5,68.1-150.5,152.1c0,83.9,67.4,151.9,150.5,151.9
			c83.2,0,150.6-68,150.6-151.9C814.9,698.5,747.5,630.5,664.4,630.5 M664.4,852.4c-38.3,0-69.3-31.4-69.3-69.9
			c0-38.7,31-70,69.3-70c38.3,0,69.3,31.4,69.3,70c0.1,18.5-7.2,36.2-20.2,49.3C700.5,844.9,682.8,852.3,664.4,852.4 M705.5,393.2
			c-5.3-23.6-209.1-244.3-260.5-210.5c-36.9,24.3-5.6,62.8-5.6,62.8c68.8,16.9,202,173.7,202,173.7l-212.1,82.1
			c-25.2,16.1-72.5,16.1-72.5,101.4v120.6c0,37.3,46,79.5,82.9,79.5h35.6c-0.6,0-0.9-16.3-0.9-22.8c0-104.6,84-191.2,187.6-191.2
			c103.7,0,187.7,87.4,187.7,192.1c0,6.5-0.4,21.9-1,21.9H960V292.3L705.5,393.2 M413.4,601.5c-40.6-79.6,124.3-84,124.3-84
			L413.4,601.5 M456,412c0,0-36.1-24.9-100.1,4.1c-84.4,38.1-69.9-108.7-156.8-138.4c0,0-87.7,0-125.6,148.4c0,0-29.7,96.4,15,223.2
			v218.8c0,0,44.7,70,111.7,0v-222c0,0-1-138.4,50.1-189.9c0,0,11.4,48.3,98.3,45.1C348.6,501.4,541,474,456,412"/>
	</g>
</g>
</svg>
