<?xml version="1.0" encoding="utf-8"?>
<!-- Generator: Adobe Illustrator 19.1.0, SVG Export Plug-In . SVG Version: 6.00 Build 0)  -->
<svg version="1.1" id="imissive_x5F_exchange" xmlns="http://www.w3.org/2000/svg" xmlns:xlink="http://www.w3.org/1999/xlink"
	 x="0px" y="0px" viewBox="0 0 1024 1024" style="enable-background:new 0 0 1024 1024;" xml:space="preserve">
<g>
	<path d="M512,69.6C267,69.6,68.3,267.7,68.3,512C68.3,756.3,267,954.4,512,954.4c245,0,443.7-198.1,443.7-442.4
		C955.7,267.7,757,69.6,512,69.6z M271,385.4c0-22.4,12-43.1,31.4-54.4c19.4-11.2,43.3-11.2,62.8,0c19.4,11.2,31.4,31.9,31.4,54.4
		c0,22.4-12,43.1-31.4,54.4c-19.4,11.2-43.3,11.2-62.8,0C283,428.5,271,407.8,271,385.4z M721.3,656.2c-53,59.8-129.2,94-209,94
		c-40.3,0-79-8.4-115.5-25c-35.1-16-66.1-38.7-92-67.4c-9.1-10.2-8.3-25.8,1.8-34.8c10.2-9.1,25.8-8.3,34.8,1.8
		c43.6,48.4,105.8,76.1,170.8,76.1c65.7,0,128.5-28.2,172.1-77.5c9.1-10.2,24.7-11.2,34.8-2.1C729.4,630.4,730.4,646,721.3,656.2z
		 M693,448.3c-34.8,0-63-28.2-63-63c0-34.8,28.2-63,63-63c34.8,0,63,28.2,63,63C755.9,420.2,727.8,448.3,693,448.3z"/>
</g>
</svg>
