<?xml version="1.0" encoding="utf-8"?>
<!-- Generator: Adobe Illustrator 19.1.0, SVG Export Plug-In . SVG Version: 6.00 Build 0)  -->
<svg version="1.1" id="imissive_x5F_exchange" xmlns="http://www.w3.org/2000/svg" xmlns:xlink="http://www.w3.org/1999/xlink"
	 x="0px" y="0px" viewBox="0 0 1024 1024" style="enable-background:new 0 0 1024 1024;" xml:space="preserve">
<path d="M868.6,147.5c0,0-1.9,15.6-125.5,8.7C619.4,149.3,531.8,64,512,64c-19.8,0-108.5,85.3-231,92.2
	c-122.6,6.9-125.5-8.7-125.5-8.7s-38,367.3,55.9,530.1C305.2,840.3,512,960,512,960s207.1-120.5,300.7-282.4
	C906.3,515.6,868.6,147.5,868.6,147.5z M377.8,665c-16.9,0-30.6-13.7-30.6-30.6s13.7-30.6,30.6-30.6s30.6,13.7,30.6,30.6
	S394.7,665,377.8,665z M377.8,525c-16.9,0-30.6-13.7-30.6-30.6s13.7-30.6,30.6-30.6s30.6,13.7,30.6,30.6S394.7,525,377.8,525z
	 M377.8,385c-16.9,0-30.6-13.7-30.6-30.6s13.7-30.6,30.6-30.6s30.6,13.7,30.6,30.6S394.7,385,377.8,385z M612.8,666H504
	c-15.5,0-28.1-12.5-28.1-28c0-15.5,12.6-28,28.1-28h108.8c15.5,0,28.1,12.5,28.1,28C640.9,653.5,628.3,666,612.8,666z M475.9,498
	c0-15.5,12.6-28,28.1-28h114.2c15.5,0,28.1,12.5,28.1,28c0,15.5-12.6,28-28.1,28H504C488.4,526,475.9,513.5,475.9,498z M712.3,386
	H504c-15.5,0-28.1-12.5-28.1-28c0-15.5,12.6-28,28.1-28h208.3c15.5,0,28.1,12.5,28.1,28C740.4,373.5,727.8,386,712.3,386z"/>
</svg>
