<?xml version="1.0" standalone="no"?><!DOCTYPE svg PUBLIC "-//W3C//DTD SVG 1.1//EN" "http://www.w3.org/Graphics/SVG/1.1/DTD/svg11.dtd"><svg class="icon" width="200px" height="200.00px" viewBox="0 0 1024 1024" version="1.1" xmlns="http://www.w3.org/2000/svg"><path fill="#333333" d="M97.4 242.5H117c18.1 0 32.9-14.8 32.9-32.9V190c0-18.1-14.8-32.9-32.9-32.9H97.4c-18.1 0-32.9 14.8-32.9 32.9v19.6c0 18.1 14.8 32.9 32.9 32.9zM97.4 568H117c18.1 0 32.9-14.8 32.9-32.9v-19.6c0-18.1-14.8-32.9-32.9-32.9H97.4c-18.1 0-32.9 14.8-32.9 32.9v19.6c0 18.1 14.8 32.9 32.9 32.9zM117 781.5H97.4c-18.1 0-32.9 14.8-32.9 32.9V834c0 18.1 14.8 32.9 32.9 32.9H117c18.1 0 32.9-14.8 32.9-32.9v-19.6c0-18.1-14.8-32.9-32.9-32.9zM308.4 231.8h619.1c17.6 0 32-14.4 32-32s-14.4-32-32-32H308.4c-17.6 0-32 14.4-32 32s14.4 32 32 32zM927.5 493.3H308.4c-17.6 0-32 14.4-32 32s14.4 32 32 32h619.1c17.6 0 32-14.4 32-32s-14.4-32-32-32zM927.5 792.1H308.4c-17.6 0-32 14.4-32 32s14.4 32 32 32h619.1c17.6 0 32-14.4 32-32 0-17.5-14.4-32-32-32z" /></svg>