<?xml version="1.0" encoding="utf-8"?>
<!-- Generator: Adobe Illustrator 19.1.0, SVG Export Plug-In . SVG Version: 6.00 Build 0)  -->
<svg version="1.1" id="imissive_x5F_exchange" xmlns="http://www.w3.org/2000/svg" xmlns:xlink="http://www.w3.org/1999/xlink"
	 x="0px" y="0px" viewBox="0 0 1024 1024" style="enable-background:new 0 0 1024 1024;" xml:space="preserve">
<style type="text/css">
	.st0{fill-rule:evenodd;clip-rule:evenodd;}
</style>
<g>
	<path class="st0" d="M747.6,343c9.6,0,31.4-0.6,31.4,0.4v-96.1c0-19.4-21.9-29.3-41.3-29.3H93.9c-19.4,0-29.9,9.9-29.9,29.3v474.2
		c0,19.4,10.5,39.5,29.9,39.5h438.5c-31.1-43-49.2-98-49.2-155.2C483.3,461.2,603,343,747.6,343z M436,632H136v-44.8l121.3-56.1
		L222,475.6v-69.7c0-38.9,32.6-68.5,71.5-68.5c38.9,0,71.5,29.6,71.5,68.5v69.7l-39.7,55.6L436,587.2V632z"/>
	<path class="st0" d="M751,506.4V387.5L516,586.1l235,205.8V657.9c100,0,142.5,13,209.4,148C960.4,805.9,965,506.4,751,506.4z"/>
</g>
</svg>
