<?xml version="1.0" encoding="utf-8"?>
<!-- Generator: Adobe Illustrator 19.1.0, SVG Export Plug-In . SVG Version: 6.00 Build 0)  -->
<svg version="1.1" id="imissive_x5F_exchange" xmlns="http://www.w3.org/2000/svg" xmlns:xlink="http://www.w3.org/1999/xlink"
	 x="0px" y="0px" viewBox="0 0 1024 1024" style="enable-background:new 0 0 1024 1024;" xml:space="preserve">
<g>
	<path d="M739.3,331.7c9.5,0,29.7-0.6,29.7,0.4v-94.8c0-19.2-19.1-29.2-38.3-29.2H95.6C76.5,208,64,218.1,64,237.2V705
		c0,19.2,12.5,39,31.6,39h432.6c-30.7-42-49.1-96.7-49.1-153.1C479.1,448.3,596.6,331.7,739.3,331.7z M431,617H134v-44.5l119.8-55.3
		L219,462.4v-68.8c0-38.3,32.2-67.5,70.5-67.5c38.3,0,70.5,29.2,70.5,67.5v68.8l-38.7,54.8L431,572.5V617z"/>
	<path d="M741.7,379.4c-120.5,0-218.2,97.7-218.2,218.2c0,120.5,97.7,218.2,218.2,218.2s218.2-97.7,218.2-218.2
		C959.9,477.1,862.2,379.4,741.7,379.4z M847.1,658.3c10.8,10.8,10.8,28.5,0,39.3c-10.8,10.8-28.5,10.8-39.3,0l-66.1-66.1
		l-66.1,66.1c-10.8,10.8-28.5,10.8-39.3,0c-10.8-10.8-10.8-28.5,0-39.3l66.1-66.1l-66.1-66.1c-10.8-10.8-10.8-28.5,0-39.3
		c10.8-10.8,28.5-10.8,39.3,0l66.1,66.1l66.1-66.1c10.8-10.8,28.5-10.8,39.3,0c10.8,10.8,10.8,28.5,0,39.3L781,592.2L847.1,658.3z"
		/>
</g>
</svg>
