<?xml version="1.0" encoding="utf-8"?>
<!-- Generator: Adobe Illustrator 19.1.0, SVG Export Plug-In . SVG Version: 6.00 Build 0)  -->
<svg version="1.1" id="imissive_x5F_exchange" xmlns="http://www.w3.org/2000/svg" xmlns:xlink="http://www.w3.org/1999/xlink"
	 x="0px" y="0px" viewBox="0 0 1024 1024" style="enable-background:new 0 0 1024 1024;" xml:space="preserve">
<g>
	<path d="M744.6,323.6c9.5,0,31.4-0.6,31.4,0.4v-95.6c0-19.3-22.2-29.4-41.5-29.4H94.3C75,199,64,209.1,64,228.4v471.5
		c0,19.3,11,40.1,30.3,40.1h420.4c-14.3-35-18.9-97.9-18.9-154.7C495.8,441.5,600.8,323.6,744.6,323.6z M434,612H136v-45.7
		l120.4-55.8L221,455.3V386c0-38.6,32.4-68.1,71-68.1c38.6,0,71,29.5,71,68.1v69.3l-39.3,55.3L434,566.3V612z"/>
	<path d="M642.3,484.5c0,35,16.1,66.3,41.3,86.8l5.4,6c18,15,30.2,43.7,30.2,78.1c0,4.8-0.2,12.6-0.7,12.6H790c0,0-0.6-8.1-0.6-12.6
		c0-34.4,12.2-63.7,30.2-78.7l5.6-5.9c25.1-20.5,41.1-51.6,41.1-86.5c0-61.8-50.1-111.9-112-111.9S642.3,422.7,642.3,484.5z"/>
	<path d="M960,741.2c0-16.7-13.5-30.2-30.2-30.2H578.2c-16.7,0-30.2,13.5-30.2,30.2v53.6c0,16.7,13.5,30.2,30.2,30.2h351.6
		c16.7,0,30.2-13.5,30.2-30.2V741.2z"/>
</g>
</svg>
