<?xml version="1.0" encoding="utf-8"?>
<!-- Generator: Adobe Illustrator 19.1.0, SVG Export Plug-In . SVG Version: 6.00 Build 0)  -->
<svg version="1.1" id="imissive_x5F_exchange" xmlns="http://www.w3.org/2000/svg" xmlns:xlink="http://www.w3.org/1999/xlink"
	 x="0px" y="0px" viewBox="0 0 1024 1024" style="enable-background:new 0 0 1024 1024;" xml:space="preserve">
<g>
	<path d="M743.2,375.7c-119.7,0-216.7,97-216.7,216.7c0,119.7,97,216.7,216.7,216.7S960,712.1,960,592.4
		C960,472.7,863,375.7,743.2,375.7z M857.6,621H741.4c-15.2,0-32.4-1.5-32.4-16.8V453.8c0-15.2,12.8-27.6,28-27.6
		c15.2,0,28,12.3,28,27.6V565h92.6c15.2,0,27.6,12.8,27.6,28C885.2,608.2,872.8,621,857.6,621z"/>
	<path d="M483,594.7c0-141.7,113.7-257.7,255.4-257.7c9.4,0,26.6-0.6,26.6,0.4v-94.2c0-19-13.1-28.3-32.2-28.3H102
		c-19,0-38,9.2-38,28.3v464.6c0,19,18.9,39.1,38,39.1h429.7C501.2,705,483,650.8,483,594.7z M428,621H134v-44.7l118.7-55L218,466.9
		v-68.3c0-38.1,31.9-67.1,70-67.1c38.1,0,70,29,70,67.1v68.3l-38.7,54.4l108.7,55V621z"/>
</g>
</svg>
