<?xml version="1.0" encoding="UTF-8"?>
<svg width="28px" height="28px" viewBox="0 0 28 28" version="1.1" xmlns="http://www.w3.org/2000/svg" xmlns:xlink="http://www.w3.org/1999/xlink">
    <!-- Generator: Sketch 63.1 (92452) - https://sketch.com -->
    <title>icon/导航图标/com_otherOperat</title>
    <desc>Created with Sketch.</desc>
    <g id="icon/导航图标/com_otherOperat" stroke="none" stroke-width="1" fill="none" fill-rule="evenodd">
        <g id="icon/其他操作" fill="#040000" fill-rule="nonzero">
            <path d="M23.60665,14.857 L25.42465,13.719 C25.7131521,13.5383168 25.855806,13.1949205 25.78025,12.863 L24.89025,8.9582 C24.8145374,8.62626091 24.5370309,8.37860766 24.19865,8.34099999 L22.06385,8.10339999 C21.8523432,8.07979364 21.6589188,7.97300726 21.52625,7.80660001 L21.16905,7.35780001 C21.0366141,7.19153494 20.9758696,6.97936091 21.00025,6.7682 L21.24545,4.63779999 C21.2842304,4.29936188 21.1046568,3.97343331 20.79785,3.82539999 L17.18905,2.08779999 C16.882342,1.94013307 16.5157791,2.0027248 16.27545,2.24379999 L14.75945,3.7646 C14.6093661,3.91509172 14.4055893,3.99971089 14.19305,3.9998 L13.62065,3.9998 C13.4081019,3.99975497 13.2043089,3.91512906 13.05425,3.7646 L11.53825,2.24379999 C11.2979209,2.0027248 10.931358,1.94013307 10.62465,2.08779999 L7.01664999,3.82539999 C6.70981966,3.97319884 6.53019964,4.29905107 6.56904999,4.63740001 L6.81345001,6.77019999 C6.83762874,6.98140799 6.77674824,7.19355425 6.64425001,7.3598 L6.28824999,7.80660001 C6.15580813,7.97300618 5.96244691,8.0796932 5.75105,8.10300001 L3.61505,8.34099999 C3.27666911,8.37860766 2.99916264,8.62626091 2.92344999,8.9582 L2.03265001,12.863 C1.95696752,13.1949312 2.09965099,13.5383988 2.38824999,13.719 L4.20705001,14.8574 C4.38745002,14.9702 4.51505,15.1502 4.56264999,15.3574 L4.69025,15.9162 C4.73761656,16.1236325 4.7004845,16.3413876 4.58705,16.5214 L3.44184999,18.3362 C3.26020351,18.624191 3.28074821,18.9956005 3.49305001,19.2618 L5.99145001,22.3938 C6.2037434,22.6598648 6.56108925,22.7625596 6.88224999,22.6498 L8.90784999,21.9374 C9.10822115,21.8669095 9.32840001,21.8789977 9.51984999,21.971 L10.03505,22.2186 C10.2268021,22.3108268 10.3739135,22.4756434 10.44385,22.6766 L11.14905,24.7038 C11.260914,25.0254316 11.5641203,25.241 11.90465,25.241 L15.90985,25.241 C16.2503797,25.241 16.553586,25.0254316 16.66545,24.7038 L17.37065,22.6766 C17.4405087,22.4755976 17.5876436,22.3107547 17.77945,22.2186 L18.29465,21.971 C18.4860664,21.878867 18.7062979,21.8667759 18.90665,21.9374 L20.93225,22.6498 C21.2534071,22.7626864 21.6108271,22.6599703 21.82305,22.3938 L24.32145,19.2618 C24.5337518,18.9956005 24.5542965,18.6241909 24.37265,18.3362 L23.22705,16.521 C23.1134824,16.3413396 23.0761985,16.1238264 23.12345,15.9166 L23.25065,15.3582 C23.29825,15.1502 23.42625,14.9702 23.60665,14.857 L23.60665,14.857 Z M14.55305,17.3458 C13.3197227,17.5544375 12.0617328,17.1527634 11.1775264,16.2680007 C10.2933199,15.3832381 9.89243695,14.1249959 10.10185,12.8918 C10.36185,11.293 11.64985,10.0026 13.24785,9.73860001 C14.484701,9.52553383 15.7479414,9.92691403 16.6349714,10.8148191 C17.5220013,11.7027241 17.9221357,12.9663597 17.70785,14.203 C17.44265,15.8006 16.15145,17.087 14.55305,17.3458 Z" id="形状"></path>
        </g>
    </g>
</svg>