<?xml version="1.0" encoding="utf-8"?>
<!-- Generator: Adobe Illustrator 22.0.0, SVG Export Plug-In . SVG Version: 6.00 Build 0)  -->
<svg version="1.1" id="图层_1" xmlns="http://www.w3.org/2000/svg" xmlns:xlink="http://www.w3.org/1999/xlink" x="0px" y="0px"
	 viewBox="0 0 1024 1024" style="enable-background:new 0 0 1024 1024;" xml:space="preserve">
<style type="text/css">
	.st0{fill:#3E3A39;}
</style>
<title>监督中心</title>
<title>流程查询</title>
<g>
	<path class="st0" d="M953.1,872.1L811.2,730.2c-6.3-6.3-16.6-6.3-22.9,0L728.6,790c-7.1,5.5-8.4,15.6-2.9,22.7
		c0,0.1,0.1,0.1,0.1,0.2l144.7,141.9c6.3,6.3,16.6,6.3,22.9,0l59.8-59.8C959.4,888.7,959.4,878.4,953.1,872.1z"/>
	<path class="st0" d="M733.6,179C733.6,179,733.6,179,733.6,179C580.9,26.3,333.4,26.3,180.7,179C28,331.7,28,579.2,180.7,731.9
		c152.7,152.7,400.2,152.7,552.9,0C886.3,579.2,886.3,331.7,733.6,179z M259.3,653.2c-109.1-109-109.1-285.9-0.1-394.9
		c109-109.1,285.9-109.1,394.9-0.1c0,0,0,0,0.1,0.1c109,109,109,285.8,0,394.9C545.2,762.2,368.4,762.3,259.3,653.2z"/>
</g>
</svg>
