<?xml version="1.0" encoding="utf-8"?>
<!-- Generator: Adobe Illustrator 22.0.1, SVG Export Plug-In . SVG Version: 6.00 Build 0)  -->
<svg version="1.1" id="图层_1" xmlns="http://www.w3.org/2000/svg" xmlns:xlink="http://www.w3.org/1999/xlink" x="0px" y="0px"
	 viewBox="0 0 1024 1024" style="enable-background:new 0 0 1024 1024;" xml:space="preserve">
<g id="图层_2_1_">
	<g id="图层_1-2">
		<g id="com_classify">
			<path d="M120,179.1c-30.6,0-55.5,24.8-55.5,55.5s24.8,55.5,55.5,55.5s55.5-24.8,55.5-55.5l0,0C175.5,203.9,150.6,179.1,120,179.1
				z"/>
			<path d="M341.9,290.1h247.6c30.6,0,55.5-24.8,55.5-55.5s-24.8-55.5-55.5-55.5c0,0,0,0,0,0H341.9c-30.6,0-55.5,24.8-55.5,55.5
				C286.4,265.2,311.3,290,341.9,290.1C341.9,290.1,341.9,290.1,341.9,290.1z"/>
			<path d="M341.9,567.5h432.5c30.6,0,55.5-24.8,55.5-55.5s-24.8-55.5-55.5-55.5c0,0,0,0,0,0H341.9c-30.6,0-55.5,24.8-55.5,55.5
				C286.4,542.6,311.2,567.5,341.9,567.5C341.9,567.5,341.9,567.5,341.9,567.5z"/>
			<path d="M950.2,758.6c-10.3-15.4-27.6-24.7-46.1-24.6H341.9c-30.6,0-55.5,24.8-55.5,55.5s24.8,55.5,55.5,55.5h562.2
				c18.6-0.1,35.9-9.4,46.1-25C962.6,801.4,962.6,777.2,950.2,758.6z"/>
			<path d="M120,456.5c-30.6,0-55.5,24.8-55.5,55.5s24.8,55.5,55.5,55.5s55.5-24.8,55.5-55.5C175.5,481.4,150.6,456.5,120,456.5
				C120,456.5,120,456.5,120,456.5z"/>
			<path d="M120,733.9c-30.6,0-55.5,24.8-55.5,55.5s24.8,55.5,55.5,55.5s55.5-24.8,55.5-55.5C175.5,758.8,150.6,733.9,120,733.9
				C120,733.9,120,733.9,120,733.9z"/>
		</g>
	</g>
</g>
</svg>
