<?xml version="1.0" encoding="utf-8"?>
<!-- Generator: Adobe Illustrator 22.0.1, SVG Export Plug-In . SVG Version: 6.00 Build 0)  -->
<svg version="1.1" id="图层_1" xmlns="http://www.w3.org/2000/svg" xmlns:xlink="http://www.w3.org/1999/xlink" x="0px" y="0px"
	 viewBox="0 0 1024 1024" style="enable-background:new 0 0 1024 1024;" xml:space="preserve">
<g id="图层_2_1_">
	<g id="图层_1-2">
		<path id="com_responsible" d="M859.9,355l-45.9-54.1L611.6,64.5H213.7c-54.8-0.2-99.4,44-99.6,98.8c0,0.2,0,0.5,0,0.7v697
			c0.4,54.6,44.9,98.7,99.6,98.4h596.7c55,0,99.6-44.6,99.6-99.6V412.4L859.9,355z M294.6,213.7h223.7c10.2,0.2,18.4,8.4,18.6,18.6
			c0,10.3-8.3,18.6-18.6,18.6H294.6c-10.3,0-18.6-8.3-18.6-18.6C275.9,222,284.3,213.7,294.6,213.7z M294.6,344.2h223.7
			c10.2,0.2,18.4,8.4,18.6,18.6c0,10.3-8.3,18.6-18.6,18.6H294.6c-10.3,0-18.6-8.3-18.6-18.6c0.4-10,8.6-17.9,18.6-17.9V344.2z
			 M275.9,493.4c0-10.3,8.3-18.6,18.6-18.6h298.3c10.2,0.2,18.4,8.4,18.6,18.6c0,10.3-8.3,18.6-18.6,18.6H294.6
			c-10,0-18.2-7.9-18.6-17.9V493.4z M679.8,628.7L443.4,861.8c-6.1,6-15.9,6-22,0L303.9,749.9c-8.7-7.6-9.6-20.8-2.1-29.5
			c7.6-8.7,20.8-9.6,29.5-2.1c0.7,0.6,1.4,1.3,2.1,2.1l99.2,97.3L650,600c8.3-8.2,21.6-8.2,29.8,0c8.1,8.1,8.1,21.3,0,29.5V628.7z
			 M710.8,362.8c-27.3-0.2-49.4-22.3-49.6-49.6V174.1l157.4,188.7H710.8z"/>
	</g>
</g>
</svg>
