<?xml version="1.0" encoding="utf-8"?>
<!-- Generator: Adobe Illustrator 22.0.0, SVG Export Plug-In . SVG Version: 6.00 Build 0)  -->
<svg version="1.1" id="图层_1" xmlns="http://www.w3.org/2000/svg" xmlns:xlink="http://www.w3.org/1999/xlink" x="0px" y="0px"
	 viewBox="0 0 1024 1024" style="enable-background:new 0 0 1024 1024;" xml:space="preserve">
<style type="text/css">
	.st0{fill:#3E3A39;}
</style>
<title>监督中心</title>
<title>流程查询</title>
<title>流程反馈</title>
<title>流程概览</title>
<title>流程审核</title>
<g>
	<path class="st0" d="M877.3,64.5H146.7c-14.5,0-26.3,17.3-26.3,39.7v89.5c0,22.4,11.7,39.7,26.3,39.7h730.5
		c14.5,0,26.3-17.3,26.3-39.7v-89.5C903.6,81.8,891.8,64.5,877.3,64.5z"/>
	<path class="st0" d="M162.4,907.5c0,28.5,15.7,52,34.7,52h632.1c19,0,34.1-23.5,34.1-52v-603H162.4V907.5z M322.4,477.9
		c0-20.7,10.6-36.9,24.6-36.9h330.6c13.4,0,24.6,16.2,24.6,36.9v47c0,20.7-11.2,36.9-24.6,36.9H347c-14,0-24.6-16.2-24.6-36.9V477.9
		z"/>
</g>
</svg>
