<?xml version="1.0" encoding="utf-8"?>
<!-- Generator: Adobe Illustrator 22.0.0, SVG Export Plug-In . SVG Version: 6.00 Build 0)  -->
<svg version="1.1" id="图层_1" xmlns="http://www.w3.org/2000/svg" xmlns:xlink="http://www.w3.org/1999/xlink" x="0px" y="0px"
	 viewBox="0 0 1024 1024" style="enable-background:new 0 0 1024 1024;" xml:space="preserve">
<style type="text/css">
	.st0{fill:#3E3A39;}
</style>
<path class="st0" d="M163.8,263.6v-49.8c0.2-13.2,5.4-25.8,14.5-35.2c9.4-9.3,22-14.6,35.2-14.5h199.1c-27.5,0-49.8-22.3-49.7-49.8
	c0-27.5,22.3-49.7,49.7-49.7h198.6c27.5,0,49.8,22.2,49.8,49.7c0,27.5-22.2,49.8-49.7,49.8c0,0-0.1,0-0.1,0h199.1
	c27.5,0,49.8,22.3,49.8,49.8v49.8H163.8z M810.4,860.5c-0.3,54.8-44.8,99-99.6,99H313.1c-54.8,0-99.3-44.2-99.6-99V313.4h596.9
	V860.5z M462.5,462.2c0-27.5-22.3-49.8-49.8-49.7c-27.5,0-49.7,22.3-49.7,49.7v298.7c0,27.5,22.2,49.8,49.7,49.8
	c27.5,0,49.8-22.2,49.8-49.7c0,0,0-0.1,0-0.1V462.2z M661.1,462.2c0-27.5-22.3-49.8-49.8-49.7c-27.5,0-49.7,22.3-49.7,49.7v298.7
	c0,27.5,22.3,49.8,49.8,49.7c27.5,0,49.7-22.3,49.7-49.7V462.2z"/>
</svg>
