<?xml version="1.0" encoding="utf-8"?>
<!-- Generator: Adobe Illustrator 22.0.1, SVG Export Plug-In . SVG Version: 6.00 Build 0)  -->
<svg version="1.1" id="图层_1" xmlns="http://www.w3.org/2000/svg" xmlns:xlink="http://www.w3.org/1999/xlink" x="0px" y="0px"
	 viewBox="0 0 1024 1024" style="enable-background:new 0 0 1024 1024;" xml:space="preserve">
<g id="图层_2_1_">
	<g id="图层_1-2">
		<g id="doc_essence">
			<path d="M459,736.2c-0.1-144.5,117-261.6,261.5-261.7c42.1,0,83.5,10.1,120.8,29.5V103.2c0-21.4-17.3-38.7-38.7-38.7H115.4
				c-21.4,0-38.7,17.3-38.7,38.7v817.6c0,21.4,17.3,38.7,38.7,38.7h468.2C506,911.9,458.8,827.3,459,736.2z M296.5,258h321.9
				c15.4,0,27.9,12.5,27.9,27.9c0,15.4-12.5,27.9-27.9,27.9H296.5c-15.4,0-27.9-12.5-27.9-27.9C268.6,270.4,281.1,258,296.5,258z
				 M296.5,403.5h321.9c15.4,0,27.9,12.5,27.9,27.9c0,15.4-12.5,27.9-27.9,27.9H296.5c-15.4,0-27.9-12.5-27.9-27.9
				C268.6,415.9,281.1,403.5,296.5,403.5z M407.9,610.1H296.5c-15.4,0-27.9-12.5-27.9-27.9c0-15.4,12.5-27.9,27.9-27.9h111.4
				c15.4,0,27.9,12.5,27.9,27.9C435.8,597.6,423.3,610.1,407.9,610.1z"/>
			<path d="M731,523c-119.5,0-216.3,96.8-216.3,216.3S611.5,955.6,731,955.6s216.3-96.8,216.3-216.3l0,0
				C947.5,620.1,851,523.2,731.8,523C731.5,523,731.3,523,731,523z M808.4,838c-20.7,20.2-48.5,31.4-77.4,31.3
				c-28.9-0.1-56.6-11.3-77.4-31.3c-21.1-20.1-32.9-48.2-32.5-77.4c0.2-11.9,2.5-23.7,7-34.8c4.5-11.7,12.1-21.8,22.1-29.4
				c2.1-1.6,4.7-2.4,7.4-2.3c6.1-0.1,11.4,4.4,12.4,10.4c1.1,7.6,3.2,15,6.2,22.1c-0.8-18.7,1.2-37.3,6.2-55.3
				c8.6-28,29.6-50.5,56.9-61.1c1.5-0.4,3.1-0.4,4.6,0c3-0.1,5.9,1,8.1,3.1c2.4,2.2,3.7,5.3,3.9,8.5c-2.7,26.2,0.5,52.6,9.3,77.4
				c1.3-3.9,2.9-7.7,5-11.2c7.2-11.6,18.1-20.3,31-24.8h4.3c6.8,0,12.4,5.2,12.8,12c0.3,16.4,4.3,32.5,11.6,47.2
				c7.1,12.8,11,27.1,11.6,41.8c-0.3,28.2-12,55-32.5,74.3L808.4,838z"/>
		</g>
	</g>
</g>
</svg>
