<?xml version="1.0" encoding="utf-8"?>
<!-- Generator: Adobe Illustrator 19.1.0, SVG Export Plug-In . SVG Version: 6.00 Build 0)  -->
<svg version="1.1" id="图层_1" xmlns="http://www.w3.org/2000/svg" xmlns:xlink="http://www.w3.org/1999/xlink" x="0px" y="0px"
	 viewBox="0 0 1024 1024" style="enable-background:new 0 0 1024 1024;" xml:space="preserve">
<path d="M858.3,309.7V102.2c0-21.1-17.1-38.2-38.2-38.2H203.8c-21.1,0-38.2,17.1-38.2,38.2v819.7c0,21.1,17.1,38.2,38.2,38.2h616.4
	c21.1,0,38.2-17.1,38.2-38.2V752.7 M484.8,672.9H315c-16.5,0-29.9-13.4-29.9-29.9s13.4-29.9,29.9-29.9h169.8
	c16.5,0,29.9,13.4,29.9,29.9S501.3,672.9,484.8,672.9z M689.9,511.1H315c-16.5,0-29.9-13.4-29.9-29.9s13.4-29.9,29.9-29.9h374.9
	c16.5,0,29.9,13.4,29.9,29.9S706.5,511.1,689.9,511.1z M689.9,355.2H315c-16.5,0-29.9-13.4-29.9-29.9s13.4-29.9,29.9-29.9h374.9
	c16.5,0,29.9,13.4,29.9,29.9S706.5,355.2,689.9,355.2z"/>
</svg>
