<?xml version="1.0" encoding="utf-8"?>
<!-- Generator: Adobe Illustrator 22.0.1, SVG Export Plug-In . SVG Version: 6.00 Build 0)  -->
<svg version="1.1" id="图层_1" xmlns="http://www.w3.org/2000/svg" xmlns:xlink="http://www.w3.org/1999/xlink" x="0px" y="0px"
	 viewBox="0 0 1024 1024" style="enable-background:new 0 0 1024 1024;" xml:space="preserve">
<g id="图层_2_1_">
	<g id="图层_1-2">
		<path id="com_my_follow" d="M512.1,819.8c5,0,9.8,1.3,14.2,3.6L742.8,940c13,6.5,28.4,5.6,40.5-2.4c12-7.7,18.2-21.9,15.8-36
			l-42.5-252.1c-1.6-9.5,1.6-19.2,8.5-25.9l182.1-182.1c11-9.3,15.1-24.4,10.5-38c-4.8-13.6-16.9-23.3-31.2-25.1L678,341.5
			c-9.8-1.6-18.2-7.7-22.7-16.6L547.3,101.5c-6.8-13.2-20.4-21.6-35.2-21.9c-15,0.1-28.7,8.5-35.6,21.9L368.4,325.7
			c-3.9,8.5-11.5,14.6-20.6,16.6L97.7,379.1c-13.9,2.1-25.7,11.3-31.2,24.3c-4.6,13.1-1.1,27.7,8.9,37.2l182.1,182.1
			c6.7,6.8,9.8,16.5,8.1,25.9l-40.5,252.1c-2.4,14.2,3.8,28.5,15.8,36.4c12.2,7.9,27.6,8.6,40.5,2l216.5-116.6
			C502.3,820.6,507.2,819.6,512.1,819.8z"/>
	</g>
</g>
</svg>
