<?xml version="1.0" encoding="utf-8"?>
<!-- Generator: Adobe Illustrator 22.0.0, SVG Export Plug-In . SVG Version: 6.00 Build 0)  -->
<svg version="1.1" id="图层_1" xmlns="http://www.w3.org/2000/svg" xmlns:xlink="http://www.w3.org/1999/xlink" x="0px" y="0px"
	 viewBox="0 0 1024 1024" style="enable-background:new 0 0 1024 1024;" xml:space="preserve">
<style type="text/css">
	.st0{fill:#3E3A39;}
</style>
<title>监督中心</title>
<title>流程查询</title>
<title>流程反馈</title>
<title>流程概览</title>
<title>流程审核</title>
<title>我起草的</title>
<title>我已审</title>
<g>
	<path class="st0" d="M876.4,64.5H147.1c-13.9,0-25.7,17.9-25.7,39.6v92.1c0,21.8,11.7,39.6,25.7,39.6h729.3
		c14.5,0,26.2-17.9,26.2-39.6v-92.1C902.6,82.4,890.9,64.5,876.4,64.5z"/>
	<path class="st0" d="M163.3,908.2c0,28.5,15.1,51.3,34,51.3h628.8c19,0,34.6-22.9,34.6-51.3V306.1H163.3V908.2z M512,398.2
		c55.5,0,100.4,45,100.4,100.4c0.2,30.1-13.4,58.7-36.8,77.6l-5,5.6c-18.3,18.9-28,44.6-26.8,70.9c0,4.5,0,12.3,0,12.3h-63.1
		c0.3-4.1,0.3-8.2,0-12.3c1.4-26.4-8.6-52.2-27.3-70.9l-4.5-5.6c-23.6-18.8-37.4-47.4-37.4-77.6C411.6,443.1,456.5,398.2,512,398.2z
		 M327.9,723.5c0-15.1,12.2-27.3,27.3-27.3h313.6c15.1,0,27.3,12.2,27.3,27.3V777c0,15.1-12.2,27.3-27.3,27.3H355.2
		c-15.1,0-27.3-12.2-27.3-27.3V723.5z"/>
</g>
</svg>
