<?xml version="1.0" encoding="utf-8"?>
<!-- Generator: Adobe Illustrator 22.0.0, SVG Export Plug-In . SVG Version: 6.00 Build 0)  -->
<svg version="1.1" id="图层_1" xmlns="http://www.w3.org/2000/svg" xmlns:xlink="http://www.w3.org/1999/xlink" x="0px" y="0px"
	 viewBox="0 0 1024 1024" style="enable-background:new 0 0 1024 1024;" xml:space="preserve">
<style type="text/css">
	.st0{fill:#3E3A39;}
</style>
<g>
	<path class="st0" d="M210.5,712.4c-20.8,0-37.6,16.8-37.6,37.6c0,20.8,16.8,37.6,37.6,37.6c20.8,0,37.6-16.8,37.6-37.6
		C248.1,729.3,231.3,712.4,210.5,712.4z"/>
	<path class="st0" d="M604.6,107.2H414.3c-29.1,3.2-51.6,26.9-53.3,56.1v2.8c-1.2-29.2-23.7-53.1-52.8-56.1H117.8
		c-29.2,3-51.8,26.8-53.3,56.1v215.6v478.9c1.3,29.4,24,53.4,53.3,56.1h187c29.7-1.8,52.8-26.4,52.8-56.1v-5.1V381.7v-56.1
		c0,0,3.4-3.9,3.4-5.1v61.2v478.9c1.5,29.3,24.2,53.1,53.3,56.1h190.3c29.2-3,51.8-26.8,53.3-56.1v-5.1V381.7v-56.1v-5.1V163.3
		C656.3,134.1,633.7,110.4,604.6,107.2z M136.4,204.3H284v375.6H136.4V204.3z M210.5,830.9c-44.7,0-80.9-36.2-80.9-80.9
		c0-44.7,36.2-80.9,80.9-80.9s80.9,36.2,80.9,80.9C291.3,794.7,255.1,830.9,210.5,830.9z M585.6,204.3v375.6H437.9l-4.5-375.6H585.6
		z M505.8,830.9c-44.7,0-80.9-36.2-80.9-80.9c0-44.7,36.2-80.9,80.9-80.9s80.9,36.2,80.9,80.9C586.7,794.7,550.5,830.9,505.8,830.9z
		"/>
	<path class="st0" d="M524.3,716.6c-18.6-9.9-41.7-2.9-51.7,15.7c-2.8,5.2-4.3,11-4.5,16.9v1.1c-0.1,20.8,16.8,37.7,37.5,37.7
		c20.8,0,37.7-16.8,37.7-37.5c0-0.1,0-0.1,0-0.2C543.9,736.4,536.5,723.4,524.3,716.6z"/>
	<path class="st0" d="M825.5,717.5c-11.7-6.7-26-6.7-37.7,0c-11.6,6.7-18.7,19.2-18.5,32.6c-0.2,13.4,6.9,25.9,18.5,32.6
		c18,10.4,41,4.3,51.4-13.7C849.6,750.9,843.5,727.9,825.5,717.5z"/>
	<path class="st0" d="M903.4,107.2H713c-29.1,3-51.5,26.9-52.8,56.1v218.4v60.1c0,0,0,0,0,3.4v415.5c-0.1,29.7,23.1,54.4,52.8,56.1
		h190.3c30.4-1.4,54.7-25.7,56.1-56.1v-5.1V381.7v-56.1v-5.1V163.3C957.8,133,933.6,108.8,903.4,107.2z M734.9,204.3h147.7v375.6
		H734.9V204.3z M806.8,830.9c-44.7,0-80.9-36.2-80.9-80.9c0-44.7,36.2-80.9,80.9-80.9c44.7,0,80.9,36.2,80.9,80.9
		C887.7,794.7,851.5,830.9,806.8,830.9z"/>
</g>
</svg>
