<?xml version="1.0" encoding="utf-8"?>
<!-- Generator: Adobe Illustrator 19.1.0, SVG Export Plug-In . SVG Version: 6.00 Build 0)  -->
<svg version="1.1" id="图层_1" xmlns="http://www.w3.org/2000/svg" xmlns:xlink="http://www.w3.org/1999/xlink" x="0px" y="0px"
	 viewBox="0 0 1024 1024" style="enable-background:new 0 0 1024 1024;" xml:space="preserve">
<style type="text/css">
	.st0{fill-rule:evenodd;clip-rule:evenodd;}
</style>
<g>
	<g>
		<g>
			<path d="M614,523.5v-68.7c14-17.6,29-42.8,29-69.8V229.7c0-90-69.9-165.7-160.7-165.7h-33.7C357.8,64,282,140,282,230v155
				c0,26.7,14,52,28,69.8v127.6c-28,17.2-124.7,67.6-213.4,139.7C73.9,740.8,65,768.6,65,798.5v106.3c0,13.1,7.1,26.2,20.4,26.2
				c0,0,173.8,0,355.1,0h95.1c-41.1-43-67-107.3-67-173.7C468.7,654.9,527,565.4,614,523.5z"/>
		</g>
	</g>
	<path class="st0" d="M756.7,555.4c-111.7,0-202.3,90.6-202.3,202.3C554.4,869.4,645,960,756.7,960C868.5,960,959,869.4,959,757.7
		C959,645.9,868.5,555.4,756.7,555.4z M778.4,783.7v89.6c0,14.4-11.6,26-26,26h-5.8c-14.4,0-26-11.6-26-26v-89.6H631
		c-14.4,0-26-11.6-26-26v-5.8c0-14.4,11.6-26,26-26h89.6v-89.6c0-14.4,11.6-26,26-26h5.8c14.4,0,26,11.6,26,26v89.6H868
		c14.4,0,26,11.6,26,26v5.8c0,14.4-11.6,26-26,26H778.4z"/>
</g>
</svg>
