<svg id="menu-unfold-simple" xmlns="http://www.w3.org/2000/svg" viewBox="0 0 48 48"><defs></defs><path d="M34.25,35.2a1.5,1.5,0,0,1-1-2.57l9.71-9.45L33.2,13.72a1.5,1.5,0,1,1,2.09-2.15L46.11,22.1a1.5,1.5,0,0,1,0,2.15L35.29,34.78A1.49,1.49,0,0,1,34.25,35.2Z"/><path class="cls-1" d="M45.06,7.79h-41a1.5,1.5,0,0,1,0-3h41a1.5,1.5,0,0,1,0,3Z"/><path class="cls-1" d="M45.06,41.56h-41a1.5,1.5,0,0,1,0-3h41a1.5,1.5,0,0,1,0,3Z"/><path class="cls-1" d="M30.08,24.67h-26a1.5,1.5,0,0,1,0-3h26a1.5,1.5,0,0,1,0,3Z"/></svg>