<?xml version="1.0" encoding="utf-8"?>
<!-- Generator: Adobe Illustrator 19.1.0, SVG Export Plug-In . SVG Version: 6.00 Build 0)  -->
<svg version="1.1" id="imissive_x5F_exchange" xmlns="http://www.w3.org/2000/svg" xmlns:xlink="http://www.w3.org/1999/xlink"
	 x="0px" y="0px" viewBox="0 0 1024 1024" style="enable-background:new 0 0 1024 1024;" xml:space="preserve">
<path d="M737.2,123.1c-144.6,2.2-223.2,133.4-223.2,133.4C414.3,129.6,304.4,124,270.8,123.1c0,0-206.7,23.8-206.8,223.4
	C63.8,652.3,513.6,901,513.6,901C845.9,736.1,960.8,474,960,344.8C959.4,249.1,881.7,120.9,737.2,123.1z M345,462.7
	c-25.1,0-45.5-20.4-45.5-45.5s20.4-45.5,45.5-45.5c25.1,0,45.5,20.4,45.5,45.5S370.1,462.7,345,462.7z M731.8,465H506
	c-25,0-45.5-15.6-45.5-40.6c0-25,20.5-43.4,45.5-43.4h225.7c25,0,45.5,18.4,45.5,43.4C777.3,449.4,756.8,465,731.8,465z M345,630.8
	c-25.1,0-45.5-20.4-45.5-45.5s20.4-45.5,45.5-45.5c25.1,0,45.5,20.4,45.5,45.5S370.1,630.8,345,630.8z M692.7,633H506
	c-25,0-45.5-15.6-45.5-40.6c0-25,20.5-43.4,45.5-43.4h186.7c25,0,45.5,18.4,45.5,43.4C738.2,617.4,717.8,633,692.7,633z"/>
</svg>
