<?xml version="1.0" encoding="utf-8"?>
<!-- Generator: Adobe Illustrator 22.0.1, SVG Export Plug-In . SVG Version: 6.00 Build 0)  -->
<svg version="1.1" id="图层_1" xmlns="http://www.w3.org/2000/svg" xmlns:xlink="http://www.w3.org/1999/xlink" x="0px" y="0px"
	 viewBox="0 0 1024 1024" style="enable-background:new 0 0 1024 1024;" xml:space="preserve">
<g id="图层_2_1_">
	<g id="图层_1-2">
		<g id="contract_sign">
			<path d="M721.2,502.3c-103.6,0-187.6,84-187.6,187.6s84,187.6,187.6,187.6s187.6-84,187.6-187.6l0,0
				C908.7,586.2,824.7,502.3,721.2,502.3z M799,813.6l-77.8-38.9l-77.8,38.9l11.3-87.6l-58.4-65.8l83.7-16.7l41.2-77.8l41.2,77.8
				l84.1,16.7L787.7,726L799,813.6z"/>
			<path d="M470.9,689.8c-0.3-138,111.3-250,249.3-250.3c64.6-0.1,126.7,24.7,173.3,69.4V142.3c0-43-34.8-77.8-77.8-77.8H193.1
				c-43,0-77.8,34.8-77.8,77.8v739.3c0,43,34.8,77.8,77.8,77.8h622.6c43,0,77.8-34.8,77.8-77.8v-10.9c-99.7,95.4-257.8,92-353.2-7.7
				C495.7,816.5,470.8,754.4,470.9,689.8z M315.3,283.2h375.5c17.3,1.9,29.8,17.5,27.8,34.8c-1.6,14.6-13.2,26.2-27.8,27.8H314.5
				c-17.3-1.9-29.8-17.5-27.8-34.8c1.6-14.6,13.2-26.2,27.8-27.8H315.3z M315.3,438.8h155.7c17.3-1.9,32.9,10.5,34.8,27.8
				c1.9,17.3-10.5,32.9-27.8,34.8c-2.3,0.3-4.7,0.3-7,0H315.3c-17.3-1.9-29.8-17.5-27.8-34.8C289.1,452,300.7,440.5,315.3,438.8z
				 M377.9,657.9h-63.4c-17.3-1.9-29.8-17.5-27.8-34.8c1.6-14.6,13.2-26.2,27.8-27.8h62.6c17.3-1.9,32.9,10.5,34.8,27.8
				c1.9,17.3-10.5,32.9-27.8,34.8c-2.3,0.3-4.7,0.3-7,0H377.9z"/>
		</g>
	</g>
</g>
</svg>
