<?xml version="1.0" encoding="utf-8"?>
<!-- Generator: Adobe Illustrator 22.0.1, SVG Export Plug-In . SVG Version: 6.00 Build 0)  -->
<svg version="1.1" id="图层_1" xmlns="http://www.w3.org/2000/svg" xmlns:xlink="http://www.w3.org/1999/xlink" x="0px" y="0px"
	 viewBox="0 0 1024 1024" style="enable-background:new 0 0 1024 1024;" xml:space="preserve">
<g id="图层_2_1_">
	<g id="图层_1-2">
		<path id="com_statistics" d="M799.7,64.5H224.3c-70.6,0.2-127.7,57.4-127.9,127.9v639.2c0.2,70.6,57.4,127.7,127.9,127.9h575.4
			c70.6-0.2,127.7-57.4,127.9-127.9V192.4C927.4,121.9,870.3,64.7,799.7,64.5z M288.1,895.7V607.8c-0.8-16.9,12.1-31.2,29-32.1
			c1-0.1,2-0.1,3.1,0c16.9-0.8,31.2,12.1,32.1,29c0.1,1,0.1,2,0,3.1v287.9L288.1,895.7z M416,895.7V544.1
			c-1.1-16.6,11.6-31,28.2-32.1c1.3-0.1,2.6-0.1,3.9,0c16.6-1.1,31,11.6,32.1,28.2c0.1,1.3,0.1,2.6,0,3.9v351.7H416z M543.9,895.7
			V607.8c-1.9-17.6,10.8-33.4,28.4-35.3s33.4,10.8,35.3,28.4c0.2,2.3,0.2,4.6,0,6.9v287.9L543.9,895.7z M735.6,895.7h-63.8V544.1
			c-1.9-17.6,10.8-33.4,28.4-35.3c17.6-1.9,33.4,10.8,35.3,28.4c0.2,2.3,0.2,4.6,0,6.9V895.7z M863.5,320.3H160.2V192.4
			c-1.9-33.5,23.7-62.2,57.2-64.1c2.3-0.1,4.6-0.1,6.9,0h575.4c33.3-1.9,61.9,23.5,63.8,56.8c0.1,2.4,0.1,4.9,0,7.3V320.3z"/>
	</g>
</g>
</svg>
