<?xml version="1.0" encoding="utf-8"?>
<!-- Generator: Adobe Illustrator 19.1.0, SVG Export Plug-In . SVG Version: 6.00 Build 0)  -->
<svg version="1.1" id="imissive_x5F_exchange" xmlns="http://www.w3.org/2000/svg" xmlns:xlink="http://www.w3.org/1999/xlink"
	 x="0px" y="0px" viewBox="0 0 1024 1024" style="enable-background:new 0 0 1024 1024;" xml:space="preserve">
<path d="M308.7,632.6c-35.1,0-39.7-16-39.7-16L132.1,878.1l109.7-11.9l60.7,88.7c0,0,126.3-256.4,126.3-254.6
	c-65.4-1.6-35.8-67.2-116.5-68.9L308.7,632.6z M753.3,626.9c-100,10.2-79.7,34.3-102.5,53c-26.3,27.3-59.2,22-59.2,22L746,960
	l37.9-95.5l108,13.6L753.3,626.9z M629.4,639.9c17-27.8,42.2-42,75.5-42.4c33.3-0.4,50.2-16.8,50.6-49.2c0.4-32.4,15-56.8,43.6-73.4
	c28.6-16.6,34.8-39,18.5-67.2c-16.3-28.3-16.3-56.5,0-84.8c16.3-28.3,10.1-50.7-18.5-67.2c-28.6-16.6-43.1-41-43.6-73.4
	c-0.4-32.4-17.3-48.8-50.6-49.2c-33.3-0.4-58.5-14.6-75.5-42.4c-17-27.8-40.1-33.8-69.1-18c-29.1,15.8-58.1,15.8-87.2,0
	c-29.1-15.8-52.1-9.8-69.1,18c-17,27.8-42.2,42-75.5,42.4c-33.3,0.4-50.2,16.8-50.6,49.2c-0.4,32.4-15,56.8-43.6,73.4
	c-28.6,16.6-34.8,39-18.5,67.2c16.3,28.3,16.3,56.5,0,84.8c-16.3,28.3-10.1,50.7,18.5,67.2c28.6,16.6,43.2,41,43.6,73.4
	c0.4,32.4,17.3,48.8,50.6,49.2c33.3,0.4,58.5,14.6,75.5,42.4c17,27.8,40.1,33.8,69.1,18c29.1-15.8,58.1-15.8,87.2,0
	C589.3,673.7,612.4,667.7,629.4,639.9L629.4,639.9z M554.6,501.7h-50V318.1c-18.3,16.6-39.9,28.9-64.7,36.9v-44.1
	c13.1-4.2,27.3-12,42.6-23.6c15.3-11.6,25.8-25.1,31.5-40.6h40.6V501.7z M554.6,501.7"/>
</svg>
