<?xml version="1.0" encoding="utf-8"?>
<!-- Generator: Adobe Illustrator 19.1.0, SVG Export Plug-In . SVG Version: 6.00 Build 0)  -->
<svg version="1.1" id="imissive_x5F_exchange" xmlns="http://www.w3.org/2000/svg" xmlns:xlink="http://www.w3.org/1999/xlink"
	 x="0px" y="0px" viewBox="0 0 1024 1024" style="enable-background:new 0 0 1024 1024;" xml:space="preserve">
<g>
	<path d="M574.6,233.4c0,38.9-31.5,70.4-70.4,70.4l0,0c-38.9,0-70.4-31.5-70.4-70.4V120.8h140.8V233.4z"/>
	<path d="M919.3,231H624v-1.3c0,64.8-46.2,121.5-110.9,125.6C442.2,360,386,303.8,386,233.9V231H111.5C87.2,231,64,245.4,64,269.8
		v594.9C64,889,87.2,903,111.5,903h783.8c37.6,0,64.7-24.7,64.7-62.3V269.8C960,245.4,943.7,231,919.3,231z M330,805h-84V483h84V805
		z M554,805h-98V581h98V805z M764,805h-98V371h98V805z"/>
</g>
</svg>
