<?xml version="1.0" encoding="utf-8"?>
<!-- Generator: Adobe Illustrator 19.1.0, SVG Export Plug-In . SVG Version: 6.00 Build 0)  -->
<svg version="1.1" id="imissive_x5F_exchange" xmlns="http://www.w3.org/2000/svg" xmlns:xlink="http://www.w3.org/1999/xlink"
	 x="0px" y="0px" viewBox="0 0 1024 1024" style="enable-background:new 0 0 1024 1024;" xml:space="preserve">
<style type="text/css">
	.st0{fill-rule:evenodd;clip-rule:evenodd;}
</style>
<path class="st0" d="M512,65.2c-246.7,0-446.8,200-446.8,446.8s200,446.8,446.8,446.8s446.8-200,446.8-446.8S758.7,65.2,512,65.2z
	 M444.6,765.8l-168.8-172c-24.7-25.2-24.5-65.5,0.4-90.5l0,0c25.1-25.1,65.8-25.1,90.9,0l74.5,74.5l210.2-210.2
	c26.4-26.4,69.1-26.4,95.4,0l0,0c26.4,26.4,26.4,69.1,0,95.4L444.6,765.8z"/>
</svg>
