<?xml version="1.0" encoding="utf-8"?>
<!-- Generator: Adobe Illustrator 19.1.0, SVG Export Plug-In . SVG Version: 6.00 Build 0)  -->
<svg version="1.1" id="imissive_x5F_exchange" xmlns="http://www.w3.org/2000/svg" xmlns:xlink="http://www.w3.org/1999/xlink"
	 x="0px" y="0px" viewBox="0 0 1024 1024" style="enable-background:new 0 0 1024 1024;" xml:space="preserve">
<style type="text/css">
	.st0{fill-rule:evenodd;clip-rule:evenodd;}
</style>
<g>
	<path class="st0" d="M719.9,674.4c-112.3,0-207.5,63.3-240.2,136.3c32.7,73,127.9,137.8,240.2,137.8
		c112.3,0,207.5-64.8,240.2-137.8C927.3,737.7,832.2,674.4,719.9,674.4z M719.9,886.9c-42.1,0-76.2-34.1-76.2-76.2
		s34.1-76.2,76.2-76.2c42.1,0,76.2,34.1,76.2,76.2S762,886.9,719.9,886.9z"/>
	<path class="st0" d="M705.4,624.4c71.1,0,136.6,1.4,179.6,47.5V125.1c0-35.2-19.2-59.1-54.4-59.1H128.8C93.6,66,64,89.9,64,125.1
		v765.6c0,35.2,29.6,67.3,64.8,67.3h336.3c-11.3-28-17.8-63.7-17.8-97C447.3,716.9,561.3,624.4,705.4,624.4z M192.6,289
		c0-17.6,14.3-36,31.9-36h510.4c17.6,0,31.9,18.4,31.9,36c0,17.6-14.3,36-31.9,36H224.5C206.9,325,192.6,306.6,192.6,289z
		 M207.6,469c0-17.6,14.3-29,31.9-29h255.2c17.6,0,31.9,11.4,31.9,29c0,17.6-14.3,29-31.9,29H239.5C221.9,498,207.6,486.6,207.6,469
		z"/>
</g>
</svg>
