<?xml version="1.0" encoding="utf-8"?>
<!-- Generator: Adobe Illustrator 19.1.0, SVG Export Plug-In . SVG Version: 6.00 Build 0)  -->
<svg version="1.1" id="imissive_x5F_exchange" xmlns="http://www.w3.org/2000/svg" xmlns:xlink="http://www.w3.org/1999/xlink"
	 x="0px" y="0px" viewBox="0 0 1024 1024" style="enable-background:new 0 0 1024 1024;" xml:space="preserve">
<g>
	<path d="M887.2,219.9c0-51.9,57.5-115.9,56-115.9H178.5c-56.2,0-102.2,55-102.2,121.3c0,66.3,46,121.2,102.2,121.2
		c0,0,767.7,0.7,769.3,0.6C911.7,323.9,887.2,271.8,887.2,219.9z"/>
	<path d="M887.2,801.5c0-51.9,57.5-106.5,56-106.5H178.5c-56.2,0-102.2,47.2-102.2,113.5c0,66.3,46,113.5,102.2,113.5h764.7
		c1.6,0,3.1-0.2,4.6-0.3C911.7,898.5,887.2,853.4,887.2,801.5z"/>
	<path d="M437.2,364.9H275.9c-17.8,0-32.3,15-32.3,33.5v234.2c0,18.5,14.5,33.5,32.3,33.5c0,0,63.4-83.7,80.4-83.7
		c16,0,80.9,83.7,80.9,83.7c17.8,0,32.3-15,32.3-33.5V398.3C469.5,379.9,455.1,364.9,437.2,364.9L437.2,364.9z"/>
	<path d="M194,407h-15.5c-56.2,0-102.2,47.7-102.2,114c0,66.3,46,114,102.2,114H194V407z"/>
	<path d="M887.2,518.5c0-48.9,21.9-88.5,54.6-111.5H512v228h431.1C944.7,635,887.2,570.4,887.2,518.5z"/>
</g>
</svg>
