<?xml version="1.0" encoding="utf-8"?>
<!-- Generator: Adobe Illustrator 19.1.0, SVG Export Plug-In . SVG Version: 6.00 Build 0)  -->
<svg version="1.1" id="imissive_x5F_exchange" xmlns="http://www.w3.org/2000/svg" xmlns:xlink="http://www.w3.org/1999/xlink"
	 x="0px" y="0px" viewBox="0 0 1024 1024" style="enable-background:new 0 0 1024 1024;" xml:space="preserve">
<g>
	<path d="M905.1,908.2c26.1-0.1,47.2-21.3,47.2-47.4V400.2h-94.4v460.6C857.9,886.9,879.1,908.1,905.1,908.2z"/>
	<path d="M804.3,860.8V367.6h0V121.2c0-31.6-25.6-57.2-57.2-57.2H128.9c-31.6,0-57.2,25.6-57.2,57.2v781.5
		c0,31.6,25.6,57.2,57.2,57.2c0,0,751.8,0,754.2,0c0.9,0,1.8-0.2,2.7-0.3C839.4,950.6,804.3,909.8,804.3,860.8z M436.2,774.6h-170
		c-16.5,0-29.8-13.3-29.8-29.8s13.3-29.8,29.8-29.8h170c16.5,0,29.8,13.3,29.8,29.8S452.7,774.6,436.2,774.6z M591.7,619.4H266.2
		c-16.5,0-29.8-13.3-29.8-29.8s13.3-29.8,29.8-29.8h325.5c16.5,0,29.8,13.3,29.8,29.8S608.2,619.4,591.7,619.4z M591.7,461.2H266.2
		c-16.5,0-29.8-13.3-29.8-29.8s13.3-29.8,29.8-29.8h325.5c16.5,0,29.8,13.3,29.8,29.8S608.2,461.2,591.7,461.2z M591.7,308.9H266.2
		c-16.5,0-29.8-13.3-29.8-29.8s13.3-29.8,29.8-29.8h325.5c16.5,0,29.8,13.3,29.8,29.8S608.2,308.9,591.7,308.9z"/>
</g>
</svg>
