<?xml version="1.0" encoding="utf-8"?>
<!-- Generator: Adobe Illustrator 19.1.0, SVG Export Plug-In . SVG Version: 6.00 Build 0)  -->
<svg version="1.1" id="imissive_x5F_exchange" xmlns="http://www.w3.org/2000/svg" xmlns:xlink="http://www.w3.org/1999/xlink"
	 x="0px" y="0px" viewBox="0 0 1024 1024" style="enable-background:new 0 0 1024 1024;" xml:space="preserve">
<path d="M960,213c0-24.3-19.7-44-44-44H108c-24.3,0-44,19.7-44,44v598c0,24.3,19.7,44,44,44h808c24.3,0,44-19.7,44-44V213z
	 M596,375.8c0,9.5-7.7,17.2-17.2,17.2H431.2c-9.5,0-17.2-7.7-17.2-17.2V270.2c0-9.5,7.7-17.2,17.2-17.2h147.5
	c9.5,0,17.2,7.7,17.2,17.2L596,375.8L596,375.8z M246,497.9c0-11.7,9.6-21.4,21.4-21.4h191.1c7.5,0,19.5-12,19.5-19.5v-23.9
	c0-14.7,2.9-26.6,17.6-26.6H512c7.7,0,14,6.3,14,14V456c0,11.3,9.2,20.5,20.5,20.5h210.2l0,0c11.8,0,21.4,9.6,21.4,21.4v69
	c0,18.1-21,21.6-32,21.6c-12.1,0.1-22-9.8-22-21.9v-34.3c0-7.6-6.2-13.8-13.8-13.8H541.9c-8.8,0-15.9,7.1-15.9,15.9v31.3
	c0,9.2-7.6,22.8-16.8,22.8h-8.1c-12.7,0-23.1-10.3-23.1-23.1V539c0-11.3-9.2-20.5-20.5-20.5H311.9c-8.8,0-15.9,7.1-15.9,15.9v33.9
	c0,11-14,22.7-25,22.2c-12.2-0.6-25-12.7-25-25V497.9z M358,723.2c0,9.5-4.2,19.8-13.7,19.8H190.5c-9.5,0-14.5-10.3-14.5-19.8V622
	c0-9.5,4.9-19,14.5-19h59.7h94.2c9.5,0,13.7,9.5,13.7,19v101.2H358z M610,723.2c0,9.5-11.6,19.8-21.1,19.8H435.1
	c-9.5,0-21.1-10.3-21.1-19.8V622c0-9.5,11.6-19,21.1-19h59.7h94.1c9.5,0,21.1,9.5,21.1,19V723.2z M848,723.2
	c0,9.5-4.9,19.8-14.5,19.8H679.7c-9.5,0-13.7-10.3-13.7-19.8V622c0-9.5,4.2-19,13.7-19h94.2h59.7c9.5,0,14.5,9.5,14.5,19v101.2H848z
	"/>
</svg>
