<?xml version="1.0" encoding="utf-8"?>
<!-- Generator: Adobe Illustrator 19.1.0, SVG Export Plug-In . SVG Version: 6.00 Build 0)  -->
<svg version="1.1" id="imissive_x5F_exchange" xmlns="http://www.w3.org/2000/svg" xmlns:xlink="http://www.w3.org/1999/xlink"
	 x="0px" y="0px" viewBox="0 0 1024 1024" style="enable-background:new 0 0 1024 1024;" xml:space="preserve">
<g>
	<g>
		<path d="M534.5,544.8c-13.3,5.8-22.6,7.2-40.4,3.1L74.3,374.9c-8.8-3.8-12.8-14-9-22.8L451.5,182c32-8.7,35.6-14.7,65.9-7.8
			L949.5,315c8.8,3.8,12.8,14,9,22.8L534.5,544.8z"/>
		<path d="M764.8,490.7V740c0,0-7.1,13.3-9.2,16.9c-31.8,53.8-127.2,95.9-243.7,95.9c-116.5,0-214.1-40.8-243.7-95.9
			c-2.3-4.2-9.2-19.7-9.2-19.7V507.6l252.9,112.5L764.8,490.7z"/>
	</g>
	<g>
		<path d="M940.1,556.5c-11,0-20-9-20-20V334.5c0-11,9-20,20-20s20,9,20,20v202.1C960.1,547.6,951.1,556.5,940.1,556.5z"/>
	</g>
	<g>
		<path d="M940.1,689c-11,0-20-9-20-20v-46.2c0-11,9-20,20-20s20,9,20,20V669C960.1,680.1,951.1,689,940.1,689z"/>
	</g>
</g>
</svg>
