<?xml version="1.0" encoding="utf-8"?>
<!-- Generator: Adobe Illustrator 19.1.0, SVG Export Plug-In . SVG Version: 6.00 Build 0)  -->
<svg version="1.1" id="imissive_x5F_exchange" xmlns="http://www.w3.org/2000/svg" xmlns:xlink="http://www.w3.org/1999/xlink"
	 x="0px" y="0px" viewBox="0 0 1024 1024" style="enable-background:new 0 0 1024 1024;" xml:space="preserve">
<path d="M922.4,133.3H302.8v0v56c0,15.5-12.5,28-28,28s-28-12.5-28-28v-56v0H64l78.7,126.2L64,385.8L142.7,512L64,638.2l78.7,126.2
	L64,890.7h182.8v0v-56c0-15.5,12.5-28,28-28s28,12.5,28,28v56v0h619.6c20.8,0,37.6-16.8,37.6-37.6V171
	C960,150.2,943.2,133.3,922.4,133.3z M302.8,705.6c0,15.5-12.5,28-28,28s-28-12.5-28-28V576.5c0-15.5,12.5-28,28-28s28,12.5,28,28
	V705.6z M302.8,447.5c0,15.5-12.5,28-28,28s-28-12.5-28-28V318.4c0-15.5,12.5-28,28-28s28,12.5,28,28V447.5z M763,566.7
	c15.4,0,28,12.5,28,28c0,15.4-12.5,28-28,28h0l-106.5-0.1l-0.1,82.5c0,15.4-12.5,28-28,28h0c-15.4,0-28-12.5-28-28l0.1-82.5
	L494,622.5c-15.4,0-28-12.5-28-28c0-15.4,12.5-28,28-28h0l106.5,0.1l0-48.6L494,517.9c-15.4,0-28-12.5-28-28c0-15.4,12.5-28,28-28h0
	l80.5,0.1l-82.9-98.8c-9.9-11.8-8.4-29.5,3.4-39.4c11.9-9.9,29.5-8.4,39.4,3.4l96.1,114.4l96.1-114.4c9.9-11.8,27.6-13.4,39.4-3.4
	c11.9,9.9,13.4,27.6,3.4,39.4l-83,98.9l76.5,0.1c15.4,0,28,12.5,28,28c0,15.4-12.5,28-28,28h0L656.6,518l0,48.6L763,566.7z"/>
</svg>
