<?xml version="1.0" standalone="no"?><!DOCTYPE svg PUBLIC "-//W3C//DTD SVG 1.1//EN" "http://www.w3.org/Graphics/SVG/1.1/DTD/svg11.dtd"><svg t="1574232341363" class="icon" viewBox="0 0 1376 1024" version="1.1" xmlns="http://www.w3.org/2000/svg" p-id="8460" xmlns:xlink="http://www.w3.org/1999/xlink" width="21.5" height="16"><defs><style type="text/css"></style></defs><path d="M1211.62559537 62.18852363L1204.66367437 62H214.67040679C153.91182252 62 104.66666666 104.41789472 104.66666666 156.73329863V867.26670137c0 52.32886963 49.24515586 94.73329863 110.00374013 94.73329863h989.99326758c58.41550107 0 106.20632901-39.21298682 109.78828419-88.74092901l0.21545596-5.99236962V156.73329863c-0.02693232-50.30896992-45.52854082-91.40719658-103.04181914-94.544775z m-558.16563164 669.28705049l-150.81918135 103.5939252a38.70127969 38.70127969 0 0 1-44.22233936 0l-150.81918134-103.5939252c-18.25989346-11.6750206-27.09358857-36.6948457-21.22241309-60.07181836l102.08573349-271.39373086a60.59699297 60.59699297 0 0 0 1e-8-23.30964316l-51.66903603-103.58045947a60.74511855 60.74511855 0 0 1-0.72716397-9.6551209c0.14812558-28.60178028 20.07780381-51.64210371 44.5051248-51.4670458h198.20602969a38.47235713 38.47235713 0 0 1 7.64868691 0.67330019c24.10413662 4.57843974 40.47879112 31.17378604 36.57365156 59.41198477l-51.68250175 103.58045947a60.59699297 60.59699297 0 0 0 0 23.30964317l101.19697823 272.43061259c6.27515508 22.78446943-1.54858974 47.6023043-19.0543878 60.07181836z m434.74975664 50.52442588H916.66636734a49.50100987 49.50100987 0 0 1 0-99.00201972h171.5972168a49.50100987 49.50100987 0 1 1 0 99.00201972z m0-214.99812949H861.67123014a49.50100987 49.50100987 0 1 1 0-99.00201973h226.592354a49.50100987 49.50100987 0 0 1 0 99.00201973z m0-214.99813038H773.67093082a49.50100987 49.50100987 0 0 1 0-99.00201972h314.59265332a49.50100987 49.50100987 0 0 1 0 99.00201972z" p-id="8461"></path></svg>