<?xml version="1.0" encoding="utf-8"?>
<!-- Generator: Adobe Illustrator 22.0.1, SVG Export Plug-In . SVG Version: 6.00 Build 0)  -->
<svg version="1.1" id="图层_1" xmlns="http://www.w3.org/2000/svg" xmlns:xlink="http://www.w3.org/1999/xlink" x="0px" y="0px"
	 viewBox="0 0 1024 1024" style="enable-background:new 0 0 1024 1024;" xml:space="preserve">
<g id="图层_2_1_">
	<g id="图层_1-2">
		<path id="hr_workexp" d="M886.7,64.7H136.9c-40,0-72.4,32.4-72.4,72.4v749.9c0,40,32.4,72.4,72.4,72.4c0,0,0,0,0,0h749.9
			c40,0.2,72.5-32,72.8-71.9c0-0.1,0-0.3,0-0.4V137.1c0-40-32.4-72.4-72.4-72.4C887,64.7,886.9,64.7,886.7,64.7z M527,779.6H286.1
			c-22.7,0-41.1-18.4-41.1-41.1s18.4-41.1,41.1-41.1H527c22.7,0,41.1,18.4,41.1,41.1S549.7,779.6,527,779.6z M527,615.2H286.1
			c-22.1,5-44.2-8.8-49.2-30.9c-5-22.1,8.8-44.2,30.9-49.2c6-1.4,12.3-1.4,18.3,0H527c22.1-5,44.2,8.8,49.2,30.9
			c5,22.1-8.8,44.2-30.9,49.2C539.3,616.6,533,616.6,527,615.2z M527,461.8H286.1c-22.7,0-41.1-18.4-41.1-41.1s18.4-41.1,41.1-41.1
			H527c22.7,0,41.1,18.4,41.1,41.1S549.7,461.8,527,461.8z M527,297.4H286.1c-22.1,5-44.2-8.8-49.2-30.9c-5-22.1,8.8-44.2,30.9-49.2
			c6-1.4,12.3-1.4,18.3,0H527c22.7,0,41.1,18.4,41.1,41.1s-18.4,41.1-41.1,41.1V297.4z M780.3,640.3c-3.7,14-35.8,110.6-35.8,111.4
			v3.3c-0.4,2-2.1,3.5-4.1,3.7c-2.1,0-4.1-2.9-4.9-7c-0.8-4.1-31.2-93.3-35.8-111.4V264.1c0-22.7,18.4-41.1,41.1-41.1l0,0
			c21,1,37.8,17.7,39.1,38.6L780.3,640.3z"/>
	</g>
</g>
</svg>
