<?xml version="1.0" encoding="utf-8"?>
<!-- Generator: Adobe Illustrator 19.1.0, SVG Export Plug-In . SVG Version: 6.00 Build 0)  -->
<svg version="1.1" id="imissive_x5F_exchange" xmlns="http://www.w3.org/2000/svg" xmlns:xlink="http://www.w3.org/1999/xlink"
	 x="0px" y="0px" viewBox="0 0 1024 1024" style="enable-background:new 0 0 1024 1024;" xml:space="preserve">
<g>
	<path d="M805.9,344.5C805.9,189.6,665.8,64,510.1,64c-155.7,0-292,125.6-292,280.5c0,143.6,288.7,487.5,288.7,487.5
		S805.9,492.9,805.9,344.5L805.9,344.5z M417,354.4c0-53,43.9-96,98-96c54.1,0,98,42.9,98,96s-43.9,96-98,96
		C460.9,450.3,417,407.4,417,354.4L417,354.4z M608.8,840.3c0.8,2.5,1.3,5.1,1.3,7.7c0,26.5-43.9,48-98,48c-54.1,0-98-21.5-98-48
		c0-2.6,0.4-5.2,1.3-7.7c-59.3,11-99.3,31.8-99.3,55.7c0,35.4,87.7,64,196,64c108.2,0,196-28.6,196-64
		C708,872.1,668.1,851.3,608.8,840.3L608.8,840.3z M608.8,840.3"/>
</g>
</svg>
