<?xml version="1.0" encoding="utf-8"?>
<!-- Generator: Adobe Illustrator 19.1.0, SVG Export Plug-In . SVG Version: 6.00 Build 0)  -->
<svg version="1.1" id="imissive_x5F_exchange" xmlns="http://www.w3.org/2000/svg" xmlns:xlink="http://www.w3.org/1999/xlink"
	 x="0px" y="0px" viewBox="0 0 1024 1024" style="enable-background:new 0 0 1024 1024;" xml:space="preserve">
<g>
	<path d="M596,769.9v-83.4c0-46.5-37.5-82-84-82s-84,35.5-84,82v83.4l51.7,66.5L344,903.5V960h336v-56.5l-132-67.1L596,769.9z"/>
	<path d="M912.1,64H767.6h-79.8C623.9,64,568,78.2,540,114.3v419.9C652,554,650.5,638.7,650.5,750.5c0,9.6-1.7,18.2-2.6,27.4
		l119.7,0.1h144.5c24.1,0,47.9-18,47.9-42.2V108.2C960,84.1,936.3,64,912.1,64z M848.5,470H639.9c-15.5,0-28.1-12.5-28.1-28
		s12.6-28,28.1-28h208.5c15.5,0,28.1,12.5,28.1,28S864,470,848.5,470z M848.5,316H639.9c-15.5,0-28.1-12.5-28.1-28s12.6-28,28.1-28
		h208.5c15.5,0,28.1,12.5,28.1,28S864,316,848.5,316z"/>
	<path d="M375.9,746.7c0-111.8,6.6-187.5,108.1-210.5V109.2C456,73.1,404.8,64,340.9,64h-79.8H116.6C92.5,64,64,79,64,103.2v627.6
		c0,24.1,28.5,47.2,52.6,47.2h144.5l119.7-2.6C379.9,766.1,375.9,756.3,375.9,746.7z M180.3,260h208.5c15.5,0,28.1,12.5,28.1,28
		s-12.6,28-28.1,28H180.3c-15.5,0-28.1-12.5-28.1-28S164.7,260,180.3,260z M180.3,470c-15.5,0-28.1-12.5-28.1-28s12.6-28,28.1-28
		h208.5c15.5,0,28.1,12.5,28.1,28s-12.6,28-28.1,28H180.3z"/>
</g>
</svg>
