<?xml version="1.0" encoding="utf-8"?>
<!-- Generator: Adobe Illustrator 19.1.0, SVG Export Plug-In . SVG Version: 6.00 Build 0)  -->
<svg version="1.1" id="imissive_x5F_exchange" xmlns="http://www.w3.org/2000/svg" xmlns:xlink="http://www.w3.org/1999/xlink"
	 x="0px" y="0px" viewBox="0 0 1024 1024" style="enable-background:new 0 0 1024 1024;" xml:space="preserve">
<style type="text/css">
	.st0{fill:#030000;}
</style>
<g>
	<path class="st0" d="M870.4,766c-22.5-51.2-71.7-88.1-129-102.4c32.8-20.5,53.3-57.3,53.3-98.3c0-63.5-51.2-114.7-114.7-114.7
		s-114.7,51.2-114.7,114.7c0,43,22.5,79.9,57.3,100.4C565.3,682,520.2,720.9,497.7,770c-8.2,20.5,0,49.2,20.5,61.4
		c49.2,30.7,104.4,47.1,163.8,47.1c61.4,0,118.8-18.4,170-51.2C870.4,815.1,880.7,784.4,870.4,766z"/>
	<path class="st0" d="M727.1,124.9H196.6c-38.9,0-47.1,10.2-47.1,49.2v682c0,38.9,4.1,43,43,43h352.3c-20.5-8.2-41-18.4-59.4-30.7
		c-32.8-20.5-47.1-67.6-32.8-100.4c20.5-49.1,59.4-90.1,110.6-114.7c-24.6-26.6-36.9-63.5-36.9-100.4c0-84,67.6-153.6,151.6-153.6
		c36.9,0,67.6,4.1,94.2,28.7V167.9C772.1,129,766,124.9,727.1,124.9z M397.6,657.1c0,18.7-15.3,34-34,34h-76.9
		c-18.7,0-34-15.3-34-34v-8c0-18.7,15.3-34,34-34h76.9c18.7,0,34,15.3,34,34V657.1z M397.6,484.1c0,18.7-15.3,34-34,34h-76.9
		c-18.7,0-34-15.3-34-34v-8c0-18.7,15.3-34,34-34h76.9c18.7,0,34,15.3,34,34V484.1z M504.6,310.1c0,18.7-15.3,34-34,34h-184
		c-18.7,0-34-15.3-34-34v-8c0-18.7,15.3-34,34-34h184c18.7,0,34,15.3,34,34V310.1z"/>
</g>
</svg>
