<?xml version="1.0" encoding="utf-8"?>
<!-- Generator: Adobe Illustrator 19.1.0, SVG Export Plug-In . SVG Version: 6.00 Build 0)  -->
<svg version="1.1" id="imissive_x5F_exchange" xmlns="http://www.w3.org/2000/svg" xmlns:xlink="http://www.w3.org/1999/xlink"
	 x="0px" y="0px" viewBox="0 0 1024 1024" style="enable-background:new 0 0 1024 1024;" xml:space="preserve">
<path d="M864.8,64H159.2c-24.4,0-44.1,19.7-44.1,44.1v807.8c0,24.4,19.7,44.1,44.1,44.1h705.6c24.4,0,44.1-19.7,44.1-44.1V108.1
	C908.9,83.7,889.2,64,864.8,64z M240.9,259.6c0-13.4,10.9-24.4,24.4-24.4h176.5c13.4,0,24.3,10.9,24.3,24.4v176.5
	c0,13.4-10.9,24.4-24.3,24.4H265.3c-13.5,0-24.4-10.9-24.4-24.4V259.6z M348.7,823.4h-83.6c-15.4,0-27.9-12.5-27.9-27.9
	s12.5-27.9,27.9-27.9h83.6c15.4,0,27.9,12.5,27.9,27.9S364.1,823.4,348.7,823.4z M442.7,649.5H265.1c-15.4,0-27.9-12.5-27.9-27.9
	s12.5-27.9,27.9-27.9h177.6c15.4,0,27.9,12.5,27.9,27.9S458.1,649.5,442.7,649.5z M664,818.1h-83.6c-15.4,0-27.9-12.5-27.9-27.9
	s12.5-27.9,27.9-27.9H664c15.4,0,27.9,12.5,27.9,27.9S679.4,818.1,664,818.1z M758,649.5H580.4c-15.4,0-27.9-12.5-27.9-27.9
	s12.5-27.9,27.9-27.9H758c15.4,0,27.9,12.5,27.9,27.9S773.4,649.5,758,649.5z M758,469.8H580.4c-15.4,0-27.9-12.5-27.9-27.9
	S565,414,580.4,414H758c15.4,0,27.9,12.5,27.9,27.9S773.4,469.8,758,469.8z M758,281.8H580.4c-15.4,0-27.9-12.5-27.9-27.9
	S565,226,580.4,226H758c15.4,0,27.9,12.5,27.9,27.9S773.4,281.8,758,281.8z"/>
</svg>
