<?xml version="1.0" encoding="utf-8"?>
<!-- Generator: Adobe Illustrator 22.0.1, SVG Export Plug-In . SVG Version: 6.00 Build 0)  -->
<svg version="1.1" id="图层_1" xmlns="http://www.w3.org/2000/svg" xmlns:xlink="http://www.w3.org/1999/xlink" x="0px" y="0px"
	 viewBox="0 0 1024 1024" style="enable-background:new 0 0 1024 1024;" xml:space="preserve">
<g id="图层_2_1_">
	<g id="图层_1-2">
		<g id="news_all">
			<path d="M904.2,907.4c26,0,47-21,47-47V400.3h-94v459.4c-0.4,25.9,20.3,47.3,46.3,47.7C903.7,907.4,904,907.4,904.2,907.4z"/>
			<path d="M804.4,859.7v-492l0,0V121.6c-0.2-31.5-25.7-56.9-57.1-57.1H129.9c-31.5,0-57.1,25.6-57.1,57.1c0,0,0,0,0,0V902
				c0,31.6,25.5,57.3,57.1,57.5h755.8C838.2,950.1,804,908.2,804.4,859.7z M436.8,774.1H267.3c-16.4,0-29.7-13.2-29.7-29.6
				c0-16.4,13.2-29.7,29.6-29.7c0,0,0,0,0.1,0h169.5c16.4,0,29.7,13.2,29.7,29.6C466.5,760.8,453.2,774.1,436.8,774.1
				C436.8,774.1,436.8,774.1,436.8,774.1z M592.2,619.4H266.9c-16.5,1.8-31.3-10.1-33.1-26.5c-1.8-16.5,10.1-31.3,26.5-33.1
				c2.2-0.2,4.4-0.2,6.6,0h325.3c16.5,1.8,28.3,16.6,26.5,33.1C617.2,606.8,606.2,617.8,592.2,619.4z M592.2,461H266.9
				c-16.4,0-29.6-13.3-29.6-29.6s13.3-29.6,29.6-29.6h325.3c16.4,0,29.6,13.3,29.6,29.6S608.6,461,592.2,461z M592.2,309.2H266.9
				c-16.5,1.8-31.3-10.1-33.1-26.5s10.1-31.3,26.5-33.1c2.2-0.2,4.4-0.2,6.6,0h325.3c16.5,1.8,28.3,16.6,26.5,33.1
				C617.2,296.6,606.2,307.7,592.2,309.2z"/>
		</g>
	</g>
</g>
</svg>
