<?xml version="1.0" encoding="utf-8"?>
<!-- Generator: Adobe Illustrator 22.0.1, SVG Export Plug-In . SVG Version: 6.00 Build 0)  -->
<svg version="1.1" id="图层_1" xmlns="http://www.w3.org/2000/svg" xmlns:xlink="http://www.w3.org/1999/xlink" x="0px" y="0px"
	 viewBox="0 0 1024 1024" style="enable-background:new 0 0 1024 1024;" xml:space="preserve">
<style type="text/css">
	.st0{fill:#020202;}
</style>
<path class="st0" d="M947.8,370.2l-363.2-257c-55.9-39.1-89.4-39.1-145.3,0l-363.2,257c-11.2,5.6-16.8,16.8-5.6,27.9
	c5.6,5.6,11.2,11.2,16.8,11.2c5.6,0,11.2,0,11.2-5.6l33.5-22.4v536.4c0,11.2,11.2,22.3,22.3,22.3c0.7,0,1.4-0.6,2.1-0.7v0.7
	c0,0,657.8,0,694.3,0c36.5,0,41.1-23.7,41.1-27.9V381.4l33.5,22.4c11.2,5.6,22.4,5.6,27.9-5.6C964.6,387,959,375.8,947.8,370.2z
	 M372.3,821.4c0,12.8-10.4,23.3-23.3,23.3h-76.4c-12.8,0-23.3-10.4-23.3-23.3v-87.6c0-12.8,10.4-23.3,23.3-23.3l76.4,0
	c12.9,0,23.3,10.4,23.3,23.3V821.4z M372.3,648.2c0,12.8-10.4,23.3-23.3,23.3h-76.4c-12.8,0-23.3-10.4-23.3-23.3v-87.6
	c0-12.8,10.4-23.3,23.3-23.3H349c12.9,0,23.3,10.4,23.3,23.3V648.2z M372.3,475c0,12.8-10.4,23.3-23.3,23.3h-76.4
	c-12.8,0-23.3-10.4-23.3-23.3v-87.6c0-12.8,10.4-23.3,23.3-23.3H349c12.9,0,23.3,10.4,23.3,23.3V475z M573.5,821.4
	c0,12.8-10.4,23.3-23.3,23.3h-76.4c-12.8,0-23.3-10.4-23.3-23.3v-87.6c0-12.8,10.4-23.3,23.3-23.3l76.4,0
	c12.8,0,23.3,10.4,23.3,23.3V821.4z M573.5,648.2c0,12.8-10.4,23.3-23.3,23.3h-76.4c-12.8,0-23.3-10.4-23.3-23.3v-87.6
	c0-12.8,10.4-23.3,23.3-23.3h76.4c12.8,0,23.3,10.4,23.3,23.3V648.2z M780.2,821.4c0,12.8-10.4,23.3-23.3,23.3h-76.4
	c-12.8,0-23.3-10.4-23.3-23.3v-87.6c0-12.8,10.4-23.3,23.3-23.3l76.4,0c12.8,0,23.3,10.4,23.3,23.3V821.4z"/>
</svg>
