<?xml version="1.0" encoding="UTF-8"?>
<svg width="16px" height="16px" viewBox="0 0 16 16" version="1.1" xmlns="http://www.w3.org/2000/svg" xmlns:xlink="http://www.w3.org/1999/xlink">
    <!-- Generator: Sketch 54 (76480) - https://sketchapp.com -->
    <title>我的考核信息</title>
    <desc>Created with Sketch.</desc>
    <g id="零散的rdm单" stroke="none" stroke-width="1" fill="none" fill-rule="evenodd">
        <g id="绩效考核目录树图标" transform="translate(-428.000000, -214.000000)" fill="#FFFFFF" fill-rule="nonzero">
            <g id="我的考核信息" transform="translate(428.000000, 214.000000)">
                <rect id="矩形" opacity="0" x="0" y="0" width="16" height="16"></rect>
                <path d="M6.29315625,5.177375 L10.4196094,5.177375 L10.4196094,5.86520312 L6.29315625,5.86520312 L6.29315625,5.17739063 L6.29315625,5.177375 Z M6.29315625,7.92817188 L8.35515625,7.92817188 L8.35515625,8.61598438 L6.29315625,8.61598438 L6.29315625,7.92817188 L6.29315625,7.92817188 Z M6.29315625,10.6794687 L6.98048437,10.6794687 L6.98048437,11.3672812 L6.29315625,11.3672812 L6.29315625,10.6794687 Z M3.35532812,6.002875 L3.83664062,6.4841875 L4.31796875,6.002875 L5.281125,5.04021875 L4.79929687,4.55889063 L3.83664062,5.52154688 L3.35532812,5.04021875 L2.8735,5.52154688 L3.35532812,6.002875 Z M3.83664062,8.27234375 L3.35532812,7.79101563 L2.8735,8.27234375 L3.35532812,8.75415625 L3.83664062,9.23548438 L4.31796875,8.75415625 L5.281125,7.79101563 L4.79929687,7.3091875 L3.83664062,8.27234375 Z M4.79929687,10.0594844 L3.83664062,11.023125 L3.35532812,10.5422969 L2.8735,11.023125 L3.35532812,11.5044531 L3.83664062,11.9852812 L4.31796875,11.5044531 L5.281125,10.5422969 L4.79929687,10.0594844 Z M11.9418906,9.59959375 C13.4611875,9.59959375 14.7405625,10.8779844 14.7405625,12.3977813 C14.7405625,13.9190781 13.4611875,15.1974688 11.9418906,15.1974688 C10.4240781,15.1974688 9.14371875,13.9175781 9.14371875,12.3977813 C9.14371875,10.8789844 10.4230937,9.59959375 11.9418906,9.59959375 Z M11.9418906,8.79904688 C10.9863115,8.79517631 10.0687599,9.17310063 9.39310483,9.84884961 C8.71744973,10.5245986 8.33965291,11.4422026 8.34365625,12.3977812 C8.34365625,14.3989062 9.94226562,15.997 11.9418906,15.997 C13.9415156,15.997 15.5411094,14.3989062 15.5411094,12.3977812 C15.5449757,11.4420735 15.1669995,10.5243996 14.4911611,9.84865211 C13.8153226,9.17290462 12.8975979,8.79505192 11.9418906,8.79904688 L11.9418906,8.79904688 Z M12.3424219,11.99875 L12.3424219,10.3986563 L11.5423437,10.3986563 L11.5423437,12.7982813 L13.941,12.7982813 L13.941,11.99875 L12.3424062,11.99875 L12.3424219,11.99875 Z M12.5204687,0.5915625 L10.410625,0.5915625 C10.410625,0.264359375 10.1402812,0 9.80659375,0 L4.68009375,0 C4.34740625,0 4.0775625,0.264359375 4.0775625,0.5915625 L1.6654375,0.5915625 C0.9995625,0.5915625 0.459375,1.12125 0.459375,1.7746875 L0.459375,14.1958906 C0.459375,14.8483125 0.9995625,15.3785156 1.6654375,15.3785156 L8.29876562,15.3785156 L8.29876562,14.1958906 L2.26798437,14.1958906 C2.10963179,14.1973602 1.95718248,14.1358576 1.8441802,14.0249153 C1.73117791,13.9139731 1.66688124,13.762681 1.6654375,13.6043281 L1.6654375,2.36625 C1.6654375,2.04004687 1.93578125,1.7746875 2.26796875,1.7746875 L4.0775625,1.7746875 L4.0775625,2.36625 C4.0775625,2.69295312 4.34740625,2.9578125 4.68009375,2.9578125 L9.80609375,2.9578125 C10.1397813,2.9578125 10.410125,2.6934375 10.410125,2.36625 L10.410125,1.7746875 L11.9169531,1.7746875 C12.2496406,1.7746875 12.5199844,2.03953125 12.5199844,2.36625 L12.5199844,8.4309375 L13.7260469,8.4309375 L13.7260469,1.77467187 C13.7260469,1.12126562 13.1863594,0.591546875 12.5204844,0.591546875 L12.5204687,0.5915625 Z" id="形状"></path>
            </g>
        </g>
    </g>
</svg>