<?xml version="1.0" encoding="UTF-8"?>
<svg width="16px" height="16px" viewBox="0 0 16 16" version="1.1" xmlns="http://www.w3.org/2000/svg" xmlns:xlink="http://www.w3.org/1999/xlink">
    <!-- Generator: Sketch 54 (76480) - https://sketchapp.com -->
    <title>绩效申诉</title>
    <desc>Created with Sketch.</desc>
    <g id="零散的rdm单" stroke="none" stroke-width="1" fill="none" fill-rule="evenodd">
        <g id="绩效考核目录树图标" transform="translate(-428.000000, -372.000000)" fill-rule="nonzero">
            <g id="绩效申诉" transform="translate(428.000000, 372.000000)">
                <rect id="矩形" fill="#000000" opacity="0" x="0" y="0" width="16" height="16"></rect>
                <polygon id="路径" fill="#FFFFFF" points="5.4078125 7.221875 4.0796875 7.221875 4.0796875 6.86875 4.5234375 6.86875 4.5234375 5.5078125 4.0671875 5.6109375 4.0671875 5.246875 4.9671875 5.0578125 4.9671875 6.86875 5.4078125 6.86875"></polygon>
                <path d="M5.4546875,7.26875 L4.0328125,7.26875 L4.0328125,6.821875 L4.4765625,6.821875 L4.4765625,5.5671875 L4.0203125,5.6703125 L4.0203125,5.209375 L5.0140625,5 L5.0140625,6.821875 L5.4546875,6.821875 L5.4546875,7.26875 Z M4.1265625,7.175 L5.3609375,7.175 L5.3609375,6.915625 L4.9203125,6.915625 L4.9203125,5.115625 L4.1140625,5.284375 L4.1140625,5.5515625 L4.5703125,5.4484375 L4.5703125,6.915625 L4.1265625,6.915625 L4.1265625,7.175 L4.1265625,7.175 Z M5.809375,6.19375 C5.809375,5.825 5.8765625,5.5453125 6.0125,5.35 C6.1484375,5.15625 6.34375,5.059375 6.6,5.059375 C7.0890625,5.059375 7.3328125,5.4203125 7.3328125,6.14375 C7.3328125,6.5 7.2671875,6.775 7.134375,6.96875 C7.0015625,7.1625 6.809375,7.259375 6.559375,7.259375 C6.0578125,7.259375 5.809375,6.903125 5.809375,6.19375 L5.809375,6.19375 Z M6.2578125,6.1828125 C6.2578125,6.6734375 6.3625,6.91875 6.571875,6.91875 C6.778125,6.91875 6.88125,6.665625 6.88125,6.1609375 C6.88125,5.653125 6.78125,5.4 6.58125,5.4 C6.365625,5.4 6.2578125,5.6609375 6.2578125,6.1828125 L6.2578125,6.1828125 Z" id="形状" fill="#FFFFFF"></path>
                <path d="M6.559375,7.30625 C6.03125,7.30625 5.7625,6.93125 5.7625,6.19375 C5.7625,5.8125 5.83125,5.528125 5.9734375,5.3234375 C6.11875,5.1171875 6.328125,5.0125 6.6,5.0125 C7.1171875,5.0125 7.3796875,5.39375 7.3796875,6.14375 C7.3796875,6.509375 7.309375,6.7953125 7.1734375,6.9953125 C7.03125,7.2015625 6.825,7.30625 6.559375,7.30625 L6.559375,7.30625 Z M6.6,5.10625 C6.3578125,5.10625 6.178125,5.1953125 6.0515625,5.3765625 C5.921875,5.5625 5.85625,5.8375 5.85625,6.19375 C5.85625,6.8796875 6.0859375,7.2125 6.559375,7.2125 C6.7953125,7.2125 6.9703125,7.1234375 7.0953125,6.9421875 C7.221875,6.7578125 7.2859375,6.4890625 7.2859375,6.14375 C7.2859375,5.4453125 7.0609375,5.10625 6.6,5.10625 Z M6.571875,6.965625 C6.446875,6.965625 6.353125,6.89375 6.29375,6.753125 C6.2390625,6.6234375 6.2109375,6.4375 6.2109375,6.1828125 C6.2109375,5.9125 6.2390625,5.715625 6.2953125,5.578125 C6.35625,5.4296875 6.453125,5.353125 6.58125,5.353125 C6.8140625,5.353125 6.928125,5.6171875 6.928125,6.1609375 C6.928125,6.421875 6.9015625,6.6140625 6.846875,6.746875 C6.7875,6.8921875 6.6953125,6.965625 6.571875,6.965625 L6.571875,6.965625 Z M6.58125,5.446875 C6.3984375,5.446875 6.3046875,5.69375 6.3046875,6.1828125 C6.3046875,6.640625 6.3953125,6.871875 6.571875,6.871875 C6.7890625,6.871875 6.834375,6.4859375 6.834375,6.1609375 C6.834375,5.8359375 6.790625,5.446875 6.58125,5.446875 L6.58125,5.446875 Z" id="形状" fill="#FFFFFF"></path>
                <path d="M7.684375,6.19375 C7.684375,5.825 7.7515625,5.5453125 7.8875,5.35 C8.0234375,5.15625 8.21875,5.059375 8.475,5.059375 C8.9640625,5.059375 9.2078125,5.4203125 9.2078125,6.14375 C9.2078125,6.5 9.1421875,6.775 9.009375,6.96875 C8.8765625,7.1625 8.684375,7.259375 8.434375,7.259375 C7.934375,7.259375 7.684375,6.903125 7.684375,6.19375 L7.684375,6.19375 Z M8.1328125,6.1828125 C8.1328125,6.6734375 8.2375,6.91875 8.446875,6.91875 C8.653125,6.91875 8.75625,6.665625 8.75625,6.1609375 C8.75625,5.653125 8.65625,5.4 8.45625,5.4 C8.240625,5.4 8.1328125,5.6609375 8.1328125,6.1828125 L8.1328125,6.1828125 Z" id="形状" fill="#FFFFFF"></path>
                <path d="M8.434375,7.30625 C7.90625,7.30625 7.6375,6.93125 7.6375,6.19375 C7.6375,5.8125 7.70625,5.528125 7.8484375,5.3234375 C7.99375,5.1171875 8.203125,5.0125 8.475,5.0125 C8.9921875,5.0125 9.2546875,5.39375 9.2546875,6.14375 C9.2546875,6.509375 9.184375,6.7953125 9.0484375,6.9953125 C8.90625,7.2015625 8.7,7.30625 8.434375,7.30625 Z M8.475,5.10625 C8.2328125,5.10625 8.053125,5.1953125 7.9265625,5.3765625 C7.796875,5.5625 7.73125,5.8375 7.73125,6.19375 C7.73125,6.8796875 7.9609375,7.2125 8.434375,7.2125 C8.6703125,7.2125 8.8453125,7.1234375 8.9703125,6.9421875 C9.096875,6.7578125 9.1609375,6.4890625 9.1609375,6.14375 C9.1609375,5.4453125 8.9359375,5.10625 8.475,5.10625 Z M8.446875,6.965625 C8.321875,6.965625 8.228125,6.89375 8.16875,6.753125 C8.1140625,6.6234375 8.0859375,6.4375 8.0859375,6.1828125 C8.0859375,5.9125 8.1140625,5.715625 8.1703125,5.578125 C8.23125,5.4296875 8.328125,5.353125 8.45625,5.353125 C8.6890625,5.353125 8.803125,5.6171875 8.803125,6.1609375 C8.803125,6.421875 8.7765625,6.6140625 8.721875,6.746875 C8.6625,6.8921875 8.5703125,6.965625 8.446875,6.965625 Z M8.45625,5.446875 C8.2734375,5.446875 8.1796875,5.69375 8.1796875,6.1828125 C8.1796875,6.640625 8.2703125,6.871875 8.446875,6.871875 C8.6640625,6.871875 8.709375,6.4859375 8.709375,6.1609375 C8.709375,5.8359375 8.665625,5.446875 8.45625,5.446875 L8.45625,5.446875 Z" id="形状" fill="#FFFFFF"></path>
                <path d="M9.278125,8.9546875 L4,8.9546875 L4,8.065625 L9.278125,8.065625 L9.278125,8.9546875 L9.278125,8.9546875 Z M7.0171875,9.6453125 L4.0109375,9.6453125 L4.0109375,10.534375 L7.015625,10.534375 L7.015625,9.6453125 L7.0171875,9.6453125 Z" id="形状" fill="#FFFFFF"></path>
                <path d="M12.5204687,0.5915625 L10.410625,0.5915625 C10.410625,0.264359375 10.1402812,-1.15463195e-14 9.80659375,-1.15463195e-14 L4.68009375,-1.15463195e-14 C4.34740625,-1.15463195e-14 4.0775625,0.264359375 4.0775625,0.5915625 L1.6654375,0.5915625 C0.9995625,0.5915625 0.459375,1.12125 0.459375,1.7746875 L0.459375,14.1958906 C0.459375,14.8483125 0.9995625,15.3785156 1.6654375,15.3785156 L8.29876562,15.3785156 L8.29876562,14.1958906 L2.26798437,14.1958906 C2.10963179,14.1973602 1.95718248,14.1358576 1.8441802,14.0249153 C1.73117791,13.9139731 1.66688124,13.762681 1.6654375,13.6043281 L1.6654375,2.36625 C1.6654375,2.04004687 1.93578125,1.7746875 2.26796875,1.7746875 L4.0775625,1.7746875 L4.0775625,2.36625 C4.0775625,2.69295312 4.34740625,2.9578125 4.68009375,2.9578125 L9.80609375,2.9578125 C10.1397812,2.9578125 10.410125,2.6934375 10.410125,2.36625 L10.410125,1.7746875 L11.9169531,1.7746875 C12.2496406,1.7746875 12.5199844,2.03953125 12.5199844,2.36625 L12.5199844,8.4309375 L13.7260469,8.4309375 L13.7260469,1.77467187 C13.7260469,1.12126562 13.1863594,0.591546875 12.5204844,0.591546875 L12.5204687,0.5915625 Z" id="路径" fill="#FFFFFF"></path>
                <polygon id="路径" fill="#FFFFFF" points="12.0439772 15.3699483 12.4220083 15.3699483 12.4220083 16 9.00922816 16 9.00922816 15.3699483 9.37675832 15.3699483 9.37675832 14.9814164 12.0439772 14.9814164"></polygon>
                <polygon id="路径" fill="#FFFFFF" points="9.88058758 11.0138407 11.2649512 9.76423818 12.6983189 11.2711119 12.5513068 11.4181239 12.8575819 11.7611521 12.7105699 11.8836621 15.7468462 15.0066924 15.1008606 15.6559957 11.9632585 12.4594594 11.8284975 12.6064715 11.5222223 12.3124473 11.3629592 12.4839614"></polygon>
                <path d="M9.01076618,11.7243991 C9.01076618,11.7243991 8.85150311,10.8913307 9.75807752,11.1608528 L11.3262062,12.7044795 C11.3262062,12.7044795 11.3752103,13.5497989 10.5911459,13.3415318 L9.01076618,11.7243991 Z" id="路径" fill="#FFFFFF"></path>
                <path d="M11.4609673,9.61722611 C11.4609673,9.61722611 11.3017042,8.78415774 12.2082786,9.05367986 L13.7764073,10.5973066 C13.7764073,10.5973066 13.8254114,11.4426259 13.041347,11.2343588 L11.4609673,9.61722611 Z" id="路径" fill="#FFFFFF"></path>
            </g>
        </g>
    </g>
</svg>