<?xml version="1.0" encoding="UTF-8"?>
<svg width="14px" height="16px" viewBox="0 0 14 16" version="1.1" xmlns="http://www.w3.org/2000/svg" xmlns:xlink="http://www.w3.org/1999/xlink">
    <!-- Generator: Sketch 54 (76480) - https://sketchapp.com -->
    <title>所有绩效考核</title>
    <desc>Created with Sketch.</desc>
    <g id="零散的rdm单" stroke="none" stroke-width="1" fill="none" fill-rule="evenodd">
        <g id="绩效考核目录树图标" transform="translate(-429.000000, -55.000000)" fill-rule="nonzero">
            <g id="所有绩效考核" transform="translate(428.000000, 55.000000)">
                <g id="编组-16" transform="translate(1.000000, 0.000000)" fill="#FFFFFF">
                    <polygon id="路径" points="5.83378125 11 9.96023438 11 9.96023438 11.6878281 5.83378125 11.6878281 5.83378125 11.0000156"></polygon>
                    <polygon id="路径" points="4.33992188 10.0594844 3.37726563 11.023125 2.89595313 10.5422969 2.414125 11.023125 2.89595313 11.5044531 3.37726563 11.9852812 3.85859375 11.5044531 4.82175 10.5422969"></polygon>
                    <path d="M13.2666719,8.4309375 L13.2666719,14.1958906 C13.2666719,14.8483125 12.7264844,15.3785156 12.0606094,15.3785156 L7.83939063,15.3785156 L1.2060625,15.3785156 C0.5401875,15.3785156 1.36779477e-13,14.8483125 1.36779477e-13,14.1958906 L1.36779477e-13,1.7746875 C1.36779477e-13,1.44805053 0.13497928,1.15233557 0.353164235,0.93824672 C0.571227077,0.723979769 0.872620969,0.591546875 1.2055625,0.591546875 L1.20557813,0.5915625 L3.31542188,0.5915625 C3.31542188,0.264359375 3.58576563,-1.33226763e-14 3.91945313,-1.33226763e-14 L6.63333594,-1.33226763e-14 L9.34721875,-1.33226763e-14 C9.68090625,-1.33226763e-14 9.95125,0.264359375 9.95125,0.5915625 L12.0610938,0.5915625 L12.0611094,0.591546875 C12.7269844,0.591546875 13.2666719,1.12126562 13.2666719,1.77467187 L13.2666719,8.4309375 Z M12.0606094,8.4309375 L12.0606094,2.36625 C12.0606094,2.03953125 11.7902656,1.7746875 11.4575781,1.7746875 L9.95075,1.7746875 L9.95075,2.36625 C9.95075,2.6934375 9.68040625,2.9578125 9.34671875,2.9578125 L6.63333594,2.9578125 L3.91995313,2.9578125 C3.58626563,2.9578125 3.31592188,2.6934375 3.31592188,2.36625 L3.31592188,1.7746875 L1.80859375,1.7746875 C1.47640625,1.7746875 1.2060625,2.04004687 1.2060625,2.36625 L1.2060625,13.6043281 C1.20750624,13.762681 1.27180291,13.9139731 1.3848052,14.0249153 C1.49780748,14.1358576 1.65025679,14.1973602 1.80860938,14.1958906 L7.83939063,14.1958906 L11.4580625,14.1958906 C11.6164151,14.1973602 11.7688644,14.1358576 11.8818667,14.0249153 C11.994869,13.9139731 12.0591656,13.762681 12.0606094,13.6043281 L12.0606094,8.4309375 Z" id="形状结合"></path>
                    <polygon id="路径-2" points="7.7996931 8.13545059 10.331678 5.33535195 9.58995282 4.66464805 7.76657834 6.68110097 5.93213628 4.82929755 3.63342559 7.30742682 4.36657441 7.98749506 5.95585788 6.2741651"></polygon>
                </g>
                <rect id="矩形" fill="#000000" opacity="0" x="0" y="0" width="16" height="16"></rect>
            </g>
        </g>
    </g>
</svg>