<?xml version="1.0" encoding="UTF-8"?>
<svg width="16px" height="16px" viewBox="0 0 16 16" version="1.1" xmlns="http://www.w3.org/2000/svg" xmlns:xlink="http://www.w3.org/1999/xlink">
    <!-- Generator: Sketch 54 (76480) - https://sketchapp.com -->
    <title>下属员工考核信息</title>
    <desc>Created with Sketch.</desc>
    <g id="零散的rdm单" stroke="none" stroke-width="1" fill="none" fill-rule="evenodd">
        <g id="绩效考核目录树图标" transform="translate(-428.000000, -336.000000)" fill-rule="nonzero">
            <g id="下属员工考核信息" transform="translate(428.000000, 336.000000)">
                <rect id="矩形" fill="#000000" opacity="0" x="0" y="0" width="16" height="16"></rect>
                <polygon id="路径" fill="#FFFFFF" points="6.29315625 5.177375 10.4196094 5.177375 10.4196094 5.86520312 6.29315625 5.86520312 6.29315625 5.17739062"></polygon>
                <polygon id="路径" fill="#FFFFFF" points="6.29315625 7.92817187 8.35515625 7.92817187 8.35515625 8.61598437 6.29315625 8.61598437 6.29315625 7.92817187"></polygon>
                <polygon id="路径" fill="#FFFFFF" points="6.29315625 10.6794687 6.98048438 10.6794687 6.98048438 11.3672812 6.29315625 11.3672812"></polygon>
                <polygon id="路径" fill="#FFFFFF" points="3.35532813 6.002875 3.83664063 6.4841875 4.31796875 6.002875 5.281125 5.04021875 4.79929688 4.55889062 3.83664063 5.52154687 3.35532813 5.04021875 2.8735 5.52154687"></polygon>
                <polygon id="路径" fill="#FFFFFF" points="3.83664063 8.27234375 3.35532813 7.79101563 2.8735 8.27234375 3.35532813 8.75415625 3.83664063 9.23548438 4.31796875 8.75415625 5.281125 7.79101563 4.79929688 7.3091875"></polygon>
                <polygon id="路径" fill="#FFFFFF" points="4.79929688 10.0594844 3.83664063 11.023125 3.35532813 10.5422969 2.8735 11.023125 3.35532813 11.5044531 3.83664063 11.9852812 4.31796875 11.5044531 5.281125 10.5422969"></polygon>
                <path d="M12.5204687,0.5915625 L10.410625,0.5915625 C10.410625,0.264359375 10.1402812,-1.15463195e-14 9.80659375,-1.15463195e-14 L4.68009375,-1.15463195e-14 C4.34740625,-1.15463195e-14 4.0775625,0.264359375 4.0775625,0.5915625 L1.6654375,0.5915625 C0.9995625,0.5915625 0.459375,1.12125 0.459375,1.7746875 L0.459375,14.1958906 C0.459375,14.8483125 0.9995625,15.3785156 1.6654375,15.3785156 L8.29876562,15.3785156 L8.29876562,14.1958906 L2.26798437,14.1958906 C2.10963179,14.1973602 1.95718248,14.1358576 1.8441802,14.0249153 C1.73117791,13.9139731 1.66688124,13.762681 1.6654375,13.6043281 L1.6654375,2.36625 C1.6654375,2.04004687 1.93578125,1.7746875 2.26796875,1.7746875 L4.0775625,1.7746875 L4.0775625,2.36625 C4.0775625,2.69295312 4.34740625,2.9578125 4.68009375,2.9578125 L9.80609375,2.9578125 C10.1397812,2.9578125 10.410125,2.6934375 10.410125,2.36625 L10.410125,1.7746875 L11.9169531,1.7746875 C12.2496406,1.7746875 12.5199844,2.03953125 12.5199844,2.36625 L12.5199844,8.4309375 L13.7260469,8.4309375 L13.7260469,1.77467187 C13.7260469,1.12126562 13.1863594,0.591546875 12.5204844,0.591546875 L12.5204687,0.5915625 Z" id="路径" fill="#FFFFFF"></path>
                <path d="M12.1785475,12.0510615 C13.0208939,12.0510615 13.7036872,11.3682682 13.7036872,10.5259218 C13.7036872,9.68357542 13.0208939,9.00078212 12.1785475,9 C11.3362011,9 10.6534078,9.6827933 10.6526257,10.5251397 L10.6526257,10.5259218 C10.6534078,11.3682682 11.3362011,12.0510615 12.1785475,12.0510615 Z M9.60536313,13.0779888 C9.30424581,13.8397765 9,16 9,16 L11.5911732,16 L10.8121788,12.4319553 C10.342905,12.4319553 9.90648045,12.3162011 9.60536313,13.0779888 Z M12.1785475,12.4319553 L11.443352,13.4588827 L12.0221229,16 L12.3349721,16 L12.913743,13.4588827 L12.1785475,12.4319553 Z M14.7517318,13.0779888 C14.4506145,12.3162011 14.0141899,12.4319553 13.5449162,12.4319553 L12.7659218,16 L15.357095,16 C15.357095,16 15.0528492,13.8397765 14.7517318,13.0779888 Z M14.5022346,14.3974302 L13.5934078,14.3974302 L13.5934078,14.1948603 L14.5022346,14.1948603 L14.5022346,14.3974302 Z" id="形状" fill="#FFFFFF"></path>
            </g>
        </g>
    </g>
</svg>