<?xml version="1.0" encoding="utf-8"?>
<!-- Generator: Adobe Illustrator 21.0.0, SVG Export Plug-In . SVG Version: 6.00 Build 0)  -->
<svg version="1.1" xmlns="http://www.w3.org/2000/svg" xmlns:xlink="http://www.w3.org/1999/xlink" x="0px" y="0px"
	 viewBox="0 0 1024 1024" style="enable-background:new 0 0 1024 1024;" xml:space="preserve">
<style type="text/css">
	.st0{display:none;}
	.st1{fill:#040000;}
</style>
<g id="图层_1" class="st0">
</g>
<g id="person_x5F_navigation">
	<g id="图层_8">
		<g>
			<path class="st1" d="M873.8,564.9l68.2-42.7c10.8-6.8,16.2-19.7,13.3-32.1L922,343.5c-2.8-12.5-13.3-21.8-26-23.2l-80.1-8.9
				c-7.9-0.9-15.2-4.9-20.2-11.1l-13.4-16.8c-5-6.2-7.3-14.2-6.3-22.1l9.2-80c1.5-12.7-5.3-24.9-16.8-30.5L633,85.6
				c-11.5-5.5-25.3-3.2-34.3,5.9l-56.9,57.1c-5.6,5.6-13.3,8.8-21.3,8.8H499c-8,0-15.6-3.2-21.3-8.8l-56.9-57.1
				c-9-9-22.8-11.4-34.3-5.9l-135.4,65.2c-11.5,5.5-18.3,17.8-16.8,30.5l9.2,80.1c0.9,7.9-1.4,15.9-6.4,22.1l-13.4,16.8
				c-5,6.2-12.2,10.3-20.2,11.1l-80.2,8.9c-12.7,1.4-23.1,10.7-26,23.2L64.1,490.1c-2.8,12.5,2.5,25.4,13.3,32.1l68.3,42.7
				c6.8,4.2,11.6,11,13.3,18.8l4.8,21c1.8,7.8,0.4,16-3.9,22.7l-43,68.1c-6.8,10.8-6,24.7,1.9,34.7l93.8,117.6
				c8,10,21.4,13.8,33.4,9.6l76-26.7c7.5-2.6,15.8-2.2,23,1.3l19.3,9.3c7.2,3.5,12.7,9.6,15.3,17.2l26.5,76.1
				c4.2,12.1,15.6,20.2,28.4,20.2H585c12.8,0,24.2-8.1,28.4-20.2l26.5-76.1c2.6-7.5,8.1-13.7,15.3-17.2l19.3-9.3
				c7.2-3.5,15.5-3.9,23-1.3l76,26.7c12.1,4.2,25.5,0.4,33.4-9.6l93.8-117.6c8-10,8.7-23.9,1.9-34.7l-43-68.1
				c-4.3-6.7-5.7-14.9-3.9-22.7l4.8-21C862.3,575.9,867.1,569.2,873.8,564.9z M534,658.3c-78.9,13.4-153.7-39.8-167.1-118.7
				c-2.7-16-2.7-32.4,0-48.4c9.8-60,58.1-108.4,118.1-118.4c78.9-13.6,153.8,39.3,167.4,118.2c2.8,16.3,2.8,33,0,49.3
				C642.5,600.3,594,648.6,534,658.3L534,658.3z"/>
		</g>
	</g>
</g>
</svg>
