<?xml version="1.0" encoding="utf-8"?>
<!-- Generator: Adobe Illustrator 19.1.0, SVG Export Plug-In . SVG Version: 6.00 Build 0)  -->
<svg version="1.1" id="imissive_x5F_exchange" xmlns="http://www.w3.org/2000/svg" xmlns:xlink="http://www.w3.org/1999/xlink"
	 x="0px" y="0px" viewBox="0 0 1024 1024" style="enable-background:new 0 0 1024 1024;" xml:space="preserve">
<style type="text/css">
	.st0{fill-rule:evenodd;clip-rule:evenodd;}
</style>
<g>
	<path class="st0" d="M924.1,95.8c-21-21-52.6-31.8-82.3-31.8h-672C107.9,64,64,112.2,64,174v672c0,29.7,8.7,59.2,29.7,80.2
		c21,21,46.4,33.8,76.1,33.8h672c29.7,0,61.3-12.8,82.3-33.8c21-21,35.9-50.5,35.9-80.2V174C960,144.3,945.1,116.8,924.1,95.8z
		 M809.9,509.7c0,32.3-2.3,44.8-2.3,44.8c-2.3,14.3-15.3,28.7-28.2,31.7l-9,2.4c-23.2,7.2-44.6,23.9-57.6,47.8
		c-13.6,23.9-16.4,51.4-10.7,76.5l2.8,10.2c4,13.7-1.1,32.9-11.3,41.8c0,0-9.6,8.4-35.6,24.5c-26.6,16.1-37.8,20.3-37.8,20.3
		c-13,4.8-31.1,0.6-40.1-10.2l-6.8-7.8c-17.5-17.9-41.8-28.7-67.8-28.7c-26,0-49.7,10.8-67.8,28.7l-6.8,7.8
		c-9.6,10.2-27.1,14.9-40.1,10.2c0,0-11.3-4.2-37.3-20.3c-26.6-16.1-35.6-24.5-35.6-24.5c-10.2-9.6-15.3-28.1-11.3-41.8l2.8-9.6
		c5.6-25.1,2.3-52.6-10.7-76.5c-13-23.9-34.5-40.6-57.6-47.8l-9-2.4c-13-3.6-26-17.3-28.2-31.7c0,0-2.3-12.5-2.3-44.8
		c0-32.3,2.3-44.8,2.3-44.8c2.3-14.3,15.3-28.7,28.2-31.7l9.6-2.4c23.7-7.2,44.6-23.9,57.6-47.8c13.5-23.9,16.4-51.4,10.7-76.5
		l-2.8-10.1c-4-14.3,1.1-32.9,11.3-41.8c0,0,9.6-8.4,35.6-24.5c26.6-16.1,37.8-20.3,37.8-20.3c13-4.8,31.1-0.6,40.1,10.2l6.8,7.8
		c17.5,17.9,41.2,28.7,67.8,28.7c26.6,0,50.3-10.7,67.8-28.7l6.8-7.8c9.6-10.2,27.1-14.9,40.1-10.2c0,0,10.7,4.2,37.3,20.3
		c26.6,16.1,35.6,24.5,35.6,24.5c10.2,9.6,15.3,28.1,11.3,41.8l-2.8,9.6c-5.6,25.1-2.3,52.6,10.7,76.5c13,23.9,33.9,40,57.1,47.8
		l10.2,2.4c13,3.6,26,17.9,28.2,31.7C808.8,464.9,810.5,477.4,809.9,509.7z"/>
	<path class="st0" d="M506,357.8c-84.3,0-152.2,68.1-152.2,151.9c0,84.5,68.7,152.6,152.2,152.6c84.3,0,152.2-68.8,152.2-151.9
		C658.2,425.9,589.5,357.8,506,357.8z"/>
</g>
</svg>
