<?xml version="1.0" encoding="utf-8"?>
<!-- Generator: Adobe Illustrator 19.1.0, SVG Export Plug-In . SVG Version: 6.00 Build 0)  -->
<svg version="1.1" id="imissive_x5F_exchange" xmlns="http://www.w3.org/2000/svg" xmlns:xlink="http://www.w3.org/1999/xlink"
	 x="0px" y="0px" viewBox="0 0 1024 1024" style="enable-background:new 0 0 1024 1024;" xml:space="preserve">
<style type="text/css">
	.st0{fill-rule:evenodd;clip-rule:evenodd;}
</style>
<g>
	<g>
		<path class="st0" d="M295.1,429.4h552.5v-60.3c0-66.6-54-120.6-120.6-120.6H425.7v-30.1c0-49.9-40.5-90.4-90.4-90.4H154.4
			c-49.9,0-90.4,40.5-90.4,90.4V368c0,0,0,0,0,0.1c0,0.3,0,0.7,0,1v361.7c0,20.7,5.2,40.2,14.4,57.2l118.4-298.3
			C210,456.4,254,429.4,295.1,429.4z M916.4,489.6H312c-33.4,0-69.2,23.1-79.9,51.7L135,799.6c-10.7,28.5,7.6,51.7,41,51.7h8.1
			c0.2,0,0.3,0,0.5,0h542.5c0.2,0,0.3,0,0.5,0h52.9c33.4,0,69.2-23.1,79.9-51.7l97.2-258.3C968.2,512.8,949.8,489.6,916.4,489.6z"/>
	</g>
</g>
</svg>
