<?xml version="1.0" encoding="utf-8"?>
<!-- Generator: Adobe Illustrator 21.0.0, SVG Export Plug-In . SVG Version: 6.00 Build 0)  -->
<svg version="1.1" xmlns="http://www.w3.org/2000/svg" xmlns:xlink="http://www.w3.org/1999/xlink" x="0px" y="0px"
	 viewBox="0 0 1024 1024" style="enable-background:new 0 0 1024 1024;" xml:space="preserve">
<g id="图层_1">
</g>
<g id="修改头像person_x5F_portrait">
	<g id="图层_6">
		<g>
			<path d="M447.4,536.2c132.1,0,239.5-105.8,239.5-236c0-130.1-107.4-236-239.5-236c-132.1,0-239.5,105.9-239.5,236
				C207.9,430.3,315.3,536.2,447.4,536.2z M546.1,558.9H366.6c-166.8,0-302.4,133.6-302.4,297.8v17.7c0,85.8,133.5,85.8,302.4,85.8
				h179.5c162.3,0,302.4,0,302.4-85.8v-17.7C848.5,692.5,712.8,558.9,546.1,558.9z"/>
		</g>
	</g>
	<g id="图层_7">
		<g>
			<path d="M682.2,428.1l-25,91.5l91.3-25.4l144.1-143.9l-67.1-65.4L682.2,428.1z M881.6,228.9l-35.9,35.9l67.3,65.1l34.9-34.8
				c18.3-18.3,18.3-47.9,0-66.2C929.6,210.7,899.9,210.7,881.6,228.9L881.6,228.9z"/>
		</g>
	</g>
</g>
</svg>
