<?xml version="1.0" encoding="utf-8"?>
<!-- Generator: Adobe Illustrator 19.1.0, SVG Export Plug-In . SVG Version: 6.00 Build 0)  -->
<svg version="1.1" id="imissive_x5F_exchange" xmlns="http://www.w3.org/2000/svg" xmlns:xlink="http://www.w3.org/1999/xlink"
	 x="0px" y="0px" viewBox="0 0 1024 1024" style="enable-background:new 0 0 1024 1024;" xml:space="preserve">
<path d="M512,64C264.6,64,64,264.6,64,512c0,247.4,200.6,448,448,448c247.4,0,448-200.6,448-448C960,264.6,759.4,64,512,64z
	 M750.3,485.2l-101,94.2L674.9,715c1.6,9.2-2.3,18.5-9.8,23.9c-8.1,8.2-22.2,3.8-25.8,1.9l-126.5-62.2l-127.4,62.2
	c-3.6,1.9-18.5,5.3-25.8-1.9c-7.6-5.4-11.3-14.8-9.8-23.9l26.4-135.6l-101-93.3c-6.7-6.5-9.1-16.2-6.2-25.1
	c2.8-8.9,10.5-15.4,19.7-16.7l139.6-25.4l62.4-125.6c4.2-8.3,12.7-13.6,22-13.6s17.8,5.3,21.9,13.6l62.4,125.6l139.6,24.5
	c9.2,1.3,16.9,7.8,19.7,16.7C759.4,469,757,478.7,750.3,485.2z"/>
</svg>
