<?xml version="1.0" encoding="utf-8"?>
<!-- Generator: Adobe Illustrator 21.0.0, SVG Export Plug-In . SVG Version: 6.00 Build 0)  -->
<svg version="1.1" xmlns="http://www.w3.org/2000/svg" xmlns:xlink="http://www.w3.org/1999/xlink" x="0px" y="0px"
	 viewBox="0 0 1024 1024" style="enable-background:new 0 0 1024 1024;" xml:space="preserve">
<style type="text/css">
	.st0{display:none;}
	.st1{fill:#4D4D4D;}
</style>
<g id="图层_1">
</g>
<g id="图层_2">
	<g id="图层_3" class="st0">
	</g>
	<g id="图层_4">
		<g>
			<path class="st1" d="M588.5,497.5h146.8c27,0,49-21.9,49-49V301.8c0-27-21.9-48.9-49-48.9H588.5c-27,0.1-48.8,21.9-48.8,48.9
				v146.7C539.7,475.5,561.7,497.5,588.5,497.5z"/>
			<path class="st1" d="M878,64H142c-44,0-80,36-80,80v736c0,44,36,80,80,80h736c44,0,80-36,80-80V144C958,100,922,64,878,64z
				 M490.8,301.8c0.1-54,43.8-97.7,97.7-97.8h146.8c54,0,97.8,43.8,97.9,97.8v146.7c-0.1,54-43.9,97.9-97.9,97.9h0H588.5
				c-54-0.1-97.7-43.9-97.7-97.9V301.8z M219.3,204c0.8,0,1.7,0,2.5,0h146.7C382,204,393,215,393,228.5s-10.9,24.4-24.4,24.4H221.8
				c-13.5,0.7-25-9.7-25.7-23.2C195.4,216.2,205.8,204.7,219.3,204z M219.3,350.8c0.8,0,1.7,0,2.5,0h146.7
				c13.5,0,24.4,10.9,24.4,24.4c0,13.5-10.9,24.4-24.4,24.4H221.8c-13.5,0.7-25-9.7-25.7-23.2C195.4,363,205.8,351.5,219.3,350.8z
				 M219.3,497.5c0.8,0,1.7,0,2.5,0h146.7c13.5,0,24.4,10.9,24.4,24.4s-10.9,24.4-24.4,24.4H221.8c-13.5,0.7-25-9.7-25.7-23.2
				C195.4,509.7,205.8,498.2,219.3,497.5z M591,839.8c-0.8,0-1.7,0-2.5,0H221.8c-13.5,0.7-25-9.7-25.7-23.2
				c-0.7-13.5,9.7-25,23.2-25.7c0.8,0,1.7,0,2.5,0h366.7c13.5-0.7,25,9.7,25.7,23.2C614.9,827.6,604.5,839.1,591,839.8z
				 M808.7,693.1C808.7,693.1,808.7,693.1,808.7,693.1H221.8c-13.5,0-24.5-10.9-24.5-24.5s10.9-24.5,24.5-24.5c0,0,0,0,0,0h586.8
				c13.5,0,24.5,10.9,24.5,24.5S822.2,693.1,808.7,693.1z"/>
		</g>
	</g>
</g>
</svg>
