<?xml version="1.0" encoding="utf-8"?>
<!-- Generator: Adobe Illustrator 19.1.0, SVG Export Plug-In . SVG Version: 6.00 Build 0)  -->
<svg version="1.1" id="图层_1" xmlns="http://www.w3.org/2000/svg" xmlns:xlink="http://www.w3.org/1999/xlink" x="0px" y="0px"
	 viewBox="0 0 1024 1024" style="enable-background:new 0 0 1024 1024;" xml:space="preserve">
<g>
	<g>
		<g>
			<path d="M823.1,959.7H539.9c-13-0.1-24.9-7.2-31-18.7c-6.1-11.5-5.5-25.3,1.6-36.2L592,782.7l-81.4-122.1
				c-7.1-10.9-7.7-24.7-1.6-36.2c6.1-11.4,18-18.6,31-18.7h283.2c13,0.1,24.9,7.2,31,18.7c6.1,11.4,5.5,25.3-1.6,36.2l-81.4,122.1
				l81.4,122.1c7.1,10.8,7.7,24.7,1.6,36.2C848,952.4,836.1,959.6,823.1,959.7L823.1,959.7z M606.1,888.9h150.8l-57.7-86.7
				c-7.9-11.9-7.9-27.4,0-39.3l57.7-86.7H606.1l57.7,86.7c7.9,11.9,7.9,27.4,0,39.3L606.1,888.9z M606.1,888.9"/>
		</g>
	</g>
	<path d="M858.3,529.1V309.7V102.2c0-21.1-17.1-38.2-38.2-38.2H203.8c-21.1,0-38.2,17.1-38.2,38.2v819.7c0,21.1,17.1,38.2,38.2,38.2
		h204.7C366.4,909,276.4,403,858.3,529.1z M315,295.4h374.9c16.5,0,29.9,13.4,29.9,29.9s-13.4,29.9-29.9,29.9H315
		c-16.5,0-29.9-13.4-29.9-29.9S298.5,295.4,315,295.4z M285.1,481.2c0-16.5,13.4-29.9,29.9-29.9h127.8c16.5,0,29.9,13.4,29.9,29.9
		s-13.4,29.9-29.9,29.9H315C298.5,511.1,285.1,497.7,285.1,481.2z"/>
</g>
</svg>
