<?xml version="1.0" encoding="utf-8"?>
<!-- Generator: Adobe Illustrator 19.1.0, SVG Export Plug-In . SVG Version: 6.00 Build 0)  -->
<svg version="1.1" id="图层_1" xmlns="http://www.w3.org/2000/svg" xmlns:xlink="http://www.w3.org/1999/xlink" x="0px" y="0px"
	 viewBox="0 0 1024 1024" style="enable-background:new 0 0 1024 1024;" xml:space="preserve">
<style type="text/css">
	.st0{fill-rule:evenodd;clip-rule:evenodd;}
</style>
<g>
	<path class="st0" d="M922.1,640.2c-8.3-10.8-34.2-4.7-43.3,4.8L630.2,844.7L554.9,790c-6.9-7.1-35.5-20.2-50.8-7.1
		c-22,18.8,0.3,51.7,10.3,59.6l91.1,104.1c13.8,14.4,36.2,14.4,50,0L917.7,683C931.5,668.6,927.8,647.7,922.1,640.2z"/>
	<path class="st0" d="M461.6,810.3c2.4-125.9,129.9-241.5,274.6-241.5c43.7,0,88.8,7.1,116.8,18V100.2c0-21.1-8.7-36.2-29.8-36.2
		H133.6C112.6,64,97,79.1,97,100.2v819.7c0,21.1,15.6,40.1,36.6,40.1h357.6C474.6,918,460.2,886.1,461.6,810.3z M315.5,260h321.7
		c15.5,0,28,12.5,28,28c0,15.5-12.5,28-28,28H315.5c-15.5,0-28-12.5-28-28C287.6,272.5,300.1,260,315.5,260z M315.5,400h321.7
		c15.5,0,28,12.5,28,28s-12.5,28-28,28H315.5c-15.5,0-28-12.5-28-28S300.1,400,315.5,400z M427.2,610H315.5c-15.5,0-28-12.5-28-28
		s12.5-28,28-28h111.7c15.5,0,28,12.5,28,28S442.7,610,427.2,610z"/>
</g>
</svg>
