<?xml version="1.0" encoding="utf-8"?>
<!-- Generator: Adobe Illustrator 19.1.0, SVG Export Plug-In . SVG Version: 6.00 Build 0)  -->
<svg version="1.1" id="图层_1" xmlns="http://www.w3.org/2000/svg" xmlns:xlink="http://www.w3.org/1999/xlink" x="0px" y="0px"
	 viewBox="0 0 1024 1024" style="enable-background:new 0 0 1024 1024;" xml:space="preserve">
<g>
	<path d="M394.6,718.3c0-177.1,141-320.6,318-320.6c45.1,0,96.4,9.4,124.4,26.2v-320c0-21.1-3.1-39.8-24.2-39.8H123.2
		C102.1,64,67,82.8,67,103.8v819.7c0,21.1,35.1,36.5,56.2,36.5h381.6C437.3,901.2,394.6,814.8,394.6,718.3z M305.1,260h321.7
		c15.5,0,28,12.5,28,28c0,15.5-12.5,28-28,28H305.1c-15.5,0-28-12.5-28-28C277.1,272.5,289.6,260,305.1,260z M277.1,428
		c0-15.5,12.5-28,28-28h111.5c15.5,0,28,12.5,28,28s-12.5,28-28,28H305.1C289.6,456,277.1,443.5,277.1,428z"/>
	<path d="M740.5,525.1C620.9,525.1,524,622,524,741.6c0,119.6,96.9,216.5,216.5,216.5S957,861.1,957,741.6
		C957,622,860.1,525.1,740.5,525.1z M740.5,902.2c-19.7,0-35.6-16-35.6-35.6c0-19.7,16-35.6,35.6-35.6c19.7,0,35.6,16,35.6,35.6
		C776.2,886.3,760.2,902.2,740.5,902.2z M767,762.2v14.4c0,14.8-13.2,26.8-28,26.8s-28-12-28-26.8V740c0-14.8,13.3-26.8,28.1-26.8
		c15.9,0,29.5-12.9,29.5-28.8c0-15.9-12.6-28.8-28.5-28.8c-15.9,0-28.7,12.9-28.7,28.8c0,14.8-11.9,26.8-26.7,26.8
		s-26.7-12-26.7-26.8c0-45.4,37-82.4,82.4-82.4c45.4,0,82.2,36.9,82.2,82.4C822.7,720.4,795,751.1,767,762.2z"/>
</g>
</svg>
