<?xml version="1.0" encoding="utf-8"?>
<!-- Generator: Adobe Illustrator 19.1.0, SVG Export Plug-In . SVG Version: 6.00 Build 0)  -->
<svg version="1.1" id="imissive_x5F_exchange" xmlns="http://www.w3.org/2000/svg" xmlns:xlink="http://www.w3.org/1999/xlink"
	 x="0px" y="0px" viewBox="0 0 1024 1024" style="enable-background:new 0 0 1024 1024;" xml:space="preserve">
<g>
	<path d="M346.3,274h333.1c15.6,0,21.6-13.2,21.6-26.5v-79.7c0-16.6-9-19.8-21.6-19.8h-15.6c-15.6,0-25.2-17.1-25.2-30.4
		c0-26.6-22-53.6-50.3-53.6H440.6c-28.2,0-50.3,27-50.3,53.6c0,16.6-12.6,30.4-25.2,30.4h-18.8c-15.6,0-23.3,6.5-23.3,19.8v79.7
		C323,264.1,333.7,274,346.3,274z M516.2,114.7c31.4,0,53.5,26.6,53.5,56.5c0,36.5-25.2,56.5-53.5,56.5c-28.2,0-53.5-26.6-53.5-56.5
		C462.7,141.3,487.9,114.7,516.2,114.7z"/>
	<path d="M817.7,176h-15.6c-15.6,0-29.7,9.3-29.7,25.9l-1.4-0.8v116.3c0,16.6-11.2,26.6-23.8,26.6l-468.6,3.4
		c-15.6,0-25.6-13.3-25.6-26.6V204.5c0-16.6-10.5-28.5-23.1-28.5h-15.6c-40.8,0-59.3,25.1-59.3,61.7v647.8
		c0,29.9,27.9,74.5,65.7,74.5h587.6c31.4,0,60.7-41.2,60.7-74.5V234.2C869,204.3,852.4,176,817.7,176z M524.5,870.8
		c-21.2,0-38.4-17.2-38.4-38.4s17.2-38.4,38.4-38.4c21.2,0,38.4,17.2,38.4,38.4S545.7,870.8,524.5,870.8z M589.7,674.2
		c-27,17.6-39.9,28.7-38.7,51.5c0,0.8-0.1,1.6-0.2,2.4c0.2,1.4,0.3,2.9,0.3,4.4c0,16.9-13.7,30.6-30.6,30.6
		c-16.9,0-30.6-13.7-30.6-30.6c0-1.2,0.7-2.3,0.8-3.5c-0.2-1.2,0.2-2.5,0.2-3.7v-1.1c0-40.8,17.1-66.2,56.5-94.8
		c38-25.8,54.7-53,50.7-81.5c-4.1-32.6-24.6-50.3-61.3-53c-39-1.1-65.1,14.3-78.2,46c-6.2,15.1-22.9,23.1-38.6,18.7l-2.3-0.6
		c-18.8-5.3-28.6-25.9-20.9-43.9c24.1-56.3,72.7-82.7,146-79.3c76.1,4.1,117.5,42.1,124.3,114.1
		C668.5,594.7,642.7,636.1,589.7,674.2z"/>
</g>
</svg>
