<?xml version="1.0" encoding="UTF-8"?>
<svg width="14px" height="15px" viewBox="0 0 14 15" version="1.1" xmlns="http://www.w3.org/2000/svg" xmlns:xlink="http://www.w3.org/1999/xlink">
    <!-- Generator: Sketch 54 (76480) - https://sketchapp.com -->
    <title>合同变更</title>
    <desc>Created with Sketch.</desc>
    <g id="零散的rdm单" stroke="none" stroke-width="1" fill="none" fill-rule="evenodd">
        <g id="人事流程目录树图标" transform="translate(-607.000000, -85.000000)" fill-rule="nonzero">
            <g id="合同变更" transform="translate(606.000000, 84.000000)">
                <rect id="矩形" fill="#000000" opacity="0" x="0" y="0" width="16" height="16"></rect>
                <path d="M13.4828125,2.0140625 L13.484375,2.015625 L13.484375,14.0078125 L13.4828125,14.009375 L2.5171875,14.009375 L2.515625,14.0078125 L2.515625,2.015625 L2.5171875,2.0140625 L13.4828125,2.0140625 L13.4828125,2.0140625 Z M13.484375,1.0140625 L2.515625,1.0140625 C1.965625,1.0140625 1.515625,1.4640625 1.515625,2.0140625 L1.515625,14.009375 C1.515625,14.559375 1.965625,15.009375 2.515625,15.009375 L13.484375,15.009375 C14.034375,15.009375 14.484375,14.559375 14.484375,14.009375 L14.484375,2.0140625 C14.484375,1.4640625 14.034375,1.0140625 13.484375,1.0140625 Z M8.75625,13.3046875 C8.653125,13.3046875 8.55,13.271875 8.4625,13.209375 C8.3078125,13.096875 8.23125,12.9078125 8.2640625,12.7203125 L8.45625,11.6015625 L7.64375,10.809375 C7.5078125,10.6765625 7.4578125,10.478125 7.5171875,10.296875 C7.5765625,10.115625 7.7328125,9.984375 7.9203125,9.95625 L9.04375,9.79375 L9.5453125,8.7765625 C9.6296875,8.60625 9.803125,8.4984375 9.99375,8.4984375 C10.184375,8.4984375 10.3578125,8.60625 10.4421875,8.7765625 L10.94375,9.79375 L12.0671875,9.95625 C12.25625,9.984375 12.4125,10.115625 12.4703125,10.296875 C12.5296875,10.478125 12.4796875,10.6765625 12.34375,10.809375 L11.53125,11.6015625 L11.7234375,12.7203125 C11.75625,12.9078125 11.678125,13.096875 11.525,13.209375 C11.3703125,13.321875 11.1671875,13.3359375 10.9984375,13.246875 L9.99375,12.71875 L8.9890625,13.246875 C8.915625,13.2859375 8.8359375,13.3046875 8.75625,13.3046875 L8.75625,13.3046875 Z M9.9921875,11.6546875 C10.071875,11.6546875 10.1515625,11.6734375 10.225,11.7125 L10.565625,11.890625 L10.5,11.5125 C10.471875,11.35 10.5265625,11.184375 10.64375,11.0703125 L10.91875,10.8015625 L10.5390625,10.746875 C10.3765625,10.7234375 10.2359375,10.6203125 10.1625,10.4734375 L9.9921875,10.128125 L9.821875,10.4734375 C9.7484375,10.6203125 9.6078125,10.7234375 9.4453125,10.746875 L9.065625,10.8015625 L9.340625,11.0703125 C9.4578125,11.1859375 9.5125,11.35 9.484375,11.5125 L9.41875,11.890625 L9.759375,11.7125 C9.8328125,11.6734375 9.9125,11.6546875 9.9921875,11.6546875 Z" id="形状" fill="#FFFFFF"></path>
                <path d="M4,4.5 C3.72385763,4.5 3.5,4.72385763 3.5,5 C3.5,5.27614237 3.72385763,5.5 4,5.5 L9,5.5 C9.44545243,5.5 9.66853582,4.96142904 9.35355339,4.64644661 L8.35355339,3.64644661 C8.15829124,3.45118446 7.84170876,3.45118446 7.64644661,3.64644661 C7.45118446,3.84170876 7.45118446,4.15829124 7.64644661,4.35355339 L7.79289322,4.5 L4,4.5 Z" id="路径-3" fill="#FFFFFF"></path>
                <path d="M4,7.5 C3.72385763,7.5 3.5,7.72385763 3.5,8 C3.5,8.27614237 3.72385763,8.5 4,8.5 L9,8.5 C9.44545243,8.5 9.66853582,7.96142904 9.35355339,7.64644661 L8.35355339,6.64644661 C8.15829124,6.45118446 7.84170876,6.45118446 7.64644661,6.64644661 C7.45118446,6.84170876 7.45118446,7.15829124 7.64644661,7.35355339 L7.79289322,7.5 L4,7.5 Z" id="路径-3" fill="#FFFFFF" transform="translate(6.500501, 7.500000) scale(-1, -1) translate(-6.500501, -7.500000) "></path>
            </g>
        </g>
    </g>
</svg>