<?xml version="1.0" encoding="UTF-8"?>
<svg width="16px" height="14px" viewBox="0 0 16 14" version="1.1" xmlns="http://www.w3.org/2000/svg" xmlns:xlink="http://www.w3.org/1999/xlink">
    <!-- Generator: Sketch 54 (76480) - https://sketchapp.com -->
    <title>员工退休</title>
    <desc>Created with Sketch.</desc>
    <g id="零散的rdm单" stroke="none" stroke-width="1" fill="none" fill-rule="evenodd">
        <g id="人事流程目录树图标" transform="translate(-385.000000, -487.000000)">
            <g id="员工退休" transform="translate(385.000000, 486.000000)">
                <path d="M8.83145,3.23945 C8.83145,3.91645 8.28245,4.46545 7.60545,4.46545 C6.92795,4.46545 6.37945,3.91645 6.37945,3.23945 L6.37945,1.27745 L8.83145,1.27745 L8.83145,3.23945 Z" id="Fill-1" fill="#FFFFFF"></path>
                <path d="M13.9326172,15.00035 L0.768,15.00035 C0.3435,15.00035 2.66453526e-14,14.65585 2.66453526e-14,14.23235 L2.66453526e-14,3.87185 C2.66453526e-14,3.44735 0.3435,3.10385 0.768,3.10385 L5.445,3.10385 L5.445,3.24735 C5.445,4.41835 6.394,5.36735 7.565,5.36735 C8.736,5.36735 9.685,4.41835 9.685,3.24735 L9.685,3.10385 L14.8355,3.10385 C15.259,3.10385 15.6035,3.44735 15.6035,3.87185 L15.6035,12.7007062 L15.60355,14.23215 C15.60355,14.65615 15.25905,15.00015 14.83555,15.00015 L13.9327789,15.00015 L13.9326172,15.00035 Z M9.91072071,7 L4,7 L4,10.9642843 C4.00000001,11.7624915 4.65303595,12.4155274 5.45124316,12.4155274 L8.45971739,12.4155274 C9.25768478,12.4155274 9.91072071,11.7624915 9.91072071,10.9642843 L9.91072071,10.8928629 L10.4948535,10.8928629 C11.5654155,10.8928629 12.4412799,10.0172283 12.4412799,8.94665628 C12.4412799,7.87608427 11.5654255,7 10.4948535,7 L9.91072071,7 Z M9.91072071,7.92908822 L10.5390934,7.92908822 C11.0988028,7.92908822 11.5566615,8.38671704 11.5566615,8.94665628 C11.5566615,9.50613583 11.0988028,9.96423433 10.5390934,9.96423433 L9.91072071,9.96423433 L9.91072071,7.92908822 Z" id="形状结合" fill="#FFFFFF"></path>
                <rect id="矩形" fill="#000000" fill-rule="nonzero" opacity="0" x="0" y="0" width="16" height="16"></rect>
            </g>
        </g>
    </g>
</svg>