<?xml version="1.0" encoding="UTF-8"?>
<svg width="17px" height="15px" viewBox="0 0 17 15" version="1.1" xmlns="http://www.w3.org/2000/svg" xmlns:xlink="http://www.w3.org/1999/xlink">
    <!-- Generator: Sketch 54 (76480) - https://sketchapp.com -->
    <title>员工解聘</title>
    <desc>Created with Sketch.</desc>
    <g id="零散的rdm单" stroke="none" stroke-width="1" fill="none" fill-rule="evenodd">
        <g id="人事流程目录树图标" transform="translate(-384.000000, -448.000000)">
            <g id="员工解聘" transform="translate(384.000000, 447.000000)">
                <path d="M8.8265,2.961 C8.8265,3.638 8.278,4.186 7.6015,4.186 C6.9245,4.186 6.376,3.638 6.376,2.961 L6.376,1 L8.8265,1 L8.8265,2.961 Z" id="Fill-1" fill="#FFFFFF"></path>
                <path d="M10.015,8.4273 L12.006,8.4273 C12.277,8.4273 12.4965,8.6463 12.4965,8.9173 C12.4965,9.1883 12.277,9.4078 12.006,9.4078 L10.015,9.4078 C9.744,9.4078 9.525,9.1883 9.525,8.9173 C9.525,8.6463 9.744,8.4273 10.015,8.4273 L10.015,8.4273 Z M10.015,6.3493 L13.134,6.3493 C13.405,6.3493 13.6245,6.5683 13.6245,6.8388 C13.6245,7.1098 13.405,7.3293 13.134,7.3293 L10.015,7.3293 C9.744,7.3293 9.525,7.1098 9.525,6.8388 C9.525,6.5683 9.744,6.3493 10.015,6.3493 L10.015,6.3493 Z M8.0135,11.9813 L1.6295,11.9813 L1.6295,11.0153 L4.1875,9.7908 L3.324,8.5768 L3.324,7.0548 C3.324,6.2068 4.012,5.5598 4.86,5.5598 C5.709,5.5598 6.397,6.2068 6.397,7.0548 L6.397,8.5768 L5.5625,9.7908 L8.0135,11.0153 L8.0135,11.9813 Z M15.595,9.03271484 L15.595,3.5928 C15.595,3.1688 15.2515,2.8253 14.8275,2.8253 L9.6795,2.8253 L9.6795,2.9688 C9.6795,4.1393 8.731,5.0878 7.561,5.0878 C6.3905,5.0878 5.442,4.1393 5.442,2.9688 L5.442,2.8253 L0.7675,2.8253 C0.3435,2.8253 1.27009514e-13,3.1688 1.27009514e-13,3.5928 L1.27009514e-13,13.9478 C1.27009514e-13,14.3723 0.3435,14.7158 0.7675,14.7158 L9.7205,14.7158 L15.595,9.03271484 Z" id="Fill-3" fill="#FFFFFF"></path>
                <path d="M10.49715,15.36455 C10.30865,15.16305 10.31765,14.84655 10.51865,14.65705 L15.32115,10.07805 C15.52215,9.88905 15.83815,9.89855 16.02815,10.09955 C16.21715,10.30105 16.20765,10.61705 16.00665,10.80655 L11.20465,15.38605 C11.10765,15.47655 10.98465,15.52155 10.86165,15.52155 C10.72865,15.52155 10.59615,15.46905 10.49715,15.36455 Z" id="Fill-7" fill="#FFFFFF"></path>
                <path d="M12.7495117,11.9813 L12.7495117,13.9478 C12.7495117,14.3723 13.0930117,14.7158 13.5170117,14.7158 L15.595,14.7158 L12.7495117,11.9813 Z" id="路径" fill="#FFFFFF" transform="translate(14.172256, 13.348550) scale(-1, 1) translate(-14.172256, -13.348550) "></path>
                <rect id="矩形复制" fill="#000000" fill-rule="nonzero" opacity="0" x="1" y="0" width="16" height="16"></rect>
            </g>
        </g>
    </g>
</svg>