<?xml version="1.0" encoding="UTF-8"?>
<svg width="16px" height="14px" viewBox="0 0 16 14" version="1.1" xmlns="http://www.w3.org/2000/svg" xmlns:xlink="http://www.w3.org/1999/xlink">
    <!-- Generator: Sketch 54 (76480) - https://sketchapp.com -->
    <title>员工调岗</title>
    <desc>Created with Sketch.</desc>
    <g id="零散的rdm单" stroke="none" stroke-width="1" fill="none" fill-rule="evenodd">
        <g id="人事流程目录树图标" transform="translate(-385.000000, -367.000000)">
            <g id="员工调岗" transform="translate(385.000000, 366.000000)">
                <g id="编组-4" transform="translate(0.000000, 1.000000)" fill="#FFFFFF">
                    <path d="M8.83145,2.23945 C8.83145,2.91645 8.28245,3.46545 7.60545,3.46545 C6.92795,3.46545 6.37945,2.91645 6.37945,2.23945 L6.37945,0.27745 L8.83145,0.27745 L8.83145,2.23945 Z" id="Fill-1"></path>
                    <path d="M8.018,11.26435 L1.631,11.26435 L1.631,10.29735 L4.1895,9.07235 L3.326,7.85835 L3.326,6.33585 C3.326,5.48635 4.014,4.83935 4.863,4.83935 C5.712,4.83935 6.4005,5.48635 6.4005,6.33585 L6.4005,7.85835 L5.566,9.07235 L8.018,10.29735 L8.018,11.26435 Z M10.0205,7.70885 L12.0125,7.70885 C12.2835,7.70885 12.503,7.92785 12.503,8.19885 C12.503,8.47035 12.2835,8.68985 12.0125,8.68985 L10.0205,8.68985 C9.7495,8.68985 9.5295,8.47035 9.5295,8.19885 C9.5295,7.92785 9.7495,7.70885 10.0205,7.70885 L10.0205,7.70885 Z M10.0205,5.62885 L13.141,5.62885 C13.412,5.62885 13.6315,5.84835 13.6315,6.11985 C13.6315,6.39085 13.412,6.60985 13.141,6.60985 L10.0205,6.60985 C9.7495,6.60985 9.5295,6.39085 9.5295,6.11985 C9.5295,5.84835 9.7495,5.62885 10.0205,5.62885 L10.0205,5.62885 Z M15.6035,11.9340941 L15.6035,2.87185 C15.6035,2.44735 15.259,2.10385 14.8355,2.10385 L9.685,2.10385 L9.685,2.24735 C9.685,3.41835 8.736,4.36735 7.565,4.36735 C6.394,4.36735 5.445,3.41835 5.445,2.24735 L5.445,2.10385 L0.768,2.10385 C0.3435,2.10385 8.34887715e-14,2.44735 8.34887715e-14,2.87185 L8.34887715e-14,13.23235 C8.34887715e-14,13.65585 0.3435,14.00035 0.768,14.00035 L13.9326172,14.00035 L15.6035,11.9340941 Z" id="Fill-3"></path>
                    <path d="M13.55805,14.00015 L14.83555,14.00015 C15.25905,14.00015 15.60355,13.65615 15.60355,13.23215 L15.60355,11.70065 L13.55805,14.00015 Z" id="Fill-5"></path>
                    <path d="M10.3776511,11.3055436 C10.1690802,11.3055436 10,11.4746238 10,11.6831947 C10,11.8917657 10.1690802,12.0608459 10.3776511,12.0608459 L12.7110315,12.0608459 L12.0498903,12.7219871 C11.9066995,12.8701017 11.9086345,13.1056472 12.0542393,13.2513893 C12.1998441,13.3971314 12.4353876,13.3992885 12.5836372,13.2562375 L13.889303,11.9505717 C13.9601786,11.8797415 14,11.7836478 14,11.6834465 C14,11.5832453 13.9601786,11.4871516 13.889303,11.4163213 L12.5836372,10.1106555 C12.4882025,10.0152208 12.3491035,9.97794937 12.2187373,10.0128809 C12.0883712,10.0478124 11.9865436,10.1496399 11.9516121,10.2800061 C11.9166806,10.4103723 11.9539521,10.5494713 12.0493867,10.6449059 L12.7110315,11.3055436 L10.3776511,11.3055436 Z" id="路径" fill-rule="nonzero"></path>
                </g>
                <rect id="矩形" fill="#000000" fill-rule="nonzero" opacity="0" x="0" y="0" width="16" height="16"></rect>
            </g>
        </g>
    </g>
</svg>