<?xml version="1.0" encoding="UTF-8"?>
<svg width="14px" height="16px" viewBox="0 0 14 16" version="1.1" xmlns="http://www.w3.org/2000/svg" xmlns:xlink="http://www.w3.org/1999/xlink">
    <!-- Generator: Sketch 54 (76480) - https://sketchapp.com -->
    <title>合同解除</title>
    <desc>Created with Sketch.</desc>
    <g id="零散的rdm单" stroke="none" stroke-width="1" fill="none" fill-rule="evenodd">
        <g id="人事流程目录树图标" transform="translate(-606.000000, -126.000000)" fill-rule="nonzero">
            <g id="合同解除" transform="translate(606.000000, 126.000000)">
                <rect id="矩形" fill="#000000" opacity="0" x="0" y="0" width="16" height="16"></rect>
                <path d="M6.08235294,11.4910206 C5.93676471,11.3851382 5.86470588,11.207197 5.89558824,11.0307265 L6.07647059,9.97778528 L5.31176471,9.23219705 C5.18382353,9.10719705 5.13676471,8.92043234 5.19264706,8.74984411 C5.24852941,8.57925587 5.39558824,8.45572646 5.57205882,8.42925587 L6.62941176,8.27631469 L7.10147059,7.31896175 C7.18088235,7.15866764 7.34411765,7.05719705 7.52352941,7.05719705 C7.70294118,7.05719705 7.86617647,7.15866764 7.94558824,7.31896175 L8.41764706,8.27631469 L9.475,8.42925587 C9.65294118,8.45572646 9.8,8.57925587 9.85441176,8.74984411 C9.91029412,8.92043234 9.86323529,9.10719705 9.73529412,9.23219705 L8.97058824,9.97778528 L9.15147059,11.0307265 C9.18235294,11.207197 9.10882353,11.3851382 8.96470588,11.4910206 C8.81911765,11.5969029 8.62794118,11.6101382 8.46911765,11.5263147 L7.52352941,11.0292559 L6.57794118,11.5263147 C6.50882353,11.5630794 6.43382353,11.5807265 6.35882353,11.5807265 C6.26176471,11.5807265 6.16470588,11.5498441 6.08235294,11.4910206 Z M7.52205882,10.0277853 C7.59705882,10.0277853 7.67205882,10.0454323 7.74117647,10.082197 L8.06176471,10.2498441 L8,9.89396175 C7.97352941,9.74102058 8.025,9.58513822 8.13529412,9.47778528 L8.39411765,9.22484411 L8.03676471,9.17337352 C7.88382353,9.15131469 7.75147059,9.05425587 7.68235294,8.91602058 L7.52205882,8.59102058 L7.36176471,8.91602058 C7.29264706,9.05425587 7.16029412,9.15131469 7.00735294,9.17337352 L6.65,9.22484411 L6.90882353,9.47778528 C7.01911765,9.58660881 7.07058824,9.74102058 7.04411765,9.89396175 L6.98235294,10.2498441 L7.30294118,10.082197 C7.37205882,10.0454323 7.44705882,10.0277853 7.52205882,10.0277853 Z" id="形状" fill="#FFFFFF"></path>
                <path d="M3.28088235,3.79396175 L8.15693934,3.79396175 C8.43308171,3.79396175 8.65693934,3.57010413 8.65693934,3.29396175 C8.65693934,3.01781938 8.43308171,2.79396175 8.15693934,2.79396175 L3.28088235,2.79396175 C3.00473998,2.79396175 2.78088235,3.01781938 2.78088235,3.29396175 C2.78088235,3.57010413 3.00473998,3.79396175 3.28088235,3.79396175 Z" id="直线-3" fill="#FFFFFF"></path>
                <path d="M3.28088235,6.61749117 L6.95932904,6.61749117 C7.23547142,6.61749117 7.45932904,6.39363354 7.45932904,6.11749117 C7.45932904,5.84134879 7.23547142,5.61749117 6.95932904,5.61749117 L3.28088235,5.61749117 C3.00473998,5.61749117 2.78088235,5.84134879 2.78088235,6.11749117 C2.78088235,6.39363354 3.00473998,6.61749117 3.28088235,6.61749117 Z" id="直线-3" fill="#FFFFFF"></path>
                <path d="M7.0564859,13.2332487 L0.882060738,13.2332487 L0.882060738,0.884398366 L11.4667896,0.884398366 L11.4667896,8.6 L12.3488503,7.6 L12.3488503,0.884398366 C12.3488503,-0.0898990212 11.5590262,0.00233762882 10.5847289,0.00233762882 L1.76412148,0.00233762882 C0.789824088,0.00233762882 0,-0.0898990212 0,0.884398366 L0,13.2332487 C0,14.2075461 0.789824088,14.1153094 1.76412148,14.1153094 L6.3,14.1153094 L7.0564859,13.2332487 Z" id="路径" fill="#FFFFFF"></path>
                <path d="M11.5488503,13.2332487 L10.0820607,13.2332487 L10.0820607,12 L9.2,11 L9.2,13.2332487 C9.2,14.2075461 9.98982409,14.1153094 10.9641215,14.1153094 L12.3488503,14.1153094 L11.5488503,13.2332487 Z" id="路径" fill="#FFFFFF" transform="translate(10.774425, 12.558824) scale(-1, 1) translate(-10.774425, -12.558824) "></path>
                <path d="M7.87520162,14.90727 L13.5222604,8.78962298 C13.6985446,8.59864851 13.6866357,8.30092661 13.4956612,8.12464249 C13.3046868,7.94835836 13.0069649,7.96026724 12.8306807,8.15124171 L7.18362191,14.2688888 C7.00733779,14.4598632 7.01924666,14.7575851 7.21022113,14.9338693 C7.40119559,15.1101534 7.6989175,15.0982445 7.87520162,14.90727 Z" id="直线-2" fill="#FFFFFF"></path>
            </g>
        </g>
    </g>
</svg>