<?xml version="1.0" encoding="UTF-8"?>
<svg width="16px" height="14px" viewBox="0 0 16 14" version="1.1" xmlns="http://www.w3.org/2000/svg" xmlns:xlink="http://www.w3.org/1999/xlink">
    <!-- Generator: Sketch 54 (76480) - https://sketchapp.com -->
    <title>员工返聘</title>
    <desc>Created with Sketch.</desc>
    <g id="零散的rdm单" stroke="none" stroke-width="1" fill="none" fill-rule="evenodd">
        <g id="人事流程目录树图标" transform="translate(-385.000000, -530.000000)">
            <g id="员工返聘" transform="translate(385.000000, 529.000000)">
                <g id="编组-8" transform="translate(0.000000, 1.000000)" fill="#FFFFFF">
                    <path d="M8.83145,2.23945 C8.83145,2.91645 8.28245,3.46545 7.60545,3.46545 C6.92795,3.46545 6.37945,2.91645 6.37945,2.23945 L6.37945,0.27745 L8.83145,0.27745 L8.83145,2.23945 Z" id="Fill-1"></path>
                    <path d="M8.018,11.26435 L1.631,11.26435 L1.631,10.29735 L4.1895,9.07235 L3.326,7.85835 L3.326,6.33585 C3.326,5.48635 4.014,4.83935 4.863,4.83935 C5.712,4.83935 6.4005,5.48635 6.4005,6.33585 L6.4005,7.85835 L5.566,9.07235 L8.018,10.29735 L8.018,11.26435 Z M10.491,6.10385 L13.6115,6.10385 C13.8825,6.10385 14.102,6.32335 14.102,6.59485 C14.102,6.86585 13.8825,7.08485 13.6115,7.08485 L10.491,7.08485 C10.22,7.08485 10,6.86585 10,6.59485 C10,6.32335 10.22,6.10385 10.491,6.10385 L10.491,6.10385 Z M15.6035,11.9340941 L15.6035,2.87185 C15.6035,2.44735 15.259,2.10385 14.8355,2.10385 L9.685,2.10385 L9.685,2.24735 C9.685,3.41835 8.736,4.36735 7.565,4.36735 C6.394,4.36735 5.445,3.41835 5.445,2.24735 L5.445,2.10385 L0.768,2.10385 C0.3435,2.10385 8.34887715e-14,2.44735 8.34887715e-14,2.87185 L8.34887715e-14,13.23235 C8.34887715e-14,13.65585 0.3435,14.00035 0.768,14.00035 L13.9326172,14.00035 L15.6035,11.9340941 Z M11.75,9.10385 L11.75,8.10385 L10,9.60385 L11.75,10.85385 L11.75,9.85385 C13.34225,9.85385 14,12.10385 14,12.10385 C14,9.01985 11.75,9.10385 11.75,9.10385 Z" id="Fill-3"></path>
                    <path d="M13.55805,14.00015 L14.83555,14.00015 C15.25905,14.00015 15.60355,13.65615 15.60355,13.23215 L15.60355,11.70065 L13.55805,14.00015 Z" id="Fill-5"></path>
                </g>
                <rect id="矩形" fill="#000000" fill-rule="nonzero" opacity="0" x="0" y="0" width="16" height="16"></rect>
            </g>
        </g>
    </g>
</svg>