<?xml version="1.0" encoding="UTF-8"?>
<svg width="15px" height="16px" viewBox="0 0 15 16" version="1.1" xmlns="http://www.w3.org/2000/svg" xmlns:xlink="http://www.w3.org/1999/xlink">
    <!-- Generator: Sketch 54 (76480) - https://sketchapp.com -->
    <title>合同签订</title>
    <desc>Created with Sketch.</desc>
    <g id="零散的rdm单" stroke="none" stroke-width="1" fill="none" fill-rule="evenodd">
        <g id="人事流程目录树图标" transform="translate(-606.000000, -44.000000)" fill-rule="nonzero">
            <g id="合同签订" transform="translate(606.000000, 44.000000)">
                <rect id="矩形" fill="#000000" opacity="0" x="0" y="0" width="16" height="16"></rect>
                <g id="编组-2" fill="#FFFFFF">
                    <path d="M11.4481746,11.4639373 L9.67279779,11.967634 L10.1764835,10.1922406 L11.4481746,11.4639373 Z M14.9307279,7.98103658 L14.5031949,8.40856966 L13.2315147,7.13688952 L13.6590257,6.70936746 C13.6590257,6.70936746 13.8627996,6.50590239 14.069921,6.71302371 C14.2770643,6.92017261 14.6797096,7.3228068 14.9065515,7.54965974 C15.1334154,7.77650165 14.9307335,7.98103658 14.9307335,7.98103658 L14.9307279,7.98103658 Z M14.375193,8.53624614 L11.5747096,11.3367296 L10.3033493,10.0653693 L13.1038327,7.26488584 L14.375193,8.53624614 Z" id="形状"></path>
                    <path d="M4.60705894,10.2992314 C4.61089718,10.3522348 4.61176471,10.39942 4.61176471,10.5060822 C4.61176471,10.7382715 4.61656218,10.8232384 4.65601729,10.9517542 C4.74420783,11.2390143 4.99316882,11.4230605 5.31208682,11.3948269 C5.73137322,11.3577077 5.84251677,11.1896998 6.24916913,10.3820896 C6.36274422,10.1565299 6.42220747,10.0437518 6.47705074,9.95618052 C6.53741828,10.0283737 6.62783141,10.1593689 6.73359992,10.3670572 C7.02537902,11.298108 7.36668279,11.8158568 7.94738094,11.7644479 C8.39874023,11.7244894 8.92547729,11.1956779 9.78572582,10.0695484 C9.94349606,9.86301535 9.90396602,9.5676892 9.697433,9.40991896 C9.49089998,9.25214872 9.19557384,9.29167876 9.03780359,9.49821178 C8.44954043,10.2682922 8.00112003,10.7344289 7.88779681,10.8145781 L7.93808336,10.8187917 C7.95014132,10.8131476 7.94398949,10.8006903 7.92231227,10.7678066 C7.82461448,10.6196016 7.71465885,10.3645348 7.60110712,10.0099721 C7.24857484,9.30430896 6.88125358,8.94367077 6.4,8.94367077 C6.10226322,8.94367077 5.9101358,9.11060519 5.72372495,9.38826367 C5.64290857,9.50863947 5.58139048,9.61880852 5.46997862,9.83743157 C5.41880063,9.69149858 5.34005564,9.56221877 5.22380501,9.44808321 C4.65298185,8.88764563 4.02914602,9.29596945 3.37538682,10.2587665 C3.22938718,10.4737814 3.28533516,10.7664416 3.50035014,10.9124413 C3.71536512,11.0584409 4.0080253,11.0024929 4.15402494,10.7874779 C4.33021272,10.5280046 4.48298903,10.3444806 4.6011961,10.2399222 C4.60348241,10.2575081 4.605465,10.2772201 4.60705894,10.2992314 Z" id="路径-4" transform="translate(6.588224, 10.355808) scale(1, -1) translate(-6.588224, -10.355808) "></path>
                    <path d="M11.2941176,14.1201414 L0.941176471,14.1201414 L0.941176471,0.943670767 L12.2352941,0.943670767 L12.2352941,6.59072959 L13.1764706,6.59072959 L13.1764706,0.943670767 C13.1764706,-0.0959240559 12.3337125,0.00249429677 11.2941176,0.00249429677 L1.88235294,0.00249429677 C0.842758118,0.00249429677 3.73038508e-14,-0.0959240559 3.73038508e-14,0.943670767 L1.06255027e-13,14.1201414 C1.06255027e-13,15.1597362 0.842758118,15.0613178 1.88235294,15.0613178 L11.2941176,15.0613178 L11.2941176,14.1201414 Z" id="路径"></path>
                    <path d="M3.28088235,4.70837665 L8.15693934,4.70837665 C8.41683804,4.70837665 8.62752757,4.49768712 8.62752757,4.23778841 C8.62752757,3.97788971 8.41683804,3.76720018 8.15693934,3.76720018 L3.28088235,3.76720018 C3.02098365,3.76720018 2.81029412,3.97788971 2.81029412,4.23778841 C2.81029412,4.49768712 3.02098365,4.70837665 3.28088235,4.70837665 Z" id="路径"></path>
                    <path d="M3.28088235,7.53190606 L6.95932904,7.53190606 C7.21922775,7.53190606 7.42991728,7.32121653 7.42991728,7.06131783 C7.42991728,6.80141912 7.21922775,6.59072959 6.95932904,6.59072959 L3.28088235,6.59072959 C3.02098365,6.59072959 2.81029412,6.80141912 2.81029412,7.06131783 C2.81029412,7.32121653 3.02098365,7.53190606 3.28088235,7.53190606 Z" id="路径"></path>
                </g>
            </g>
        </g>
    </g>
</svg>