<?xml version="1.0" standalone="no"?><!DOCTYPE svg PUBLIC "-//W3C//DTD SVG 1.1//EN" "http://www.w3.org/Graphics/SVG/1.1/DTD/svg11.dtd"><svg class="icon" width="200px" height="200.00px" viewBox="0 0 1024 1024" version="1.1" xmlns="http://www.w3.org/2000/svg"><path fill="#333333" d="M233.9 687.5c-48.4 0-87.6 43.4-87.6 97s39.2 97 87.6 97 87.6-43.4 87.6-97-39.2-97-87.6-97z m0 151.7c-25 0-45.3-24.5-45.3-54.7s20.3-54.7 45.3-54.7 45.3 24.5 45.3 54.7-20.3 54.7-45.3 54.7zM877.8 335.4c0-53.6-39.2-97-87.6-97-48.4 0-87.6 43.4-87.6 97 0 53.5 39.2 96.9 87.6 97H769v352c0 73.2-52.9 132.8-117.9 132.8s-117.9-59.6-117.9-132.8V637h-42.3v165.7h1.7c8.5 87.8 75.9 156.8 158.5 156.8 88.3 0 160.2-78.5 160.2-175.1v-352h-21.1c48.4 0 87.6-43.4 87.6-97z m-87.7 54.7c-25 0-45.4-24.5-45.4-54.7 0-30.2 20.3-54.7 45.4-54.7s45.3 24.5 45.3 54.7c0.1 30.2-20.3 54.7-45.3 54.7zM599.6 540c0-45.5-28.4-83.3-66.5-93.8V220.3h-1.8c-8.9-87.4-76.1-155.8-158.4-155.8-88.3 0-160.2 78.5-160.2 175v438.6H255V239.5c0-73.2 52.9-132.7 117.9-132.7s117.9 59.6 117.9 132.7v206.6c-38.1 10.5-66.5 48.4-66.5 93.8 0 53.6 39.2 97 87.6 97 48.5 0.1 87.7-43.3 87.7-96.9z m-133 0c0-30.2 20.3-54.7 45.3-54.7 25 0 45.4 24.5 45.4 54.7 0 30.2-20.3 54.7-45.4 54.7-24.9 0-45.3-24.5-45.3-54.7z" /></svg>