<?xml version="1.0" encoding="UTF-8"?>
<svg width="28px" height="28px" viewBox="0 0 28 28" version="1.1" xmlns="http://www.w3.org/2000/svg" xmlns:xlink="http://www.w3.org/1999/xlink">
    <!-- Generator: Sketch 63.1 (92452) - https://sketch.com -->
    <title>icon/导航图标/relative_library</title>
    <desc>Created with Sketch.</desc>
    <g id="icon/导航图标/relative_library" stroke="none" stroke-width="1" fill="none" fill-rule="evenodd">
        <g id="icon/相对方库" fill="#000000" fill-rule="nonzero">
            <path d="M22.6704444,3.00032312 C23.2677551,2.9933211 23.8500041,3.1879783 24.3228889,3.55296007 C24.7836667,3.96607118 25.0586667,4.51607118 24.9706667,5.11496007 L24.9706667,5.11496007 L24.9706667,20.1006267 C24.9706667,20.6506267 24.6932222,21.2042934 24.2348889,21.6161823 C23.8205556,21.9840712 23.2241111,22.1674045 22.5824444,22.1674045 L22.5824444,22.1674045 L22.1668889,22.1674045 L22.1668889,22.9031823 C22.1668889,23.4556267 21.8454444,24.006849 21.3871111,24.4187378 C20.9752222,24.787849 20.3763333,24.9713896 19.7346667,24.9713896 L19.7346667,24.9713896 L5.40655555,24.9713896 C4.80882748,24.978653 4.22610352,24.783981 3.7528889,24.4187378 C3.29455555,24.0520712 3.01955555,23.4996267 3.01955555,22.9031823 L3.01955555,22.9031823 L3.01955555,8.23651562 C3.01955555,7.63884895 3.29455555,7.0864045 3.79933333,6.62562673 C4.21366667,6.25896005 4.8101111,6.07562673 5.453,6.07562673 L5.453,6.07562673 L5.91133333,6.07562673 L5.91133333,5.07096007 C5.91133335,4.51851562 6.18633335,3.9672934 6.64466667,3.55296007 C7.059,3.18384895 7.65544443,3.00032312 8.2971111,3.00032312 L8.2971111,3.00032312 Z M12.4441111,17.7894045 L11.4418889,17.791849 C11.4418889,17.791849 10.9982222,17.7674045 10.3871111,18.2685156 C9.776,18.7684045 8.984,19.7926267 9.04022222,20.9904045 C9.09644443,22.1869601 10.4457778,22.1869601 12.4453333,22.191849 L12.6646669,22.1913956 C14.5418435,22.1865393 15.7950823,22.1438202 15.8492222,20.9904045 C15.9054444,19.793849 15.1134444,18.7696267 14.5023333,18.2685156 C13.9758815,17.8363378 13.5696909,17.7952386 13.4707325,17.7919619 L13.4475556,17.791849 L12.4441111,17.7894045 Z M22.0373333,4.5111823 L8.5928889,4.5111823 C8.17977778,4.5111823 7.85955555,4.64807118 7.62733333,4.87784895 C7.5368889,4.97073785 7.49044445,5.01596005 7.444,5.10884895 C7.39755555,5.20296007 7.39755555,5.2921823 7.39755555,5.3862934 L7.39755555,5.3862934 L7.39755555,6.11962673 L19.643,6.11962673 C21.865,6.11962673 22.1644444,7.39318228 22.1644444,8.23407118 L22.1644444,8.23407118 L22.1644444,20.6054045 L22.2353333,20.6054045 C22.283,20.6054045 22.7217778,20.651849 23.0212222,20.4465156 C23.3194444,20.2375156 23.4771111,19.7791823 23.4771111,19.6862934 L23.4771111,19.6862934 L23.4771111,5.3361823 C23.4771111,4.87784897 22.6802222,4.5111823 22.0373333,4.5111823 L22.0373333,4.5111823 Z M12.4447222,13.7169253 C11.3850804,13.7169253 10.5187276,14.561872 10.4922222,15.6211823 C10.4922222,16.6995183 11.3663863,17.5736823 12.4447222,17.5736823 C13.5230582,17.5736823 14.3972222,16.6995183 14.3972222,15.6211823 C14.3707169,14.561872 13.504364,13.7169253 12.4447222,13.7169253 Z M19.7053333,7.64984895 L5.59722222,7.64984895 C4.65977778,7.64984895 4.59866667,8.18884895 4.59866667,8.64962673 L4.59866667,10.7689601 L20.6048889,10.7689601 L20.6048889,8.47851562 C20.6048889,8.01651562 20.0536667,7.64984895 19.7053333,7.64984895 L19.7053333,7.64984895 Z M18.125,8.64596007 C18.4904444,8.64596007 18.7678889,8.9234045 18.8143333,9.28884895 L18.8143333,9.28884895 L18.8143333,9.3352934 C18.8143333,9.70073783 18.5393333,9.97818228 18.1714444,10.0246267 C17.8035556,10.0246267 17.5273333,9.74962675 17.4821111,9.38173785 L17.4821111,9.38173785 L17.4821111,9.3352934 C17.4821111,8.96740452 17.7583333,8.69362675 18.125,8.6471823 L18.125,8.6471823 Z M15.4593333,8.69607118 L15.4593333,9.93662673 L6.23033333,9.93662673 L6.23033333,8.69607118 L15.4593333,8.69607118 Z" id="形状结合"></path>
        </g>
    </g>
</svg>