<?xml version="1.0" encoding="UTF-8"?>
<svg width="28px" height="28px" viewBox="0 0 28 28" version="1.1" xmlns="http://www.w3.org/2000/svg" xmlns:xlink="http://www.w3.org/1999/xlink">
    <!-- Generator: Sketch 63.1 (92452) - https://sketch.com -->
    <title>icon/导航图标/relative_record</title>
    <desc>Created with Sketch.</desc>
    <g id="icon/导航图标/relative_record" stroke="none" stroke-width="1" fill="none" fill-rule="evenodd">
        <g id="操作记录" fill="#000000" fill-rule="nonzero">
            <path d="M7.89590811,9.71826767 L9.94903086,17.6148937 L10.1069634,17.6148937 L16.4242642,8.77067256 C15.3187365,7.34927989 15.7925341,5.45408964 17.2139268,4.50649453 C18.6353194,3.55889942 20.5305097,4.03269697 21.4781048,5.45408964 C22.2677674,6.87548231 21.9519024,8.61274003 20.6884422,9.56033516 L22.4256999,17.6148937 L22.5836325,17.6148937 C24.1629577,18.0886912 25.2684853,19.6680164 24.7946877,21.4052741 C24.3208902,22.9845993 22.741565,24.090127 21.0043072,23.6163294 C19.2670495,23.1425319 18.3194544,21.5632067 18.793252,19.8259489 C18.9511845,18.8783538 19.7408471,18.0886912 20.5305097,17.7728262 L18.793252,10.1920652 C18.3194544,10.1920652 17.8456569,10.1920652 17.5297918,10.0341327 L11.5283561,18.5624888 C12.6338837,19.8259489 12.4759512,21.7211392 11.212491,22.9845993 C9.94903086,24.090127 7.89590811,23.9321944 6.79038047,22.6687343 C5.68485283,21.4052741 5.84278536,19.3521514 7.10624552,18.2466237 C7.26417805,18.0886912 7.58004308,17.9307587 7.89590811,17.7728262 L6.00071788,10.1920652 C4.26346016,10.1920652 3,8.77067256 3,7.03341484 C3,5.29615712 4.42139267,4.03269697 6.15865039,4.03269697 C7.89590811,4.03269697 9.31730078,5.45408964 9.3173008,7.19134736 C9.15936827,8.13894247 8.68557072,9.08653761 7.89590811,9.71826767 Z M7.42211055,7.34927989 C7.58004308,6.71754981 7.10624552,6.08581972 6.47451544,5.9278872 C5.84278536,5.76995467 5.21105528,6.08581972 4.89519025,6.71754981 C4.73725772,7.50721241 5.21105528,8.13894247 5.84278536,8.296875 C6.47451544,8.45480753 7.26417803,7.98100997 7.42211055,7.34927989 L7.42211055,7.34927989 Z M22.994257,20.7735441 C23.1521895,20.141814 22.678392,19.5100839 22.0466619,19.3521514 C21.4149318,19.1942189 20.7832017,19.6680164 20.6252692,20.2997465 C20.4673367,20.9314766 20.9411342,21.5632067 21.5728643,21.7211392 C22.2045944,21.8790717 22.8363245,21.5632067 22.994257,20.7735441 Z" id="形状"></path>
        </g>
    </g>
</svg>