<?xml version="1.0" standalone="no"?><!DOCTYPE svg PUBLIC "-//W3C//DTD SVG 1.1//EN" "http://www.w3.org/Graphics/SVG/1.1/DTD/svg11.dtd"><svg t="1521595183666" class="icon" style="" viewBox="0 0 1024 1024" version="1.1" xmlns="http://www.w3.org/2000/svg" p-id="9019" xmlns:xlink="http://www.w3.org/1999/xlink" width="200" height="200"><defs><style type="text/css"></style></defs><path d="M843.7 712c-36.5 0-68.6 17.2-89.8 43.5l-75.4-63.6c15.9-29 25.8-61.8 25.8-97.2 0-86.4-54.1-159.7-130.1-189.1l15.7-103.4c0.2-1.4-0.1-2.7-0.2-4 18.1-1.8 36-7.6 52.2-18.3 53.4-35.2 68.3-107 33.1-160.4-22.3-33.8-59.2-52.2-96.9-52.2-21.8 0-43.9 6.2-63.6 19.1-53.4 35.2-68.3 107-33.1 160.4 16.1 24.5 40.1 40.6 66.3 47.8-0.1 0.4-0.4 0.8-0.4 1.2l-15 98.9c-10.3-1.6-20.5-3.2-31.2-3.2-112.2 0-203.2 91-203.2 203.2 0 40.8 12.3 78.6 33 110.4l-81.6 43.3c-19.3-14.4-43-23.2-68.9-23.2-64 0-115.8 51.9-115.8 115.8 0 64 51.9 115.8 115.8 115.8S296.2 904.9 296.2 841c0-21.9-6.4-42.2-17.1-59.7l79.3-42c36.7 36.2 87 58.7 142.7 58.7 61.2 0 115.5-27.7 152.7-70.5l79.5 67.1c-3.2 10.6-5.5 21.7-5.5 33.4 0 64 51.9 115.8 115.8 115.8 64 0 115.8-51.9 115.8-115.8 0.1-64.1-51.8-116-115.7-116zM517.4 223.1c-22.1-33.5-12.7-78.8 20.8-100.8 11.9-7.8 25.7-12 39.9-12 24.6 0 47.4 12.3 60.9 32.8 22.1 33.5 12.7 78.8-20.8 100.8-11.9 7.8-25.7 12-39.9 12-24.6 0-47.4-12.3-60.9-32.8zM180.3 913.8c-40.1 0-72.8-32.7-72.8-72.8 0-40.2 32.7-72.8 72.8-72.8s72.8 32.7 72.8 72.8c0 40.1-32.6 72.8-72.8 72.8z m320.8-158.9c-88.3 0-160.2-71.9-160.2-160.2s71.9-160.2 160.2-160.2c88.3 0 160.2 71.9 160.2 160.2 0 30.5-9 58.7-23.9 83-1.7 1.1-3.4 2.1-4.7 3.7-2.4 2.8-3.6 6.1-4.3 9.5-29.3 38.6-75.2 64-127.3 64z m342.6 145.7c-40.1 0-72.8-32.7-72.8-72.8 0-8.9 1.8-17.4 4.8-25.3 0.1-0.1 0.2-0.1 0.3-0.2 2.4-2.8 3.6-6.1 4.3-9.5 12.4-22.4 36-37.8 63.4-37.8 40.1 0 72.8 32.7 72.8 72.8 0 40.2-32.7 72.8-72.8 72.8z" p-id="9020"></path></svg>