<?xml version="1.0" encoding="utf-8"?>
<!-- Generator: Adobe Illustrator 19.1.0, SVG Export Plug-In . SVG Version: 6.00 Build 0)  -->
<svg version="1.1" id="图层_1" xmlns="http://www.w3.org/2000/svg" xmlns:xlink="http://www.w3.org/1999/xlink" x="0px" y="0px"
	 viewBox="0 0 1024 1024" style="enable-background:new 0 0 1024 1024;" xml:space="preserve">
<g>
	<path d="M916.3,130.9H771.8H692c-63.9,0-119.9,13.7-151.9,49.8v712.1c32-35.2,88-47.7,151.9-47.7l79.8,0.9h144.5
		c24.1,0,43.7-19.6,43.7-43.7V174.6C960,150.5,940.4,130.9,916.3,130.9z M768.3,680.3H644.1c-15.5,0-28.1-12.6-28.1-28.1
		c0-15.5,12.6-28.1,28.1-28.1h124.2c15.5,0,28.1,12.6,28.1,28.1C796.4,667.7,783.9,680.3,768.3,680.3z M852.6,530H644.1
		c-15.5,0-28.1-12.6-28.1-28.1c0-15.5,12.6-28.1,28.1-28.1h208.5c15.5,0,28.1,12.6,28.1,28.1C880.8,517.4,868.2,530,852.6,530z
		 M852.6,379.7H644.1c-15.5,0-28.1-12.6-28.1-28.1c0-15.5,12.6-28.1,28.1-28.1h208.5c15.5,0,28.1,12.6,28.1,28.1
		C880.8,367.1,868.2,379.7,852.6,379.7z"/>
	<path d="M483.9,181c-31.9-36.3-88.1-50.1-152.2-50.1h-83.1H107.7c-24.1,0-43.7,19.6-43.7,43.7v627.6c0,24.1,19.6,43.7,43.7,43.7
		h140.9l83.1-0.9c64.1,0,120.3,12.6,152.2,48V181z M295.6,680.3H174.2c-15.5,0-28.1-12.6-28.1-28.1c0-15.5,12.6-28.1,28.1-28.1
		h121.4c15.5,0,28.1,12.6,28.1,28.1C323.7,667.7,311.2,680.3,295.6,680.3z M382.8,530H174.2c-15.5,0-28.1-12.6-28.1-28.1
		c0-15.5,12.6-28.1,28.1-28.1h208.6c15.5,0,28.1,12.6,28.1,28.1C410.9,517.4,398.3,530,382.8,530z M382.8,379.7H174.2
		c-15.5,0-28.1-12.6-28.1-28.1c0-15.5,12.6-28.1,28.1-28.1h208.6c15.5,0,28.1,12.6,28.1,28.1C410.9,367.1,398.3,379.7,382.8,379.7z"
		/>
</g>
</svg>
