<?xml version="1.0" encoding="utf-8"?>
<!-- Generator: Adobe Illustrator 22.0.0, SVG Export Plug-In . SVG Version: 6.00 Build 0)  -->
<svg version="1.1" id="图层_1" xmlns="http://www.w3.org/2000/svg" xmlns:xlink="http://www.w3.org/1999/xlink" x="0px" y="0px"
	 viewBox="0 0 1024 1024" style="enable-background:new 0 0 1024 1024;" xml:space="preserve">
<style type="text/css">
	.st0{fill:#3E3A39;}
</style>
<title>监督中心</title>
<title>流程查询</title>
<title>流程反馈</title>
<title>流程概览</title>
<g>
	<path class="st0" d="M499.9,355.2c-85.8,0-155.4,69.6-155.4,155.4S414.1,666,499.9,666s155.4-69.6,155.4-155.4
		S585.8,355.2,499.9,355.2z M499.9,611c-55.5,0-100.4-45-100.4-100.4c0-55.5,45-100.4,100.4-100.4s100.4,45,100.4,100.4
		C600.4,566.1,555.4,611,499.9,611z"/>
	<circle class="st0" cx="499.9" cy="510.6" r="47.1"/>
	<path class="st0" d="M935.4,475.8h-44.2c-16.6-189.2-167.3-339.9-356.5-356.5V88.6c0-13.3-10.8-24.1-24.1-24.1h-21.3
		c-13.3,0-24.1,10.8-24.1,24.1v30.7C276,135.9,125.3,286.6,108.7,475.8h-20c-13.3,0-24.1,10.8-24.1,24.1v21.3
		c0,13.3,10.8,24.1,24.1,24.1h20C125.3,734.6,276,885.3,465.1,901.9v33.5c0,13.3,10.8,24.1,24.1,24.1h21.3
		c13.3,0,24.1-10.8,24.1-24.1v-33.5c189.2-16.6,339.9-167.3,356.5-356.5h44.2c13.3,0,24.1-10.8,24.1-24.1v-21.3
		C959.5,486.6,948.7,475.8,935.4,475.8z M534.7,825.7v-16.6c0-13.3-10.8-24.1-24.1-24.1h-21.3c-13.3,0-24.1,10.8-24.1,24.1v16.6
		c-147.3-16.1-264.3-133-280.3-280.3h30.1c13.3,0,24.1-10.8,24.1-24.1v-21.3c0-13.3-10.8-24.1-24.1-24.1h-30.1
		c16.1-147.3,133-264.3,280.3-280.3v19.4c0,13.3,10.8,24.1,24.1,24.1h21.3c13.3,0,24.1-10.8,24.1-24.1v-19.4
		C682,211.5,799,328.5,815.1,475.8h-5.9c-13.3,0-24.1,10.8-24.1,24.1v21.3c0,13.3,10.8,24.1,24.1,24.1h5.9
		C799,692.7,682,809.6,534.7,825.7z"/>
</g>
</svg>
