<?xml version="1.0" encoding="utf-8"?>
<!-- Generator: Adobe Illustrator 19.1.0, SVG Export Plug-In . SVG Version: 6.00 Build 0)  -->
<svg version="1.1" id="图层_1" xmlns="http://www.w3.org/2000/svg" xmlns:xlink="http://www.w3.org/1999/xlink" x="0px" y="0px"
	 viewBox="0 0 1024 1024" style="enable-background:new 0 0 1024 1024;" xml:space="preserve">
<g>
	<polygon points="368.1,780.1 450,745.4 357.5,685.9 345,691.9 	"/>
	<polygon points="694.4,693.8 680.7,687 589.9,745.4 671.8,780.1 	"/>
	<path d="M753.9,723.6L725.3,833c-2.4,9.1-8.6,16.8-17.1,21c-4.5,2.2-9.4,3.3-14.4,3.3c-4.3,0-8.6-0.9-12.7-2.6l-29.2-12.4L611,960
		h346.3V825.2L753.9,723.6z"/>
	<polygon points="439,820.8 487.3,960 542.2,960 591.8,816.9 520,786.5 	"/>
	<path d="M520,713.1l98.7-63.5L731.7,485V272.6c0-118.4-96-208.6-214.3-208.6s-214.3,90.3-214.3,208.6V485l116,163.2L520,713.1z"/>
	<path d="M379,846.2l-20.1,8.5c-4.1,1.7-8.4,2.6-12.7,2.6c-4.9,0-9.8-1.1-14.4-3.3c-8.5-4.2-14.7-11.8-17.1-21l-29.5-112.4
		L66.7,825.2V960h351.8L379,846.2z"/>
</g>
</svg>
