<?xml version="1.0" encoding="utf-8"?>
<!-- Generator: Adobe Illustrator 22.0.0, SVG Export Plug-In . SVG Version: 6.00 Build 0)  -->
<svg version="1.1" id="图层_1" xmlns="http://www.w3.org/2000/svg" xmlns:xlink="http://www.w3.org/1999/xlink" x="0px" y="0px"
	 viewBox="0 0 1024 1024" style="enable-background:new 0 0 1024 1024;" xml:space="preserve">
<style type="text/css">
	.st0{fill:#3E3A39;}
</style>
<title>监督中心</title>
<title>流程查询</title>
<path class="st0" d="M512,64.5C264.9,64.5,64.5,264.9,64.5,512S264.9,959.5,512,959.5S959.5,759.1,959.5,512S759.1,64.5,512,64.5z
	 M707.8,540H540v167.8c0,15.4-12.5,28-28,28s-28-12.5-28-28V540H316.2c-15.4,0-28-12.5-28-28s12.5-28,28-28H484V316.2
	c0-15.4,12.5-28,28-28s28,12.5,28,28V484h167.8c15.4,0,28,12.5,28,28S723.2,540,707.8,540z"/>
</svg>
