<?xml version="1.0" encoding="UTF-8"?>
<svg width="28px" height="28px" viewBox="0 0 28 28" version="1.1" xmlns="http://www.w3.org/2000/svg" xmlns:xlink="http://www.w3.org/1999/xlink">
    <!-- Generator: Sketch 63.1 (92452) - https://sketch.com -->
    <title>icon/导航图标/settlement_invoice</title>
    <desc>Created with Sketch.</desc>
    <g id="icon/导航图标/settlement_invoice" stroke="none" stroke-width="1" fill="none" fill-rule="evenodd">
        <g id="icon/发票管理" fill="#000000" fill-rule="nonzero">
            <path d="M22.4891399,3.00168963 L5.47119117,3.00168963 C5.21102755,3.00168964 5.00006029,3.21442841 5.00006029,3.476855 L5.00006029,24.2190744 C4.99722665,24.3982093 5.09446485,24.5637592 5.25161581,24.6472453 C5.40876678,24.7307314 5.59911141,24.7179593 5.74391471,24.614212 L7.72735863,23.2587402 C7.88550673,23.1514174 8.09234386,23.1514174 8.25049196,23.2587402 L10.7297968,24.9193181 C10.8879449,25.0266409 11.0947821,25.0266409 11.2529302,24.9193181 L13.7322351,23.2587402 C13.8894025,23.1511644 14.0957217,23.1511644 14.2528891,23.2587402 L16.732194,24.9193181 C16.8893614,25.026894 17.0956806,25.026894 17.252848,24.9193181 L19.7321529,23.2587402 C19.890301,23.1514174 20.0971381,23.1514174 20.2552862,23.2587402 L22.2560853,24.6042085 C22.4008886,24.7079558 22.5912332,24.720728 22.7483842,24.6372419 C22.9055351,24.5537558 23.0027733,24.3882059 22.9999397,24.2090709 L22.9999397,3.476855 C23.0003461,3.34358394 22.9453085,3.21623998 22.8481881,3.12588382 C22.7510678,3.03552766 22.6207932,2.99046589 22.4891399,3.00168963 Z M13.9801656,17.9355747 L9.9884847,17.9355747 C9.44077179,17.9355747 8.99676275,17.597726 8.99676275,17.1809684 C8.99676275,16.7642109 9.44077179,16.4263621 9.9884847,16.4263621 L13.9801656,16.4263621 C14.5278785,16.4263621 14.9718875,16.7642109 14.9718875,17.1809684 C14.9718875,17.597726 14.5278785,17.9355747 13.9801656,17.9355747 Z M17.9693671,13.5440463 L9.9884847,13.5440463 C9.4407718,13.5440463 8.99676279,13.2061975 8.99676279,12.78944 C8.99676279,12.3726824 9.4407718,12.0348337 9.9884847,12.0348337 L17.9693671,12.0348337 C18.51708,12.0348337 18.9610891,12.3726824 18.9610891,12.78944 C18.9610891,13.2061975 18.51708,13.5440463 17.9693671,13.5440463 L17.9693671,13.5440463 Z M17.9693671,9.1406429 L9.9884847,9.1406429 C9.44077178,9.1406429 8.99676274,8.80489259 8.99676274,8.3907236 C8.99676274,7.9765546 9.44077178,7.64080429 9.9884847,7.64080429 L17.9693671,7.64080429 C18.5205032,7.64080429 18.9672873,7.97865304 18.9672873,8.39541059 C18.9672873,8.81216814 18.5205032,9.15001689 17.9693671,9.15001689 L17.9693671,9.1406429 Z" id="形状"></path>
        </g>
    </g>
</svg>