<?xml version="1.0" encoding="UTF-8"?>
<svg width="28px" height="28px" viewBox="0 0 28 28" version="1.1" xmlns="http://www.w3.org/2000/svg" xmlns:xlink="http://www.w3.org/1999/xlink">
    <!-- Generator: Sketch 63.1 (92452) - https://sketch.com -->
    <title>icon/导航图标/settlement_acceptReg</title>
    <desc>Created with Sketch.</desc>
    <g id="icon/导航图标/settlement_acceptReg" stroke="none" stroke-width="1" fill="none" fill-rule="evenodd">
        <g id="icon/收票登记" fill="#000000" fill-rule="nonzero">
            <path d="M24.4516903,7.00010271 C24.6756991,7.00010272 24.857294,7.17585629 24.8572941,7.39265931 L24.8572941,7.39265931 L24.8572941,21.5742833 C24.8668747,21.6839944 24.8284097,21.7925565 24.7512812,21.8734901 C24.6741527,21.9544237 24.5654512,22.0002884 24.4516903,21.9998973 L24.4516903,21.9998973 L4.53387767,21.9998973 C4.38096713,22.0023111 4.23965283,21.9212793 4.16838865,21.7903201 C4.09712446,21.659361 4.10802686,21.5007405 4.19658613,21.3800711 L4.19658613,21.3800711 L5.3450852,19.7127385 C5.43669648,19.5809484 5.43669648,19.4085842 5.3450852,19.2767941 L5.3450852,19.2767941 L3.92760679,17.2107067 C3.8357795,17.0797338 3.8357795,16.9078011 3.92760679,16.7768283 L3.92760679,16.7768283 L5.3450852,14.7107409 C5.4369125,14.5797681 5.4369125,14.4078354 5.3450852,14.2768626 L5.3450852,14.2768626 L3.92760679,12.2107752 C3.8359955,12.0789851 3.8359955,11.9066208 3.92760679,11.7748307 L3.92760679,11.7748307 L5.3450852,9.7087433 C5.43669648,9.57695322 5.43669648,9.40458894 5.3450852,9.27279886 L5.3450852,9.27279886 L4.1880471,7.61992893 C4.09948784,7.49925951 4.08858545,7.34063898 4.15984963,7.20967984 C4.23111382,7.07872071 4.37242812,6.99768887 4.52533866,7.00010271 L4.52533866,7.00010271 Z M14.6814159,12.2399492 C14.4712519,12.0297853 14.1305088,12.0297853 13.9203448,12.2399492 C13.7101809,12.4501132 13.7101809,12.7908563 13.9203448,13.0010203 L13.9203448,13.0010203 L14.8873949,13.9663263 L10.5381585,13.9672447 C10.2409418,13.9672447 10,14.2081865 10,14.5054032 C10,14.80262 10.2409418,15.0435617 10.5381585,15.0435617 L10.5381585,15.0435617 L15.0443949,15.0433263 L14.0328982,16.0536079 C13.7939463,16.2925597 13.7939463,16.6799772 14.0328982,16.918929 C14.27185,17.1578808 14.6592675,17.1578808 14.8982193,16.918929 L14.8982193,16.918929 L16.7094437,15.1073222 L16.7094437,15.1073222 L16.7217665,15.0938592 L16.7487719,15.0683764 C16.9589359,14.8582124 16.9589359,14.5174693 16.7487719,14.3073053 L16.7487719,14.3073053 L16.6099148,14.1657494 C16.5866961,14.1372469 16.5606167,14.1111675 16.5321142,14.0879488 L16.5321142,14.0879488 Z M17.6814159,12.2399492 C17.4712519,12.0297853 17.1305088,12.0297853 16.9203448,12.2399492 C16.7101809,12.4501132 16.7101809,12.7908563 16.9203448,13.0010203 L16.9203448,13.0010203 L18.503669,14.5838961 L17.0328982,16.0536079 C16.7939463,16.2925597 16.7939463,16.6799772 17.0328982,16.918929 C17.27185,17.1578808 17.6592675,17.1578808 17.8982193,16.918929 L17.8982193,16.918929 L19.7094437,15.1073222 L19.7094437,15.1073222 L19.7217665,15.0938592 L19.7487719,15.0683764 C19.9589359,14.8582124 19.9589359,14.5174693 19.7487719,14.3073053 L19.7487719,14.3073053 Z" id="形状结合"></path>
        </g>
    </g>
</svg>