<?xml version="1.0" encoding="UTF-8"?>
<svg width="28px" height="28px" viewBox="0 0 28 28" version="1.1" xmlns="http://www.w3.org/2000/svg" xmlns:xlink="http://www.w3.org/1999/xlink">
    <!-- Generator: Sketch 63.1 (92452) - https://sketch.com -->
    <title>icon/导航图标/settlement_collectionAcc</title>
    <desc>Created with Sketch.</desc>
    <g id="icon/导航图标/settlement_collectionAcc" stroke="none" stroke-width="1" fill="none" fill-rule="evenodd">
        <g id="icon/款项台账" fill="#000000" fill-rule="nonzero">
            <path d="M19.5921053,3.75 C20.8565467,3.75 21.8815789,4.77503228 21.8815789,6.03947368 L21.8815789,6.03947368 L21.881,11.681 L23.9819336,15.2229004 C23.9937166,15.2405325 24,15.2612639 24,15.2824707 L24,22.75 C24,23.4403559 23.4403559,24 22.75,24 L5.35717773,24 C4.60762917,24 3.99999999,23.3923708 3.99999999,22.6428223 L3.99999999,15.2792969 C3.99999999,15.2604377 4.00496097,15.2419105 4.0144043,15.2255859 L6.44699999,11.127 L6.44736842,6.03947368 C6.44736842,4.82771734 7.38876092,3.835835 8.58009068,3.75528188 L8.73684211,3.75 Z M19.5921053,4.85526316 L8.73684211,4.85526316 C8.08282069,4.85526316 7.55263158,5.38545227 7.55263158,6.03947368 L7.55263158,6.03947368 L7.55199999,15.249 L10.1445313,15.25 C10.2024636,15.25 10.2498777,15.2960933 10.2514648,15.3540039 C10.3082065,17.3834617 11.9697491,18.9991985 14,18.9991985 C16.0302509,18.9991985 17.6917935,17.3834617 17.7485352,15.3540039 C17.7501223,15.2960933 17.7975364,15.25 17.8554688,15.25 L20.776,15.25 L20.7763158,6.03947368 C20.7763158,5.42632861 20.3103293,4.92202052 19.7131839,4.8613771 L19.5921053,4.85526316 Z M15.6779217,7.26263664 C15.8875715,7.04061259 16.201413,6.95023401 16.4970355,7.02675217 C16.7926581,7.10327033 17.0232384,7.33456564 17.098841,7.63042366 C17.1744435,7.92628167 17.0830937,8.23984191 16.8604217,8.44880331 L16.8604217,8.44880331 L15.036255,10.2821366 L16.801755,10.2821366 C17.0069338,10.2757042 17.2048651,10.3583389 17.3445613,10.508754 C17.4842575,10.6591691 17.5520608,10.8626586 17.530505,11.0668033 C17.5540029,11.2743476 17.4878846,11.4820639 17.348739,11.637837 C17.2095933,11.7936101 17.0106252,11.8826572 16.7980883,11.8853866 L16.7980883,11.8853866 L14.997755,11.8853866 L14.997755,12.88547 L16.752255,12.88547 C17.2105883,12.88547 17.5295883,13.1201367 17.5295883,13.71872 C17.5295883,14.17797 17.3114217,14.4850533 16.8530883,14.4850533 L16.8530883,14.4850533 L15.0014217,14.4850533 L15.0014217,15.68497 C15.0014217,16.2373008 14.5536691,16.6850533 14.0013383,16.6850533 C13.4490076,16.6850533 13.001255,16.2373008 13.001255,15.68497 L13.001255,15.68497 L13.001255,14.4850533 L11.2009217,14.4850533 C10.9896026,14.4779206 10.7908371,14.3829629 10.6525048,14.2230542 C10.5141725,14.0631455 10.4488134,13.8527818 10.4721717,13.6426366 C10.4515789,13.4411621 10.5206266,13.2408251 10.6609803,13.094822 C10.8013339,12.9488188 10.9987917,12.8719231 11.2009217,12.8845533 L11.2009217,12.8845533 L13.0030883,12.8845533 L13.0030883,11.88447 L11.202755,11.88447 C10.9938848,11.8844905 10.7949167,11.7954434 10.655771,11.6396703 C10.5166254,11.4838972 10.4505071,11.2761809 10.474005,11.0686366 C10.4524492,10.8644919 10.5202525,10.6610024 10.6599487,10.5105873 C10.799645,10.3601723 10.9975762,10.2775376 11.202755,10.28397 L11.202755,10.28397 L12.9444217,10.28397 L11.123005,8.45613664 C10.812085,8.12686486 10.81909,7.61012103 11.1388212,7.28939833 C11.4585525,6.96867563 11.9752722,6.96007089 12.305505,7.26996999 L12.305505,7.26996999 L13.9894217,8.95846999 Z M5.36450195,15.0822754 C5.34201956,15.115114 5.339584,15.1577061 5.35817645,15.1928935 C5.3767689,15.2280809 5.41332771,15.250069 5.453125,15.2500207 L6.44699999,15.25 L6.447962,13.3791755 C6.18239799,13.7899759 5.82124464,14.3576758 5.36450195,15.0822754 Z M21.8814957,14.0097072 L21.881,15.25 L22.4909668,15.250014 C22.5344043,15.2501151 22.5736158,15.2240008 22.5902542,15.1838761 C22.6068925,15.1437514 22.5976671,15.0975519 22.5668945,15.0668945 C22.3057977,14.6631386 22.0773314,14.3107428 21.8814957,14.0097072 Z" id="形状结合"></path>
        </g>
    </g>
</svg>