<?xml version="1.0" encoding="UTF-8"?>
<svg width="28px" height="28px" viewBox="0 0 28 28" version="1.1" xmlns="http://www.w3.org/2000/svg" xmlns:xlink="http://www.w3.org/1999/xlink">
    <!-- Generator: Sketch 63.1 (92452) - https://sketch.com -->
    <title>icon/导航图标/settlement_paymentReg</title>
    <desc>Created with Sketch.</desc>
    <g id="icon/导航图标/settlement_paymentReg" stroke="none" stroke-width="1" fill="none" fill-rule="evenodd">
        <g id="icon/付款申请" fill="#000000" fill-rule="nonzero">
            <path d="M4.91108358,23.999682 L12.1968932,23.999682 L12.1968932,23.9536356 L17.9286508,20.8685294 C18.477949,20.5977194 18.7054388,19.9343565 18.4378792,19.3836137 C18.3104451,19.1189259 18.0825667,18.9160566 17.804851,18.8200587 C17.5271353,18.7240609 17.2225719,18.7428813 16.9587979,18.8723403 L11.195273,21.8786913 L6.12522634,21.8786913 L6.12522634,20.9698314 L10.375679,20.9698314 C10.8782063,20.9700069 11.2857765,20.5630056 11.2861273,20.060654 L11.2861273,19.7577007 C11.2859588,19.5164034 11.1899088,19.2850558 11.019107,19.114552 C10.8483052,18.9440481 10.616743,18.8483547 10.3753614,18.8485232 L4.91108358,18.8485232 C4.66970193,18.8483547 4.43813969,18.9440481 4.26733793,19.114552 C4.09653618,19.2850558 4.00048612,19.5164034 4.00031767,19.7577007 L4.00031767,23.0908221 C4.00048612,23.3321194 4.09653618,23.5634669 4.26733793,23.7339708 C4.43813969,23.9044746 4.66970193,24.0001681 4.91108358,23.9999998 L4.91108358,23.999682 Z M22.7855396,16.4239445 C23.1073818,16.4241969 23.4161426,16.2966326 23.6438981,16.069314 C23.8716537,15.8419953 23.9997473,15.5335431 24,15.2118134 L24,5.21181397 C23.9992986,4.54197045 23.4556174,3.99947434 22.7855396,4.00000038 L5.21446043,4.00000038 C4.89261823,3.999748 4.5838574,4.12731229 4.35610187,4.35463092 C4.12834634,4.58194956 4.00025266,4.89040176 4,5.21213153 L4,15.2121309 C4.00070145,15.8819744 4.54438265,16.4244705 5.21446043,16.4239445 L22.7855396,16.4239445 L22.7855396,16.4239445 Z M6.12300264,11.5779616 L15.8358271,11.5779616 L15.8358271,12.489362 L6.12300264,12.489362 L6.12300264,11.5779616 Z M6.12300264,13.3963165 L10.3753614,13.3963165 L10.3753614,14.3070818 L6.12236729,14.3070818 L6.12236729,13.396634 L6.12300264,13.396634 L6.12300264,13.3963165 Z" id="形状"></path>
        </g>
    </g>
</svg>