<?xml version="1.0" encoding="utf-8"?>
<!-- Generator: Adobe Illustrator 19.1.0, SVG Export Plug-In . SVG Version: 6.00 Build 0)  -->
<svg version="1.1" id="imissive_x5F_exchange" xmlns="http://www.w3.org/2000/svg" xmlns:xlink="http://www.w3.org/1999/xlink"
	 x="0px" y="0px" viewBox="0 0 1024 1024" style="enable-background:new 0 0 1024 1024;" xml:space="preserve">
<style type="text/css">
	.st0{fill:#030000;}
</style>
<g>
	<g>
		<g>
			<path d="M610,504.4v-53.6c14-17.4,29-42.3,29-69V228.1C639,139,569.5,64,479.7,64h-33.4C356.5,64,281,139.3,281,228.4v153.3
				c0,26.4,15,51.5,29,69v126.2c-29,17-123.7,66.9-211.4,138.2C76.2,733.5,67,761,67,790.6v105.1c0,12.9,7,26.3,20.2,26.3
				c0,0,171.9,0,351.2,0h94.1c-40.6-43-66.2-106.4-66.2-172C466.2,648.7,524,545.8,610,504.4z"/>
		</g>
	</g>
	<path class="st0" d="M736.1,517.9c-122.1,0-221.1,99-221.1,221.1s99,221.1,221.1,221.1s221.1-99,221.1-221.1
		S858.2,517.9,736.1,517.9z M888.2,721.8l-64.7,60.4l16.4,86.9c1,5.9-1.4,11.9-6.3,15.3c-5.2,5.2-14.2,2.4-16.5,1.2l-81.1-39.9
		l-81.6,39.9c-2.3,1.2-11.9,3.4-16.5-1.2c-4.9-3.5-7.3-9.5-6.2-15.3l16.9-86.9l-64.7-59.8c-4.3-4.2-5.8-10.4-4-16.1
		c1.8-5.7,6.7-9.8,12.6-10.7l89.4-16.3l40-80.5c2.7-5.4,8.1-8.7,14.1-8.7s11.4,3.4,14,8.7l40,80.5l89.5,15.7
		c5.9,0.9,10.8,5,12.6,10.7C893.9,711.5,892.4,717.7,888.2,721.8z"/>
</g>
</svg>
