<?xml version="1.0" standalone="no"?><!DOCTYPE svg PUBLIC "-//W3C//DTD SVG 1.1//EN" "http://www.w3.org/Graphics/SVG/1.1/DTD/svg11.dtd"><svg class="icon" width="200px" height="200.00px" viewBox="0 0 1024 1024" version="1.1" xmlns="http://www.w3.org/2000/svg"><path fill="#333333" d="M854.9 295.4H717.8V164.1c0-48.7-39.8-88.5-88.5-88.5H153c-48.7 0-88.5 39.8-88.5 88.5v476.3c0 48.7 39.8 88.5 88.5 88.5h476.3c48.7 0 88.5-39.8 88.5-88.5V339.7h137.1c33.3 0 60.3 27.1 60.3 60.3v443.8c0 33.3-27.1 60.3-60.3 60.3H411.1c-33.3 0-60.4-27.1-60.4-60.3V742.3h-44.3v101.6c0 57.7 46.9 104.6 104.6 104.6h443.8c57.6 0 104.6-46.9 104.6-104.6V400c0.1-57.7-46.8-104.6-104.5-104.6zM673.5 640.3c0 24.4-19.9 44.3-44.3 44.3H153c-24.4 0-44.3-19.9-44.3-44.3V164.1c0-24.4 19.9-44.3 44.3-44.3h476.3c24.4 0 44.3 19.9 44.3 44.3v476.2z" /></svg>