<?xml version="1.0" encoding="utf-8"?>
<!-- Generator: Adobe Illustrator 19.1.0, SVG Export Plug-In . SVG Version: 6.00 Build 0)  -->
<svg version="1.1" id="imissive_x5F_exchange" xmlns="http://www.w3.org/2000/svg" xmlns:xlink="http://www.w3.org/1999/xlink"
	 x="0px" y="0px" viewBox="0 0 1024 1024" style="enable-background:new 0 0 1024 1024;" xml:space="preserve">
<g>
	<path d="M308.5,274h417.6c18,0,30.9-18,30.9-36v-73.5c0-18-12.8-30.5-30.9-30.5H645v-33.4c0-18-17-36.6-35-36.6H427.6
		c-18,0-34.6,18.6-34.6,36.6V134h-84.5c-18,0-27.5,12.5-27.5,30.5V238C281,256,290.5,274,308.5,274z"/>
	<polygon points="338.1,498 306.8,582 369.3,582 339.2,498 	"/>
	<path d="M815.6,204H799v112H239V204h-25.9c-20.8,0-44.1,11.9-44.1,32.7v689.6c0,20.8,23.3,33.7,44.1,33.7h602.4
		c20.8,0,39.4-12.9,39.4-33.7V236.7C855,215.9,836.4,204,815.6,204z M402.3,696l-25.8-73h-75.9l-23.8,73h-47.5l77-226H369l77,226
		H402.3z M617,694H464V470h50v168h103V694z M801,692H631V470h55v168h115V692z"/>
</g>
</svg>
