<?xml version="1.0" encoding="utf-8"?>
<!-- Generator: Adobe Illustrator 19.1.0, SVG Export Plug-In . SVG Version: 6.00 Build 0)  -->
<svg version="1.1" id="imissive_x5F_exchange" xmlns="http://www.w3.org/2000/svg" xmlns:xlink="http://www.w3.org/1999/xlink"
	 x="0px" y="0px" viewBox="0 0 1024 1024" style="enable-background:new 0 0 1024 1024;" xml:space="preserve">
<g>
	<path d="M743.3,353.8L571.6,562.9c56.9,13.4,105.3,51.8,130.7,104.7l164.9-215.8C850.3,396.5,800.6,357.3,743.3,353.8z"/>
	<path d="M828.3,250.4l-44.3,53.9c24.5,6.4,47.7,17.6,68.4,33.3c22.7,17.2,40.8,38.9,53.8,63.3l44.2-57.9
		C942.2,283.8,887.6,242.3,828.3,250.4z"/>
	<path d="M658.9,707.7c-17.2-51.3-63-87.5-116.2-93.5l-37.8,160.4L658.9,707.7z"/>
	<path d="M504.8,579.7l208.6-254.5V133.5c0-19.5-15.8-35.3-35.3-35.3H108.9c-19.5,0-35.3,15.8-35.3,35.3v757
		c0,19.5,15.8,35.3,35.3,35.3h569.3c19.5,0,35.3-15.8,35.3-35.3V734.3l-251,95.1L504.8,579.7z M211.6,311.9h265.9
		c15.3,0,27.6,12.4,27.6,27.6c0,15.3-12.4,27.6-27.6,27.6H211.6c-15.3,0-27.6-12.4-27.6-27.6C184,324.3,196.3,311.9,211.6,311.9z
		 M211.6,455.9h265.9c15.3,0,27.6,12.4,27.6,27.6s-12.4,27.6-27.6,27.6H211.6c-15.3,0-27.6-12.4-27.6-27.6S196.3,455.9,211.6,455.9z
		 M333.3,660.6H211.6c-15.3,0-27.6-12.4-27.6-27.6c0-15.3,12.4-27.6,27.6-27.6h121.7c15.3,0,27.6,12.4,27.6,27.6
		C360.9,648.3,348.5,660.6,333.3,660.6z"/>
</g>
</svg>
