<?xml version="1.0" encoding="utf-8"?>
<!-- Generator: Adobe Illustrator 19.1.0, SVG Export Plug-In . SVG Version: 6.00 Build 0)  -->
<svg version="1.1" id="imissive_x5F_exchange" xmlns="http://www.w3.org/2000/svg" xmlns:xlink="http://www.w3.org/1999/xlink"
	 x="0px" y="0px" viewBox="0 0 1024 1024" style="enable-background:new 0 0 1024 1024;" xml:space="preserve">
<g>
	<path d="M624,659c-12.5,55-57.3,86.1-110.6,86.1c-53.3,0-98.1-31.1-110.6-86.1H69v110.3c0,32.9,20.9,56.7,53.8,56.7H895
		c32.9,0,65-23.8,65-56.7V659H624z"/>
	<path d="M455.3,610.5c0,32.1,26.1,57,58.2,57c32.1,0,58.2-24.3,58.2-56.4c0-15.4,12.5-26.1,27.9-26.1h354.2L866,263.5
		c-11-38.2-46.3-64.5-90.5-64.5H239.9c-34.5,0-75.8,24.1-87.8,64.5L64,585h363.4C442.8,585,455.3,595.1,455.3,610.5z"/>
</g>
</svg>
