<?xml version="1.0" encoding="utf-8"?>
<!-- Generator: Adobe Illustrator 19.1.0, SVG Export Plug-In . SVG Version: 6.00 Build 0)  -->
<svg version="1.1" id="imissive_x5F_exchange" xmlns="http://www.w3.org/2000/svg" xmlns:xlink="http://www.w3.org/1999/xlink"
	 x="0px" y="0px" viewBox="0 0 1024 1024" style="enable-background:new 0 0 1024 1024;" xml:space="preserve">
<style type="text/css">
	.st0{fill-rule:evenodd;clip-rule:evenodd;}
</style>
<g>
	<path class="st0" d="M544,600.5V447.7c0-85.2-70.3-150.2-155.5-150.2S233,362.5,233,447.7v152.9l87.3,121.9L64,845.4V945h636v-99.6
		l-243-123L544,600.5z"/>
	<path class="st0" d="M706.6,79.1c-107.5,0-202.1,79.4-239.4,173.7C546,272.5,601,328.1,601,413.7v154.4
		c28,13.1,67.3,20.4,102.8,20.4c140.7,0,256.1-114,256.1-254.7C959.8,193.1,847.2,79.1,706.6,79.1z M867.9,246L716.7,403.5
		c-8.4,8.7-21.9,8.7-30.2,0l-55.1-63c-6-4.8-15-32.8-5.3-40c9.7-7.2,29.1-2.8,33.2,1.5l43.7,38.4l149.2-125.9
		c5.6-5.8,20.2-10.4,28.4,0C888.8,224.7,876.3,237.3,867.9,246z"/>
</g>
</svg>
