<?xml version="1.0" encoding="utf-8"?>
<!-- Generator: Adobe Illustrator 22.0.1, SVG Export Plug-In . SVG Version: 6.00 Build 0)  -->
<svg version="1.1" id="图层_1" xmlns="http://www.w3.org/2000/svg" xmlns:xlink="http://www.w3.org/1999/xlink" x="0px" y="0px"
	 viewBox="0 0 1024 1024" style="enable-background:new 0 0 1024 1024;" xml:space="preserve">
<style type="text/css">
	.st0{fill:#211613;}
</style>
<g id="图层_2_1_">
	<g id="图层_1-2">
		<g id="task_load_analysis">
			<path class="st0" d="M751.1,846.9c-10.8,2.5-21.8,3.9-32.9,4.3c-12-0.2-24-1.7-35.8-4.3H93.5c-16,0-29,13-29,29c0,16,13,29,29,29
				h736.4l-58-58H751.1z"/>
			<path class="st0" d="M949.7,867.6l-89.1-88.7c32.2-34.1,50.1-79.4,49.7-126.3c-0.1-54.1-23.7-105.4-64.8-140.6
				c6.4-3.6,0-5.7,0-4.3V239c6.1-66.7-43-125.8-109.7-131.9c-3.1-0.3-6.3-0.5-9.5-0.5H196.9C124,107.2,65.1,166.1,64.5,239v421.9
				c0,71.6,60.1,115.6,132.4,115.6h382.5c-1.8-2.1,0,8.6,6.4,0c35.1,39.6,85.5,62.3,138.5,62.3c31.9,0.2,63.4-7.6,91.6-22.5l93,93
				c5.4,5.5,13,8.5,20.8,8.2c7.8,0.4,15.4-2.6,20.8-8.2c11.3-10.2,12.2-27.6,2-38.9C951.6,869.3,950.7,868.4,949.7,867.6z
				 M507.1,485.1c-12.7,10.2-31.2,8.3-41.5-4.3l-51.5-66.2L252.7,532.7c-4.6,4-10.4,6.1-16.5,6.1c-9.9,0.3-19.4-4.4-25-12.5
				c-9.4-13.2-6.6-31.5,6.4-41.1l183.9-134.5c13.5-8.4,31.2-5.7,41.5,6.4l50.8,65.8l176.8-137.4c13.4-8.3,30.8-5.7,41.1,6.1
				c8.5,13.4,5.9,31.1-6.1,41.5L507.1,485.1z M724.3,780.7c-70.7,0.4-128.4-56.6-128.8-127.4c-0.4-70.7,56.6-128.4,127.4-128.8
				c70.7-0.4,128.4,56.6,128.8,127.4c0,0.2,0,0.5,0,0.7C851.5,723,794.7,780.1,724.3,780.7z"/>
		</g>
	</g>
</g>
</svg>
