<?xml version="1.0" standalone="no"?><!DOCTYPE svg PUBLIC "-//W3C//DTD SVG 1.1//EN" "http://www.w3.org/Graphics/SVG/1.1/DTD/svg11.dtd"><svg t="1519714488595" class="icon" style="" viewBox="0 0 1024 1024" version="1.1" xmlns="http://www.w3.org/2000/svg" p-id="7683" xmlns:xlink="http://www.w3.org/1999/xlink" width="16" height="16"><defs><style type="text/css"></style></defs><path d="M363.6 484.2l-28.5 68.4c-10.1 19.4-9.9 41.6 0.5 59.5 10.9 18.8 31.2 30 54.2 30h245.4c23.1 0 43.3-11.2 54.2-30.1 10.4-17.9 10.6-40.1 1.5-57.3l-29.7-71.2c54.9-44.6 87.1-111.5 87.1-183.2C748.3 170 642.3 64 512 64S275.7 170 275.7 300.3c0 72.1 32.5 139.2 87.9 183.9zM214.2 910.1h595.6V960H214.2zM827.9 679.5H196.2c-42.3 0-74.2 38.6-74.2 89.9v14.3c0 51.2 31.9 89.9 74.2 89.9h631.7c42.3 0 74.2-38.6 74.2-89.9v-14.3c0-51.3-31.9-89.9-74.2-89.9z" p-id="7684"></path></svg>