<?xml version="1.0" encoding="utf-8"?>
<!-- Generator: Adobe Illustrator 19.1.0, SVG Export Plug-In . SVG Version: 6.00 Build 0)  -->
<svg version="1.1" id="imissive_x5F_exchange" xmlns="http://www.w3.org/2000/svg" xmlns:xlink="http://www.w3.org/1999/xlink"
	 x="0px" y="0px" viewBox="0 0 1024 1024" style="enable-background:new 0 0 1024 1024;" xml:space="preserve">
<style type="text/css">
	.st0{clip-path:url(#SVGID_1_);}
</style>
<g>
	<g>
		<defs>
			<rect id="SVGID_4_" x="64.7" y="64" width="894.6" height="896"/>
		</defs>
		<clipPath id="SVGID_1_">
			<use xlink:href="#SVGID_4_"  style="overflow:visible;"/>
		</clipPath>
		<path class="st0" d="M921.2,136H734V92.2C734,77,722.6,66,707.4,66h-22.9c-13.3,0-34.5,9.5-34.5,22.7V136H356V90.5
			c0-14.3-5.1-24.5-19.4-24.5h-20C300.8,66,286,77.5,286,93.3V136H101.8C81.3,136,62,156,62,176.4v744.9c0,20.5,19.3,40.6,39.8,40.6
			h819.4c20.5,0,36.8-20.2,36.8-40.6V176.4C958,155.9,941.7,136,921.2,136z M874,878H132V360h742V878z"/>
	</g>
</g>
<g>
	<path d="M524.2,499.9L391.5,661.4c44,10.3,81.3,40,101,80.9l127.4-166.7C606.8,532.9,568.4,502.6,524.2,499.9z"/>
	<path d="M608.3,487.5c17.5,13.3,31.5,30,41.5,48.9l34.2-44.7c-6.3-45.8-48.5-77.9-94.3-71.6l-34.2,41.7
		C574.4,466.6,592.3,475.3,608.3,487.5z"/>
	<path d="M369.2,701L340,824.9l119-51.7C445.7,733.6,410.3,705.6,369.2,701z"/>
</g>
</svg>
