<?xml version="1.0" encoding="utf-8"?>
<!-- Generator: Adobe Illustrator 19.1.0, SVG Export Plug-In . SVG Version: 6.00 Build 0)  -->
<svg version="1.1" id="imissive_x5F_exchange" xmlns="http://www.w3.org/2000/svg" xmlns:xlink="http://www.w3.org/1999/xlink"
	 x="0px" y="0px" viewBox="0 0 1024 1024" style="enable-background:new 0 0 1024 1024;" xml:space="preserve">
<g>
	<g>
		<path d="M64.4,818.8V667.4l251.8-120.6l-85-119.5V277.5c0-83.5,67.7-147.2,151.2-147.2l0,0c83.5,0,151.2,63.7,151.2,147.2v149.8
			l-82.1,119.5l241.3,120.6v95.1"/>
	</g>
	<path d="M912.4,741.9c26.3,0,47.6,21.3,47.6,47.6v56.5c0,26.3-21.3,47.6-47.6,47.6H111.6c-26.3,0-47.6-21.3-47.6-47.6v-56.5
		c0-26.3,21.3-47.6,47.6-47.6H912.4z"/>
	<g>
		<path d="M871.3,763.1l-38.9-9.4c18.3-75.4-8-137.5-42.3-165.5l25.3-30.9c24.9,20.4,44.2,50.8,54.4,85.8
			C880.8,680.4,881.3,721.9,871.3,763.1z"/>
	</g>
	<circle cx="760.9" cy="514.6" r="90.4"/>
</g>
</svg>
