<?xml version="1.0" encoding="utf-8"?>
<!-- Generator: Adobe Illustrator 19.1.0, SVG Export Plug-In . SVG Version: 6.00 Build 0)  -->
<svg version="1.1" id="imissive_x5F_exchange" xmlns="http://www.w3.org/2000/svg" xmlns:xlink="http://www.w3.org/1999/xlink"
	 x="0px" y="0px" viewBox="0 0 1024 1024" style="enable-background:new 0 0 1024 1024;" xml:space="preserve">
<g>
	<path d="M395.9,270.5c-0.3,0.4-0.3,0.9-0.6,1.3l-39.1,51.9c-5.1,6.8-12.8,10.3-20.7,10.3c-5.4,0-10.9-1.7-15.5-5.2
		c-11.4-8.6-13.7-24.8-5.1-36.3l39.1-51.9c0.3-0.4,0.8-0.6,1.1-1l-39.2-29.6c-0.7,1.3-1,2.8-1.9,4L274.7,266
		c-5.1,6.8-12.8,10.3-20.7,10.3c-5.4,0-10.9-1.7-15.5-5.2c-11.4-8.6-13.7-24.8-5.1-36.3l39.1-51.9c0.9-1.2,2.2-1.9,3.3-3l-55.2-41.6
		L64,346.2l219.7,165.6l160.4-204.9L395.9,270.5z"/>
	<path d="M898.6,657.6c-0.7,1.2-0.9,2.6-1.8,3.7l-39.1,51.9c-5.1,6.8-12.8,10.3-20.7,10.3c-5.4,0-10.9-1.7-15.5-5.2
		c-11.4-8.6-13.7-24.8-5.1-36.3l39.1-51.9c0.9-1.2,2.1-1.8,3.1-2.8l-38.2-28.8c-0.8,2.1-1.5,4.3-3,6.2l-39.1,51.9
		c-5.1,6.8-12.8,10.3-20.7,10.3c-5.4,0-10.9-1.7-15.5-5.2c-11.4-8.6-13.7-24.8-5.1-36.3l39.1-51.9c1.4-1.9,3.3-3.2,5.1-4.5l-49.1-37
		L578.9,742.5l224.5,169.2L960,703.9L898.6,657.6z"/>
	<g>
		<path d="M558.5,267.4L303.3,578.1c84.6,19.9,156.4,77,194.2,155.6l245.1-320.7C717.5,330.9,643.6,272.7,558.5,267.4z"/>
		<path d="M720.5,243.5c33.7,25.6,60.6,57.8,79.9,94l65.7-86c-12.1-88.1-93.3-149.8-181.4-137.8L618.9,194
			C655.2,203.4,689.7,220.1,720.5,243.5z"/>
		<path d="M260.3,654.4l-56.2,238.4L433,793.3C407.5,717.1,339.4,663.3,260.3,654.4z"/>
	</g>
</g>
</svg>
