<?xml version="1.0" encoding="utf-8"?>
<!-- Generator: Adobe Illustrator 19.1.0, SVG Export Plug-In . SVG Version: 6.00 Build 0)  -->
<svg version="1.1" id="imissive_x5F_exchange" xmlns="http://www.w3.org/2000/svg" xmlns:xlink="http://www.w3.org/1999/xlink"
	 x="0px" y="0px" viewBox="0 0 1024 1024" style="enable-background:new 0 0 1024 1024;" xml:space="preserve">
<g>
	<path d="M610,503.9v-53.6c14-17.4,29-42.3,29-69V227.9C639,139,569.8,64,480.1,64h-33.3C357.1,64,282,139.3,282,228.2v153.2
		c0,26.4,14,51.4,28,69v126.1c-28,17-123.7,66.8-211.3,138.1C76.3,732.9,67,760.3,67,789.8v105c0,12.9,7.8,26.1,21,26.1
		c0,0,171.7,0,350.9,0h94c-40.6-43-66.3-106.2-66.3-171.7C466.5,648.1,524,545.3,610,503.9z"/>
	<path d="M736.1,518.6c-121.9,0-220.8,98.8-220.8,220.8c0,121.9,98.8,220.8,220.8,220.8s220.8-98.8,220.8-220.8
		C956.9,617.5,858.1,518.6,736.1,518.6z M842,778h-75v67.3c0,18.3-17.2,33.3-35.5,33.3c-18.3,0-35.5-15-35.5-33.3V778h-65.8
		c-18.3,0-33.3-17.2-33.3-35.5s15-35.5,33.3-35.5H696v-73.5c0-18.3,17.2-33.3,35.5-33.3c18.3,0,35.5,15,35.5,33.3V707h75
		c18.3,0,33.3,17.2,33.3,35.5S860.3,778,842,778z"/>
</g>
</svg>
