<?xml version="1.0" encoding="utf-8"?>
<!-- Generator: Adobe Illustrator 22.0.1, SVG Export Plug-In . SVG Version: 6.00 Build 0)  -->
<svg version="1.1" id="图层_1" xmlns="http://www.w3.org/2000/svg" xmlns:xlink="http://www.w3.org/1999/xlink" x="0px" y="0px"
	 viewBox="0 0 1024 1024" style="enable-background:new 0 0 1024 1024;" xml:space="preserve">
<g id="图层_2_1_">
	<g id="图层_1-2">
		<path id="vote_all" d="M923.1,777.3c-0.7-9.8-8.5-17.7-18.4-18.4H561l284.6-284.6c13.8-14.7,13.8-37.6,0-52.2L593.4,169.8
			c-14.9-13.3-37.4-13.3-52.2,0L205.7,506.3c-13.8,14.7-13.8,37.6,0,52.2l200.3,198.2H117.8c-9,0.9-16.2,8-17.3,16.9l-36,72.1
			c0.5,9.9,8.5,17.8,18.4,18.4h858.6c9.8-0.7,17.5-8.6,18-18.4l-36-68.1L923.1,777.3z M442.5,479l59.5,63.8l120.7-123.2l18,20.5
			L501.9,581.3l-80-81.8L442.5,479z M312.8,832.1l18.4-29.9h360.3l18,29.9H312.8z"/>
	</g>
</g>
</svg>
