<?xml version="1.0" encoding="utf-8"?>
<!-- Generator: Adobe Illustrator 19.1.0, SVG Export Plug-In . SVG Version: 6.00 Build 0)  -->
<svg version="1.1" id="imissive_x5F_exchange" xmlns="http://www.w3.org/2000/svg" xmlns:xlink="http://www.w3.org/1999/xlink"
	 x="0px" y="0px" viewBox="0 0 1024 1024" style="enable-background:new 0 0 1024 1024;" xml:space="preserve">
<style type="text/css">
	.st0{fill-rule:evenodd;clip-rule:evenodd;}
</style>
<g>
	<path class="st0" d="M235.2,274h414.7c17.9,0,27.1-16.9,27.1-34.8v-73c0-17.9-9.2-32.2-27.1-32.2H565v-31.2
		c0-17.9-12.5-38.8-30.4-38.8H353.5c-17.9,0-26.5,20.9-26.5,38.8V134h-91.8c-17.9,0-34.2,14.3-34.2,32.2v73
		C201,257.1,217.3,274,235.2,274z"/>
	<path class="st0" d="M503.8,750c0-53.6,19.8-102.4,52.3-140H279.7c-15.4,0-27.8-12.6-27.8-28s12.4-28,27.8-28h322.8
		c6.4,0,80.4-18.4,116.1-18.4c19.4,0,38.4,2.8,56.4,7.6V237.9c0-20.6-15.6-33.9-36.3-33.9H719v112H159V204h-18.5
		c-20.7,0-37.5,13.2-37.5,33.9v684.8c0,20.6,16.9,37.3,37.5,37.3h534.4C577.3,940,503.8,853.6,503.8,750z M279.7,400h322.8
		c15.4,0,27.8,12.6,27.8,28s-12.4,28-27.8,28H279.7c-15.4,0-27.8-12.6-27.8-28S264.3,400,279.7,400z"/>
	<path class="st0" d="M725.2,556.8c-108.2,0-196,87.8-196,196c0,108.2,87.8,196,196,196c108.2,0,196-87.8,196-196
		C921.2,644.6,833.4,556.8,725.2,556.8z M746.2,778v86.8c0,13.9-11.3,25.2-25.2,25.2h-5.6c-13.9,0-25.2-11.3-25.2-25.2V778h-86.8
		c-13.9,0-25.2-11.3-25.2-25.2v-5.6c0-13.9,11.3-25.2,25.2-25.2h86.8v-86.8c0-13.9,11.3-25.2,25.2-25.2h5.6
		c13.9,0,25.2,11.3,25.2,25.2V722H833c13.9,0,25.2,11.3,25.2,25.2v5.6c0,13.9-11.3,25.2-25.2,25.2H746.2z"/>
</g>
</svg>
