<?xml version="1.0" encoding="UTF-8"?>
<svg width="16px" height="16px" viewBox="0 0 16 16" version="1.1" xmlns="http://www.w3.org/2000/svg" xmlns:xlink="http://www.w3.org/1999/xlink">
    <title>通用图标/面形/16/[通用类-表单&amp;订单]iconCommon_surface_16_form</title>
    <defs>
        <linearGradient x1="50%" y1="0%" x2="50%" y2="100%" id="linearGradient-1">
            <stop stop-color="#4285F4" offset="0%"></stop>
            <stop stop-color="#4285F4" stop-opacity="0.8" offset="100%"></stop>
        </linearGradient>
    </defs>
    <g id="通用图标/面形/16/[通用类-表单&amp;订单]iconCommon_surface_16_form" stroke="none" stroke-width="1" fill="none" fill-rule="evenodd">
        <rect id="矩形" x="0" y="0" width="16" height="16"></rect>
        <path d="M5,1 L5,2.3 C5,2.68659932 5.31340068,3 5.7,3 L10.3,3 C10.6865993,3 11,2.68659932 11,2.3 L11,1 L13,1 C13.5522847,1 14,1.44771525 14,2 L14,2 L14,14 C14,14.5522847 13.5522847,15 13,15 L13,15 L3,15 C2.44771525,15 2,14.5522847 2,14 L2,14 L2,2 C2,1.44771525 2.44771525,1 3,1 L3,1 L5,1 Z M11,11 L5,11 L5,12 L11,12 L11,11 Z M8,8 L5,8 L5,9 L8,9 L8,8 Z" id="形状结合" fill="url(#linearGradient-1)" fill-rule="nonzero"></path>
        <path d="M11,11 L11,12 L5,12 L5,11 L11,11 Z M8,8 L8,9 L5,9 L5,8 L8,8 Z" id="形状结合" fill="#4285F4" fill-rule="nonzero" opacity="0.400000006"></path>
        <path d="M11,1 L5,1 L5,2.3 C5,2.68659932 5.31340068,3 5.7,3 L10.3,3 C10.6865993,3 11,2.68659932 11,2.3 L11,1 Z" id="路径" fill="#4285F4" fill-rule="nonzero" opacity="0.400000006"></path>
    </g>
</svg>