<?xml version="1.0" encoding="UTF-8"?>
<svg width="20px" height="20px" viewBox="0 0 20 20" version="1.1" xmlns="http://www.w3.org/2000/svg" xmlns:xlink="http://www.w3.org/1999/xlink">
    <!-- Generator: Sketch 57.1 (83088) - https://sketch.com -->
    <title>删除</title>
    <desc>Created with Sketch.</desc>
    <g id="删除" stroke="none" stroke-width="1" fill="none" fill-rule="evenodd">
        <g fill="#FFFFFF" id="编组-11">
            <g transform="translate(2.800000, 2.000000)">
                <path d="M5.62950698,12.4018977 C5.32104186,12.4018977 5.07136744,12.1522233 5.07136744,11.8437581 L5.07136744,5.96133953 C5.07136744,5.65287442 5.32104186,5.4032 5.62950698,5.4032 C5.93797209,5.4032 6.18764651,5.65287442 6.18764651,5.96133953 L6.18764651,11.8437581 C6.18764651,12.1522233 5.93797209,12.4018977 5.62950698,12.4018977 M8.80308837,12.4018977 C8.49462326,12.4018977 8.24494884,12.1522233 8.24494884,11.8437581 L8.24494884,5.96133953 C8.24494884,5.65287442 8.49462326,5.4032 8.80308837,5.4032 C9.1111814,5.4032 9.36122791,5.65287442 9.36122791,5.96133953 L9.36122791,11.8437581 C9.36122791,12.1522233 9.1111814,12.4018977 8.80308837,12.4018977" id="Fill-640"></path>
                <path d="M13.8742326,3.25979535 L0.558139535,3.25979535 C0.250046512,3.25979535 -8.8817842e-15,3.01012093 -8.8817842e-15,2.70165581 C-8.8817842e-15,2.3931907 0.250046512,2.14351628 0.558139535,2.14351628 L13.8742326,2.14351628 C14.1826977,2.14351628 14.4323721,2.3931907 14.4323721,2.70165581 C14.4323721,3.01012093 14.1826977,3.25979535 13.8742326,3.25979535" id="Fill-641"></path>
                <path d="M8.71434419,1.11627907 L5.71825116,1.11627907 C5.40978605,1.11627907 5.16011163,0.866604651 5.16011163,0.558139535 C5.16011163,0.249674419 5.40978605,1.22124533e-15 5.71825116,1.22124533e-15 L8.71434419,1.22124533e-15 C9.0228093,1.22124533e-15 9.27248372,0.249674419 9.27248372,0.558139535 C9.27248372,0.866604651 9.0228093,1.11627907 8.71434419,1.11627907" id="Fill-642"></path>
                <path d="M10.8544372,15.8773581 L3.57815814,15.8773581 C2.43136744,15.8773581 1.49815814,14.9586605 1.49815814,13.8293581 L1.49815814,2.70154419 C1.49815814,2.39345116 1.74820465,2.14340465 2.05629767,2.14340465 C2.36476279,2.14340465 2.61443721,2.39345116 2.61443721,2.70154419 L2.61443721,13.8293581 C2.61443721,14.3428465 3.0468093,14.7610791 3.57815814,14.7610791 L10.8544372,14.7610791 C11.385786,14.7610791 11.8181581,14.3428465 11.8181581,13.8293581 L11.8181581,2.70154419 C11.8181581,2.39345116 12.0678326,2.14340465 12.3762977,2.14340465 C12.6843907,2.14340465 12.9344372,2.39345116 12.9344372,2.70154419 L12.9344372,13.8293581 C12.9344372,14.9586605 12.0012279,15.8773581 10.8544372,15.8773581" id="Fill-643"></path>
            </g>
        </g>
    </g>
</svg>