<?xml version="1.0" encoding="UTF-8"?>
<svg width="14px" height="16px" viewBox="0 0 14 16" version="1.1" xmlns="http://www.w3.org/2000/svg" xmlns:xlink="http://www.w3.org/1999/xlink">
    <!-- Generator: Sketch 55.1 (78136) - https://sketchapp.com -->
    <title>首页</title>
    <desc>Created with Sketch.</desc>
    <g id="应用管理" stroke="none" stroke-width="1" fill="none" fill-rule="evenodd">
        <g id="1-应用首页" transform="translate(-241.000000, -518.000000)" fill="#FFFFFF">
            <g id="编组-4备份-4" transform="translate(210.000000, 430.000000)">
                <g id="编组-8" transform="translate(26.000000, 86.000000)">
                    <g id="首页" transform="translate(2.000000, 0.000000)">
                        <g id="编组-13">
                            <g id="Fill-282" transform="translate(3.000000, 2.000000)">
                                <path d="M9.34869013,14.9193634 L12.9202252,14.9193634 L12.9202252,6.56388105 L7.19345965,1.16826241 C7.07648405,1.05803748 6.88860323,1.05371493 6.76622876,1.15961732 L1.07977479,6.07075054 L1.07977479,14.9193634 L4.65130987,14.9193634 L4.65130987,10.8950726 C4.65130987,10.5964567 4.89317942,10.3547543 5.19119726,10.3547543 L8.80880274,10.3547543 C9.10682058,10.3547543 9.34869013,10.5964567 9.34869013,10.8950726 L9.34869013,14.9193634 Z M13.4601126,16 L8.80880274,16 C8.51078489,16 8.26891534,15.7582976 8.26891534,15.4596817 L8.26891534,11.4353909 L5.73108466,11.4353909 L5.73108466,15.4596817 C5.73108466,15.7582976 5.48921511,16 5.19119726,16 L0.539887395,16 C0.241869553,16 0,15.7582976 0,15.4596817 L0,5.82328475 C0,5.66623223 0.0683857367,5.51674416 0.187520889,5.41408368 L6.06113582,0.341215185 C6.60534231,-0.128501532 7.41049438,-0.111571558 7.93346531,0.381558952 L13.8301154,5.9367516 C13.9384528,6.03905186 14,6.18133568 14,6.33046354 L14,15.4596817 C14,15.7582976 13.7581304,16 13.4601126,16 L13.4601126,16 Z" id="Fill-273"></path>
                            </g>
                        </g>
                    </g>
                </g>
            </g>
        </g>
    </g>
</svg>