<?xml version="1.0" encoding="UTF-8"?>
<svg width="20px" height="20px" viewBox="0 0 20 20" version="1.1" xmlns="http://www.w3.org/2000/svg" xmlns:xlink="http://www.w3.org/1999/xlink">
    <!-- Generator: Sketch 57.1 (83088) - https://sketch.com -->
    <title>导出</title>
    <desc>Created with Sketch.</desc>
    <g id="导出" stroke="none" stroke-width="1" fill="none" fill-rule="evenodd">
        <g id="编组-16" fill="#FFFFFF" fill-rule="nonzero">
            <g id="导出" transform="translate(3.000000, 3.000000)">
                <path d="M0.0109795673,1.70359976 L0.0109795673,12.5366046 C0.0109795673,13.2957722 0.626382212,13.9110907 1.38557091,13.9110907 L12.0736959,13.9110907 C12.4024309,13.9110907 12.8811148,13.8690234 13.2175691,13.5278786 C13.5540234,13.1867548 13.5929778,12.7067458 13.5929778,12.3753816 L13.5929778,7.08476563 C13.5929778,6.76383413 13.3361358,6.50190204 13.0152885,6.49565505 C12.6850601,6.48926082 12.4147566,6.7658113 12.4147566,7.0961869 L12.4147566,11.8843089 C12.4147566,11.9625331 12.4111388,12.09128 12.4060487,12.2222356 C12.3953636,12.4957572 12.1757512,12.7148858 11.9022296,12.7250661 C11.7756911,12.7296725 11.6544111,12.7329537 11.5827704,12.7329537 L1.7128125,12.7329537 C1.4239363,12.7321334 1.19002103,12.498134 1.18920072,12.2092578 L1.18920072,2.03094651 C1.19002103,1.74204928 1.4239363,1.50804988 1.7128125,1.50722957 L6.80484976,1.50722957 C7.12578125,1.5073137 7.38762921,1.25047175 7.3938762,0.929624399 C7.40029147,0.599417067 7.12371995,0.329029447 6.79334435,0.329029447 L1.38548678,0.329029447 C0.626382212,0.329029447 0.0109795673,0.944432091 0.0109795673,1.70359976 Z M13.2860968,5.04944411 C13.6114453,5.05224159 13.8774579,4.79079327 13.8802764,4.46544471 L13.9133215,0.640180288 C13.9160968,0.314915865 13.6546484,0.0489032452 13.3292999,0.0460847356 L9.52105168,0.0131868929 C9.19570312,0.0104116587 8.9296905,0.271859976 8.926872,0.597124399 C8.92405349,0.922472957 9.18552284,1.18856971 9.51087139,1.19138822 L11.8972867,1.21198017 L5.53376502,7.46640024 C5.3049399,7.69497296 5.30321514,8.06535457 5.52997897,8.29607272 C5.75674279,8.52676983 6.12710337,8.53146034 6.35958834,8.30661058 L12.7228365,2.05250601 L12.7020974,4.45526442 C12.6992999,4.78061298 12.9607482,5.0466256 13.2860968,5.04944411 Z" id="形状"></path>
            </g>
        </g>
    </g>
</svg>