<?xml version="1.0" encoding="UTF-8"?>
<svg width="16px" height="16px" viewBox="0 0 16 16" version="1.1" xmlns="http://www.w3.org/2000/svg" xmlns:xlink="http://www.w3.org/1999/xlink">
    <title>icon_delete</title>
    <defs>
        <path d="M10,2 L10,4 L13,4 L13,5.5 L11.798,5.5 L10.6509187,14.0009742 L3.34908133,14.0009742 L2.202,5.5 L1,5.5 L1,4 L4,4 L4,2 L10,2 Z M9,11 L5,11 L5,12 L9,12 L9,11 Z M8.8,3 L5.2,3 L5.2,4 L8.8,4 L8.8,3 Z" id="path-1"></path>
    </defs>
    <g id="EKP流程发起fuzhi" stroke="none" stroke-width="1" fill="none" fill-rule="evenodd">
        <g id="样式和交互说明" transform="translate(-567.000000, -1770.000000)">
            <g id="link-card备份-11" transform="translate(371.000000, 1754.000000)">
                <g id="编组-10" transform="translate(186.000000, 1.000000)">
                    <g id="icon_delete" transform="translate(10.000000, 15.000000)">
                        <rect id="矩形" fill="#000000" fill-rule="nonzero" opacity="0" x="0" y="0" width="16" height="16"></rect>
                        <mask id="mask-2" fill="white">
                            <use xlink:href="#path-1"></use>
                        </mask>
                        <use id="蒙版" fill="#DDDDDD" fill-rule="nonzero" xlink:href="#path-1"></use>
                    </g>
                </g>
            </g>
        </g>
    </g>
</svg>