<?xml version="1.0" encoding="UTF-8"?>
<svg width="18px" height="18px" viewBox="0 0 18 18" version="1.1" xmlns="http://www.w3.org/2000/svg" xmlns:xlink="http://www.w3.org/1999/xlink">
    <title>培训学习/icon 1</title>
    <g id="页面-1" stroke="none" stroke-width="1" fill="none" fill-rule="evenodd">
        <g id="培训学习-样式" transform="translate(-67.000000, -594.000000)" fill="#FFFFFF">
            <g id="分组-6" transform="translate(32.000000, 283.000000)">
                <g id="分组-4" transform="translate(35.000000, 310.000000)">
                    <g id="培训学习/icon-1" transform="translate(0.000000, 1.000000)">
                        <path d="M17.3571429,2 L12.7607143,2 C11.7743304,2 10.8100446,2.28079659 9.98035714,2.81052632 L9,3.43385491 L8.01964286,2.81052632 C7.19196429,2.28079659 6.22566964,2 5.23928571,2 L0.642857143,2 C0.287276786,2 0,2.28477952 0,2.63726885 L0,13.9487909 C0,14.3012802 0.287276786,14.5860597 0.642857143,14.5860597 L5.23928571,14.5860597 C6.22566964,14.5860597 7.18995536,14.8668563 8.01964286,15.3965861 L8.91160714,15.9661451 C8.93772321,15.9820768 8.96785714,15.9920341 8.99799107,15.9920341 C9.028125,15.9920341 9.05825893,15.9840683 9.084375,15.9661451 L9.97633929,15.3965861 C10.8080357,14.8668563 11.7743304,14.5860597 12.7607143,14.5860597 L17.3571429,14.5860597 C17.7127232,14.5860597 18,14.3012802 18,13.9487909 L18,2.63726885 C18,2.28477952 17.7127232,2 17.3571429,2 Z M5.23928571,13.1522048 L1.44642857,13.1522048 L1.44642857,3.43385491 L5.23928571,3.43385491 C5.95044643,3.43385491 6.64151786,3.63499289 7.23816964,4.01536273 L8.21852679,4.63869132 L8.35714286,4.72830725 L8.35714286,13.9288762 C7.40089286,13.4190612 6.33214286,13.1522048 5.23928571,13.1522048 Z M16.5535714,13.1522048 L12.7607143,13.1522048 C11.6678571,13.1522048 10.5991071,13.4190612 9.64285714,13.9288762 L9.64285714,4.72830725 L9.78147321,4.63869132 L10.7618304,4.01536273 C11.3584821,3.63499289 12.0495536,3.43385491 12.7607143,3.43385491 L16.5535714,3.43385491 L16.5535714,13.1522048 Z" id="形状" fill-rule="nonzero"></path>
                        <path d="M6.68772321,5.9829303 L2.95513393,5.9829303 C2.87678571,5.9829303 2.8125,6.05064011 2.8125,6.13229018 L2.8125,7.0284495 C2.8125,7.11009957 2.87678571,7.17780939 2.95513393,7.17780939 L6.68571429,7.17780939 C6.7640625,7.17780939 6.82834821,7.11009957 6.82834821,7.0284495 L6.82834821,6.13229018 C6.83035714,6.05064011 6.76607143,5.9829303 6.68772321,5.9829303 Z M11.1696429,6.13229018 L11.1696429,7.0284495 C11.1696429,7.11009957 11.2339286,7.17780939 11.3122768,7.17780939 L15.0428571,7.17780939 C15.1212054,7.17780939 15.1854911,7.11009957 15.1854911,7.0284495 L15.1854911,6.13229018 C15.1854911,6.05064011 15.1212054,5.9829303 15.0428571,5.9829303 L11.3122768,5.9829303 C11.2339286,5.9829303 11.1696429,6.05064011 11.1696429,6.13229018 Z M6.68772321,8.77098151 L2.95513393,8.77098151 C2.87678571,8.77098151 2.8125,8.83869132 2.8125,8.92034139 L2.8125,9.81650071 C2.8125,9.89815078 2.87678571,9.9658606 2.95513393,9.9658606 L6.68571429,9.9658606 C6.7640625,9.9658606 6.82834821,9.89815078 6.82834821,9.81650071 L6.82834821,8.92034139 C6.83035714,8.83869132 6.76607143,8.77098151 6.68772321,8.77098151 Z M15.0448661,8.77098151 L11.3122768,8.77098151 C11.2339286,8.77098151 11.1696429,8.83869132 11.1696429,8.92034139 L11.1696429,9.81650071 C11.1696429,9.89815078 11.2339286,9.9658606 11.3122768,9.9658606 L15.0428571,9.9658606 C15.1212054,9.9658606 15.1854911,9.89815078 15.1854911,9.81650071 L15.1854911,8.92034139 C15.1875,8.83869132 15.1232143,8.77098151 15.0448661,8.77098151 Z" id="形状" fill-rule="nonzero"></path>
                        <rect id="矩形" fill-opacity="0.01" x="0" y="0" width="18" height="18"></rect>
                    </g>
                </g>
            </g>
        </g>
    </g>
</svg>