<?xml version="1.0" encoding="UTF-8"?>
<svg width="15px" height="14px" viewBox="0 0 15 14" version="1.1" xmlns="http://www.w3.org/2000/svg" xmlns:xlink="http://www.w3.org/1999/xlink">
    <!-- Generator: Sketch 55.1 (78136) - https://sketchapp.com -->
    <title>问号</title>
    <desc>Created with Sketch.</desc>
    <g id="编辑表单" stroke="none" stroke-width="1" fill="none" fill-rule="evenodd">
        <g id="1-表单设计" transform="translate(-1343.000000, -18.000000)" fill="#FFFFFF">
            <g id="Sidebar">
                <g id="Sidebar-Copy">
                    <g id="Sidebar/收起">
                        <g id="编组-10" transform="translate(1342.000000, 15.000000)">
                            <g id="Fill-732" transform="translate(0.000000, 1.000000)">
                                <g id="问号" transform="translate(8.500000, 9.000000) rotate(6.000000) translate(-8.500000, -9.000000) translate(1.000000, 1.500000)">
                                    <g id="编组-340" transform="translate(-0.000000, 0.000000)">
                                        <path d="M7.50015753,1.44956026 C4.16122826,1.44956026 1.44515831,4.16372002 1.44515831,7.50015826 C1.44515831,10.83628 4.16122826,13.5504397 7.50015753,13.5504397 C10.8387717,13.5504397 13.5548417,10.83628 13.5548417,7.50015826 C13.5548417,4.16372002 10.8387717,1.44956026 7.50015753,1.44956026 M7.50015753,14.5 C3.64044602,14.5 0.5,11.3601207 0.5,7.50015826 C0.5,3.64019579 3.64044602,0.5 7.50015753,0.5 C11.359869,0.5 14.5,3.64019579 14.5,7.50015826 C14.5,11.3601207 11.359869,14.5 7.50015753,14.5" id="Fill-375"></path>
                                        <path d="M7.50015753,1.44956026 C4.16122826,1.44956026 1.44515831,4.16372002 1.44515831,7.50015826 C1.44515831,10.83628 4.16122826,13.5504397 7.50015753,13.5504397 C10.8387717,13.5504397 13.5548417,10.83628 13.5548417,7.50015826 C13.5548417,4.16372002 10.8387717,1.44956026 7.50015753,1.44956026 M7.50015753,14.5 C3.64044602,14.5 0.5,11.3601207 0.5,7.50015826 C0.5,3.64019579 3.64044602,0.5 7.50015753,0.5 C11.359869,0.5 14.5,3.64019579 14.5,7.50015826 C14.5,11.3601207 11.359869,14.5 7.50015753,14.5" id="Fill-377"></path>
                                        <path d="M7.67860137,9.5 C7.43071872,9.5 7.2295386,9.29316935 7.2295386,9.0376364 L7.2295386,8.82063375 C7.2295386,8.52317983 7.30348427,8.24822761 7.44898061,8.00348314 C7.54208629,7.83179212 7.69806076,7.6499291 7.91810152,7.46251772 C8.09862476,7.28990198 8.3345324,7.06334381 8.42883559,6.95484249 C8.54529253,6.78530917 8.60187444,6.60282967 8.60187444,6.39815671 C8.60187444,6.09515443 8.51924689,5.86767154 8.34920179,5.70307009 C8.1596973,5.51442574 7.90133651,5.42472721 7.55466005,5.42472721 C7.16666981,5.42472721 6.89483714,5.53476974 6.69934514,5.77057518 C6.50175752,6.0069971 6.40356246,6.31184884 6.39817371,6.70393317 C6.39428183,6.95700018 6.19399983,7.15951544 5.94911093,7.15951544 L5.9422253,7.15951544 C5.69434265,7.15581653 5.49645565,6.94559522 5.50004815,6.69037051 C5.50873003,6.08097528 5.68296639,5.56929289 6.01736847,5.16888601 C6.38470182,4.72563344 6.90232152,4.5 7.55466005,4.5 C8.13784291,4.5 8.61355008,4.67970532 8.9692078,5.03418408 C9.31977614,5.37355897 9.5,5.83376487 9.5,6.39815671 C9.5,6.80626965 9.38024993,7.18232538 9.14344415,7.51584366 L9.12129039,7.54420196 C9.02788533,7.65640219 8.85604398,7.8287097 8.50876876,8.15852907 C8.32764677,8.31388324 8.25579673,8.41252081 8.22406296,8.47077862 C8.15640417,8.58544479 8.12766415,8.6945626 8.12766415,8.82063375 L8.12766415,9.0376364 C8.12766415,9.29316935 7.92648403,9.5 7.67860137,9.5" id="Fill-379"></path>
                                        <path d="M8,11.5 C7.86666667,11.5 7.74,11.4465727 7.64633333,11.353075 C7.55333333,11.2629164 7.5,11.1326874 7.5,10.9991192 C7.5,10.8688902 7.55333333,10.7386612 7.64633333,10.6451634 C7.76333333,10.5316305 7.93333333,10.4782032 8.09666667,10.508256 C8.13,10.5149344 8.15966667,10.524952 8.19,10.5383089 C8.22,10.5516657 8.25,10.5650225 8.27666667,10.5850577 C8.30333333,10.6017538 8.33,10.621789 8.35333333,10.6451634 C8.44666667,10.7386612 8.5,10.8688902 8.5,10.9991192 C8.5,11.1326874 8.44666667,11.2629164 8.35333333,11.353075 C8.26,11.4465727 8.13,11.5 8,11.5" id="Fill-381"></path>
                                    </g>
                                </g>
                            </g>
                        </g>
                    </g>
                </g>
            </g>
        </g>
    </g>
</svg>