<?xml version="1.0" encoding="UTF-8"?>
<svg width="14px" height="14px" viewBox="0 0 14 14" version="1.1" xmlns="http://www.w3.org/2000/svg" xmlns:xlink="http://www.w3.org/1999/xlink">
    <title>icon_tongyi</title>
    <g id="icon_tongyi" stroke="none" stroke-width="1" fill="none" fill-rule="evenodd">
        <g fill="#C3C3C3" fill-rule="nonzero" id="形状结合">
            <path d="M13.3868613,0.0399678569 L13.3868613,9.66094281 L12.1893248,10.857517 L10.241851,12.8034258 L9.04431455,14 L0.613138686,14 L0.613138686,0.0399678569 L13.3868613,0.0399678569 Z M12.1893248,1.23654204 L1.81067518,1.23654204 L1.81067518,12.8034258 L7.69856296,12.8034258 L7.69856296,9.16530184 L12.1893248,9.16530184 L12.1893248,1.23654204 Z M10.9917883,10.361876 L8.89609945,10.361876 L8.89609945,12.4558808 L10.9917883,10.361876 Z M7.99794708,7.11969844 L7.99794708,8.31627263 L3.20780109,8.31627263 L3.20780109,7.11969844 L7.99794708,7.11969844 Z M10.7921989,4.92597911 L10.7921989,6.12255329 L3.20780109,6.12255329 L3.20780109,4.92597911 L10.7921989,4.92597911 Z M10.7921989,2.73225977 L10.7921989,3.92883395 L3.20780109,3.92883395 L3.20780109,2.73225977 L10.7921989,2.73225977 Z"></path>
        </g>
    </g>
</svg>