<?xml version="1.0" encoding="UTF-8"?>
<svg width="16px" height="16px" viewBox="0 0 16 16" version="1.1" xmlns="http://www.w3.org/2000/svg" xmlns:xlink="http://www.w3.org/1999/xlink">
    <title>icon_staron</title>
    <g id="控件" stroke="none" stroke-width="1" fill="none" fill-rule="evenodd">
        <g id="卡片/悬停添加OK" transform="translate(-195.000000, -16.000000)" fill-rule="nonzero">
            <g id="icon_staron" transform="translate(195.000000, 16.000000)">
                <rect id="矩形" fill="#000000" opacity="0" x="0" y="0" width="16" height="16"></rect>
                <path d="M9.13184592,3.10040704 C9.88657149,4.56761642 11.048558,5.44891051 12.6178054,5.74590338 C14.1870527,6.04289626 14.4197733,6.79344892 13.317583,7.99756135 C12.2153928,9.20167378 11.7725774,10.6269168 11.9875206,12.2781326 C12.2008478,13.9293485 11.5899564,14.3925928 10.1548465,13.6694797 C8.71973667,12.9463666 7.28301068,12.9463666 5.8462847,13.6694797 C4.40955872,14.3925928 3.80028347,13.9277344 4.01361062,12.2781326 C4.22693776,10.6269168 3.78412233,9.20005969 2.68193209,7.99756135 C1.57974186,6.79344892 1.81407849,6.04289626 3.38170976,5.74590338 C4.95095715,5.44891051 6.11294363,4.56761642 6.8676692,3.10040704 C7.62077866,1.63319765 8.37712035,1.63319765 9.13184592,3.10040704 L9.13184592,3.10040704 Z" id="路径" fill="#FFD23E"></path>
            </g>
        </g>
    </g>
</svg>