<?xml version="1.0" standalone="no"?><!DOCTYPE svg PUBLIC "-//W3C//DTD SVG 1.1//EN" "http://www.w3.org/Graphics/SVG/1.1/DTD/svg11.dtd"><svg t="1656571705886" class="icon" viewBox="0 0 1024 1024" version="1.1" xmlns="http://www.w3.org/2000/svg" p-id="11086" xmlns:xlink="http://www.w3.org/1999/xlink" width="32" height="32"><defs><style type="text/css">@font-face { font-family: feedback-iconfont; src: url("//at.alicdn.com/t/font_1031158_u69w8yhxdu.woff2?t=1630033759944") format("woff2"), url("//at.alicdn.com/t/font_1031158_u69w8yhxdu.woff?t=1630033759944") format("woff"), url("//at.alicdn.com/t/font_1031158_u69w8yhxdu.ttf?t=1630033759944") format("truetype"); }
</style></defs><path d="M512.99 964.46c-60.56 0-119.32-11.87-174.65-35.27-53.43-22.6-101.41-54.94-142.6-96.14s-73.54-89.17-96.14-142.6C76.2 635.12 64.33 576.36 64.33 515.8c0-97.09 30.51-189.5 88.24-267.24a450.173 450.173 0 0 1 98.82-97.3c38.31-27.54 80.44-48.74 125.23-63.01 16.84-5.37 34.84 3.93 40.21 20.77 5.37 16.84-3.93 34.84-20.77 40.21-160.13 51.04-267.72 198.35-267.72 366.57 0 212.1 172.56 384.66 384.66 384.66 169.46 0 317.09-108.61 367.37-270.26 5.25-16.88 23.18-26.3 40.06-21.05 16.88 5.25 26.3 23.18 21.05 40.06-14.04 45.15-35.11 87.66-62.62 126.34a450.204 450.204 0 0 1-97.41 99.77c-37.95 28.38-79.86 50.44-124.57 65.57-46.23 15.63-94.65 23.57-143.89 23.57z" fill="#c1c1c1" p-id="11087"></path><path d="M930.26 545.68h-415.9c-17.67 0-32-14.33-32-32V95.9c0-8.51 3.39-16.66 9.41-22.67 6-5.98 14.12-9.33 22.59-9.33h0.11c60.48 0.2 119.15 12.23 174.37 35.75 53.34 22.71 101.22 55.13 142.32 96.36 41.1 41.23 73.38 89.23 95.92 142.64 23.35 55.32 35.18 114.05 35.18 174.57v0.58c-0.12 17.59-14.41 31.88-32 31.88z m-383.9-64h350.61c-15.23-186.53-164.25-336.2-350.61-352.34v352.34z" fill="#c3c3c3" p-id="11088"></path></svg>