<?xml version="1.0" encoding="UTF-8"?>
<svg width="24px" height="24px" viewBox="0 0 24 24" version="1.1" xmlns="http://www.w3.org/2000/svg" xmlns:xlink="http://www.w3.org/1999/xlink">
    <title>通用图标/线性/24/[通用类-图片&amp;照片]iconCommon_line_24_picture</title>
    <g id="通用图标/线性/24/[通用类-图片&amp;照片]iconCommon_line_24_picture" stroke="none" stroke-width="1" fill="none" fill-rule="evenodd">
        <rect id="矩形" x="0" y="0" width="24" height="24"></rect>
        <path d="M19,4.25 C20.5187831,4.25 21.75,5.48121694 21.75,7 L21.75,7 L21.75,17 C21.75,18.5187831 20.5187831,19.75 19,19.75 L19,19.75 L5,19.75 C3.48121694,19.75 2.25,18.5187831 2.25,17 L2.25,17 L2.25,7 C2.25,5.48121694 3.48121694,4.25 5,4.25 L5,4.25 Z M19,5.75 L5,5.75 C4.30964406,5.75 3.75,6.30964406 3.75,7 L3.75,7 L3.75,17 C3.75,17.6903559 4.30964406,18.25 5,18.25 L5,18.25 L19,18.25 C19.6903559,18.25 20.25,17.6903559 20.25,17 L20.25,17 L20.25,7 C20.25,6.30964406 19.6903559,5.75 19,5.75 L19,5.75 Z" id="路径" fill="#C3C3C3" fill-rule="nonzero"></path>
        <path d="M6.76256313,10.1767767 C7.40577961,9.53356021 8.42513114,9.49572395 9.1125988,10.0632679 L9.23743687,10.1767767 L15.5303301,16.4696699 L14.4696699,17.5303301 L8.1767767,11.2374369 C8.09541747,11.1560776 7.97193312,11.1425178 7.87653219,11.1967573 L7.8232233,11.2374369 L5.53033009,13.5303301 L4.46966991,12.4696699 L6.76256313,10.1767767 Z" id="路径" fill="#D8D8D8" fill-rule="nonzero" opacity="0.600000024"></path>
        <path d="M16.5,7.25 C17.7426407,7.25 18.75,8.25735931 18.75,9.5 C18.75,10.7426407 17.7426407,11.75 16.5,11.75 C15.2573593,11.75 14.25,10.7426407 14.25,9.5 C14.25,8.25735931 15.2573593,7.25 16.5,7.25 Z M16.5,8.75 C16.0857864,8.75 15.75,9.08578644 15.75,9.5 C15.75,9.91421356 16.0857864,10.25 16.5,10.25 C16.9142136,10.25 17.25,9.91421356 17.25,9.5 C17.25,9.08578644 16.9142136,8.75 16.5,8.75 Z" id="椭圆形" fill="#D8D8D8" fill-rule="nonzero" opacity="0.600000024"></path>
    </g>
</svg>