<?xml version="1.0" encoding="UTF-8"?>
<svg width="14px" height="14px" viewBox="0 0 14 14" version="1.1" xmlns="http://www.w3.org/2000/svg" xmlns:xlink="http://www.w3.org/1999/xlink">
    <title>通用/14px/v-还原</title>
    <defs>
        <path d="M12.4291016,2.86152344 L11.6580078,3.46445312 C10.6066406,2.12050781 8.97148437,1.2578125 7.13535156,1.2578125 C3.96484375,1.2578125 1.39863281,3.82128906 1.39452635,6.99316406 C1.39042969,10.1677734 3.96210937,12.7421875 7.13535156,12.7421875 C9.6140625,12.7421875 11.7263672,11.1699219 12.5302734,8.96738281 C12.5507812,8.90996094 12.5207031,8.84570312 12.4632812,8.8265625 L11.6880859,8.55996094 C11.6320312,8.54082031 11.5705078,8.56953125 11.55,8.62558594 C11.5253906,8.69394531 11.4980469,8.76230469 11.4693359,8.82929688 C11.2328125,9.38984375 10.89375,9.89296875 10.4617187,10.325 C10.0296875,10.7570312 9.5265625,11.0960937 8.96738281,11.3339844 C8.3890625,11.5787109 7.77246094,11.703125 7.13808594,11.703125 C6.50234375,11.703125 5.88710937,11.5787109 5.30878906,11.3339844 C4.74960937,11.0974609 4.24648437,10.7583984 3.81445312,10.325 C3.38242187,9.89296875 3.04335937,9.38984375 2.80683594,8.82929688 C2.56210937,8.24960937 2.43769531,7.634375 2.43769531,6.99863281 C2.43769531,6.36289062 2.56210937,5.74765625 2.80683594,5.16796875 C3.04335937,4.60742188 3.38242187,4.10429687 3.81445312,3.67226563 C4.24648437,3.24023438 4.74960937,2.90117188 5.30878906,2.66328125 C5.88710937,2.41855469 6.50371094,2.29414063 7.13808594,2.29414063 C7.77382812,2.29414063 8.3890625,2.41855469 8.96738281,2.66328125 C9.5265625,2.89980469 10.0296875,3.23886719 10.4617187,3.67226563 C10.5970703,3.80761719 10.7242187,3.95117188 10.8417969,4.1015625 L10.01875,4.74414062 C9.94628906,4.80019531 9.97089844,4.91503906 10.0597656,4.93691406 L12.4605469,5.52480469 C12.5289062,5.54121094 12.5958984,5.48925781 12.5958984,5.41953125 L12.6068359,2.94628906 C12.6054687,2.85605469 12.5001953,2.80546875 12.4291016,2.86152344 L12.4291016,2.86152344 Z" id="path-1"></path>
    </defs>
    <g id="通用/14px/v-还原" stroke="none" stroke-width="1" fill="none" fill-rule="evenodd">
        <mask id="mask-2" fill="white">
            <use xlink:href="#path-1"></use>
        </mask>
        <use id="路径" fill="#333333" fill-rule="nonzero" xlink:href="#path-1"></use>
    </g>
</svg>