<?xml version="1.0" encoding="UTF-8"?>
<svg width="14px" height="14px" viewBox="0 0 14 14" version="1.1" xmlns="http://www.w3.org/2000/svg" xmlns:xlink="http://www.w3.org/1999/xlink">
    <title>通用/14px/ai- 保存 下载</title>
    <defs>
        <path d="M5.46875,6.92104492 L6.47910156,6.92104492 L6.47910156,2.29584961 C6.47910156,2.23569336 6.52832031,2.18647461 6.58847656,2.18647461 L7.40878906,2.18647461 C7.46894531,2.18647461 7.51816406,2.23569336 7.51816406,2.29584961 L7.51816406,6.92104492 L8.53125,6.92104492 C8.62285156,6.92104492 8.6734375,7.02631836 8.61738281,7.09741211 L7.08613281,9.03608398 C7.04238281,9.09213867 6.95761719,9.09213867 6.91386719,9.03608398 L5.38261719,7.0987793 C5.3265625,7.02631836 5.37714844,6.92104492 5.46875,6.92104492 L5.46875,6.92104492 Z M12.0039062,8.55859375 L11.1835938,8.55859375 C11.1234375,8.55859375 11.0742188,8.6078125 11.0742188,8.66796875 L11.0742188,10.7734375 L2.92578125,10.7734375 L2.92578125,8.66796875 C2.92578125,8.6078125 2.8765625,8.55859375 2.81640625,8.55859375 L1.99609375,8.55859375 C1.9359375,8.55859375 1.88671875,8.6078125 1.88671875,8.66796875 L1.88671875,11.375 C1.88671875,11.6169922 2.08222656,11.8125 2.32421875,11.8125 L11.6757812,11.8125 C11.9177734,11.8125 12.1132812,11.6169922 12.1132812,11.375 L12.1132812,8.66796875 C12.1132812,8.6078125 12.0640625,8.55859375 12.0039062,8.55859375 Z" id="path-1"></path>
    </defs>
    <g id="通用/14px/ai--保存-下载" stroke="none" stroke-width="1" fill="none" fill-rule="evenodd">
        <mask id="mask-2" fill="white">
            <use xlink:href="#path-1"></use>
        </mask>
        <use id="蒙版" fill="#333333" fill-rule="nonzero" xlink:href="#path-1"></use>
    </g>
</svg>