<?xml version="1.0" encoding="UTF-8"?>
<svg width="14px" height="14px" viewBox="0 0 14 14" version="1.1" xmlns="http://www.w3.org/2000/svg" xmlns:xlink="http://www.w3.org/1999/xlink">
    <!-- Generator: Sketch 59.1 (86144) - https://sketch.com -->
    <title>Combined Shape</title>
    <desc>Created with Sketch.</desc>
    <g id="页面-1" stroke="none" stroke-width="1" fill="none" fill-rule="evenodd">
        <g id="12点击评论" transform="translate(-346.000000, -188.000000)" fill="#2A304A">
            <g id="任务管理模块" transform="translate(15.000000, 186.000000)">
                <path d="M344.680227,2.38451627 C344.929545,2.63383384 344.943775,3.03344708 344.712822,3.29986643 L339.771313,9.00002847 L344.712771,14.7001741 C344.94376,14.9665905 344.929547,15.366234 344.680214,15.615567 L344.615557,15.6802239 C344.366239,15.9295416 343.966626,15.9437711 343.700206,15.712818 L338.002132,10.7720381 L332.299878,15.7130083 C332.03345,15.9438559 331.633924,15.9295811 331.38465,15.6803077 L331.3197,15.6153579 C331.070442,15.3660999 331.056152,14.9666041 331.286963,14.7001732 L336.22588,8.99861426 L331.287014,3.29982371 C331.056166,3.03339582 331.070441,2.63386942 331.319714,2.38459592 L331.38466,2.31965027 C331.633918,2.07039219 332.033414,2.05610162 332.299845,2.28691274 L338.002132,7.22660466 L343.700174,2.28729766 C343.96659,2.05630834 344.366233,2.07052237 344.615566,2.31985524 L344.680227,2.38451627 Z" id="Combined-Shape"></path>
            </g>
        </g>
    </g>
</svg>