<?xml version="1.0" encoding="UTF-8"?>
<svg width="16px" height="16px" viewBox="0 0 16 16" version="1.1" xmlns="http://www.w3.org/2000/svg" xmlns:xlink="http://www.w3.org/1999/xlink">
    <!-- Generator: Sketch 57.1 (83088) - https://sketch.com -->
    <title>icon_机制部署</title>
    <desc>Created with Sketch.</desc>
    <g id="icon_机制部署" stroke="none" stroke-width="1" fill="none" fill-rule="evenodd">
        <g fill="#FFFFFF" id="编组-2">
            <g transform="translate(1.000000, 1.000000)">
                <g id="编组-190" transform="translate(0.000000, 1.000000)">
                    <path d="M1.86131707,1.02439024 C1.39965854,1.02439024 1.02439024,1.40034146 1.02439024,1.86234146 L1.02439024,9.31102439 C1.02439024,9.77268293 1.39965854,10.1486341 1.86131707,10.1486341 L5.73692683,10.1486341 C5.89502439,10.1486341 6.04390244,10.2217073 6.14087805,10.3463415 C6.51307317,10.8243902 6.62780488,10.9268293 7,10.9268293 C7.36263415,10.9268293 7.47121951,10.830878 7.86253659,10.340878 C7.95985366,10.2193171 8.10702439,10.1486341 8.26273171,10.1486341 L12.1386829,10.1486341 C12.5996585,10.1486341 12.9752683,9.77268293 12.9752683,9.31102439 L12.9752683,1.86234146 C12.9790244,1.63629268 12.8957073,1.43004878 12.7410244,1.27297561 C12.5832683,1.1124878 12.3736098,1.02439024 12.1506341,1.02439024 L8.11214634,1.02439024 C7.84,1.02439024 7.58321951,1.15892683 7.42546341,1.38395122 C7.23321951,1.65746341 6.77839024,1.65746341 6.5864878,1.38395122 C6.42873171,1.15892683 6.17195122,1.02439024 5.89980488,1.02439024 L1.86131707,1.02439024 Z M7,11.9512195 C6.21668293,11.9512195 5.82195122,11.5820976 5.48868293,11.1730244 L1.86131707,11.1730244 C0.834878049,11.1730244 0,10.3374634 0,9.31102439 L0,1.86234146 C0,0.835219512 0.834878049,0 1.86131707,0 L5.89980488,0 C6.30239024,0 6.68926829,0.131463415 7.00580488,0.365707317 C7.32268293,0.131463415 7.70956098,0 8.11214634,0 L12.1506341,0 C12.650878,0 13.1197073,0.19702439 13.4714146,0.554536585 C13.8200488,0.909317073 14.0075122,1.37643902 13.9996585,1.87087805 L13.9996585,9.31102439 C13.9996585,10.3374634 13.1647805,11.1730244 12.1386829,11.1730244 L8.50721951,11.1730244 C8.15721951,11.5943902 7.77170732,11.9512195 7,11.9512195 L7,11.9512195 Z" id="Fill-800"></path>
                    <path d="M4.53466829,3.81380488 L2.90247317,3.81380488 C2.61974146,3.81380488 2.39027805,3.58468293 2.39027805,3.30160976 C2.39027805,3.01853659 2.61974146,2.78941463 2.90247317,2.78941463 L4.53466829,2.78941463 C4.8174,2.78941463 5.04686341,3.01853659 5.04686341,3.30160976 C5.04686341,3.58468293 4.8174,3.81380488 4.53466829,3.81380488" id="Fill-801"></path>
                    <path d="M4.53466829,6.09034146 L2.90247317,6.09034146 C2.61974146,6.09034146 2.39027805,5.86121951 2.39027805,5.57814634 C2.39027805,5.29507317 2.61974146,5.06595122 2.90247317,5.06595122 L4.53466829,5.06595122 C4.8174,5.06595122 5.04686341,5.29507317 5.04686341,5.57814634 C5.04686341,5.86121951 4.8174,6.09034146 4.53466829,6.09034146" id="Fill-802"></path>
                    <path d="M4.53466829,8.36670732 L2.90247317,8.36670732 C2.61974146,8.36670732 2.39027805,8.13758537 2.39027805,7.8545122 C2.39027805,7.57143902 2.61974146,7.34231707 2.90247317,7.34231707 L4.53466829,7.34231707 C4.8174,7.34231707 5.04686341,7.57143902 5.04686341,7.8545122 C5.04686341,8.13758537 4.8174,8.36670732 4.53466829,8.36670732" id="Fill-803"></path>
                    <path d="M10.9087659,3.81380488 L9.27657073,3.81380488 C8.99383902,3.81380488 8.76437561,3.58468293 8.76437561,3.30160976 C8.76437561,3.01853659 8.99383902,2.78941463 9.27657073,2.78941463 L10.9087659,2.78941463 C11.1914976,2.78941463 11.420961,3.01853659 11.420961,3.30160976 C11.420961,3.58468293 11.1914976,3.81380488 10.9087659,3.81380488" id="Fill-804"></path>
                    <path d="M10.9087659,6.09034146 L9.27657073,6.09034146 C8.99383902,6.09034146 8.76437561,5.86121951 8.76437561,5.57814634 C8.76437561,5.29507317 8.99383902,5.06595122 9.27657073,5.06595122 L10.9087659,5.06595122 C11.1914976,5.06595122 11.420961,5.29507317 11.420961,5.57814634 C11.420961,5.86121951 11.1914976,6.09034146 10.9087659,6.09034146" id="Fill-805"></path>
                    <path d="M10.9087659,8.36670732 L9.27657073,8.36670732 C8.99383902,8.36670732 8.76437561,8.13758537 8.76437561,7.8545122 C8.76437561,7.57143902 8.99383902,7.34231707 9.27657073,7.34231707 L10.9087659,7.34231707 C11.1914976,7.34231707 11.420961,7.57143902 11.420961,7.8545122 C11.420961,8.13758537 11.1914976,8.36670732 10.9087659,8.36670732" id="Fill-806"></path>
                </g>
            </g>
        </g>
    </g>
</svg>