<?xml version="1.0" encoding="UTF-8"?>
<svg width="13px" height="15px" viewBox="0 0 13 15" version="1.1" xmlns="http://www.w3.org/2000/svg" xmlns:xlink="http://www.w3.org/1999/xlink">
    <!-- Generator: Sketch 57.1 (83088) - https://sketch.com -->
    <title>基本信息</title>
    <desc>Created with Sketch.</desc>
    <g id="图表设置" stroke="none" stroke-width="1" fill="none" fill-rule="evenodd">
        <g id="1-编辑应用-基本信息" transform="translate(-19.000000, -68.000000)" fill="#FFFFFF">
            <g id="Sidebar" transform="translate(-2.000000, 0.000000)">
                <g id="Sidebar-Copy" transform="translate(2.000000, 0.000000)">
                    <g id="Sidebar/收起">
                        <g id="Group-7" transform="translate(17.100000, 65.150393)">
                            <g id="基本信息" transform="translate(1.000000, 3.000000)">
                                <g id="编组-3">
                                    <g id="编组-155" transform="translate(1.000000, 0.000000)">
                                        <path d="M3.5,3.00673401 C3.224,3.00673401 3,2.77542026 3,2.48963919 L3,0.517094819 C3,0.231658479 3.224,0 3.5,0 C3.776,0 4,0.231658479 4,0.517094819 L4,2.48963919 C4,2.77542026 3.776,3.00673401 3.5,3.00673401" id="Fill-1184"></path>
                                        <path d="M8.5,3.00673401 C8.224,3.00673401 8,2.77542026 8,2.48963919 L8,0.517094819 C8,0.231658479 8.224,0 8.5,0 C8.776,0 9,0.231658479 9,0.517094819 L9,2.48963919 C9,2.77542026 8.776,3.00673401 8.5,3.00673401" id="Fill-1185"></path>
                                        <path d="M1.82237091,2.0181916 C1.35326175,2.0181916 0.97124049,2.44387336 0.97124049,2.96674738 L0.97124049,12.066584 C0.97124049,12.5897967 1.35326175,13.0154784 1.82237091,13.0154784 L10.1776291,13.0154784 C10.6467383,13.0154784 11.0287595,12.5897967 11.0287595,12.066584 L11.0287595,2.96674738 C11.0287595,2.44387336 10.6467383,2.0181916 10.1776291,2.0181916 L1.82237091,2.0181916 Z M10.1776291,14.0314254 L1.82237091,14.0314254 C0.817460746,14.0314254 0,13.1499221 0,12.066584 L0,2.96674738 C0,1.88374795 0.817460746,1.00224467 1.82237091,1.00224467 L10.1776291,1.00224467 C11.1822155,1.00224467 12,1.88374795 12,2.96674738 L12,12.066584 C12,13.1499221 11.1822155,14.0314254 10.1776291,14.0314254 L10.1776291,14.0314254 Z" id="Fill-1186"></path>
                                        <path d="M7.54108793,5.01122334 L3.45891207,5.01122334 C3.20559261,5.01122334 3,4.78705462 3,4.51010101 C3,4.2331474 3.20559261,4.00897868 3.45891207,4.00897868 L7.54108793,4.00897868 C7.79440739,4.00897868 8,4.2331474 8,4.51010101 C8,4.78705462 7.79440739,5.01122334 7.54108793,5.01122334" id="Fill-1187"></path>
                                        <path d="M7.54108793,8.01795735 L3.45891207,8.01795735 C3.20559261,8.01795735 3,7.79378863 3,7.51683502 C3,7.23988141 3.20559261,7.01571268 3.45891207,7.01571268 L7.54108793,7.01571268 C7.79440739,7.01571268 8,7.23988141 8,7.51683502 C8,7.79378863 7.79440739,8.01795735 7.54108793,8.01795735" id="Fill-1188"></path>
                                        <path d="M7.54108793,11.0246914 L3.45891207,11.0246914 C3.20559261,11.0246914 3,10.8005226 3,10.523569 C3,10.2466154 3.20559261,10.0224467 3.45891207,10.0224467 L7.54108793,10.0224467 C7.79440739,10.0224467 8,10.2466154 8,10.523569 C8,10.8005226 7.79440739,11.0246914 7.54108793,11.0246914" id="Fill-1189"></path>
                                    </g>
                                </g>
                            </g>
                        </g>
                    </g>
                </g>
            </g>
        </g>
    </g>
</svg>