<?xml version="1.0" encoding="UTF-8"?>
<svg width="13px" height="14px" viewBox="0 0 13 14" version="1.1" xmlns="http://www.w3.org/2000/svg" xmlns:xlink="http://www.w3.org/1999/xlink">
    <!-- Generator: Sketch 55.1 (78136) - https://sketchapp.com -->
    <title>表单设计</title>
    <desc>Created with Sketch.</desc>
    <g id="流程权限" stroke="none" stroke-width="1" fill="none" fill-rule="evenodd">
        <g id="1-流程权限" transform="translate(-18.000000, -68.000000)" fill="#FFFFFF">
            <g id="Sidebar" transform="translate(-1.000000, 0.000000)">
                <g id="Sidebar-Copy">
                    <g id="Sidebar/收起">
                        <g id="Group-7" transform="translate(18.100000, 65.150393)">
                            <g id="表单设计" transform="translate(0.900000, 2.849607)">
                                <path d="M10.4860652,13.0409216 L2.51260236,13.0409216 C1.95399028,13.0409216 1.49930604,12.6045409 1.49930604,12.0680963 L1.49930604,1.93159627 C1.49930604,1.66880878 1.60656489,1.42264531 1.80142956,1.23850225 C1.99263012,1.0581955 2.24412214,0.95909073 2.51093685,0.95909073 C2.51593338,0.95909073 2.52159611,0.95909073 2.52692575,0.959410423 L7.7829424,1.04604718 L7.7829424,3.64067405 C7.7829424,4.28581415 8.3295628,4.81074975 9.00209577,4.81074975 L11.500694,4.81074975 L11.500694,12.0671372 C11.500694,12.6042212 11.0456766,13.0409216 10.4860652,13.0409216 L10.4860652,13.0409216 Z M8.78224844,1.71004915 L10.8671339,3.85167131 L9.00209577,3.85167131 C8.88084663,3.85167131 8.78224844,3.75672255 8.78224844,3.64067405 L8.78224844,1.71004915 Z M12.3654268,3.98594229 L8.72728661,0.248733298 C8.63468425,0.153784532 8.50643997,0.0991170605 8.37053435,0.096559518 L2.54324774,0.000331981013 C2.00362248,-0.00925880341 1.48731437,0.189270434 1.10024983,0.554999013 C0.713185288,0.921047285 0.5,1.4098576 0.5,1.93159627 L0.5,12.0680963 C0.5,13.1333128 1.40270645,14 2.51260236,14 L10.4860652,14 C11.5966273,14 12.5,13.1329931 12.5,12.0671372 L12.5,4.31330774 C12.5,4.19182447 12.4517002,4.0748169 12.3654268,3.98594229 L12.3654268,3.98594229 Z" id="Fill-108"></path>
                                <path d="M9.03694176,7 L3.96305824,7 C3.70745009,7 3.5,7.22366667 3.5,7.5 C3.5,7.77633333 3.70745009,8 3.96305824,8 L9.03694176,8 C9.29254991,8 9.5,7.77633333 9.5,7.5 C9.5,7.22366667 9.29254991,7 9.03694176,7" id="Fill-109"></path>
                                <path d="M9.03694176,10 L3.96305824,10 C3.70745009,10 3.5,10.2236667 3.5,10.5 C3.5,10.7763333 3.70745009,11 3.96305824,11 L9.03694176,11 C9.29254991,11 9.5,10.7763333 9.5,10.5 C9.5,10.2236667 9.29254991,10 9.03694176,10" id="Fill-110"></path>
                            </g>
                        </g>
                    </g>
                </g>
            </g>
        </g>
    </g>
</svg>