<?xml version="1.0" encoding="UTF-8"?>
<svg width="14px" height="14px" viewBox="0 0 14 14" version="1.1" xmlns="http://www.w3.org/2000/svg" xmlns:xlink="http://www.w3.org/1999/xlink">
    <!-- Generator: Sketch 55.1 (78136) - https://sketchapp.com -->
    <title>流程设计</title>
    <desc>Created with Sketch.</desc>
    <g id="流程权限" stroke="none" stroke-width="1" fill="none" fill-rule="evenodd">
        <g id="1-流程权限" transform="translate(-18.000000, -168.000000)" fill="#FFFFFF">
            <g id="Sidebar" transform="translate(-1.000000, 0.000000)">
                <g id="Sidebar-Copy">
                    <g id="Sidebar/收起">
                        <g id="Group-7-Copy-2" transform="translate(0.105556, 149.372615)">
                            <g id="流程设计" transform="translate(18.894444, 18.627385)">
                                <path d="M12.8947368,12.5141553 C12.8947368,12.7188304 12.7293158,12.8856165 12.5263158,12.8856165 L10.6842105,12.8856165 C10.4808421,12.8856165 10.3157895,12.7188304 10.3157895,12.5141553 L10.3157895,10.6568495 C10.3157895,10.4521744 10.4808421,10.2853883 10.6842105,10.2853883 L12.5263158,10.2853883 C12.7293158,10.2853883 12.8947368,10.4521744 12.8947368,10.6568495 L12.8947368,12.5141553 Z M6.07894737,3.71461169 C5.87557895,3.71461169 5.71052632,3.54782563 5.71052632,3.34315052 L5.71052632,1.48584468 C5.71052632,1.28079811 5.87557895,1.11438351 6.07894737,1.11438351 L7.92105263,1.11438351 C8.12405263,1.11438351 8.28947368,1.28079811 8.28947368,1.48584468 L8.28947368,3.34315052 C8.28947368,3.54782563 8.12405263,3.71461169 7.92105263,3.71461169 L6.07894737,3.71461169 Z M3.31578947,10.2853883 C3.51878947,10.2853883 3.68421053,10.4521744 3.68421053,10.6568495 L3.68421053,12.5141553 C3.68421053,12.7188304 3.51878947,12.8856165 3.31578947,12.8856165 L1.47368421,12.8856165 C1.27031579,12.8856165 1.10526316,12.7188304 1.10526316,12.5141553 L1.10526316,10.6568495 C1.10526316,10.4521744 1.27031579,10.2853883 1.47368421,10.2853883 L3.31578947,10.2853883 Z M12.5263158,9.1710048 L12.1578947,9.1710048 L12.1578947,7.12796837 C12.1578947,6.82002706 11.9106842,6.57077662 11.6052632,6.57077662 L7.55263158,6.57077662 L7.55263158,4.8289952 L7.92105263,4.8289952 C8.73489474,4.8289952 9.39473684,4.16370824 9.39473684,3.34315052 L9.39473684,1.48584468 C9.39473684,0.665286954 8.73489474,0 7.92105263,0 L6.07894737,0 C5.26510526,0 4.60526316,0.665286954 4.60526316,1.48584468 L4.60526316,3.34315052 C4.60526316,4.16370824 5.26510526,4.8289952 6.07894737,4.8289952 L6.44736842,4.8289952 L6.44736842,6.57077662 L2.39473684,6.57077662 C2.08931579,6.57077662 1.84210526,6.82002706 1.84210526,7.12796837 L1.84210526,9.1710048 L1.47368421,9.1710048 C0.659842105,9.1710048 0,9.83629176 0,10.6568495 L0,12.5141553 C0,13.334713 0.659842105,14 1.47368421,14 L3.31578947,14 C4.12963158,14 4.78947368,13.334713 4.78947368,12.5141553 L4.78947368,10.6568495 C4.78947368,9.83629176 4.12963158,9.1710048 3.31578947,9.1710048 L2.94736842,9.1710048 L2.94736842,7.68516013 L11.0526316,7.68516013 L11.0526316,9.1710048 L10.6842105,9.1710048 C9.87036842,9.1710048 9.21052632,9.83629176 9.21052632,10.6568495 L9.21052632,12.5141553 C9.21052632,13.334713 9.87036842,14 10.6842105,14 L12.5263158,14 C13.3401579,14 14,13.334713 14,12.5141553 L14,10.6568495 C14,9.83629176 13.3401579,9.1710048 12.5263158,9.1710048 L12.5263158,9.1710048 Z" id="Fill-700"></path>
                            </g>
                        </g>
                    </g>
                </g>
            </g>
        </g>
    </g>
</svg>