<?xml version="1.0" encoding="UTF-8"?>
<svg width="15px" height="15px" viewBox="0 0 15 15" version="1.1" xmlns="http://www.w3.org/2000/svg" xmlns:xlink="http://www.w3.org/1999/xlink">
    <!-- Generator: Sketch 55.1 (78136) - https://sketchapp.com -->
    <title>编组 340备份@3x</title>
    <desc>Created with Sketch.</desc>
    <g id="导入机制-0305" stroke="none" stroke-width="1" fill="none" fill-rule="evenodd">
        <g id="1-机制部署-开启编号机制时备份" transform="translate(-1302.000000, -63.000000)" fill="#999999">
            <g id="Sidebar">
                <g id="Sidebar-Copy">
                    <g id="Sidebar/收起">
                        <g id="编组-10" transform="translate(1302.000000, 16.000000)">
                            <g id="编组-340备份" transform="translate(0.000000, 47.000000)">
                                <path d="M7.50015753,1.44956026 C4.16122826,1.44956026 1.44515831,4.16372002 1.44515831,7.50015826 C1.44515831,10.83628 4.16122826,13.5504397 7.50015753,13.5504397 C10.8387717,13.5504397 13.5548417,10.83628 13.5548417,7.50015826 C13.5548417,4.16372002 10.8387717,1.44956026 7.50015753,1.44956026 M7.50015753,14.5 C3.64044602,14.5 0.5,11.3601207 0.5,7.50015826 C0.5,3.64019579 3.64044602,0.5 7.50015753,0.5 C11.359869,0.5 14.5,3.64019579 14.5,7.50015826 C14.5,11.3601207 11.359869,14.5 7.50015753,14.5" id="Fill-375"></path>
                                <path d="M7.50015753,1.44956026 C4.16122826,1.44956026 1.44515831,4.16372002 1.44515831,7.50015826 C1.44515831,10.83628 4.16122826,13.5504397 7.50015753,13.5504397 C10.8387717,13.5504397 13.5548417,10.83628 13.5548417,7.50015826 C13.5548417,4.16372002 10.8387717,1.44956026 7.50015753,1.44956026 M7.50015753,14.5 C3.64044602,14.5 0.5,11.3601207 0.5,7.50015826 C0.5,3.64019579 3.64044602,0.5 7.50015753,0.5 C11.359869,0.5 14.5,3.64019579 14.5,7.50015826 C14.5,11.3601207 11.359869,14.5 7.50015753,14.5" id="Fill-377"></path>
                                <path d="M7.46836703,9.22510407 C7.22048438,9.22510407 7.01930426,9.01827341 7.01930426,8.76274046 L7.01930426,8.54573781 C7.01930426,8.24828389 7.09324993,7.97333167 7.23874627,7.72858721 C7.33185195,7.55689619 7.48782642,7.37503317 7.70786718,7.18762179 C7.88839042,7.01500604 8.12429807,6.78844788 8.21860125,6.67994655 C8.3350582,6.51041323 8.39164011,6.32793373 8.39164011,6.12326078 C8.39164011,5.8202585 8.30901256,5.5927756 8.13896745,5.42817416 C7.94946296,5.23952981 7.69110217,5.14983127 7.34442571,5.14983127 C6.95643547,5.14983127 6.6846028,5.25987381 6.4891108,5.49567925 C6.29152318,5.73210117 6.19332812,6.0369529 6.18793937,6.42903724 C6.18404749,6.68210425 5.98376549,6.88461951 5.73887659,6.88461951 L5.73199096,6.88461951 C5.48410831,6.8809206 5.28622131,6.67069928 5.28981381,6.41547457 C5.29849569,5.80607934 5.47273205,5.29439696 5.80713413,4.89399008 C6.17446748,4.4507375 6.69208718,4.22510407 7.34442571,4.22510407 C7.92760857,4.22510407 8.40331574,4.40480939 8.75897346,4.75928815 C9.1095418,5.09866303 9.28976566,5.55886894 9.28976566,6.12326078 C9.28976566,6.53137372 9.17001559,6.90742945 8.93320982,7.24094773 L8.91105605,7.26930603 C8.81765099,7.38150626 8.64580964,7.55381376 8.29853442,7.88363313 C8.11741244,8.0389873 8.04556239,8.13762487 8.01382862,8.19588269 C7.94616983,8.31054886 7.91742981,8.41966667 7.91742981,8.54573781 L7.91742981,8.76274046 C7.91742981,9.01827341 7.71624969,9.22510407 7.46836703,9.22510407" id="Fill-379" transform="translate(7.289766, 6.725104) rotate(7.000000) translate(-7.289766, -6.725104) "></path>
                                <path d="M7.29856136,11.2562233 C7.16522803,11.2562233 7.03856136,11.2027961 6.9448947,11.1092983 C6.8518947,11.0191398 6.79856136,10.8889108 6.79856136,10.7553425 C6.79856136,10.6251135 6.8518947,10.4948845 6.9448947,10.4013868 C7.0618947,10.2878538 7.2318947,10.2344265 7.39522803,10.2644794 C7.42856136,10.2711578 7.45822803,10.2811754 7.48856136,10.2945322 C7.51856136,10.307889 7.54856136,10.3212459 7.57522803,10.3412811 C7.6018947,10.3579771 7.62856136,10.3780123 7.6518947,10.4013868 C7.74522803,10.4948845 7.79856136,10.6251135 7.79856136,10.7553425 C7.79856136,10.8889108 7.74522803,11.0191398 7.6518947,11.1092983 C7.55856136,11.2027961 7.42856136,11.2562233 7.29856136,11.2562233" id="Fill-381" transform="translate(7.298561, 10.756223) rotate(7.000000) translate(-7.298561, -10.756223) "></path>
                            </g>
                        </g>
                    </g>
                </g>
            </g>
        </g>
    </g>
</svg>