<?xml version="1.0" standalone="no"?>
<!DOCTYPE svg PUBLIC "-//W3C//DTD SVG 1.1//EN" "http://www.w3.org/Graphics/SVG/1.1/DTD/svg11.dtd" >
<!--
2013-9-30: Created.
-->
<svg>
<metadata>
Created by iconfont
</metadata>
<defs>

<font id="fontmuis" horiz-adv-x="1024" >
  <font-face
    font-family="fontmuis"
    font-weight="500"
    font-stretch="normal"
    units-per-em="1024"
    ascent="896"
    descent="-128"
  />
    <missing-glyph />
    
    <glyph glyph-name="-iassister-selected" unicode="&#59239;" d="M1292.856889 839.111111h-106.837333a48.924444 48.924444 0 0 1-38.343112-18.204444L517.802667 37.205333 215.722667 413.127111a49.265778 49.265778 0 0 1-38.343111 18.204445H70.656c-10.24 0-15.928889-11.377778-9.671111-19.342223l418.474667-520.419555a49.607111 49.607111 0 0 1 76.913777 0l746.154667 928.426666c6.257778 7.509333 0.568889 19.114667-9.671111 19.114667z"  horiz-adv-x="1365" />

    
    <glyph glyph-name="-iassister-tips" unicode="&#59240;" d="M512 896a512 512 0 1 1 0-1024A512 512 0 0 1 512 896z m-36.608-265.130667c0 5.034667 4.181333 9.130667 9.216 9.130667h54.784c5.12 0 9.216-4.096 9.216-9.130667V320a9.130667 9.130667 0 0 0-9.216-9.130667H484.693333a9.130667 9.130667 0 0 0-9.216 9.130667V630.869333zM512 128a54.869333 54.869333 0 1 0 0 109.738667A54.869333 54.869333 0 0 0 512 128z"  horiz-adv-x="1024" />

    
    <glyph glyph-name="-iassister-arrow" unicode="&#59241;" d="M663.490581 443.718127l228.355222 228.241668 74.604366-74.717919a13.626368 13.626368 0 0 1 23.278379 8.062268L1021.97762 878.739934a13.626368 13.626368 0 0 1-15.216111 15.216111l-273.662896-32.362625a13.626368 13.626368 0 0 1-7.948715-23.164826l74.945025-74.945025-228.241668-228.014563a13.626368 13.626368 0 0 1 0-19.304021l72.333305-72.446858a13.626368 13.626368 0 0 1 19.304021 0z m-304.88999-121.501784l-228.241668-228.128115-74.717919 74.717919a13.626368 13.626368 0 0 1-23.164826-8.062268L0.227106-112.691911a13.626368 13.626368 0 0 1 15.102558-15.216111l273.662896 32.362625a13.626368 13.626368 0 0 1 7.948715 23.164826l-74.945025 74.831472 228.241668 228.128115a13.626368 13.626368 0 0 1 0 19.304022l-72.333305 72.446858a13.626368 13.626368 0 0 1-19.304022 0z"  horiz-adv-x="1024" />

    
    <glyph glyph-name="-iassister" unicode="&#59242;" d="M1048.099665-57.97761l-181.80496 181.80496c152.060935 185.415194 141.499651 460.17023-32.330461 633.83869-184.283628 184.445281-483.663698 184.445281-668.701704 0-184.445281-185.038006-184.445281-484.418075 0-668.701704 173.722344-173.830112 448.423495-184.391396 633.83869-32.330461l181.80496-181.80496c3.987424-3.502467 10.291863-3.502467 13.686561 0l53.506914 53.506913c3.502467 3.394698 3.502467 9.699138 0 13.686562z m-280.19733 212.949971a378.697468 378.697468 0 0 0-535.392436 0 378.697468 378.697468 0 0 0 0 535.44632 378.697468 378.697468 0 0 0 535.44632 0 378.697468 378.697468 0 0 0 0-535.44632zM718.598382 572.681918h-51.836506a34.485825 34.485825 0 0 1-28.612458-15.788042l-173.776228-258.589804-78.670789 117.197921a34.647477 34.647477 0 0 1-28.666342 15.788042h-51.836506c-7.166586 0-11.315661-8.783109-7.166586-15.087549l137.727764-204.975123c14.009866-21.0148 43.107281-21.0148 57.117148 0l232.77932 346.367007c4.310728 6.30444 0.161652 15.087549-7.004933 15.087548z"  horiz-adv-x="1077" />

    
    <glyph glyph-name="-interior-department" unicode="&#59232;" d="M612.905967 728.131148a161.103738 161.103738 0 0 0 107.436066-281.163541c88.718689-40.724984 150.326557-130.350164 150.326557-234.361705a32.23082 32.23082 0 1 0-64.428065 0c0 105.757377-84.941639 191.70623-190.363279 193.300983 69.967738-58.233705 115.17482-150.578361 115.17482-254.505967C731.052066-24.760656 151.081967-24.760656 151.081967 151.400918c0 134.160787 75.305967 248.983082 181.969836 296.120656a161.103738 161.103738 0 1 0 216.030427 0c11.213639-4.968918 22.074754-10.676459 32.54977-17.072263a32.23082 32.23082 0 0 0 28.755934 39.818492l2.518033 0.100722 3.709902 0.067147a96.658885 96.658885 0 0 1-3.693115 193.250623 32.23082 32.23082 0 1 0 0 64.444853zM441.058623 405.923672c-124.558689 0-225.531803-116.937443-225.531803-261.203934 0-81.332459 451.080393-81.332459 451.080393 0 0 144.266492-100.973115 261.203934-225.54859 261.203934z m0 257.762623a96.658885 96.658885 0 1 1 0-193.31777 96.658885 96.658885 0 0 1 0 193.31777z"  horiz-adv-x="1024" />

    
    <glyph glyph-name="-interior-person" unicode="&#59233;" d="M516.599607 728.131148a161.103738 161.103738 0 0 0 108.023606-280.626361c106.663869-47.120787 181.969836-161.943082 181.969836-296.120656 0-176.144787-579.970098-176.144787-579.970098 0 0 134.177574 75.305967 248.999869 181.969836 296.120656A161.103738 161.103738 0 0 0 516.599607 728.131148z m0-322.207476c-124.558689 0-225.531803-116.937443-225.531804-261.203934 0-81.332459 451.080393-81.332459 451.080394 0 0 144.266492-100.973115 261.203934-225.54859 261.203934z m0 257.762623a96.658885 96.658885 0 1 1 0-193.31777 96.658885 96.658885 0 0 1 0 193.31777z"  horiz-adv-x="1024" />

    
    <glyph glyph-name="-org" unicode="&#59234;" d="M131.874133 8.533333a7.68 7.68 0 0 0-7.68 7.68v57.787734a7.68 7.68 0 0 0 7.68 7.68h69.870934V410.8288H124.194133c-35.7376 0-52.036267 41.3696-26.282666 63.453867l2.048 1.672533L487.765333 768.512a40.618667 40.618667 0 0 0 48.469334 0l387.805866-292.5568c28.6208-21.6064 12.424533-65.143467-24.234666-65.143467l-77.568 0.017067v-329.147733h69.888a7.68 7.68 0 0 0 7.68-7.68v-57.787734a7.68 7.68 0 0 0-7.68-7.68H131.874133z m612.795734 73.147734V410.8288h-103.406934v-329.147733h103.406934zM563.694933 410.8288H460.288v-329.147733h103.406933V410.8288z m-180.974933 0h-103.406933v-329.147733h103.406933V410.8288zM512 693.1456L234.717867 483.959467h554.496L512 693.1456z"  horiz-adv-x="1024" />

    
    <glyph glyph-name="-slide-up" unicode="&#59134;" d="M526.714435 425.894957l469.036522-128.200348a22.394435 22.394435 0 0 1 27.469913 16.183652 22.928696 22.928696 0 0 1-15.84974 28.048696L530.476522 472.264348a22.016 22.016 0 0 1-17.897739-2.827131l-473.711305-129.469217a22.928696 22.928696 0 0 1-15.849739-28.048696c3.205565-12.198957 15.493565-19.456 27.469913-16.183652l476.204522 130.159305z"  horiz-adv-x="1024" />

    
    <glyph glyph-name="-slide-down" unicode="&#59135;" d="M526.714435 342.105043l469.036522 128.200348a22.394435 22.394435 0 0 0 27.469913-16.183652 22.928696 22.928696 0 0 0-15.84974-28.048696L530.476522 295.735652a22.016 22.016 0 0 0-17.897739 2.827131l-473.711305 129.469217a22.928696 22.928696 0 0 0-15.849739 28.048696 22.394435 22.394435 0 0 0 27.469913 16.183652l476.204522-130.159305z"  horiz-adv-x="1024" />

    
    <glyph glyph-name="-view-board" unicode="&#59131;" d="M202.007273-3.5684850000000097h619.985454c37.236364 0 61.998545-24.793212 61.998546-61.967515 0-37.205333-24.793212-61.967515-61.998546-61.967515H202.007273c-37.236364 0-61.998545 24.762182-61.998546 61.967515 0 37.174303 24.793212 61.967515 61.998546 61.967515z m0 774.640485c-37.236364 0-61.998545-24.762182-61.998546-61.967515V244.36363600000004C140.008727 207.12727299999995 164.770909 182.30303000000004 202.007273 182.30303000000004h619.985454c37.236364 0 61.998545 24.824242 61.998546 61.998546V709.1044850000001c0 37.205333-24.793212 61.967515-61.998546 61.967515H202.007273zM140.008727 895.069091h743.982546a124.338424 124.338424 0 0 0 123.997091-123.966061v-588.737939a124.338424 124.338424 0 0 0-123.997091-123.93503H140.008727a124.338424 124.338424 0 0 0-123.997091 123.93503V771.072A124.338424 124.338424 0 0 0 140.008727 895.069091z m396.784485-576.356849c-18.618182 0-30.999273 6.206061-43.380364 18.618182l-92.997818 86.729697-43.442424-43.380363c-24.762182-24.793212-61.967515-24.793212-86.760727 0-24.824242 24.824242-24.824242 61.998545 0 86.760727l86.791757 86.760727c24.824242 24.824242 61.998545 24.824242 86.791758 0l86.791758-86.760727 130.203151 130.141091c24.824242 24.824242 61.998545 24.824242 86.822788 0 24.793212-24.762182 24.793212-61.967515 0-86.760728l-173.614546-173.521454c-6.206061-12.412121-24.824242-18.587152-37.205333-18.587152z"  horiz-adv-x="1024" />

    
    <glyph glyph-name="-images-upload" unicode="&#59130;" d="M71.236267-39.5264l290.0992 290.065067a68.266667 68.266667 0 0 0 96.529066 0L546.133333 162.304l293.137067 293.102933a68.266667 68.266667 0 0 0 96.392533 0.136534L1092.266667 299.758933V793.6a34.133333 34.133333 0 0 1-34.133334 34.133333H102.4a34.133333 34.133333 0 0 1-34.133333-34.133333v-819.2c0-4.949333 1.058133-9.693867 2.9696-13.9264zM147.592533-59.733333H1058.133333a34.133333 34.133333 0 0 1 34.133334 34.133333v229.0688l-204.731734 203.6736-293.137066-293.137067a68.266667 68.266667 0 0 0-96.529067 0L409.6 202.274133 147.592533-59.733333zM72.704-123.630933a34.065067 34.065067 0 0 0-32.938667 17.032533A102.229333 102.229333 0 0 0 0-25.6V793.6a102.4 102.4 0 0 0 102.4 102.4h955.733333a102.4 102.4 0 0 0 102.4-102.4v-819.2a102.4 102.4 0 0 0-102.4-102.4H102.4a102.4 102.4 0 0 0-29.696 4.369067zM341.333333 384a136.533333 136.533333 0 1 0 0 273.066667 136.533333 136.533333 0 0 0 0-273.066667z m0 68.266667a68.266667 68.266667 0 1 1 0 136.533333 68.266667 68.266667 0 0 1 0-136.533333z"  horiz-adv-x="1160" />

    
    <glyph glyph-name="-preview-label" unicode="&#59129;" d="M10.138614 889.683644h912.475247c55.995564 0 101.386139-45.390574 101.386139-101.386139v-912.475248L10.138614 889.683644zM549.766337 767.70598l85.336713-85.346851-11.699961-11.699961-34.927525 34.927525a301.71501 301.71501 0 0 0-22.710495-15.826376l32.514535-32.514535-81.037941-81.048079-11.69996 11.69996 70.027406 70.027406-49.719762 49.729901-70.027406-70.027406-11.699961 11.699961 81.037941 81.03794 28.732831-28.732831a244.796832 244.796832 0 0 1 22.365783 16.171089l-38.192159 38.202297 11.699961 11.69996z m-56.958733-167.074218c2.757703-22.710495 3.447129-43.352713 2.068277-61.94693h-17.205228c2.068277 17.215366 1.895921 38.029941-0.50693 62.119287l15.643881-0.172357z m41.639287 78.807446l12.044673-12.044673-30.963326-30.973466c-18.928792-17.894653-37.685228-28.388119-56.269307-31.490534-17.722297-2.575208-37.847446 1.723564-60.730297 12.906455l3.781703 17.205228c21.676356-11.010535 40.260436-15.481663 55.742099-13.078812 15.147089 3.447129 30.28404 12.054812 45.42099 26.502337l30.973465 30.973465zM475.257663 798.841663c0.172356-9.124752 0.172356-17.722297-0.172356-25.630415 12.906455 0.506931 26.32998 2.575208 40.098218 6.022336l-43.362852 43.352713 11.527604 11.527604 56.603881-56.603881-9.804039-9.80404c-19.790574-5.677624-38.364515-8.78004-55.742099-9.631683-0.517069-7.056475-1.216634-13.251168-1.895921-18.756436l19.618218-19.618217-7.573545-7.573545c-16.171089-10.665822-30.111683-17.722297-41.46693-21.504l-6.194693 14.102812c9.631683 3.447129 20.307644 8.26297 32.007603 15.147089l-18.249504 18.239366-71.913189-71.923326c-8.952396-8.942257-18.06701-9.124752-26.664554-0.506931l-16.525941 16.505663 8.78004 13.595881c4.643485-5.677624 9.28697-11.010535 14.102812-15.826376 3.447129-3.447129 7.401188-3.274772 11.527604 0.861782l69.003406 68.993268-24.778773 24.768633 11.527604 11.537743 33.376317-33.386455c1.206495 14.63002 1.723564 31.318178 1.378852 49.557544l14.802376-3.447129z m242.606891-311.417663l-61.257504-61.257505-12.206892 12.21703 49.892119 49.892119-67.959128 67.969267-50.246971-50.24697-12.389386 12.389386 61.602218 61.602218 92.565544-92.565545z m-76.049742 31.30804l12.21703-12.21703-11.872317-11.862178c-17.377584-16.008871-36.651089-23.582416-57.63802-22.548278-19.962931 1.723564-44.914059 12.21703-74.670891 31.662892l3.954059 18.067009c29.249901-19.618218 52.477465-30.456396 70.027406-32.524673 17.205228-0.689426 32.342178 5.170693 46.110416 17.549941l11.862178 11.872317z m-6.194693-132.825981l-33.376317 33.376317c-10.665822 10.665822-10.493465 21.514139 0.344713 32.342178l33.031604 33.051882 11.872317-11.882456-30.456396-30.456396c-4.988198-4.988198-4.988198-10.138614 0.172356-15.309307l27.526337-27.526336c3.619485-3.619485 7.228832-5.170693 10.848317-4.988198 4.46099 0.334574 12.551604 5.677624 24.596277 16.343445l7.745901-14.974733c-15.826376-13.758099-27.181624-20.297505-33.893386-20.125148-5.84998 0.344713-11.872317 3.609347-18.411723 10.148752z m68.648554 241.400396l12.21703-12.217029-55.914455-55.924594-12.21703 12.217029 55.914455 55.924594z m-40.949861 26.492198l11.872317-11.862178-44.386852-44.407128-11.872317 11.882455 44.386852 44.386851z m66.935129-101.000871c-15.998733-4.988198-31.318178-7.218693-45.593347-6.701624l-0.689426 17.894654c23.217426-0.172356 46.455129 5.505267 69.337981 17.032871l8.769901-14.974733c-5.332911-2.575208-10.493465-4.988198-15.481664-7.228831l50.753901-50.753901-11.182891-11.182891-55.914455 55.914455z m9.976396-20.642218c4.126416-15.826376 6.36705-32.17996 6.711762-49.040475l-16.343446-1.196356c0 17.539802-1.723564 34.410455-5.33291 50.753901l14.964594-0.51707zM869.284752 417.56895l9.631684-12.389386c-4.643485-1.895921-9.124752-3.619485-13.930456-4.988198l45.42099-45.42099-8.607683-8.617822c-13.930455-4.288634-29.249901-5.150416-45.927921-2.230495 6.012198-17.032871 14.447525-34.755168 25.802773-52.994534l-15.826377-2.747565c-12.21703 21.159287-20.986931 40.949861-26.32998 59.696159-20.297505 6.194693-42.328713 16.870653-66.245703 32.17996l4.481268 15.481664c20.814574-14.619881 40.250297-25.113347 57.982732-31.480396-2.230495 11.182891-3.274772 21.848713-2.930059 31.835247a166.678812 166.678812 0 0 0-30.963327 4.126416l2.058139 15.816238c24.94099-6.356911 46.799842-5.839842 65.38392 1.723564z m-18.239366-58.155089c13.585743-3.274772 26.157624-3.791842 37.685228-1.551208l-39.064079 39.053941c-1.368713 0-2.575208-0.172356-3.609347-0.506931 0.172356-11.882455 1.895921-24.271842 4.988198-37.00594z m-80.348515-12.217029a554.227327 554.227327 0 0 0 47.489268-84.312713l-14.112951-5.84998a551.043802 551.043802 0 0 1-47.489267 85.681425l14.11295 4.481268z m41.973862 6.184554a311.235168 311.235168 0 0 0 20.824713-53.156752l-14.802377-3.102416a244.401426 244.401426 0 0 1-19.952792 53.68396l13.940594 2.585347z m158.13196-7.735762L820.578851 195.442059l-12.044673 12.034535 7.056475 7.056475-116.310178 116.310179-7.056475-7.046337-12.044673 12.044673 150.213703 150.203565 140.399524-140.399525z m-260.501544-3.781703L826.601188 225.533465 947.737347 346.689901 831.427168 462.979802 710.29101 341.863921z"  horiz-adv-x="1034" />

    
    <glyph glyph-name="-flow-chart" unicode="&#59128;" d="M936.915478 214.038261h-42.362435V426.518261H553.561043v127.777391h42.340174c46.747826 0 85.437217 37.977043 85.437218 85.437218V809.872696c0 46.747826-37.977043 85.437217-85.437218 85.437217h-170.139826a85.548522 85.548522 0 0 1-85.437217-85.437217v-170.139826c0-46.725565 37.977043-85.414957 85.437217-85.414957h42.362435v-127.777391H127.844174v-213.23687H85.481739a85.548522 85.548522 0 0 1-85.414956-85.437217v-170.139826c0-46.747826 37.954783-85.437217 85.414956-85.437218h170.139826c46.747826 0 85.437217 37.977043 85.437218 85.437218v170.874434c0 46.747826-37.977043 85.437217-85.437218 85.437218H213.281391v127.777391h596.591305v-127.777391h-42.362435a85.548522 85.548522 0 0 1-85.437218-85.437218v-170.139826c0-46.747826 37.977043-85.437217 85.437218-85.437217h170.139826c46.725565 0 85.414957 37.977043 85.414956 85.437217v170.139826c-0.712348 46.747826-38.689391 85.437217-86.149565 85.437218zM425.761391 639.73287V809.872696h170.139826v-170.139826h-170.139826z m-170.139826-511.131827v-170.139826H85.481739v170.139826h170.139826z m681.293913-170.139826h-170.139826v170.139826h170.139826v-170.139826z"  horiz-adv-x="1024" />

    
    <glyph glyph-name="-watermark" unicode="&#59127;" d="M199.389867 243.529956h7.5264c53.930667-114.949689 170.712178-194.56 306.090666-194.56 135.3728 0 252.16 79.610311 306.090667 194.56h7.5264c-54.408533-118.829511-174.375822-201.386667-313.617067-201.386667-139.246933 0-259.208533 82.557156-313.617066 201.386667h-26.112c55.933156-132.380444 186.9824-225.28 339.729066-225.28s283.795911 92.899556 339.723378 225.28H199.395556z m0 286.72c54.408533 118.840889 174.370133 201.386667 313.617066 201.386666 139.241244 0 259.208533-82.545778 313.617067-201.386666h-7.5264c-53.930667 114.955378-170.717867 194.56-306.090667 194.56-135.378489 0-252.16-79.604622-306.090666-194.56h-7.5264 653.340444c-55.927467 132.380444-186.976711 225.28-339.723378 225.28s-283.795911-92.899556-339.729066-225.28h26.112z m-98.258489-85.333334h-34.048l33.069511-106.131911-33.058133-105.494755H162.816c1.006933-2.286933 2.030933-4.562489 3.077689-6.826667H57.799111l35.202845 112.327111-35.197156 112.952889h43.326578v-6.826667z m819.2 0v6.826667h46.637511l-35.191467-112.952889 35.202845-112.327111H860.103111c1.052444 2.264178 2.076444 4.539733 3.083378 6.826667h94.492444l-33.063822 105.494755 33.0752 106.131911h-37.364622z m11.127466-105.107911v-2.036622l0.318578 1.018311-0.318578 1.018311zM101.131378 482.463289v47.786667h57.372444c56.706844 140.105956 194.065067 238.933333 354.503111 238.933333 160.438044 0 297.790578-98.827378 354.503111-238.933333h52.821334v-47.786667h84.184178l-43.008-143.672889 43.019377-143.047111h-160.369777c-66.104889-114.267022-189.650489-191.146667-331.150223-191.146667-141.505422 0-265.045333 76.879644-331.150222 191.146667H19.131733l43.013689 143.047111-43.002311 143.672889h81.988267z m766.378666-238.933333a380.416 380.416 0 0 0-15.826488-34.133334h134.479644l-38.906311 129.3824 38.917689 130.030934h-65.8432v-225.28h-52.821334z m-709.006222 0H101.131378v225.28H37.484089l38.912-130.030934-38.900622-129.3824h136.829155a380.410311 380.410311 0 0 0-15.8208 34.133334z m-43.719111 273.066666v-259.413333h791.893333v259.413333h-791.893333z m398.222222 157.013334a13.653333 13.653333 0 1 0 0 27.306666 13.653333 13.653333 0 0 0 0-27.306666z m168.527645-54.755556a13.653333 13.653333 0 1 0 16.054044 22.089956 13.653333 13.653333 0 0 0-16.054044-22.089956z m0-463.9232a13.653333 13.653333 0 1 0 16.054044-22.089956 13.653333 13.653333 0 0 0-16.054044 22.089956z m-168.527645-54.761244a13.653333 13.653333 0 1 0 0-27.306667 13.653333 13.653333 0 0 0 0 27.306667z m-168.533333 54.761244a13.653333 13.653333 0 1 0-16.042667-22.089956 13.653333 13.653333 0 0 0 16.042667 22.089956z m0 463.9232a13.653333 13.653333 0 1 0-16.042667 22.089956 13.653333 13.653333 0 0 0 16.042667-22.089956z"  horiz-adv-x="1024" />

    
    <glyph glyph-name="-org-flash" unicode="&#59124;" d="M374.74 298.764H171.937c-26.477 0-44.739 25.649-35.328 49.591L338.143 860.258a37.79 37.79 0 0 0 35.304 23.552h340.066c26.819 0 45.104-26.308 34.986-50.372L631.154 554.715h220.891c32.5 0 49.835-37.059 28.404-60.684L338.899-103.18c-26.331-29.014-75.142-3.877-64.926 33.475l100.766 368.47z"  horiz-adv-x="1024" />

    
    <glyph glyph-name="-org-qrcode" unicode="&#59125;" d="M0-128h464V336H0v-464z m92.8 371.2h278.4v-278.4H92.8V243.2zM185.6 150.4h92.8v-92.8h-92.8z m560-185.6h92.8v-92.8h-92.8z m185.6 0h92.8v-92.8h-92.8zM931.2 243.2h-92.8V336H560v-464h92.8V150.4h92.8v-92.8H1024V336h-92.8zM0 432h464V896H0v-464zM92.8 803.2h278.4v-278.4H92.8V803.2zM185.6 710.4h92.8v-92.8h-92.8zM560 896v-464h464V896H560z m371.2-371.2H652.8V803.2h278.4v-278.4zM745.6 710.4h92.8v-92.8h-92.8z"  horiz-adv-x="1024" />

    
    <glyph glyph-name="-org-dingding" unicode="&#59126;" d="M161.631064 580.161849c-56.511828 113.022657-73.464777 203.440382-50.859845 259.952211 28.254914 67.812794 84.766743 50.859846 96.068708 45.208862 16.952949-5.651983 440.786661-192.138416 548.158335-226.045313 113.021657-33.906897 203.439382-96.068708 169.533485-214.742348-11.302966-22.603931-39.55788-79.11576-90.417725-169.533485 33.905897-11.301966 50.859846-33.906897 50.859845-79.11576 0-62.161811-192.138416-282.555142-209.091365-305.159073-16.953949-22.604931-56.510828-22.604931-73.464777-11.302966-16.952949 5.650983-33.906897 33.906897-33.906897 50.859846 0 28.255914 5.650983 73.464777 11.302966 124.324622-39.55788 11.301966-62.162811 28.255914-62.162811 56.510829v50.859845c-62.161811-5.649983-113.022657 5.651983-152.579537 45.209863-62.162811 56.509828-79.11576 84.766743-90.418725 135.626588-33.905897 22.603931-84.766743 62.161811-113.021657 124.324622-5.650983 33.906897-16.953949 50.859846-11.302966 90.417726 0 5.650983 5.651983 11.301966 11.302966 22.603931z m129.975605 203.440382c-33.906897 16.953949-90.417725 50.859846-124.324622 39.55788-28.255914-11.301966 5.650983-135.626588 39.55788-197.789399 22.603931-45.208863 113.021657-79.11476 265.602193-113.021657-135.626588 22.603931-209.091365 33.906897-231.695296 33.906897-28.255914 0-39.55788-22.604931-33.906897-45.209862 22.603931-45.208863 50.859846-84.765743 118.673639-113.021657 28.254914-11.301966 118.67264-11.301966 169.533485-11.301966-50.859846-5.651983-135.627588-11.302966-152.580536-22.604931-33.906897-33.906897 56.510828-101.719691 90.417725-124.324623 33.906897-22.603931 107.371674-16.952949 135.626588 0 16.953949 11.301966 28.255914 0 28.255915-5.650982s-11.301966-45.209863-16.952949-73.464777c-5.651983-28.254914 0-39.55788 16.952949-45.208863h50.859845l5.650983-5.649983c-11.301966-67.814794-22.603931-141.279571-22.603931-146.929554 0-5.651983 5.649983-5.651983 11.301965 0 84.766743 107.370674 152.579537 192.137416 175.184468 220.393331 11.301966 16.952949 0 39.55788-11.301965 39.55788h-73.464777c90.417725 158.230519 135.626588 237.346279 141.278571 248.649245 11.301966 28.254914 5.649983 96.068708-73.464777 124.324622-84.766743 16.952949-469.042575 180.835451-508.600456 197.789399zM630.67364-126.227005c-11.301966 0-22.604931 0-28.255915 5.649982-22.603931 5.651983-39.55788 33.907897-33.906897 56.511829 0 28.255914 5.650983 67.813794 11.302966 118.673639-39.55788 11.301966-62.162811 33.906897-62.162811 56.510829v50.859845c-62.161811-5.649983-113.022657 5.651983-152.579537 45.209863-62.162811 50.859846-79.11576 79.11476-96.069708 135.626588-16.952949 11.301966-79.11576 56.510828-107.370674 124.324622-11.302966 33.906897-16.953949 50.859846-11.302966 90.417726 0 5.650983 5.651983 11.301966 5.651983 22.603931-56.511828 113.022657-73.464777 203.440382-50.859845 259.952211 11.301966 28.254914 28.254914 45.208863 50.859845 50.859845 22.603931 5.649983 45.208863 0 50.859846 0 5.649983 0 435.135678-186.487434 548.158335-226.045313 146.929554-45.208863 203.439382-118.67264 175.184468-220.393331-11.301966-22.603931-39.55788-79.11576-90.417725-169.533485 33.906897-11.301966 50.859846-39.55788 50.859845-79.11576 0-56.510828-141.277571-220.393331-192.138416-282.555142-5.649983-11.302966-16.952949-16.953949-16.952949-22.604931-16.952949-16.952949-33.906897-16.952949-50.859845-16.952948zM517.649983 167.631102v-56.511828c0-22.603931 22.604931-39.55788 62.162811-50.859846-5.651983-50.859846-5.651983-90.417725-11.302966-124.324622 0-16.952949 11.302966-45.208863 33.906897-50.859846 16.953949-5.650983 50.859846-11.301966 67.813794 11.301966 0 5.650983 11.301966 11.302966 16.952949 22.604931 45.209863 56.510828 192.138416 226.044313 192.138416 282.555142 0 39.55788-16.953949 62.162811-50.859845 73.464777h-5.651983v5.650983c50.859846 90.417725 79.11576 146.929554 90.417725 169.533485 28.255914 101.719691-22.603931 163.882502-169.533485 214.742348C630.67364 698.835489 195.536961 890.973905 189.886978 890.973905c-5.651983 0-22.604931 11.301966-45.209862 0-5.649983-11.302966-22.603931-28.255914-33.905897-50.859845-22.604931-56.511828-5.651983-146.929554 50.859845-259.952211-5.650983-11.301966-5.650983-16.952949-5.650983-22.603931-5.651983-33.906897 0-56.510828 11.301966-84.766743 22.603931-56.510828 73.464777-101.719691 107.370674-124.324622 11.302966-45.209863 22.604931-79.11576 90.418725-135.626588 39.55688-39.55788 90.417725-56.511828 152.579537-45.209863z m118.673639-220.394331c-5.650983 0-5.650983 0 0 0-5.650983 0-5.650983 5.651983-5.650982 5.651983s0 11.301966 5.649982 28.254915c5.651983 28.255914 11.302966 79.11576 22.604932 124.324622v5.650983h-50.859846c-5.649983 0-11.301966 0-16.952948 5.650983-5.650983 5.651983-5.650983 22.604931 0 39.557879 5.650983 16.953949 11.301966 45.209863 11.301965 62.162812v11.301965s0 5.650983-5.650982 5.650983c-5.650983 5.650983-11.301966 0-16.952949 0-28.255914-16.952949-101.719691-22.603931-135.627588 0-22.603931 16.953949-90.417725 67.813794-96.068708 107.371674 0 11.301966 0 16.952949 5.650983 22.603931s33.906897 11.302966 62.162811 11.302966c-50.859846-5.651983-79.11576 0-90.417726 5.649983-73.464777 33.907897-101.719691 79.11676-118.673639 118.67464-5.650983 11.301966 0 22.603931 5.649983 33.905897 0 5.650983 11.302966 16.953949 28.256914 16.953948s62.161811-5.650983 141.277571-22.604931c-101.719691 28.255914-158.231519 56.511828-175.184468 90.417725-33.906897 56.511828-62.162811 158.231519-50.859846 192.138417 0 5.650983 5.649983 11.301966 11.301966 11.301965C195.537961 834.462077 235.094841 811.858146 269.000738 800.55718c5.650983-5.651983 16.953949-11.302966 22.604931-16.953949 45.208863-16.952949 423.833713-175.184468 502.948473-197.789399 45.209863-11.301966 62.162811-39.55688 73.464777-56.509828 11.302966-28.255914 11.302966-50.860846 5.651983-67.813794-5.651983-5.651983-50.859846-84.766743-135.627589-242.999262h67.813795c5.650983 0 11.301966-5.649983 16.952948-11.300966 5.650983-11.302966 5.650983-22.604931 0-28.255914-22.603931-28.255914-84.766743-113.022657-175.184468-220.393331-5.649983-11.302966-11.301966-11.302966-11.301966-11.302966z m11.301966 163.882503c5.650983 0 5.650983 0 0 0 5.650983-5.649983 5.650983-5.649983 5.650983-11.301966-5.649983-45.208863-16.952949-90.417725-22.603931-124.324622 0-16.952949-5.650983-22.603931-5.650983-28.255915l5.649983 5.651983C721.092365 65.909411 788.906159 145.026171 805.859108 173.282085c5.650983 5.649983 5.650983 16.952949 0 22.603931s-5.650983 11.302966-11.301966 11.302966H715.439382v5.649983c90.417725 158.231519 135.626588 237.347279 141.277571 242.999262 5.650983 11.301966 5.650983 39.55688-5.650983 62.161811-11.301966 16.952949-28.255914 45.208863-67.813794 56.510828-67.812794 28.255914-452.088627 186.487434-491.646507 203.440383-11.301966 5.650983-16.953949 11.301966-28.255914 16.952948-33.906897 16.953949-67.812794 33.906897-90.417725 28.255914-5.650983 0-5.650983-5.650983-5.650983-11.301965-16.953949-33.906897 11.301966-129.975605 39.55788-186.487434 22.603931-39.55688 113.021657-79.11476 265.602193-113.021657v-5.650983c-135.626588 22.603931-209.091365 39.55788-231.695296 39.55788-11.302966 0-22.604931-5.651983-28.255914-11.302965-5.650983-11.301966-5.650983-22.603931-5.650983-28.254915 16.952949-39.55788 45.208863-84.766743 113.021657-113.022656 28.255914-11.301966 129.976605-11.301966 169.533485-11.301966v-5.650983c-50.859846 0-135.626588-5.651983-146.928554-16.953948 0-11.301966-5.650983-16.952949 0-22.603932 5.650983-33.906897 67.813794-84.766743 96.069708-101.719691 33.905897-22.604931 101.719691-16.953949 129.974605 0 11.302966 5.649983 16.953949 5.649983 22.604932 0 5.650983-5.651983 5.650983-5.651983 5.650983-11.302965v-11.301966c-5.650983-16.953949-11.301966-45.209863-11.301966-62.162811-5.650983-16.952949-5.650983-28.254914 0-33.906897 0-5.649983 5.649983-5.649983 11.301966-5.649983h50.859845z"  horiz-adv-x="1024" />

    
    <glyph glyph-name="-uploader" unicode="&#59123;" d="M614.4 315.733333h102.4a34.133333 34.133333 0 1 0 0-68.266666H614.4V145.066667a34.133333 34.133333 0 1 0-68.266667 0v102.4h-102.4a34.133333 34.133333 0 1 0 0 68.266666H546.133333V418.133333a34.133333 34.133333 0 1 0 68.266667 0v-102.4zM102.4 827.733333A34.133333 34.133333 0 0 1 68.266667 793.6v-819.2A34.133333 34.133333 0 0 1 102.4-59.733333h955.733333a34.133333 34.133333 0 0 1 34.133334 34.133333v614.4a34.133333 34.133333 0 0 1-34.133334 34.133333H600.223289a102.4 102.4 0 0 0-85.583645 46.193778l-83.922488 127.817956A68.266667 68.266667 0 0 1 373.668978 827.733333H102.4z m0 68.266667h271.246222a136.533333 136.533333 0 0 0 114.141867-61.599289l83.922489-127.7952A34.133333 34.133333 0 0 1 600.223289 691.2H1058.133333a102.4 102.4 0 0 0 102.4-102.4v-614.4a102.4 102.4 0 0 0-102.4-102.4h-955.733333A102.4 102.4 0 0 0 0-25.6v819.2A102.4 102.4 0 0 0 102.4 896z"  horiz-adv-x="1160" />

    
    <glyph glyph-name="-org-copy-to" unicode="&#59122;" d="M1019.95859272 890.14259542a27.22798128 27.22798128 0 0 1-27.45678786 6.06337399L25.56525938 561.2331576199999a26.54156159 26.54156159 0 0 1-16.35966943-33.74896841c2.17366237-6.6353904 6.97860026-11.8979414 13.72839391-14.87242675l395.37774506-186.82056069 414.13988343 350.7604648-370.66663599-397.32260084 190.13825586-389.77198424a26.65596486 26.65596486 0 0 1 49.19341158 3.08888865l325.01972618 970.71185383a25.16872219 25.16872219 0 0 1-6.17777726 26.77036817"  horiz-adv-x="1024" />

    
    <glyph glyph-name="-org-add" unicode="&#59113;" d="M59.52607911 402.85308003h904.94784178M968.54618619 346.29383993H55.45381381C36.8646769 346.29383993 21.81991902 363.18619965000005 21.81991902 384s15.04475787 37.70616007 33.63389479 37.70616007h913.09237238c18.58913692 0 33.63389478-16.89235971 33.63389479-37.70616007s-15.08246403-37.70616007-33.63389479-37.70616007M493.14691997-68.47392089000004V836.47392089M512-106.18008097999996c-20.81380035 0-37.70616007 15.08246403-37.70616007 33.63389479V840.54618619c0 18.58913692 16.89235971 33.63389478 37.70616007 33.63389479s37.70616007-15.08246403 37.70616007-33.63389479v-913.09237238c0-18.58913692-16.89235971-33.63389478-37.70616007-33.63389479"  horiz-adv-x="1024" />

    
    <glyph glyph-name="-org-draft" unicode="&#59114;" d="M739.12416441 578.9818094699999l100.40780749 182.74031722a30.0939525 30.0939525 0 0 1-0.09463461 29.00564746 27.72807477 27.72807477 0 0 1-24.13194243 14.47916548H208.69460514a28.48515634 28.48515634 0 0 1-27.91734398-29.05296556v-793.60968305c0-16.04064355 12.49182931-29.05296555 27.91734398-29.05296711 15.37819815 0 27.91734556 13.01232199 27.91734557 29.05296711v370.16507024h578.69344415c9.93668236 0 19.16360126 5.48883387 24.13194243 14.47916545a30.0939525 30.0939525 0 0 1 0.09463461 29.00564745L739.12416441 578.9818094699999z"  horiz-adv-x="1024" />

    
    <glyph glyph-name="-org-delete" unicode="&#59115;" d="M392.26453055 92.59839942999997c-19.71840695 0-35.6919736 15.90728628-35.69197359 35.5262727V502.74126405c0 19.61898642 15.97356663 35.52627269 35.69197359 35.5262727s35.6919736-15.90728628 35.69197359-35.5262727v-374.61659192c0-19.61898642-15.97356663-35.52627269-35.69197359-35.5262727m202.88418046 0c-19.71840695 0-35.65883341 15.90728628-35.65883343 35.5262727V502.74126405c0 19.61898642 15.94042646 35.52627269 35.65883343 35.5262727 19.71840695 0 35.6919736-15.90728628 35.69197359-35.5262727v-374.61659192c0-19.61898642-15.97356663-35.52627269-35.69197359-35.5262727M937.85130983 675.40160057H83.8288776c-19.75154713 0-35.79139413 15.34390323-35.79139413 34.30008604 0 18.92304265 16.03984701 34.26694587 35.79139413 34.26694587h854.02243223c19.8178275 0 35.82453431-15.34390323 35.82453431-34.26694587 0-18.95618282-16.00670683-34.30008605-35.79139413-34.30008604M593.62426273 812.53566439h-199.8352839c-20.54691145 0-37.21642187 15.34390323-37.21642187 34.30008604 0 18.92304265 16.66951042 34.26694587 37.24956205 34.26694587h199.80214372c20.54691145 0 37.21642187-15.34390323 37.21642187-34.26694587 0-18.95618282-16.63637024-34.30008605-37.21642187-34.30008604M739.87187598-113.10269630000005H281.84145162c-72.21245168 0-130.96999038 57.33251097-130.96999039 127.82167331V709.10516338c0 19.22130427 15.74158539 34.83032893 35.12859054 34.83032892 19.45328551 0 35.12859054-15.57588448 35.12859054-34.79718875v-694.45246672c0-32.04655382 27.24122775-58.16101547 60.71280931-58.16101546h458.03042436c33.47158155 0 60.67966913 26.11446164 60.67966914 58.16101546V709.10516338c0 19.22130427 15.70844521 34.83032893 35.12859053 34.83032892 19.42014533 0 35.12859054-15.57588448 35.12859054-34.79718875v-694.45246672c0-70.48916234-58.72439853-127.8216733-130.90371003-127.82167331"  horiz-adv-x="1024" />

    
    <glyph glyph-name="-org-approve" unicode="&#59116;" d="M52.59230871-4.0022478399999954h918.81538258V-101.05212371000005H52.59230871v97.04987587z m850.88047097 259.852476h-222.8701562c-20.09908565 22.74068032-34.39815174 48.4675113-36.75261515 77.41019566-9.59013548 118.12520285 123.35096557 174.68977426 123.35096555 319.57547608C767.20097388 775.95716083 669.40456133 875.18922214 512 875.18922214c-157.34713465 0-255.25839861-99.23206128-255.25839861-222.23847088 0-145.00055316 132.94110105-201.56512461 123.40839028-319.69032744-2.35446532-28.88525776-16.65352953-54.66951539-36.75261515-77.35276904h-222.8701562c-18.03175157 0-35.31696644-6.89111604-48.0655306-19.00799481a63.16855811 63.16855811 0 0 1-19.86938101-45.82591665v-130.7589137h918.81538258v130.5866357c0 17.17036162-7.06339407 33.70903973-19.8119563 45.88334324a69.82996956 69.82996956 0 0 1-48.12295531 19.12284622v-0.05742662z"  horiz-adv-x="1024" />

    
    <glyph glyph-name="-org-detail" unicode="&#59117;" d="M731.70903586 384L292.29096414 823.36628978 365.56183111 896.63715555l439.36628858-439.36628978L878.09542281 384l-512.63715556-512.63715555-73.21908384 73.27086577L731.70903586 384z"  horiz-adv-x="1024" />

    
    <glyph glyph-name="-org-signature" unicode="&#59118;" d="M31.25897538-97.51113278000003l94.46570596 330.77354016 236.13555431-236.36525896L31.25897538-97.51113278000003z m330.60126027 93.94887384l-235.7335736 236.13555431 518.90098861 518.843562 235.61872034-235.84842495-518.78613535-519.13069136z m625.19644207 625.94298067L916.48017147 551.40223284l-235.61872034 236.02070299 70.63393289 70.80620899c26.01396035 25.95653372 67.01609689 27.56446233 91.30727913 2.87129929l147.41244322-147.41244323c24.17632902-24.52088501 22.85553358-65.4655968-3.15842865-91.36470577z"  horiz-adv-x="1024" />

    
    <glyph glyph-name="-org-movedown" unicode="&#59119;" d="M119.3044079 728.95386218h307.7900192c15.96078452 0 29.17940789-15.53891364 29.17940789-34.90982171 0-19.30059668-13.21862338-34.80435379-29.17940789-34.80435379H119.26925219C103.27331115 659.20453098 90.125 674.74344378 90.125 694.00888477c0 19.37090808 13.14831115 34.90982171 29.14425219 34.90982171H119.3044079z m-1e-8-307.36814832h307.79001921c15.96078452 0 29.17940789-15.46860142 29.17940789-34.80435378 0-19.40606378-13.21862338-34.87466602-29.17940789-34.87466602H119.26925219c-15.99594022 0-29.14425219 15.46860142-29.14425219 34.83951032 0 19.37090808 13.14831115 34.83950949 29.14425219 34.83950948H119.3044079z m0-307.29783608h307.79001921c15.96078452 0 29.17940789-15.53891364 29.17940789-34.83951032 0-19.37090808-13.21862338-34.90982171-29.17940789-34.90982171H119.26925219c-15.99594022 0-29.14425219 15.53891364-29.14425219 34.90982171 0 19.30059668 13.14831115 34.80435379 29.14425219 34.80435461H119.3044079zM797.60259534-37.866914329999986a33.81998841 33.81998841 0 0 0-25.55834931 12.30456939l-233.47041889 283.84884284a35.64809556 35.64809556 0 0 0-7.52336525 35.15591326 34.20670358 34.20670358 0 0 0 26.64818178 23.30836963 33.46842893 33.46842893 0 0 0 32.48406436-13.32409048l169.38118928-205.9433388 6.57415557 673.51698247c0 19.26544015 15.18735415 34.87466602 33.89029981 34.87466602s33.89030063-15.60922503 33.89030064-34.87466602v-668.9115585l181.40451141 201.72463001a33.18718167 33.18718167 0 0 0 47.77688562 3.05856409c13.99205374-12.7615968 15.32797778-34.80435379 2.95309698-49.21827841l-242.75157989-283.67306268a32.23797198 32.23797198 0 0 0-25.69897211-11.84754282z"  horiz-adv-x="1194" />

    
    <glyph glyph-name="-org-moveup" unicode="&#59120;" d="M119.30468723 728.95312473h307.79296902c15.96093777 0 29.17968723-15.53906277 29.17968723-34.91015625 0-19.30078125-13.21875027-34.8046875-29.17968723-34.8046875H119.26953152C103.27343723 659.20312527 90.125 674.74218723 90.125 694.00781277c0 19.37109348 13.14843723 34.91015625 29.14453152 34.91015625H119.30468723z m0-307.37109321h307.79296902c15.96093777 0 29.17968723-15.46874973 29.17968723-34.8046875 0-19.40625-13.21875027-34.87499973-29.17968723-34.87500054H119.26953152c-15.99609348 0-29.14453152 15.46874973-29.14453152 34.83984402 0 19.37109348 13.14843723 34.83984402 29.14453152 34.83984402H119.30468723z m0-307.30078179h307.79296902c15.96093777 0 29.17968723-15.53906277 29.17968723-34.83984321 0-19.37109348-13.21875027-34.91015625-29.17968723-34.91015625H119.26953152c-15.99609348 0-29.14453152 15.53906277-29.14453152 34.91015625 0 19.30078125 13.14843723 34.8046875 29.14453152 34.8046875H119.30468723zM806.22265598 805.875c9.84375027-0.17578098 19.1953125-4.640625 25.5234375-12.30468723l233.5078125-283.85156277c8.61328098-9.38671875 11.53125027-22.92187527 7.48828125-35.15625027a34.20703152 34.20703152 0 0 0-26.64843723-23.30859375 33.46875027 33.46875027 0 0 0-32.484375 13.32421902L844.2265625 670.52343723l-6.57421902-673.5234375c0-19.26562473-15.15234348-34.87499973-33.85546875-34.87499973-18.73828098 0-33.89062527 15.609375-33.89062446 34.87499973V665.91796875l-181.40625-201.72656223a33.18749973 33.18749973 0 0 0-47.81250027-3.05859375 35.54296875 35.54296875 0 0 0-2.91796848 49.21874973L780.48828098 793.99218777a32.23828098 32.23828098 0 0 0 25.66406277 11.84765571z"  horiz-adv-x="1194" />

    
    <glyph glyph-name="-org-locked" unicode="&#59121;" d="M523.14063745 780.83198347c47.31899194 0 91.93896451-19.98423426 125.64800233-56.27744208 33.88131775-36.29320779 52.42990332-84.30131173 52.42990331-135.12328836v-203.40275592c0-29.05753577-6.08715269-66.26956016-17.11293688-104.80238a558.41004981 558.41004981 0 0 0-48.52493791-117.3212376c-20.09908565-35.77637381-42.32293388-64.60420682-64.31707555-83.66962634-12.28915488-10.5089502-30.66546435-23.20008769-48.1229553-23.20008959h-22.2812749c-17.45749284 0-35.83380044 12.57628615-48.06552866 23.20008959-22.05156834 19.06541954-44.33284318 47.8932526-64.31707744 83.66962634A565.64572189 565.64572189 0 0 0 339.72211574 281.34097036000003c-11.02578417 38.47539513-17.11293689 75.62999101-17.11293683 104.80238003V589.43125303c0 50.82197663 18.54858557 98.77265392 52.4299033 135.06586172 33.82389111 36.35063444 78.44386368 56.33486869 125.76285564 56.33486872h22.28127293z m0 95.72907854h-22.2812749c-146.95303588 0-267.14557277-129.20841365-267.14557276-287.12980898v-203.40275592c0-157.92139338 120.19253691-424.66498544 267.14557276-424.66498544h22.2812749c146.95303588 0 267.14557277 266.74359204 267.14557276 424.66498544V589.43125303c0 157.92139338-120.19253691 287.12980703-267.14557276 287.12980898zM819.40117258 510.47055732H204.59882742c-52.02792068 0-94.58055918-40.65758053-94.58055728-90.38846448v-429.37391417c0-49.73088199 42.49521188-90.38846254 94.58055728-90.38846254h614.80234516C871.48651991-99.68028387000004 913.98172986-59.022703320000005 913.98172986-9.291821329999948v429.37391417c0 49.73088199-42.49521188 90.38846254-94.58055728 90.38846448z m-257.15345657-360.5201879c0-25.55455298-22.51097758-46.22789925-50.24771601-46.22789923s-50.24771601 20.67334626-50.24771601 46.22789923v161.76893404c0 25.55455298 22.51097758 46.22789925 50.24771601 46.22789926s50.24771601-20.67334626 50.24771601-46.22789926v-161.76893404z"  horiz-adv-x="1024" />

    
    <glyph glyph-name="-formpop-error" unicode="&#59110;" d="M508.905615 896a92.136186 92.136186 0 0 0 92.088558-95.208186l-18.265302-547.816186a73.870884 73.870884 0 0 0-147.646512 0L416.817057 800.791814A92.136186 92.136186 0 0 0 508.929429 896zM512.025243 62.511628a95.255814 95.255814 0 1 0 0-190.511628 95.255814 95.255814 0 0 0 0 190.511628z"  horiz-adv-x="1024" />

    
    <glyph glyph-name="-formpop-fail" unicode="&#59111;" d="M644.370732 391.39278l360.947512-406.053463a39.960976 39.960976 0 0 0-1.598439-54.796488l-30.944781-30.969756a39.960976 39.960976 0 0 0-54.796487-1.598439L510.826146 259.896195 122.505366-84.417561a39.960976 39.960976 0 0 0-54.746537 1.64839L36.714146-51.774439a39.960976 39.960976 0 0 0-1.64839 54.771512L379.379512 391.267902 17.507902 798.445268A39.960976 39.960976 0 0 0 19.106341 853.291707L50.076098 884.211512A39.960976 39.960976 0 0 0 104.84761 885.809951l406.12839-360.897561L917.978537 885.859902a39.960976 39.960976 0 0 0 54.771512-1.623414l30.994731-30.994732a39.960976 39.960976 0 0 0 1.648391-54.771512L644.370732 391.39278z"  horiz-adv-x="1024" />

    
    <glyph glyph-name="-formpop-success" unicode="&#59112;" d="M514.56 180.856471L1306.533647 875.309176a71.228235 71.228235 0 0 0 97.340235-3.19247c26.292706-26.292706 26.985412-68.698353 1.566118-95.834353L650.812235-29.545412a101.586824 101.586824 0 0 0-19.154823-26.684235l-33.28-33.28c-13.552941-13.552941-30.027294-22.467765-47.405177-26.714353a101.165176 101.165176 0 0 0-100.773647 25.328941l-38.309647 38.339765a100.803765 100.803765 0 0 0-24.094117 38.430118L44.995765 370.085647c-24.997647 28.009412-23.792941 70.656 2.740706 97.219765a74.932706 74.932706 0 0 0 99.659294 5.632l367.164235-292.080941z"  horiz-adv-x="1445" />

    
    <glyph glyph-name="-delete-document" unicode="&#59109;" d="M512-59.733333C757.077333-59.733333 955.733333 138.922667 955.733333 384S757.077333 827.733333 512 827.733333 68.266667 629.077333 68.266667 384 266.922667-59.733333 512-59.733333z m0-68.266667C229.239467-128 0 101.239467 0 384S229.239467 896 512 896 1024 666.760533 1024 384 794.760533-128 512-128z m-204.8 546.133333h409.6a34.133333 34.133333 0 0 0 0-68.266666h-409.6a34.133333 34.133333 0 0 0 0 68.266666z"  horiz-adv-x="1024" />

    
    <glyph glyph-name="-associated-document" unicode="&#59108;" d="M188.23168 640.04096A81.92 81.92 0 0 1 163.84 581.69344V-46.08h696.32V814.08H398.336a81.92 81.92 0 0 1-57.50784-23.59296l-152.576-150.44608zM130.72384 698.368l152.576 150.44608A163.84 163.84 0 0 0 398.336 896H860.16a81.92 81.92 0 0 0 81.92-81.92v-860.16a81.92 81.92 0 0 0-81.92-81.92H163.84a81.92 81.92 0 0 0-81.92 81.92V581.69344A163.84 163.84 0 0 0 130.72384 698.368zM327.68 486.4h368.64a40.96 40.96 0 1 0 0-81.92H327.68a40.96 40.96 0 1 0 0 81.92z m0-245.76h163.84a40.96 40.96 0 1 0 0-81.92h-163.84a40.96 40.96 0 1 0 0 81.92z"  horiz-adv-x="1024" />

    
    <glyph glyph-name="-tips-failed" unicode="&#59095;" d="M512 455.42287309l392.80055609 392.78372365a67.33242902 67.33242902 0 1 0 95.20805373-95.22488757L607.22488756 360.19798691999995l368.98170918-368.98170917a67.33242902 67.33242902 0 1 0-95.22488757-95.22488757L512 264.97309935l-368.98170917-368.98170917a67.33242902 67.33242902 0 1 0-95.22488757 95.20805373l368.98170918 368.98170917L24.00822265 752.9817091699999a67.33242902 67.33242902 0 1 0 95.2080551 95.22488757L512 455.42287309z"  horiz-adv-x="1024" />

    
    <glyph glyph-name="-tips-success" unicode="&#59096;" d="M361.618286 217.35618999999997l597.357714 540.464762a38.448762 38.448762 0 0 0 52.97981-1.328762 37.497905 37.497905 0 0 0 0.658285-52.358095l-584.789333-614.765714a67.486476 67.486476 0 0 0-10.642286-13.848381 69.753905 69.753905 0 0 0-43.349333-20.23619 71.204571 71.204571 0 0 0-60.099048 20.23619 69.436952 69.436952 0 0 0-13.921524 19.894857L10.898286 410.599619a38.192762 38.192762 0 0 0 1.145904 52.821333 39.887238 39.887238 0 0 0 53.857524 2.328381L361.618286 217.35618999999997z"  horiz-adv-x="1024" />

    
    <glyph glyph-name="-tips-loading" unicode="&#59103;" d="M470.38984078 883.32190493m41.61015922 0l0 0q41.61015922 0 41.61015922-41.61015922l0-166.4406346q0-41.61015922-41.61015922-41.61015922l0 0q-41.61015922 0-41.61015922 41.61015922l0 166.4406346q0 41.61015922 41.61015922 41.61015922ZM835.6527013 766.49835179m29.42282524-29.42282525l0 0q29.42282525-29.42282525 0-58.84565049l-117.69130211-117.69130211q-29.42282525-29.42282525-58.84565049 0l0 0q-29.42282525 29.42282525 0 58.84565049l117.69130211 117.69130211q29.42282525 29.42282525 58.84565049 0ZM1011.32190493 425.61015922m0-41.61015922l0 0q0-41.61015922-41.61015922-41.61015922l-166.4406346 0q-41.61015922 0-41.61015922 41.61015922l0 0q0 41.61015922 41.61015922 41.61015922l166.4406346 0q41.61015922 0 41.61015922-41.61015922ZM894.49835179 60.34729870000001m-29.42282525-29.42282524l0 0q-29.42282525-29.42282525-58.84565049 0l-117.69130211 117.69130211q-29.42282525 29.42282525 0 58.84565049l0 0q29.42282525 29.42282525 58.84565049 0l117.69130211-117.69130211q29.42282525-29.42282525 0-58.84565049ZM553.61015922-115.32190492999996m-41.61015922 0l0 0q-41.61015922 0-41.61015922 41.61015922l0 166.4406346q0 41.61015922 41.61015922 41.61015922l0 0q41.61015922 0 41.61015922-41.61015922l0-166.4406346q0-41.61015922-41.61015922-41.61015922ZM188.3472987 1.5016482099999848m-29.42282524 29.42282525l0 0q-29.42282525 29.42282525 0 58.84565049l117.69130211 117.69130211q29.42282525 29.42282525 58.84565049 0l0 0q29.42282525-29.42282525 0-58.84565049l-117.69130211-117.69130211q-29.42282525-29.42282525-58.84565049 0ZM12.67809507 342.38984078m0 41.61015922l0 0q0 41.61015922 41.61015922 41.61015922l166.4406346 0q41.61015922 0 41.61015922-41.61015922l0 0q0-41.61015922-41.61015922-41.61015922l-166.4406346 0q-41.61015922 0-41.61015922 41.61015922ZM129.50164821 707.6527013m29.42282525 29.42282524l0 0q29.42282525 29.42282525 58.84565049 0l117.69130211-117.69130211q29.42282525-29.42282525 0-58.84565049l0 0q-29.42282525-29.42282525-58.84565049 0l-117.69130211 117.69130211q-29.42282525 29.42282525 0 58.84565049Z"  horiz-adv-x="1024" />

    
    <glyph glyph-name="-tips-singal" unicode="&#59105;" d="M313.63050382 509.66267904l-110.82172302 110.82172302a598.50665301 598.50665301 0 0 1-119.07440413-92.44390286 41.61015922 41.61015922 0 1 0-58.89224476 58.80902429 682.36499285 682.36499285 0 0 0 117.4377381 94.14991985l-30.83312811 30.83312697a41.61015922 41.61015922 0 0 0 58.85063509 58.8506351l647.30149888-647.31536954a41.61015922 41.61015922 0 1 0-58.85063509-58.83676444l-97.72839253 97.74226318a41.44371826 41.44371826 0 0 0-15.95056014 10.23609856A193.44562745 193.44562745 0 0 1 505.75847651 231.42941810000002a193.40401778 193.40401778 0 0 1-137.18869333-56.756257 41.61015922 41.61015922 0 1 0-58.80902428 58.89224477 276.61046557 276.61046557 0 0 0 198.89655808 81.07046002l-130.97490887 130.97490886a387.76506937 387.76506937 0 0 1-146.9393408-92.54099285 41.61015922 41.61015922 0 1 0-58.93385558 58.75354397 471.73436985 471.73436985 0 0 0 141.8351616 97.83935317z m290.34181746-54.96701952L508.22734507 550.44063459a470.16705365 470.16705365 0 0 0 333.76895431-140.94747761 41.61015922 41.61015922 0 1 0-59.33608733-58.35131221 387.29348779 387.29348779 0 0 1-178.68789077 103.55381475z m-233.01688889 233.01688889l-67.79681906 67.79681906A680.21513443 680.21513443 0 0 0 505.75847651 786.23153493c184.11108238 0 356.64067015-73.60837063 483.46843364-201.97571128a41.61015922 41.61015922 0 0 0-59.19738538-58.49001302C818.66687033 638.47386112 667.37233237 703.0112165 505.75847651 703.0112165a598.77018397 598.77018397 0 0 1-134.78917461-15.29866809z m141.72419982-732.20009302a76.28529095 76.28529095 0 1 0 0 152.57058191 76.28529095 76.28529095 0 0 0 0-152.57058191z"  horiz-adv-x="1024" />

    
    <glyph glyph-name="-tips-warning" unicode="&#59107;" d="M510.403048 652.190476a47.164952 47.164952 0 0 0 47.140571-48.737524l-9.350095-280.429714a37.814857 37.814857 0 0 0-75.580953 0l-9.350095 280.429714A47.164952 47.164952 0 0 0 510.415238 652.190476zM512 225.52381000000003a48.761905 48.761905 0 1 0 0-97.52381 48.761905 48.761905 0 0 0 0 97.52381z m0-280.380953c242.371048 0 438.857143 196.486095 438.857143 438.857143S754.371048 822.857143 512 822.857143 73.142857 626.371048 73.142857 384s196.486095-438.857143 438.857143-438.857143z m0-48.761905C242.70019-103.61904800000002 24.380952 114.70019000000002 24.380952 384S242.70019 871.619048 512 871.619048s487.619048-218.319238 487.619048-487.619048-218.319238-487.619048-487.619048-487.619048z"  horiz-adv-x="1024" />

    
    <glyph glyph-name="-form-selected-cor" unicode="&#59094;" d="M28.544 422.304a96.896 96.896 0 0 0 137.856 0l317.024-319.776L1241.6 867.2a96.896 96.896 0 0 0 137.856 0 98.88 98.88 0 0 0 0-139.008L563.84-94.4a113.024 113.024 0 0 0-160.8 0L28.544 283.296a98.88 98.88 0 0 0 0 139.008z"  horiz-adv-x="1408" />

    
    <glyph glyph-name="-supervise-branch" unicode="&#59090;" d="M71.14752 218.25536a39.85408 39.85408 0 0 0 55.25504 11.12064L526.336-36.51584l371.58912 238.8992a39.85408 39.85408 0 1 0 43.1104-67.05152L547.51232-117.63712a39.85408 39.85408 0 0 0-43.6224 0.32768L82.28864 163.00032a39.85408 39.85408 0 0 0-11.12064 55.25504z m55.54176 198.92224l2.78528-1.69984L529.408 149.58592 901.0176 388.5056a39.85408 39.85408 0 0 0 45.7728-65.16736l-2.6624-1.88416-393.5232-252.98944a39.85408 39.85408 0 0 0-40.7552-1.39264l-2.8672 1.7408L85.36064 349.10208a39.85408 39.85408 0 0 0 41.32864 68.07552zM559.7184 868.80256L942.6944 603.4432a53.1456 53.1456 0 0 0-0.75776-87.8592L559.04256 259.85024a53.1456 53.1456 0 0 0-59.02336 0L116.28544 515.9936a53.1456 53.1456 0 0 0-0.67584 87.92064L499.28192 868.84352a53.1456 53.1456 0 0 0 60.45696-0.04096z m-30.3104-75.9808L193.10592 560.57856l336.42496-224.60416 335.6672 224.19456-335.72864 232.6528z"  horiz-adv-x="1024" />

    
    <glyph glyph-name="-supervise-jointly" unicode="&#59091;" d="M840.405333 873.301333l347.050667-347.072a58.176 58.176 0 0 0 0-82.282666l-181.482667-181.482667a58.24 58.24 0 0 0-9.664-12.757333L637.653333-108.970667a58.176 58.176 0 0 0-82.282666 0L34.261333 412.16a58.176 58.176 0 0 0 0 82.282667L392.917333 853.098667a58.176 58.176 0 0 0 82.282667 0l131.349333-131.349334 151.573334 151.552a58.176 58.176 0 0 0 82.282666 0zM434.048 770.816L116.522667 453.290667l480-479.978667 39.893333 39.914667-138.197333 138.197333a29.098667 29.098667 0 0 0 41.152 41.130667l138.176-138.197334 51.690666 51.690667-207.786666 207.829333a29.098667 29.098667 0 1 0 41.130666 41.130667l207.786667-207.786667 51.712 51.669334-138.197333 138.176a29.098667 29.098667 0 0 0 41.152 41.152l138.176-138.197334 49.92 49.941334L585.130667 618.026667a58.410667 58.410667 0 0 0-7.594667 9.344l-143.466667 143.466666z m365.226667 20.202667l-131.008-130.986667 305.92-305.92 130.986666 130.986667-305.92 305.92z"  horiz-adv-x="1216" />

    
    <glyph glyph-name="-supervise-incharge" unicode="&#59092;" d="M502.848 896c161.6 0 292.586667-130.986667 292.586667-292.565333a291.84 291.84 0 0 0-98.666667-219.093334l224.149333-174.336c13.12-10.197333 20.8-25.898667 20.8-42.538666v-241.578667A53.888 53.888 0 0 0 887.829333-128H117.909333A53.888 53.888 0 0 0 64-74.112V167.466667c0 16.64 7.68 32.341333 20.8 42.538666l224.149333 174.336a291.84 291.84 0 0 0-98.666666 219.093334C210.282667 765.013333 341.269333 896 502.848 896z m0-80.853333c-116.906667 0-211.712-94.784-211.712-211.712a210.986667 210.986667 0 0 1 71.402667-158.570667 80.853333 80.853333 0 0 0-3.968-124.330667L144.853333 154.282667v-201.450667h716.032v201.450667l-213.717333 166.250666a80.853333 80.853333 0 0 0-3.989333 124.330667 210.986667 210.986667 0 0 1 71.424 158.570667c0 116.928-94.784 211.733333-211.733334 211.733333z m164.394667-679.829334c22.314667 0 40.405333-18.090667 40.405333-40.426666v-6.933334a40.426667 40.426667 0 0 0-40.405333-40.405333h-328.746667a40.426667 40.426667 0 0 0-40.448 40.405333v6.933334c0 22.336 18.112 40.426667 40.426667 40.426666h328.746666z"  horiz-adv-x="1024" />

    
    <glyph glyph-name="-supervise-management" unicode="&#59093;" d="M920.896-42.666667a42.666667 42.666667 0 1 0 0-85.333333H96a42.666667 42.666667 0 1 0 0 85.333333h824.896zM508.437333 896c157.098667 0 284.458667-127.36 284.458667-284.437333 0-79.552-32.64-151.466667-85.269333-203.072l0.725333-45.717334a56.896 56.896 0 0 1 56.874667-55.978666H906.666667a56.896 56.896 0 0 0 56.896-56.896v-150.336A56.896 56.896 0 0 0 906.666667 42.666667H110.229333A56.896 56.896 0 0 0 53.333333 99.562667v150.336a56.896 56.896 0 0 0 56.896 56.896h142.72a56.896 56.896 0 0 1 56.874667 56.896v0.576l-0.426667 44.096A283.584 283.584 0 0 0 224 611.562667C224 768.64 351.36 896 508.437333 896z m0-85.333333A199.104 199.104 0 0 1 309.333333 611.562667a198.208 198.208 0 0 1 59.776-142.250667 85.333333 85.333333 0 0 0 25.6-60.096l0.448-44.522667v-1.002666a142.229333 142.229333 0 0 0-142.208-142.229334H138.666667V128h739.562666v93.44H765.226667a142.229333 142.229333 0 0 0-142.186667 139.968l-0.725333 45.717333a85.333333 85.333333 0 0 0 25.557333 62.293334 198.208 198.208 0 0 1 59.690667 142.144A199.104 199.104 0 0 1 508.437333 810.666667z"  horiz-adv-x="1024" />

    
    <glyph glyph-name="-form-radio" unicode="&#59101;" d="M512 896c282.763636 0 512-229.236364 512-512s-229.236364-512-512-512S0 101.236364 0 384 229.236364 896 512 896z m0-307.2a204.8 204.8 0 1 1 0-409.6 204.8 204.8 0 0 1 0 409.6z"  horiz-adv-x="1024" />

    
    <glyph glyph-name="-form-checkbox" unicode="&#59102;" d="M887.458909 896A136.541091 136.541091 0 0 0 1024 759.458909v-750.917818A136.541091 136.541091 0 0 0 887.458909-128H136.541091A136.541091 136.541091 0 0 0 0 8.541091V759.458909A136.541091 136.541091 0 0 0 136.541091 896h750.917818z m-140.055273-337.128727a13.661091 13.661091 0 0 1-19.316363 0L433.570909 264.331636l-135.261091 135.284364a13.661091 13.661091 0 0 1-19.316363 0l-31.371637-31.394909c-5.352727-5.329455-5.352727-13.963636 0-19.316364l173.917091-173.917091c5.352727-5.352727 13.963636-5.352727 19.316364 0l335.592727 335.592728c5.306182 5.329455 5.306182 13.963636 0 19.316363z"  horiz-adv-x="1024" />

    
    <glyph glyph-name="-form-border-selected" unicode="&#59104;" d="M1024 896v-877.707636A146.292364 146.292364 0 0 0 877.707636-128H0C0 437.527273 458.472727 896 1024 896z m-198.353455-458.914909a31.348364 31.348364 0 0 1-44.334545 0L537.460364 193.256727l-101.934546 101.981091a31.348364 31.348364 0 0 1-44.311273-44.334545l120.436364-120.436364a36.561455 36.561455 0 0 1 51.712 0l262.283636 262.283636a31.348364 31.348364 0 0 1 0 44.334546z"  horiz-adv-x="1024" />

    
    <glyph glyph-name="-form-delete-btn" unicode="&#59106;" d="M512 896c282.763636 0 512-229.236364 512-512s-229.236364-512-512-512S0 101.236364 0 384 229.236364 896 512 896z m-158.394182-308.363636a32 32 0 0 1-45.242182-45.242182L466.734545 384l-158.370909-158.394182a32 32 0 0 1 45.242182-45.242182L512 338.734545l158.394182-158.370909a32 32 0 0 1 45.242182 45.242182L557.265455 384l158.370909 158.394182a32 32 0 0 1-45.242182 45.242182L512 429.265455z"  horiz-adv-x="1024" />

    
    <glyph glyph-name="-supervise-index" unicode="&#59097;" d="M109.226667 786.295467v-585.159111h873.813333V786.318222H109.226667zM0 896h1092.266667v-804.568178H0V896z m254.862222-914.295467h582.542222V-128H254.862222v109.704533zM145.635556 384h800.995555v-109.704533H145.635556V384z"  horiz-adv-x="1092" />

    
    <glyph glyph-name="-supervise-all" unicode="&#59098;" d="M144.406756 786.295467V-18.318222h735.186488V786.318222H144.406756zM34.133333 896h955.733334v-1024H34.133333V896z m257.319823-219.431822h441.093688v-109.704534H291.453156V676.568178z m0-219.431822h441.093688v-109.704534H291.453156v109.704534z m0-219.431823h441.093688v-109.704533H291.453156v109.704533z"  horiz-adv-x="1024" />

    
    <glyph glyph-name="-supervise-leader" unicode="&#59099;" d="M1109.949217 306.598957l76.26574-76.243479L933.62087-22.216348c-139.50887-139.50887-366.391652-138.774261-506.768696 1.602783L20.168348 386.092522 424.247652 790.216348c139.50887 139.50887 366.391652 138.774261 506.768696-1.602783l406.706087-406.706087-75.753739-75.776-101.687653 101.665392L855.28487 712.837565c-98.281739 98.259478-257.113043 98.771478-354.749218 1.113044l-328.347826-328.347826 330.440348-330.440348c98.281739-98.259478 257.113043-98.771478 354.749217-1.113044l252.571826 252.549566zM678.956522 204.265739c-98.615652 0-178.598957 80.473043-178.598957 179.734261 0 99.283478 79.961043 179.734261 178.598957 179.734261 98.615652 0 178.598957-80.473043 178.598956-179.734261 0-99.283478-79.961043-179.734261-178.598956-179.734261z"  horiz-adv-x="1357" />

    
    <glyph glyph-name="-supervise-mine" unicode="&#59100;" d="M397.076708 334.324622c-104.402489 44.669156-177.5616 148.366222-177.5616 269.1072C219.515108 764.996267 350.496085 896 512.083285 896c161.564444 0 292.568178-130.980978 292.568178-292.568178 0-120.763733-73.159111-224.438044-177.584355-269.1072l353.120711-264.829155A109.704533 109.704533 0 0 0 914.355996-128H109.787819a109.704533 109.704533 0 0 0-65.809067 197.495467l353.097956 264.829155z m115.006577 86.243556a182.863644 182.863644 0 1 1 0 365.727289 182.863644 182.863644 0 0 1 0-365.727289zM109.765063-18.295467h804.568178L512.083285 283.4432 109.765063-18.318222z"  horiz-adv-x="1024" />

    
    <glyph glyph-name="-account-user" unicode="&#59085;" d="M512.164454 293.827283c-168.406838 0-305.069714 134.573919-305.069714 301.076118C207.09474 761.118882 343.757616 896 512.164454 896s305.090194-134.881118 305.090194-301.096599c0-166.195001-136.683356-301.076119-305.090194-301.076118z m0 511.856025c-117.759859 0-213.544704-94.556047-213.544704-210.779907 0-116.203381 95.784845-210.738947 213.544704-210.738947s213.565184 94.535567 213.565184 210.738947c0 116.223861-95.805325 210.779907-213.565184 210.779907z m418.283018-799.39488a88.330134 88.330134 0 0 0-1.228798-89.722773A91.91413 91.91413 0 0 0 850.206929-127.998771H173.528061a91.54549 91.54549 0 0 0-79.011746 44.564426 89.046933 89.046933 0 0 0-0.921599 89.702293l163.839804 288.460454a388.709934 388.709934 0 0 1 76.881828-49.684421l-160.481088-283.03326h676.371669l-160.481088 283.03326a407.817751 407.817751 0 0 1 76.881828 49.684421l163.839803-288.439974z"  horiz-adv-x="1024" />

    
    <glyph glyph-name="-account-business" unicode="&#59086;" d="M128.49152 896h767.01696A56.85248 56.85248 0 0 0 952.32 839.10656v-910.21312A56.85248 56.85248 0 0 0 895.50848-128H128.49152A56.85248 56.85248 0 0 0 71.68-71.10656V839.10656A56.85248 56.85248 0 0 0 128.49152 896z m28.40576-85.34016v-853.31968H867.1232V810.65984H156.8768z m312.48384-420.0448V447.488H341.6064a42.65984 42.65984 0 1 0 0 85.34016h110.14144l-62.70976 62.7712a42.7008 42.7008 0 0 0 0 60.35456 42.5984 42.5984 0 0 0 60.2112 0.04096l0.06144-0.04096 62.68928-62.79168 62.68928 62.79168a42.5984 42.5984 0 0 0 60.27264 0 42.7008 42.7008 0 0 0 0-60.35456l-62.70976-62.7712h110.14144a42.65984 42.65984 0 1 0 0-85.34016h-127.7952v-56.87296h127.7952a42.65984 42.65984 0 1 0 0-85.34016h-127.7952v-128.06144a42.5984 42.5984 0 0 0-85.1968 0v128.06144h-127.7952a42.65984 42.65984 0 1 0 0 85.34016h127.7952z"  horiz-adv-x="1024" />

    
    <glyph glyph-name="-account-service" unicode="&#59087;" d="M338.588735 690.740245h346.82253a43.990204 43.990204 0 0 0 0-87.980408H338.588735a43.990204 43.990204 0 0 0 0 87.980408zM120.664816 896h782.670368C935.350857 896 961.306122 869.752163 961.306122 837.360327v-906.720654C961.306122-101.752163 935.350857-128 903.335184-128c-8.129306 0-16.154122 1.734531-23.572898 5.057306l-374.366041 168.562939-360.573388-167.183674A57.699265 57.699265 0 0 0 67.960163-92.682449 59.224816 59.224816 0 0 0 62.693878-68.252735V837.360327C62.693878 869.752163 88.649143 896 120.664816 896z m28.98547-87.980408v-830.56849l355.22351 164.675918 369.475918-166.347755V808.019592H149.629388z"  horiz-adv-x="1024" />

    
    <glyph glyph-name="-account-contact" unicode="&#59088;" d="M589.844023 681.426507c-16.261029 0-32.522058 10.75194-37.949227 26.89009-27.094888 77.987403-97.566174 112.946567-97.566174 112.946567-18.984854 10.75194-27.115368 34.959164-16.261029 53.780179 10.833859 18.841494 35.225403 26.890089 54.189777 16.13815 2.723825 0 97.586654-48.414449 138.239225-155.974807 8.130514-21.50388-2.703345-43.007759-24.391543-51.097314-5.42717-2.682865-10.854339-2.682865-16.261029-2.682865z m-468.579776 10.096584c1.474552 2.109428 3.174382 4.136937 5.099492 6.041566l56.913601 56.463044c40.652572 40.345374 111.123858 40.345374 151.77643 0l127.384887-126.381373c21.708678-21.50388 32.542538-45.711104 32.542537-75.304538 0-29.572954-10.854339-56.463044-32.522058-75.284058l-51.506911-51.097314c-5.42717-5.38621-8.130514-10.75194-8.130515-18.841495 0-8.048595 2.703345-13.434805 8.130515-18.800534l159.927424-158.657672c10.833859-10.77242 27.094888-10.77242 37.928748 0l56.934081 53.780179c43.355917 40.345374 108.420513 40.345374 149.073085-2.703345l127.384887-126.360892c40.652572-40.345374 40.652572-110.263703 0-150.609077l-56.934081-56.463044a59.412147 59.412147 0 0 0-8.396753-5.26333C823.519514-105.349247 750.959281-128 673.852513-128c-138.239226 0-295.442826 67.235463-425.551537 196.299701C46.184988 268.859218-8.496306 542.572885 121.264247 691.523091z m70.143607-42.372883C77.560172 536.20364 129.067083 302.28239 305.255537 124.783224c176.167973-174.795821 414.697198-225.893135 528.5244-112.946567L882.583504 60.210146c10.854339 10.77242 10.854339 26.890089 0 37.662509L755.198617 224.254027a26.337133 26.337133 0 0 1-37.949227 0l-56.913602-53.780178c-43.376397-40.345374-108.420513-40.345374-149.093565 2.682865l-159.906944 158.657671c-21.667719 21.50388-32.522058 45.711104-32.522058 75.304538 0 29.572954 10.854339 56.463044 32.522058 75.284059l51.506911 51.097314c5.42717 5.38621 8.130514 10.75194 8.130515 18.841494 0 8.048595-2.703345 13.434805-8.130515 18.800535l-124.681542 126.401852a26.337133 26.337133 0 0 1-37.949227 0l-48.783087-48.414449z"  horiz-adv-x="1024" />

    
    <glyph glyph-name="-account-receive" unicode="&#59089;" d="M470.236963 417.972706v56.239686h-124.948078a42.164706 42.164706 0 1 0 0 84.34949h107.620392l-61.44 62.062432a42.36549 42.36549 0 0 0 0 59.653019 41.562353 41.562353 0 0 0 59.070745 0l61.460078-62.042353 61.460079 62.042353a41.562353 41.562353 0 0 0 59.090823 0 42.36549 42.36549 0 0 0 0-59.632941l-61.480157-62.08251h107.620393a42.164706 42.164706 0 1 0 0-84.34949h-124.907922v-56.219608h124.928a42.164706 42.164706 0 1 0 0-84.369568H553.763238v-126.955922a41.763137 41.763137 0 0 0-83.566432 0v126.955922h-124.928a42.164706 42.164706 0 1 0 0 84.34949h124.928zM135.991316 896h751.977412C918.748963 896 943.686375 870.821647 943.686375 839.780392v-750.832941c0-22.206745-12.950588-42.345412-33.049098-51.380706l-336.032628-150.989804a165.647059 165.647059 0 0 0-137.557333 0.762981L112.800728 37.386039A56.279843 56.279843 0 0 0 80.313826 88.505725V839.780392C80.313826 870.821647 105.251238 896 136.011395 896z m27.848784-84.34949v-705.094275l308.003138-142.536784a82.823529 82.823529 0 0 1 68.768627-0.38149l319.508079 143.560784V811.670588H163.8401z"  horiz-adv-x="1024" />

    
    <glyph glyph-name="-epid-close" unicode="&#59082;" d="M449.647238 384.029863L12.845181 820.831919a43.880104 43.880104 0 0 0 0 62.041592L13.186471 883.2148a43.880104 43.880104 0 0 0 62.041591 0L512.030119 446.412744 948.832175 883.2148a43.880104 43.880104 0 0 0 62.041592 0l0.341289-0.341289a43.880104 43.880104 0 0 0 0-62.041592L574.413 384.029863l436.802056-436.802057a43.880104 43.880104 0 0 0 0-62.041591l-0.341289-0.34129a43.880104 43.880104 0 0 0-62.041592 0L512.030119 321.646982 75.228062-115.155075a43.880104 43.880104 0 0 0-62.041591 0l-0.34129 0.34129a43.880104 43.880104 0 0 0 0 62.041591L449.647238 384.029863z"  horiz-adv-x="1024" />

    
    <glyph glyph-name="-epid-confirm" unicode="&#59083;" d="M690.115765 1.867294L1545.908706 857.690353a48.188235 48.188235 0 1 0 68.156235-68.156235L723.877647-100.653176a48.037647 48.037647 0 0 0-34.063059-14.125177c-12.348235 0-24.696471 4.698353-34.093176 14.125177L42.405647 512.662588a48.188235 48.188235 0 0 0 0 68.156236l0.301177 0.301176a48.188235 48.188235 0 0 0 68.156235 0l579.252706-579.252706z"  horiz-adv-x="1656" />

    
    <glyph glyph-name="-epid-delete" unicode="&#59084;" d="M512-128C229.239467-128 0 101.239467 0 384S229.239467 896 512 896 1024 666.760533 1024 384 794.760533-128 512-128zM204.8 452.266667v-136.533334h614.4v136.533334H204.8z"  horiz-adv-x="1024" />

    
    <glyph glyph-name="-conference-address" unicode="&#59074;" d="M210.304 771.029333c166.613333 166.613333 436.778667 166.613333 603.392 0 166.613333-166.613333 166.613333-436.778667 0-603.392L544.213333-101.866667a45.525333 45.525333 0 0 0-64.384 0L210.304 167.637333c-166.613333 166.613333-166.613333 436.778667 0 603.392z m201.130667-201.130666a142.229333 142.229333 0 1 1 201.130666-201.130667 142.229333 142.229333 0 0 1-201.130666 201.130667z"  horiz-adv-x="1024" />

    
    <glyph glyph-name="-conference-staff" unicode="&#59075;" d="M538.233905 335.555048c184.393143 0 338.968381-152.210286 338.968381-341.796572v-20.723809c1.29219-97.938286-148.967619-100.937143-321.145905-101.034667h-217.112381C149.138286-128 0-128 0-25.6v19.358476c0 188.220952 149.138286 341.820952 338.944 341.820953h199.289905zM905.020952 281.6C1075.833905 281.6 1219.047619 147.090286 1219.047619-20.406857v-18.334476c1.121524-81.286095-121.709714-88.551619-268.897524-89.209905 17.65181 25.795048 27.769905 57.051429 28.598857 94.281143l0.024381 8.045714v19.382857c0 109.738667-39.887238 210.261333-105.642666 287.841524h31.890285z m-92.330666 512c141.653333 0 253.976381-103.984762 253.976381-230.4-1.243429-128.292571-108.739048-226.03581-244.784762-230.253714a441.392762 441.392762 0 0 1-98.742857 63.707428c48.37181 62.537143 77.263238 141.531429 78.019047 228.59581 0 58.928762-13.482667 114.590476-37.546666 164.083809 15.847619 2.80381 32.256 4.266667 49.078857 4.266667zM429.787429 896C580.266667 896 699.587048 774.217143 699.587048 626.151619c-1.365333-153.6-120.685714-269.824-269.799619-269.824-149.138286 0-269.799619 121.758476-269.799619 269.824S279.28381 896 429.787429 896z"  horiz-adv-x="1219" />

    
    <glyph glyph-name="-view-calendar" unicode="&#59072;" d="M331.124364 896c21.271273 0 38.493091-17.221818 38.493091-38.493091v-23.552h338.827636V857.506909c0 21.248 17.221818 38.493091 38.516364 38.493091h15.383272c21.271273 0 38.516364-17.221818 38.516364-38.493091l-0.023273-23.552h154.018909c51.037091 0 92.416-41.704727 92.416-93.090909V-34.909091c0-51.432727-41.378909-93.090909-92.392727-93.090909H92.392727C41.402182-128 0-86.341818 0-34.909091V740.840727c0 51.432727 41.378909 93.090909 92.392727 93.090909l184.808728 0.023273V857.506909c0 21.248 17.245091 38.493091 38.516363 38.493091h15.406546zM277.178182 740.864h-184.785455V-34.909091h862.440728V740.840727l-154.01891 0.023273v-54.597818c0-21.271273-17.221818-38.516364-38.49309-38.516364h-15.383273c-21.271273 0-38.516364 17.245091-38.516364 38.516364V740.864H369.617455v-54.597818c0-21.271273-17.221818-38.516364-38.493091-38.516364h-15.406546c-21.271273 0-38.493091 17.245091-38.493091 38.516364l-0.023272 54.597818zM631.435636 244.363636c25.530182 0 46.219636-20.689455 46.219637-46.196363v-0.698182A46.196364 46.196364 0 0 0 631.435636 151.272727H292.631273a46.196364 46.196364 0 0 0-46.219637 46.196364v0.698182c0 25.506909 20.712727 46.196364 46.219637 46.196363h338.804363z m123.205819 217.204364c25.530182 0 46.219636-20.689455 46.219636-46.196364v-0.698181a46.196364 46.196364 0 0 0-46.219636-46.196364H292.631273a46.196364 46.196364 0 0 0-46.219637 46.219636v0.674909c0 25.506909 20.712727 46.196364 46.219637 46.196364h462.010182z"  horiz-adv-x="1047" />

    
    <glyph glyph-name="-view-list" unicode="&#59073;" d="M339.899733 298.666667c49.902933 0 90.339556-40.118044 90.339556-89.611378v-247.466667c0-49.470578-40.436622-89.588622-90.339556-89.588622H90.362311C40.459378-128 0-87.881956 0-38.388622V209.055289c0 49.493333 40.459378 89.611378 90.339556 89.611378h249.560177z m638.930489-296.527645c24.940089 0 45.169778-20.0704 45.169778-44.805689a44.987733 44.987733 0 0 0-45.169778-44.805689H591.598933a44.987733 44.987733 0 0 0-45.169777 44.805689c0 24.735289 20.206933 44.805689 45.169777 44.805689h387.231289z m-638.930489 206.916267H90.362311v-247.466667h249.537422V209.078044z m638.930489 70.405689c24.940089 0 45.169778-20.047644 45.169778-44.782934a44.987733 44.987733 0 0 0-45.169778-44.828444H591.598933a44.987733 44.987733 0 0 0-45.169777 44.828444c0 24.735289 20.206933 44.782933 45.169777 44.782934h387.231289zM339.899733 896c49.902933 0 90.339556-40.118044 90.339556-89.611378v-247.443911c0-49.493333-40.436622-89.611378-90.339556-89.611378H90.362311C40.459378 469.333333 0 509.451378 0 558.944711V806.388622C0 855.881956 40.459378 896 90.339556 896h249.560177z m638.930489-296.527644C1003.747556 599.472356 1024 579.401956 1024 554.666667a44.987733 44.987733 0 0 0-45.169778-44.805689H591.598933A44.987733 44.987733 0 0 0 546.429156 554.666667c0 24.735289 20.206933 44.805689 45.169777 44.805689h387.231289zM339.899733 806.411378H90.362311v-247.489422h249.537422V806.411378zM978.830222 876.771556C1003.747556 876.794311 1024 856.746667 1024 831.988622a44.987733 44.987733 0 0 0-45.169778-44.782933H591.598933a44.987733 44.987733 0 0 0-45.169777 44.782933c0 24.758044 20.206933 44.828444 45.169777 44.828445h387.231289z"  horiz-adv-x="1024" />

    
    <glyph glyph-name="-conference-arrange" unicode="&#59053;" d="M1026.237217 896a86.950957 86.950957 0 0 0 0-173.924174V204.132174a160.278261 160.278261 0 0 0-160.27826-160.278261h-73.906087l89.889391-89.86713a43.475478 43.475478 0 0 0-61.506783-61.484522l-151.351652 151.351652H434.409739l-151.351652-151.373913a43.475478 43.475478 0 1 0-61.484522 61.506783l89.867131 89.86713h-64.066783a160.278261 160.278261 0 0 0-160.278261 160.278261V722.075826a86.950957 86.950957 0 0 0 0 173.924174h939.141565zM530.576696 339.478261h-191.309913a43.475478 43.475478 0 0 1-3.227826-86.817391l3.227826-0.133566h191.309913a43.475478 43.475478 0 1 1 0 86.950957z m243.489391 260.87513H339.266783a43.475478 43.475478 0 0 1-3.227826-86.839652l3.227826-0.133565h434.799304a43.475478 43.475478 0 1 1 0 86.973217z"  horiz-adv-x="1113" />

    
    <glyph glyph-name="-conference-period" unicode="&#59054;" d="M616.6528 896a61.44 61.44 0 0 0 40.38656-15.13472l297.79968-259.584a61.44 61.44 0 0 0 21.0944-46.32576V15.36a143.36 143.36 0 0 0-143.36-143.36H184.32a143.36 143.36 0 0 0-143.36 143.36V752.64a143.36 143.36 0 0 0 143.36 143.36h432.3328z m102.31808-491.58144a10.24 10.24 0 0 1-14.47936-0.55296l-99.0208-106.98752a10.24 10.24 0 0 1 7.51616-17.2032h49.00864a183.84896 183.84896 0 0 0-161.4848-96.03072 183.296 183.296 0 0 0-147.47648 74.19904 38.95296 38.95296 0 1 1-62.52544-46.4896 261.18144 261.18144 0 0 1 210.00192-105.61536 261.7344 261.7344 0 0 1 246.51776 173.91616h67.8912a10.24 10.24 0 0 1 7.3728 17.34656l-102.89152 107.008a10.32192 10.32192 0 0 1-0.4096 0.4096zM500.5312 628.87936c-102.76864 0-194.23232-59.8016-236.7488-150.24128l-57.87648-0.02048a10.24 10.24 0 0 1-7.51616-17.2032l96.19456-103.71072 0.28672-0.3072a10.24 10.24 0 0 1 14.47936 0.06144l102.8096 103.71072a10.24 10.24 0 0 1-7.2704 17.44896h-50.4832a183.66464 183.66464 0 0 0 146.1248 72.33536 183.02976 183.02976 0 0 0 135.45472-59.63776 38.95296 38.95296 0 0 1 57.46688 52.6336 260.9152 260.9152 0 0 1-192.9216 84.93056z"  horiz-adv-x="1024" />

    
    <glyph glyph-name="-conference-video" unicode="&#59055;" d="M888.096821 896a137.531077 137.531077 0 0 0 137.557333-137.531077l-0.026257-220.475077 233.366975 189.755077a33.004308 33.004308 0 0 0 53.825641-25.6v-628.683487a33.004308 33.004308 0 0 0-53.825641-25.6l-233.366975 189.781333v-220.501333a137.531077 137.531077 0 0 0-137.531076-137.531077H137.531077A137.531077 137.531077 0 0 0 0 17.145436V758.468923A137.531077 137.531077 0 0 0 137.531077 896h750.565744z m-516.46359-306.438564a22.921846 22.921846 0 0 1-22.738052-20.059898l-0.183794-2.888205v-378.354871a22.921846 22.921846 0 0 1 31.481436-21.267693l2.599384 1.234052 340.151795 189.177435a22.921846 22.921846 0 0 1 2.441846 38.518154l-2.441846 1.575385-340.151795 189.177436a22.921846 22.921846 0 0 1-11.158974 2.888205z"  horiz-adv-x="1312" />

    
    <glyph glyph-name="-conference-order" unicode="&#59056;" d="M769.80834 896a174.297872 174.297872 0 0 0 174.297873-174.297872v-278.898383a326.285617 326.285617 0 0 1-108.93617 18.58451c-180.485447 0-326.808511-146.323064-326.808511-326.80851 0-102.661447 47.34366-194.276766 121.376681-254.19166H174.297872a174.297872 174.297872 0 0 0-174.297872 174.297872V721.702128a174.297872 174.297872 0 0 0 174.297872 174.297872h595.510468z m65.361703-507.228596C975.566979 388.771404 1089.361702 274.95489399999997 1089.361702 134.579745s-113.794723-254.19166-254.191659-254.19166c-140.375149 0-254.169872 113.816511-254.169873 254.19166S694.794894 388.793191 835.170043 388.793191z m144.231489-139.067915a40.633191 40.633191 0 0 1-57.452936 0l-114.905873-114.884085-43.095149 43.073362a40.633191 40.633191 0 0 1-57.452936-57.452936l71.832511-71.810724 2.331234-2.156936a40.633191 40.633191 0 0 1 55.121702 2.178724l143.621447 143.599659a40.633191 40.633191 0 0 1 0 57.452936z m-589.03966 157.216681H190.638298a45.382809 45.382809 0 0 1 0-90.787404h199.723574a45.382809 45.382809 0 0 1 0 90.787404z m363.106043 272.340426H190.638298a45.382809 45.382809 0 0 1 0-90.787405h562.829617a45.382809 45.382809 0 1 1 0 90.787405z"  horiz-adv-x="1089" />

    
    <glyph glyph-name="-conference-approve" unicode="&#59050;" d="M967.101217 384A56.898783 56.898783 0 0 0 1024 327.101217v-398.202434A56.898783 56.898783 0 0 0 967.101217-128H56.898783A56.898783 56.898783 0 0 0 0-71.101217V327.101217A56.898783 56.898783 0 0 0 56.898783 384h910.202434z m-28.42713-85.325913H85.325913v-341.348174h853.348174V298.674087zM633.989565 244.691478l60.326957-60.326956-201.104696-201.126957-60.349217 60.326957-80.450783 80.450782 60.326957 60.326957 80.473043-80.428522 140.777739 140.777739zM497.775304 896c133.542957 0 241.775304-108.254609 241.775305-241.775304 0-133.542957-108.232348-241.775304-241.753044-241.775305-133.565217 0-241.797565 108.232348-241.797565 241.753044C256 787.789913 364.254609 896 497.775304 896z m0-85.325913a156.449391 156.449391 0 1 1 0-312.898783 156.449391 156.449391 0 0 1 0 312.898783z"  horiz-adv-x="1024" />

    
    <glyph glyph-name="-conference-statistics" unicode="&#59051;" d="M609.970087 896l376.05287-376.05287v-587.709217A60.237913 60.237913 0 0 0 925.785043-128H82.498783A60.237913 60.237913 0 0 0 22.26087-67.762087V835.762087A60.237913 60.237913 0 0 0 82.498783 896H609.947826z m-37.398261-90.35687H112.595478V-37.62087h783.048348V482.526609L572.549565 805.64313z m-180.713739-226.726956c12.332522 37.264696 63.065043 42.139826 82.276174 7.902609l143.938782-256.534261 21.459479 61.996521a45.189565 45.189565 0 0 0 42.674087 30.408348h78.914782a45.189565 45.189565 0 0 0 0-90.334608h-46.747826l-43.78713-126.664348c-12.733217-36.841739-62.998261-41.338435-82.098087-7.346087L445.44 453.342609l-84.813913-256a45.189565 45.189565 0 0 0-42.896696-30.942609H233.071304a45.189565 45.189565 0 0 0 0 90.35687h51.979131z"  horiz-adv-x="1024" />

    
    <glyph glyph-name="-conference-search" unicode="&#59052;" d="M922.439569 896a44.521739 44.521739 0 0 0 44.521739-44.521739v-332.599652a44.521739 44.521739 0 0 0-44.521739-44.521739h-1.313392a44.521739 44.521739 0 0 0-44.521739 44.521739V805.62087H123.697308V-37.62087h407.240348a44.521739 44.521739 0 0 0 44.521739-44.521739V-83.478261a44.521739 44.521739 0 0 0-44.521739-44.521739H77.839917a44.521739 44.521739 0 0 0-44.52174 44.521739V851.478261a44.521739 44.521739 0 0 0 44.52174 44.521739h844.599652z m-115.645218-441.566609c89.088-89.065739 98.793739-227.461565 29.139479-327.279304l141.690434-141.690435a44.521739 44.521739 0 0 0 0-62.976l-0.912695-0.912695a44.521739 44.521739 0 0 0-62.976 0l-141.690435 141.690434c-99.817739-69.654261-238.191304-59.948522-327.279304 29.139479-99.973565 99.951304-99.973565 262.054957 0 362.028521 99.951304 99.973565 262.054957 99.973565 362.028521 0z m-298.139826-63.888695a165.64313 165.64313 0 1 1 234.251131-234.251131 165.64313 165.64313 0 0 1-234.251131 234.251131zM301.094177 384a33.391304 33.391304 0 0 0 33.391305-33.391304v-23.574261a33.391304 33.391304 0 0 0-33.391305-33.391305h-23.552a33.391304 33.391304 0 0 0-33.391304 33.391305V350.608696a33.391304 33.391304 0 0 0 33.391304 33.391304h23.552zM511.926873 624.951652a33.391304 33.391304 0 0 0 33.391304-33.391304v-23.596522a33.391304 33.391304 0 0 0-33.391304-33.391304H277.519917a33.391304 33.391304 0 0 0-33.391305 33.391304v23.596522a33.391304 33.391304 0 0 0 33.391305 33.391304H511.926873z"  horiz-adv-x="1024" />

    
    <glyph glyph-name="-train" unicode="&#59045;" d="M753.361577 135.345333l48.105139-180.96894a43.737643 43.737643 0 0 0-30.844129-53.475695 43.382393 43.382393 0 0 0-53.245827 30.739643L663.232358 135.345333h-82.752541v-219.774866a43.528672 43.528672 0 0 0-87.078242 0V135.345333h-82.75254l-54.123505-203.704992a43.382393 43.382393 0 0 0-53.266724-30.718746 43.737643 43.737643 0 0 0-30.865026 53.433901l48.126036 180.989837H43.528672C19.497 135.345333 0 154.988613 0 179.229256V852.116077C0 876.35672 19.497 896 43.528672 896h957.797968C1025.358312 896 1044.855312 876.35672 1044.855312 852.116077v-672.886821c0-24.240643-19.497-43.883923-43.528672-43.883923H753.34068zM87.078242 808.232154v-585.118975h870.698828v585.118975H87.078242z m247.04559-87.767846H710.710583a43.883923 43.883923 0 1 0 0-87.767847H334.144729a43.883923 43.883923 0 1 0 0 87.767847z"  horiz-adv-x="1044" />

    
    <glyph glyph-name="-train-live" unicode="&#59046;" d="M1130.838558 351.47868a144.448862 144.448862 0 0 0 0 65.373875V768.022584H125.658766v-767.864494h1005.179792V351.47868z m125.658766 201.180498l148.664589 109.488443a84.314533 84.314533 0 0 0 134.301005-67.903311v-420.307946a84.314533 84.314533 0 0 0-134.301005-67.903311l-148.664589 109.488443v-279.352114c0-35.351879-28.124919-63.988708-62.814327-63.988708H62.814327C28.124919-127.819326 0-99.182497 0-63.830618V832.011292C0 867.363171 28.124919 896 62.814327 896h1130.86867c34.689408 0 62.814327-28.636829 62.814327-63.988708v-279.352114z m0-161.07087v-14.995942a20.897959 20.897959 0 0 1 7.106511-9.244486l147.91178-108.916309v251.317532l-147.91178-108.916309a21.138858 21.138858 0 0 1-7.106511-9.244486zM272.667176 682.714345h208.588132c34.930306 0 63.2359-28.305593 63.235899-63.2359v-1.505617a63.2359 63.2359 0 0 0-63.235899-63.235899H272.667176a63.2359 63.2359 0 0 0-63.235899 63.235899v1.505617c0 34.930306 28.305593 63.2359 63.235899 63.2359z"  horiz-adv-x="1565" />

    
    <glyph glyph-name="-train-exam" unicode="&#59047;" d="M465.8176 448.38912l210.944 210.944a43.008 43.008 0 0 0 60.8256-60.8256L496.70144 357.64224l-0.22528-0.24576a42.65984 42.65984 0 0 0-60.35456 0l-122.12224 122.12224a42.65984 42.65984 0 0 0 60.33408 60.33408l91.48416-91.46368zM167.936 810.68032v-853.34016h688.128V810.65984H167.936zM124.928 896h774.144c23.7568 0 43.008-19.10784 43.008-42.65984v-938.68032c0-23.552-19.2512-42.65984-43.008-42.65984H124.928C101.1712-128 81.92-108.89216 81.92-85.34016V853.34016C81.92 876.89216 101.1712 896 124.928 896z m200.35584-711.10656h373.43232a42.65984 42.65984 0 0 0 0-85.34016H325.28384a42.65984 42.65984 0 0 0 0 85.34016z"  horiz-adv-x="1024" />

    
    <glyph glyph-name="-train-map" unicode="&#59048;" d="M93.705826 335.409015v-353.941686l118.643149 39.433939a195.081542 195.081542 0 0 0 83.124494 8.774252l258.348517-28.772319V346.87377l373.879518 89.529497c0.86337 0.200784 1.726741 0.381489 2.610189 0.522038V739.386024l-626.043894 69.752293V545.830439L96.858132 338.280223c-1.003919-1.003919-2.068073-1.967681-3.152306-2.871208z m0 118.101032l126.895363 127.015833V795.926743L93.725904 753.842458v-300.332411zM637.488597-8.413168l292.803018-32.587211v391.929982L637.488597 280.815899v-289.229067zM48.268452 826.967919L239.294161 890.335287a111.475167 111.475167 0 0 0 47.445212 4.979438l677.625253-75.49471A55.817897 55.817897 0 0 0 1013.958225 764.343451V-72.182103a55.797819 55.797819 0 0 0-61.941803-55.476565l-665.799087 74.12938a111.475167 111.475167 0 0 1-47.505447-5.019595l-155.326349-51.621515A55.757662 55.757662 0 0 0 10.039216-57.203631V774.001152a55.817897 55.817897 0 0 0 38.229236 52.966767z"  horiz-adv-x="1024" />

    
    <glyph glyph-name="-train-study" unicode="&#59049;" d="M171.641018 176.146618a130.141091 130.141091 0 0 0 52.354327 10.928873h628.363637V817.245091H250.191127a78.661818 78.661818 0 0 1-78.568727-78.754909v-562.324946z m0-120.347927v-52.503273c0-29.007127 23.440291-52.521891 52.354327-52.521891h628.363637v157.528437H223.995345a52.447418 52.447418 0 0 1-52.354327-52.503273zM93.090909 3.295418V738.434327C93.090909 825.474327 163.4304 896 250.191127 896h628.363637A52.447418 52.447418 0 0 0 930.909091 843.496727V-75.496727C930.909091-104.485236 907.450182-128 878.536145-128H224.013964C151.700945-128 93.090909-69.2224 93.090909 3.2768z m248.552727 682.654255h340.712728c21.597091 0 39.098182-17.501091 39.098181-39.098182v-0.558546a39.098182 39.098182 0 0 0-39.098181-39.098181h-340.712728a39.098182 39.098182 0 0 0-39.098181 39.098181v0.558546c0 21.597091 17.501091 39.098182 39.098181 39.098182z"  horiz-adv-x="1024" />

    
    <glyph glyph-name="-stick" unicode="&#59044;" d="M546.26304 459.28448v-528.40448a58.88 58.88 0 1 0-117.76 0V431.02208L199.96672 205.02528a58.9824 58.9824 0 0 0-82.944 0l-0.16384 0.14336a57.91744 57.91744 0 0 0 0 82.35008l333.25056 329.56416a58.92096 58.92096 0 0 0 51.56864 16.1792c18.14528 3.13344 37.4784-2.2528 51.56864-16.1792l333.25056-329.56416a57.91744 57.91744 0 0 0 0-82.3296l-0.16384-0.16384a58.9824 58.9824 0 0 0-82.944 0L546.26304 459.28448zM40.7552 837.75488A58.22464 58.22464 0 0 0 98.95936 896h825.63072a58.22464 58.22464 0 0 0 0-116.44928H98.95936A58.22464 58.22464 0 0 0 40.7552 837.77536z"  horiz-adv-x="1024" />

    
    <glyph glyph-name="-drop-up" unicode="&#59043;" d="M811.73774724 316.62786200000005L115.20588524-90.71227599999997a72.527448 72.527448 0 0 0-99.610483 26.729931 74.151724 74.151724 0 0 0 26.977103 100.740414L776.70988524 466.025931a72.386207 72.386207 0 0 0 62.605241 5.12 74.434207 74.434207 0 0 0 14.477241-6.355862L1574.72367824 53.98951699999998a73.939862 73.939862 0 0 0 27.224276-101.587862l-0.706207-1.235862a74.151724 74.151724 0 0 0-100.740414-27.012414l-688.763586 392.474483z m0 390.532414l-696.531862-407.30482799a72.527448 72.527448 0 0 0-99.610483 26.69462099 74.151724 74.151724 0 0 0 26.977103 100.740414L776.70988524 856.593655a72.386207 72.386207 0 0 0 62.605241 5.12 74.398897 74.398897 0 0 0 14.47724101-6.355862L1574.72367824 444.557241a73.939862 73.939862 0 0 0 27.22427601-101.587862l-0.70620701-1.271172a74.151724 74.151724 0 0 0-100.740414-26.977104l-688.763586 392.474483z"  horiz-adv-x="1624" />

    
    <glyph glyph-name="-address" unicode="&#59042;" d="M512.062694 896C760.288653 896 940.408163 724.4277549999999 940.408163 488.197224c0-164.132571-222.793143-428.596245-342.622041-570.723265l-8.693551-10.219102C570.179918-115.10595899999998 542.093061-128 511.937306-128c-30.155755 0-58.26351 12.894041-77.155265 35.254857l-8.568163 10.219102C306.510367 59.60098000000005 83.591837 324.064653 83.591837 488.197224 83.591837 713.142857 275.853061 896 512.062694 896zM512 408.387918c69.590204 0 126.014694 54.564571 126.014694 121.897796s-56.42449 121.897796-126.014694 121.897796-126.014694-54.564571-126.014694-121.897796 56.42449-121.897796 126.014694-121.897796z"  horiz-adv-x="1024" />

    
    <glyph glyph-name="-car" unicode="&#59039;" d="M433.93634 3.2898719999999457v-78.782638a52.289362 52.289362 0 0 0-52.071489-52.507234H225.759319a52.289362 52.289362 0 0 0-52.049702 52.507234v78.782638H147.673872C90.177362 3.2898719999999457 43.574468 50.306723000000034 43.574468 108.30434000000002V790.985532C43.574468 848.983149 90.199149 896 147.673872 896h728.652256C933.822638 896 980.425532 848.983149 980.425532 790.985532v-682.681192c0-57.997617-46.624681-105.014468-104.099404-105.014468h-26.013958v-78.782638a52.289362 52.289362 0 0 0-52.071489-52.507234h-156.127319a52.289362 52.289362 0 0 0-52.049702 52.507234v78.782638h-156.12732z m-78.085446-52.507234V82.02893600000004h312.298212v-131.289872h104.077617v131.289872h104.099405a26.144681 26.144681 0 0 1 26.035744 26.253617V790.985532a26.144681 26.144681 0 0 1-26.035744 26.275404H147.673872a26.144681 26.144681 0 0 1-26.035744-26.275404v-682.659404a26.144681 26.144681 0 0 1 26.035744-26.253617h104.099405v-131.289873h104.077617zM225.737532 738.434723H798.284255v-210.028936H225.715745v210.028936z m78.063659-78.760851v-52.507234h416.397618v52.507234H303.801191z m0-472.608681c-43.116936 0-78.06366 35.251745-78.063659 78.760852s34.946723 78.760851 78.063659 78.760851c43.138723 0 78.085447-35.251745 78.085447-78.760851s-34.968511-78.760851-78.085447-78.760852z m416.397618 0c-43.138723 0-78.085447 35.251745-78.085447 78.760852s34.968511 78.760851 78.085447 78.760851 78.06366-35.251745 78.063659-78.760851-34.946723-78.760851-78.063659-78.760852z"  horiz-adv-x="1024" />

    
    <glyph glyph-name="-license-info" unicode="&#59040;" d="M90.261854 805.638244v-843.276488h1143.183609V805.638244H90.261854zM60.166244 896h1203.374829A60.19122 60.19122 0 0 0 1323.707317 835.758829v-903.517658A60.19122 60.19122 0 0 0 1263.516098-128H60.19122A60.19122 60.19122 0 0 0 0-67.758829V835.758829A60.19122 60.19122 0 0 0 60.19122 896zM330.926829 474.361756v-180.723512h180.498732v180.723512H330.926829z m-30.095609 90.336781h240.689951a60.19122 60.19122 0 0 0 60.166244-60.216196v-240.964682a60.19122 60.19122 0 0 0-60.19122-60.216196h-240.664975a60.19122 60.19122 0 0 0-60.166244 60.216196v240.964682a60.19122 60.19122 0 0 0 60.191219 60.216196zM767.000976 534.602927h331.276487a44.956098 44.956098 0 0 0 44.956098-44.956098v-0.424585a44.956098 44.956098 0 0 0-44.956098-44.956098H766.976a44.956098 44.956098 0 0 0-44.956098 44.956098v0.424585a44.956098 44.956098 0 0 0 44.956098 44.956098z m0-210.794147h210.944a44.956098 44.956098 0 0 0 44.956097-44.956097v-0.449561a44.956098 44.956098 0 0 0-44.956097-44.956098h-210.944a44.956098 44.956098 0 0 0-44.956098 44.956098v0.424585a44.956098 44.956098 0 0 0 44.956098 44.956098z"  horiz-adv-x="1323" />

    
    <glyph glyph-name="-license-borrow" unicode="&#59041;" d="M1233.445463 805.638244H90.261854v-843.276488H741.77561a45.180878 45.180878 0 0 0 0-90.361756H60.19122A60.19122 60.19122 0 0 0 0-67.758829V835.758829A60.19122 60.19122 0 0 0 60.19122 896h1203.324878A60.19122 60.19122 0 0 0 1323.707317 835.758829v-443.666731a45.130927 45.130927 0 1 0-90.261854 0V805.638244z m-61.415024-777.415805H917.404098a44.956098 44.956098 0 0 0-44.956098 44.956098v0.449561a44.956098 44.956098 0 0 0 44.956098 44.956097h256.774243l-54.946341 54.971317a44.956098 44.956098 0 0 0 0 63.587903l0.299707 0.299707a44.956098 44.956098 0 0 0 63.562927 0l123.379512-123.379512c0.649366-0.649366 1.24878-1.298732 1.873171-1.998049a39.661268 39.661268 0 0 0 1.873171-57.843512l-156.871805-156.846829a39.661268 39.661268 0 0 0-56.09522 56.070243l74.776976 74.776976zM330.926829 474.361756v-180.723512h180.498732v180.723512H330.926829z m-30.095609 90.336781h240.689951a60.19122 60.19122 0 0 0 60.166244-60.216196v-240.964682a60.19122 60.19122 0 0 0-60.19122-60.216196h-240.664975a60.19122 60.19122 0 0 0-60.166244 60.216196v240.964682a60.19122 60.19122 0 0 0 60.191219 60.216196zM767.000976 534.602927h331.276487a44.956098 44.956098 0 0 0 44.956098-44.956098v-0.424585a44.956098 44.956098 0 0 0-44.956098-44.956098H766.976a44.956098 44.956098 0 0 0-44.956098 44.956098v0.424585a44.956098 44.956098 0 0 0 44.956098 44.956098z m0-210.794147h210.944a44.956098 44.956098 0 0 0 44.956097-44.956097v-0.449561a44.956098 44.956098 0 0 0-44.956097-44.956098h-210.944a44.956098 44.956098 0 0 0-44.956098 44.956098v0.424585a44.956098 44.956098 0 0 0 44.956098 44.956098z"  horiz-adv-x="1323" />

    
    <glyph glyph-name="-drop-down" unicode="&#59038;" d="M809.595586 451.372138L1506.127448 858.712276a72.527448 72.527448 0 0 0 99.610483-26.729931 74.151724 74.151724 0 0 0-26.977103-100.740414L844.623448 301.974069a72.386207 72.386207 0 0 0-62.605241-5.12 74.434207 74.434207 0 0 0-14.477241 6.355862L46.609655 714.010483a73.939862 73.939862 0 0 0-27.224276 101.587862l0.706207 1.235862a74.151724 74.151724 0 0 0 100.740414 27.012414l688.763586-392.474483z m0-390.532414l696.531862 407.304828a72.527448 72.527448 0 0 0 99.610483-26.694621 74.151724 74.151724 0 0 0-26.977103-100.740414L844.623448-88.593655a72.386207 72.386207 0 0 0-62.605241-5.12 74.398897 74.398897 0 0 0-14.477241 6.355862L46.609655 323.442759a73.939862 73.939862 0 0 0-27.224276 101.587862l0.706207 1.271172a74.151724 74.151724 0 0 0 100.740414 26.977104l688.763586-392.474483z"  horiz-adv-x="1624" />

    
    <glyph glyph-name="-pop-property-receive" unicode="&#59014;" d="M758.51687 896a168.292174 168.292174 0 0 0 137.661217-71.479652l86.060522-122.390261A168.292174 168.292174 0 0 0 1012.869565 605.339826V40.292174A168.292174 168.292174 0 0 0 844.577391-128H179.422609A168.292174 168.292174 0 0 0 11.130435 40.292174V604.382609a168.292174 168.292174 0 0 0 30.408348 96.478608l86.305391 123.325218A168.292174 168.292174 0 0 0 265.728 896h492.78887zM523.085913 510.174609a24.041739 24.041739 0 0 1-30.875826-1.869913l-187.035826-177.686261-1.914435-2.048a24.041739 24.041739 0 0 1 1.046261-31.922087l2.048-1.936696c4.296348-3.561739 9.728-5.565217 15.382261-5.565217h143.226435v-212.257392l0.133565-3.250086a41.71687 41.71687 0 0 1 41.627826-38.422261l3.250087 0.133565a41.694609 41.694609 0 0 1 38.489043 41.538782V289.168696h147.322435l2.626783 0.133565a24.041739 24.041739 0 0 1 13.935304 41.316174L525.356522 508.304696zM766.597565 809.627826H262.099478A72.125217 72.125217 0 0 1 205.467826 782.113391l-2.804869-3.784348-82.209392-119.763478h786.476522l-80.539826 119.273739a72.125217 72.125217 0 0 1-59.770435 31.766261z"  horiz-adv-x="1024" />

    
    <glyph glyph-name="-pop-property-rent" unicode="&#59015;" d="M108.032 326.589217l0.801391-0.645565 197.075479-158.185739c6.144-4.941913 13.712696-7.791304 21.593043-8.080696l252.838957-9.572174a36.730435 36.730435 0 0 1 22.928695 6.967653l14.157913 10.24a12.132174 12.132174 0 0 1-5.431652 21.837913l-160.278261 22.238608a36.730435 36.730435 0 0 0-28.560695 51.222261l5.587478 12.666435a96.055652 96.055652 0 0 0 87.841391 57.210435H786.921739c9.060174 0 17.786435-3.33913 24.531478-9.394087l232.025044-207.961044a36.730435 36.730435 0 0 0 1.691826-53.092174l-156.672-159.521391a36.730435 36.730435 0 0 0-49.819826-2.381913l-89.488696 75.152696a36.730435 36.730435 0 0 1-23.641043 8.592695H318.953739a36.730435 36.730435 0 0 0-24.464696 9.327305L12.288 244.936348a36.730435 36.730435 0 0 0-4.585739 49.908869l16.317217 21.081044a59.881739 59.881739 0 0 0 84.012522 10.685217zM646.678261 896a155.826087 155.826087 0 0 0 155.826087-155.826087v-333.445565h-801.391305V740.173913a155.826087 155.826087 0 0 0 155.826087 155.826087h489.739131z m-267.130435-328.347826h-222.608696a38.956522 38.956522 0 1 1 0-77.913044h222.608696a38.956522 38.956522 0 1 1 0 77.913044z m267.130435 178.086956h-489.739131a38.956522 38.956522 0 1 1 0-77.913043h489.739131a38.956522 38.956522 0 1 1 0 77.913043z"  horiz-adv-x="1068" />

    
    <glyph glyph-name="-pop-send" unicode="&#59016;" d="M769.80834 896a174.297872 174.297872 0 0 0 174.297873-174.297872v-278.898383a326.285617 326.285617 0 0 1-108.93617 18.58451c-180.485447 0-326.808511-146.323064-326.808511-326.80851 0-102.661447 47.34366-194.276766 121.376681-254.19166H174.297872a174.297872 174.297872 0 0 0-174.297872 174.297872V721.702128a174.297872 174.297872 0 0 0 174.297872 174.297872h595.510468z m65.361703-507.228596C975.566979 388.771404 1089.361702 274.954894 1089.361702 134.579745s-113.794723-254.19166-254.191659-254.19166c-140.375149 0-254.169872 113.816511-254.169873 254.19166S694.794894 388.793191 835.170043 388.793191z m2.287659-97.606808v-85.710979c-61.527149-9.586383-154.340766-54.555234-154.340766-147.69566 37.474043 24.401702 137.194213 46.951489 154.340766 48.585532v-79.566978l154.318979 132.204936-154.340766 132.204936z m-447.09583 115.755574H190.638298a45.382809 45.382809 0 0 1 0-90.787404h199.723574a45.382809 45.382809 0 0 1 0 90.787404z m363.106043 272.340426H190.638298a45.382809 45.382809 0 0 1 0-90.787405h562.829617a45.382809 45.382809 0 1 1 0 90.787405z"  horiz-adv-x="1089" />

    
    <glyph glyph-name="-pop-property-return" unicode="&#59017;" d="M758.51687 896a168.292174 168.292174 0 0 0 137.661217-71.479652l86.060522-122.390261A168.292174 168.292174 0 0 0 1012.869565 605.339826V40.292174A168.292174 168.292174 0 0 0 844.577391-128H179.422609A168.292174 168.292174 0 0 0 11.130435 40.292174V604.382609a168.292174 168.292174 0 0 0 30.408348 96.478608l86.305391 123.325218A168.292174 168.292174 0 0 0 265.728 896h492.78887zM510.820174 514.982957l-3.272348-0.133566a41.694609 41.694609 0 0 1-38.466783-41.538782v-212.279652h-147.344695l-2.626783-0.133566a24.041739 24.041739 0 0 1-13.935304-41.338434l187.035826-177.664 2.226087-1.869914a24.041739 24.041739 0 0 1 30.898087 1.869914l187.013565 177.664 1.914435 2.048a24.041739 24.041739 0 0 1-1.046261 31.944347l-2.048 1.914435a24.041739 24.041739 0 0 1-15.36 5.565218h-143.248696v212.279652l-0.133565 3.250087a41.71687 41.71687 0 0 1-41.627826 38.422261z m255.777391 294.622608H262.099478A72.125217 72.125217 0 0 1 205.467826 782.113391l-2.804869-3.784348-82.209392-119.763478h786.476522l-80.539826 119.273739a72.125217 72.125217 0 0 1-59.770435 31.766261z"  horiz-adv-x="1024" />

    
    <glyph glyph-name="-pop-start-applyfor" unicode="&#59018;" d="M512 896c144.75264 0 265.91232-100.5568 296.81664-235.27424h77.14816a66.3552 66.3552 0 0 0 66.3552-66.3552V26.8288A154.8288 154.8288 0 0 0 797.4912-128H226.5088A154.8288 154.8288 0 0 0 71.68 26.8288V594.37056a66.3552 66.3552 0 0 0 66.3552 66.3552h77.14816C246.08768 795.4432 367.24736 896 512 896z m145.14176-396.9024H362.76224a40.1408 40.1408 0 0 1-40.2432-40.05888c0-22.1184 18.0224-40.0384 40.2432-40.0384h294.37952a40.1408 40.1408 0 0 1 40.2432 40.0384 40.1408 40.1408 0 0 1-40.2432 40.0384zM512 815.9232a223.92832 223.92832 0 0 1-213.44256-155.21792h426.88512A223.92832 223.92832 0 0 1 512 815.9232z"  horiz-adv-x="1024" />

    
    <glyph glyph-name="-pop-property-dispose" unicode="&#59019;" d="M758.997333 896a161.28 161.28 0 0 0 161.28-161.28l-0.021333-228.032-293.866667-275.712a101.973333 101.973333 0 0 1-1.322666-143.210667 99.605333 99.605333 0 0 1 141.824-1.322666l153.365333 143.893333v-197.056a161.28 161.28 0 0 0-161.28-161.28H161.28A161.28 161.28 0 0 0 0 33.28V734.72A161.28 161.28 0 0 0 161.28 896h597.717333z m237.44-399.125333a41.002667 41.002667 0 0 0 58.410667-0.554667c15.978667-16.426667 15.722667-42.837333-0.554667-58.965333L725.546667 128.96a41.002667 41.002667 0 0 0-58.389334 0.533333 41.984 41.984 0 0 0 0.554667 58.965334zM544.853333 381.205333H175.872a41.493333 41.493333 0 0 1-41.301333-41.685333c0-23.04 18.496-41.706667 41.301333-41.706667h368.96a41.493333 41.493333 0 0 1 41.301333 41.706667c0 23.04-18.496 41.685333-41.301333 41.685333z m191.68 271.210667H175.872a41.493333 41.493333 0 0 1-41.301333-41.706667c0-23.04 18.496-41.706667 41.301333-41.706666h560.64a41.493333 41.493333 0 0 1 41.301333 41.706666c0 23.04-18.496 41.706667-41.301333 41.706667z"  horiz-adv-x="1066" />

    
    <glyph glyph-name="-property-applyfor" unicode="&#59020;" d="M504.664816 888.476735c132.367673 0 242.58351-94.751347 266.595266-220.097306h133.579755a31.346939 31.346939 0 0 0 31.346939-31.346939v-678.535837a73.142857 73.142857 0 0 0-73.142858-73.142857H146.285714a73.142857 73.142857 0 0 0-73.142857 73.142857V637.03249a31.346939 31.346939 0 0 0 31.346939 31.346939h133.579755C262.060408 793.725388 372.297143 888.455837 504.664816 888.455837z m368.828082-282.791184H135.836735v-647.188898a10.44898 10.44898 0 0 1 10.448979-10.44898h716.758204a10.44898 10.44898 0 0 1 10.44898 10.44898V605.685551z m-504.455837-142.398694h267.535674a31.346939 31.346939 0 0 0 3.009306-62.547592l-3.009306-0.146285H369.037061a31.346939 31.346939 0 0 0-3.009306 62.547591l3.009306 0.146286h267.535674z m135.627755 362.475102c-97.572571 0-179.513469-66.936163-202.396734-157.38253h404.793469c-22.883265 90.446367-104.824163 157.382531-202.396735 157.38253z"  horiz-adv-x="1024" />

    
    <glyph glyph-name="-pop-start-change" unicode="&#59021;" d="M614.57056 896c16.618667 0 32.661333-6.144 45.162667-17.28l308.864-254.933333A70.378667 70.378667 0 0 0 991.999893 571.221333V33.28A161.28 161.28 0 0 0 830.719893-128H193.279893A161.28 161.28 0 0 0 31.999893 33.28V734.72A161.28 161.28 0 0 0 193.279893 896h421.290667z m103.146667-506.794667a24.896 24.896 0 0 1-0.106667-0.106666l-65.173333-62.506667a23.04 23.04 0 0 1 15.936-39.68h23.957333c-29.013333-73.557333-99.690667-124.010667-180.330667-124.010667-67.477333 0-128.96 35.264-164.352 92.288a33.92 33.92 0 0 1-47.317333 10.858667 35.285333 35.285333 0 0 1-10.666667-48.170667c47.850667-77.056 131.093333-124.8 222.336-124.8 118.378667 0 220.842667 80.32 252.736 193.834667h27.946667a23.04 23.04 0 0 1 16.725333 38.890667l-59.114666 62.506666a23.04 23.04 0 0 1-32.576 0.896zM511.999893 628.352c-108.778667 0-204.885333-67.882667-244.266666-168.576h-22.229334a23.04 23.04 0 0 1-16.725333-38.890667l59.093333-62.506666a23.04 23.04 0 0 1 32.597334-0.874667l0.106666 0.106667 65.173334 62.485333a23.04 23.04 0 0 1-15.936 39.68h-26.069334c34.090667 59.946667 97.557333 98.773333 168.256 98.773333 59.306667 0 114.154667-27.178667 150.869334-73.173333 11.946667-14.933333 33.536-17.216 48.213333-5.056 14.72 12.16 16.938667 34.133333 4.992 49.088-49.578667 62.144-123.904 98.965333-204.074667 98.965333z"  horiz-adv-x="1024" />

    
    <glyph glyph-name="-property-allot" unicode="&#59022;" d="M940.651163-44.651163a35.72093 35.72093 0 1 0 0-71.44186h-809.674419a35.72093 35.72093 0 1 0 0 71.44186z m71.44186 940.651163A59.534884 59.534884 0 0 0 1071.627907 836.465116v-714.418604a59.534884 59.534884 0 0 0-59.534884-59.534884h-952.558139A59.534884 59.534884 0 0 0 0 122.046512v714.418604A59.534884 59.534884 0 0 0 59.534884 896h952.558139zM1000.186047 824.55814H71.44186v-690.604652h928.744187V824.55814zM733.445953 443.534884a35.72093 35.72093 0 0 0 3.42921-71.275163L733.469767 372.093023h-315.058604l79.252837-67.607814a35.72093 35.72093 0 0 0-43.460465-56.581953l-2.905302 2.238511-152.957024 130.500466c-24.433116 20.837209-11.002047 60.154047 19.908465 62.749767L321.488372 443.534884h411.957581zM633.284465 720.967442l2.667163-2.500465 137.477953-141.645396c21.242047-21.885023 7.001302-58.010791-22.40893-60.487441l-3.214884-0.11907H321.488372a35.72093 35.72093 0 0 0-3.429209 71.275163l3.429209 0.166697h341.873116l-78.681302 81.038884a35.72093 35.72093 0 0 0 48.580465 52.247814z"  horiz-adv-x="1071" />

    
    <glyph glyph-name="-property-card" unicode="&#59023;" d="M638.172863 723.245176a58.227451 58.227451 0 0 0 58.227451-58.227451V-50.095686a58.227451 58.227451 0 0 0-58.227451-58.227451H88.345098a58.227451 58.227451 0 0 0-58.227451 58.227451V665.017725a58.227451 58.227451 0 0 0 58.227451 58.227451h549.827765z m-2.027922-647.469176H90.332863L90.352941-48.087843h545.812079l-0.020079 123.863843zM414.619608 892.305569l3.413333-0.803138 532.178824-142.597019a57.665255 57.665255 0 0 0 41.582431-67.20251l-0.803137-3.413333-178.256314-665.238589a30.117647 30.117647 0 0 0-58.789647 12.769883l0.602353 2.81098 177.593725 662.768941-527.219451 141.251765-12.970666-48.38902a30.117647 30.117647 0 0 0-58.789647 12.769883l0.602353 2.81098 13.653333 50.878745A57.665255 57.665255 0 0 0 414.619608 892.305569z m221.545412-229.295687H90.352941l-0.020078-526.998588h545.812078l0.020079 526.998588z"  horiz-adv-x="1024" />

    
    <glyph glyph-name="-property-check" unicode="&#59024;" d="M683.722667 354.133333c114.88 0 208-93.12 208-208 0-42.602667-12.8-82.197333-34.773334-115.2l93.653334-93.653333a32 32 0 0 0-42.816-47.445333l-2.432 2.197333-91.669334 91.690667A207.125333 207.125333 0 0 0 683.722667-61.866667c-114.88 0-208 93.12-208 208s93.12 208 208 208zM798.496 896a53.333333 53.333333 0 0 0 43.861333-22.976l2.026667-3.157333 121.813333-205.397334a32 32 0 0 0 4.266667-12.885333l0.192-3.413333V413.013333a32 32 0 0 0-63.850667-3.072L906.656 413.013333V608H117.322667V0h273.002666a32 32 0 0 0 3.093334-63.850667l-3.093334-0.149333H106.656a53.333333 53.333333 0 0 0-53.226667 49.834667L53.322667-10.666667V648.064A32 32 0 0 0 56.202667 661.333333l1.6 3.050667 121.813333 205.482667A53.333333 53.333333 0 0 0 221.706667 895.872L225.482667 896h573.013333z m-114.773333-605.866667a144 144 0 1 1 0-288 144 144 0 0 1 0 288z m-28.544 204.8a32 32 0 1 0 0-64h-368a32 32 0 1 0 0 64zM792.437333 832H231.562667l-94.848-160h750.613333L792.437333 832z"  horiz-adv-x="1024" />

    
    </font>
</defs>
</svg>
