<?xml version="1.0" encoding="UTF-8"?>
<svg width="12px" height="12px" viewBox="0 0 12 12" version="1.1" xmlns="http://www.w3.org/2000/svg" xmlns:xlink="http://www.w3.org/1999/xlink">
    <!-- Generator: Sketch 59.1 (86144) - https://sketch.com -->
    <title>图标/点赞</title>
    <desc>Created with Sketch.</desc>
    <g id="页面-1" stroke="none" stroke-width="1" fill="none" fill-rule="evenodd">
        <g id="10笔记详情" transform="translate(-76.000000, -320.000000)" fill-rule="nonzero">
            <g id="分组-4" transform="translate(15.000000, 136.000000)">
                <g id="分组-2" transform="translate(13.000000, 184.000000)">
                    <g id="图标/点赞" transform="translate(48.000000, 0.000000)">
                        <rect id="Background" fill="#D8D8D8" opacity="0" x="0" y="0" width="12" height="12"></rect>
                        <path d="M2.78056205,4.75862069 C2.98553205,4.75862069 3.15169307,4.92438096 3.15169307,5.12885662 L3.15169307,10.6823956 C3.15169307,10.8868713 2.98553205,11.0526316 2.78056205,11.0526316 L1.6459793,11.0526316 C1.44947422,11.0526316 1.28702789,10.8998295 1.27548872,10.7041366 L0.948020172,5.15059763 C0.935983919,4.94647482 1.09210089,4.7712668 1.29671719,4.75925958 L1.30760927,4.75878045 L1.30760927,4.75878045 L2.78056205,4.75862069 Z M6.85953749,0.315789474 C8.34752732,0.315789474 8.82621022,1.46788306 8.82621022,2.52397926 C8.82621022,3.00248545 8.75393153,3.49924638 8.60937413,4.01426207 L8.53162328,4.27158772 C8.48009779,4.43092936 8.42181314,4.5919781 8.35676935,4.75473394 L10.5708175,4.75473394 C11.1857275,4.75473394 11.6842105,5.25201476 11.6842105,5.86544174 C11.6842105,5.97152917 11.668975,6.07706946 11.6389684,6.17884608 L10.3598944,10.5172092 C10.2669844,10.8323412 9.97706757,11.0487448 9.64779379,11.0487448 L4.63621714,11.0487448 C4.22627714,11.0487448 3.8939551,10.7172243 3.8939551,10.308273 L3.8939551,4.75473394 C4.81356751,4.01426207 5.4764568,3.2737902 5.88262297,2.53331833 C6.49187223,1.42261052 6.12074121,0.315789474 6.85953749,0.315789474 Z" id="Combined-Shape" fill="#EBEDF8"></path>
                    </g>
                </g>
            </g>
        </g>
    </g>
</svg>