<?xml version="1.0" encoding="utf-8"?>
<!-- Generator: Adobe Illustrator 22.0.1, SVG Export Plug-In . SVG Version: 6.00 Build 0)  -->
<svg version="1.1" xmlns="http://www.w3.org/2000/svg" xmlns:xlink="http://www.w3.org/1999/xlink" x="0px" y="0px"
	 viewBox="0 0 1024 1024" style="enable-background:new 0 0 1024 1024;" xml:space="preserve">
<g id="参考线">
</g>
<g id="图形">
	<path d="M835.6,64H188.4c-55.2,0-99.6,44.5-99.6,99.3v697.4c0,54.9,44.6,99.3,99.6,99.3h647.1c55.2,0,99.6-44.5,99.6-99.3V163.3
		C935.1,108.4,890.6,64,835.6,64z M293.4,193.9c41.3,0,74.7,33.2,74.7,74.7c0,41.3-33.2,74.7-74.7,74.7c-41.3,0-74.7-33.2-74.7-74.7
		C218.7,227.3,251.9,193.9,293.4,193.9z M521.8,756.6h-303v-49.8h303V756.6z M694.9,626.7H218.7V577h476.2V626.7z M694.9,496.9
		H218.7v-49.8h476.2V496.9z"/>
</g>
</svg>
