<?xml version="1.0" encoding="UTF-8"?>
<svg width="200px" height="167px" viewBox="0 0 200 167" version="1.1" xmlns="http://www.w3.org/2000/svg" xmlns:xlink="http://www.w3.org/1999/xlink">
    <!-- Generator: Sketch 57.1 (83088) - https://sketch.com -->
    <title>icon_daoru@8x</title>
    <desc>Created with Sketch.</desc>
    <g id="页面-1" stroke="none" stroke-width="1" fill="none" fill-rule="evenodd">
        <g id="画板" transform="translate(-437.000000, -41.000000)" fill="#000000" fill-rule="nonzero">
            <g id="icon_daoru" transform="translate(437.000000, 41.000000)">
                <path d="M178.75,26.7500586 L104.5,26.7500586 C101.499941,26.7500586 98.5000586,25.6250586 96.625,23.3750586 L84.6249414,11.375 C82.3749414,9.125 79.75,8 76.7499414,8 L21.25,8 C14.8749414,8 10,12.8751172 10,19.25 L10,146.750117 C10,153.125 14.8749414,158.000117 21.25,158.000117 L178.75,158.000117 C185.125059,158.000117 190,153.125 190,146.750117 L190,38.0000586 C190,31.625 185.125059,26.7500586 178.75,26.7500586 Z M136.374941,95.3750586 L104.874941,129.125059 C103.375,130.625 101.499941,131.375059 99.2499414,131.375059 C97.3750586,131.375059 95.1250586,130.625 93.6249414,129.125059 L62.1249414,95.3750586 C57.6249414,90.5001172 60.9999414,83.0000586 67.7499414,83.0000586 L85.0000586,83.0000586 L85.0000586,60.5000586 C85.0000586,56.375 88.3750586,53 92.4999414,53 L107.500059,53 C111.624941,53 114.999941,56.375 114.999941,60.5000586 L114.999941,83.0000586 L130.749941,83.0000586 C137.499941,83.0000586 140.874941,90.8750586 136.374941,95.3750586 L136.374941,95.3750586 Z" id="形状"></path>
            </g>
        </g>
    </g>
</svg>