<?xml version="1.0" encoding="utf-8"?>
<!-- Generator: Adobe Illustrator 22.0.1, SVG Export Plug-In . SVG Version: 6.00 Build 0)  -->
<svg version="1.1" xmlns="http://www.w3.org/2000/svg" xmlns:xlink="http://www.w3.org/1999/xlink" x="0px" y="0px"
	 viewBox="0 0 1024 1024" style="enable-background:new 0 0 1024 1024;" xml:space="preserve">
<style type="text/css">
	.st0{fill:#070707;}
</style>
<g id="参考线">
</g>
<g id="图形">
	<g>
		<g>
			<path class="st0" d="M833.9,734.7c0.7-3.4,3.6-3.3,6-3.8c40.9-7.7,70.4-30.9,90.5-66.7c20.6-36.7,26.8-76.8,27.1-118.2
				c0.1-10.8-5.9-12.7-14.9-12.7c-45,0.2-90.1,0.3-135.1-0.1c-11.2-0.1-13.6,4.7-14.3,14.8c-3.6,52.3-35.9,88.9-87.1,98.8
				c-12.1,2.3-24.6,3.5-37,3.6c-39.8,0.5-31.6,0.8-71.4,0.1c-13.8-0.2-17.8,4.8-17.7,18.1c0.6,47.1,0.6,94.2,0,141.3
				c-0.2,14,5.2,17.7,18.3,17.6c43.5-0.6,38.8-0.4,82.3-0.2c63.7,0.4,100.4,31.3,111.5,94c1.2,6.6,1.9,13.4,1.5,20.1
				c-0.7,11.8,6,18,18.5,18.1c63.9,0.4,88.2,0.3,135.6,0c7.6-0.1,11.7-1.8,11.3-10.4c-2.3-46.3-7.8-91.8-27.5-134.4
				c-18.4-39.7-46.5-68.1-91.3-76.5C837.5,737.9,834.7,738,833.9,734.7z"/>
		</g>
		<g>
			<path class="st0" d="M643.1,73.2c-34.9,0-15.8,0.5-44.7-0.2c-13.1-0.3-18.5,3.6-18.3,17.6c0.7,46,0.8,92.1-0.1,138.1
				c-0.3,15,5.6,18.3,19.2,18c40.3-0.7,32.6-0.4,73-0.2c70.9,0.4,108.8,32,122,101.7c1.5,8,4.3,13.3,13.8,13.2
				c46.6-0.3,93.1-0.2,139.7-0.2c7.5,0,11.2-2,10.8-10.8c-1.8-42.2-8.8-83.4-24.4-122.7c-32.1-81-89.5-132.7-176.1-149.7
				C717.9,70.3,677.4,74.3,643.1,73.2z"/>
		</g>
		<g>
			<path class="st0" d="M139,567.4c0-115.9,0-343.8,0-459.8c0-43.7,0-43.7-44.5-43.6c-22.9,0.1-29.4,0.1-29.4,23.4
				c0,237,0,586.1,0,823.1c0,45.5,6.4,45.5,52.6,45.3c21.1-0.1,21.2-0.1,21.2-21.9C139,811.7,139,689.5,139,567.4z"/>
		</g>
		<g>
			<path class="st0" d="M399.5,565.8c0-115.9,0-343.8,0-459.8c0-42.1,0-42.1-42.8-42c-24.5,0-30.9,0-30.9,25c0,236.5,0,585,0,821.5
				c0,45.4,6.4,45.4,51.2,45.3c22.5-0.1,22.6-0.1,22.6-22C399.5,811.1,399.5,688.5,399.5,565.8z"/>
		</g>
	</g>
</g>
</svg>
