<?xml version="1.0" encoding="utf-8"?>
<!-- Generator: Adobe Illustrator 22.0.1, SVG Export Plug-In . SVG Version: 6.00 Build 0)  -->
<svg version="1.1" xmlns="http://www.w3.org/2000/svg" xmlns:xlink="http://www.w3.org/1999/xlink" x="0px" y="0px"
	 viewBox="0 0 1024 1024" style="enable-background:new 0 0 1024 1024;" xml:space="preserve">
<style type="text/css">
	.st0{fill:#050404;}
</style>
<g id="参考线">
</g>
<g id="图形">
	<g>
		<g>
			<path class="st0" d="M766.1,611.1c12.7,9,22.1,14.4,29.9,21.5c32.3,29.4,36.7,69.7,11.7,103.1c-23.5,31.5-65.1,40.4-98.4,21
				c-35.4-20.6-48-60.2-30.8-99.3c6.2-14,14.4-27.1,21.1-40.9c67.7-140.6,30.4-315.1-87.4-409.2C500.9,118.4,351.8,107,228,177.9
				C108.7,246.3,46.3,381.2,68.4,522.7c38.4,245.5,258.4,403.6,504.7,363.4c87.8-14.3,161-56,227.8-112.8
				c53-45.1,102.4-32.1,132.4,31.3c2.3,4.9,7.8,12.3,11.4,10.8c27.7-12,17.9-96.4-33.2-116.2c-24.5-9.5-30.7-23.5-35.7-46.3
				C864.8,602.6,818,584.4,766.1,611.1z"/>
		</g>
	</g>
</g>
</svg>
