<?xml version="1.0" encoding="utf-8"?>
<!-- Generator: Adobe Illustrator 22.0.1, SVG Export Plug-In . SVG Version: 6.00 Build 0)  -->
<svg version="1.1" id="图层_1" xmlns="http://www.w3.org/2000/svg" xmlns:xlink="http://www.w3.org/1999/xlink" x="0px" y="0px"
	 viewBox="0 0 1024 1024" style="enable-background:new 0 0 1024 1024;" xml:space="preserve">
<g id="参考线">
</g>
<g id="图形">
	<g>
		<path d="M274.7,295.2c9-9.7,9.7-24.7,0-34.3L192,178.7L180.2,167c-9-9-25.6-9.7-34.5,0c-9,9.7-9.7,24.7,0,34.3l82.7,82.2
			l11.8,11.7C249.2,304.2,265.8,304.9,274.7,295.2z"/>
		<path d="M663.3,779.9L663.3,779.9L663.3,779.9L663.3,779.9C663.3,779.8,663.3,779.9,663.3,779.9z"/>
		<path d="M568.2,432.9l0.3,0.3l0.1,0.1C568.5,433.1,568.4,433,568.2,432.9z"/>
		<path d="M878.2,166.9c-9.7-8.9-24.9-9.6-34.5,0L761,249.1l-11.8,11.7c-9,9-9.7,25.5,0,34.3c9.8,8.9,24.9,9.6,34.6,0l82.7-82.2
			l11.8-11.7l0,0C887.3,192.3,888,175.8,878.2,166.9z"/>
		<path d="M644.4,286.9c-45.2-24.1-96.2-35.5-147.4-32.7c-50.3,2.9-99.8,18.9-141.4,47.3c-40.7,27.8-74.5,65.8-95.5,110.5
			c-22.2,47.4-31.7,100.5-24.8,152.5c7.3,57.3,32,111,71,153.6c11.3,12.4,23.7,23.6,37.2,33.5h0.1c0.4,0.5,1,0.9,1.5,1.3
			c1.5,1.4,3.1,4.1,4.8,5.5l2,3.1c1.7,2.8,3.3,5.7,4.9,8.6c2.9,5.5,5.5,11.2,8,16.9l1.5,3.5l2.5,6.2l4.5,11.4
			c3.2,8.2,6.4,16.5,9.7,24.7c7.1,18.3,15.2,36.2,24.5,53.6c17.7,32,44.6,63.6,82.4,71.3c6.3,1.2,12.6,1.9,19,2.1
			c1.1,0.2,2.2,0.2,3.2,0.2h7.4c2.3,0,4.6-0.4,6.9-1.1c28.9-4.2,55-19.3,73.2-42.1c21.1-26.1,34.1-56.8,45.7-88
			c4.9-13.3,9.6-26.7,14.6-39.9c1.2-3,2.3-6,3.6-9l-0.5,1l0.5-1.1l0,0l0,0l0.3-0.7c2.6-6.1,5.6-12.1,9-17.8c1-1.7,2.1-3.3,3.2-4.9
			c0.6-0.7,1.2-1.5,1.9-2.1c0.6-0.7,1.3-1.3,2.1-1.9l0.3-0.3c5.5-4.1,10.8-8.4,16-12.8c60.2-52.5,94.8-128.4,94.9-208.2
			c-0.1-50.7-14-100.4-40.4-143.7C724.6,345,688,310.4,644.4,286.9z M502.7,822.3c-13.7,0-23.9-11.1-24.4-24.3
			c-0.6-13.1,11.6-24.3,24.4-24.3c13.7,0,23.9,11.1,24.5,24.3S515.5,822.3,502.7,822.3z M626.2,591.6c-23.9,31.5-59.7,51.9-99,56.4
			v82.3c0,13.6-11.2,23.7-24.5,24.3c-13.2,0.6-24.4-11.6-24.4-24.3v-13.4v-92.3c0-13.6,11.2-23.7,24.4-24.3c1.8-0.1,3.6,0.1,5.4,0.4
			c1.3-0.2,2.6-0.3,3.9-0.4c3.8,0,7.6-0.2,11.4-0.5c4.6-1.1,9.3-1.6,13.9-2.9c2.2-0.6,4.4-1.3,6.5-2c1.3-0.4,2.5-0.9,3.8-1.4
			c0.1,0,0.2,0,0.3-0.1l2-0.9l3-1.5c2-1,4-2.1,5.9-3.2c3.9-2.3,7.5-5.1,11.3-7.5l0.1-0.1l2-1.8c1.7-1.4,3.3-2.9,4.9-4.5
			c2.6-2.5,4.9-5.4,7.3-8.1c0,0.1,1.2-0.9,1.9-2l0.3-0.3l0.3-0.3l-0.3,0.3l1.3-1.8c1.5-2.2,3-4.4,4.4-6.7c2.1-3.4,3.8-7,5.6-10.6
			l-0.2,0.8c0.1-0.5,0.3-0.9,0.5-1.4v-0.1c2.6-6.4,4.6-13.1,5.9-19.9c0.4-2.1,0.7-4.1,1.1-6.2c-1.5,8.1-0.1,0.2,0-1.9
			c0.3-4.5,0.4-9,0.2-13.5c-0.1-2.1-0.2-4.2-0.4-6.3l-0.2-1.9c-1.4-8.4-4.6-16-6.9-24.1c-0.4-0.7-0.7-1.5-1-2.2
			c-0.9-1.8-1.9-3.5-2.8-5.3c-2.1-3.7-4.3-7.2-6.8-10.7l-1.5-1.9c-1.2-1.3-2.3-2.7-3.5-4c-2.8-3.1-5.8-6.1-9-8.9
			c-0.7-0.6-1.4-1.2-2.2-1.8c0.1,0.3-0.5-0.1-2.6-2.2l-1.3-0.9c-5.3-3.7-10.9-7-16.8-9.7l-1.7-0.8c-3.8-1.3-7.6-2.8-11.5-3.9
			s-7.8-2-11.7-2.6h0.6h-0.9l-0.8-0.1l-1-0.1h-0.1c-6.9-0.6-13.7-0.7-20.6-0.2l-2.3,0.2c-1.9,0.4-3.8,0.6-5.7,0.9
			c-6.4,1.3-12.8,3.2-18.9,5.6l-1.1,0.4c-7.6,3.5-14,8.2-21,12.6l-2.1,1.7c-4.6,4.1-9,8.5-13,13.2l-0.1,0.1v-0.1c0,0,0,0,0.1-0.1
			l0.5-0.7c-0.5,0.7-1.1,1.4-1.6,2.1c-3.7,5-7,10.3-9.8,15.9c-1,2-1.8,4.1-2.9,6.1l1.5-2.6c-0.4,0.8-1.4,2.6-1.8,3.7
			c-2.2,6.2-4,12.6-5.2,19.1l-0.3,1.8c-0.4,4.3-0.7,8.4-0.7,12.7c-0.1,13.6-11.1,23.7-24.4,24.3c-13.1,0.6-24.5-11.6-24.5-24.3
			c0.4-49.7,26.6-95.7,69.2-121.4c37-22.2,84.8-26.5,125-10.3c41.2,16.6,73.3,50.7,85.4,93.6C660.8,510.7,652.6,557.4,626.2,591.6z"
			/>
		<path d="M512,239.1c13.3-0.6,24.5-10.7,24.5-24.3V88.3c0-12.7-11.2-24.9-24.5-24.3c-13.2,0.6-24.4,10.7-24.4,24.3V199v15.8
			C487.6,227.5,498.8,239.7,512,239.1z"/>
		<path d="M568.7,433.3c0.8,0.7,1.6,1.4,2.5,2.1c-0.3-0.5-0.7-0.8-1.2-1.1L568.7,433.3z"/>
	</g>
</g>
</svg>
