<?xml version="1.0" standalone="no"?><!DOCTYPE svg PUBLIC "-//W3C//DTD SVG 1.1//EN" "http://www.w3.org/Graphics/SVG/1.1/DTD/svg11.dtd"><svg class="icon" width="16px" height="16.00px" viewBox="0 0 1024 1024" version="1.1" xmlns="http://www.w3.org/2000/svg"><path fill="#ffffff" d="M583.241 889.046v-224.49H442.212v224.97c-4.318 0-8.156 0.481-11.512 0.481H231.154c-23.024 0-38.374-14.868-38.374-38.855-0.481-92.258-0.481-184.518 0-276.776 0-4.796 3.837-11.031 7.194-14.391 60.442-52.763 120.88-105.528 181.321-158.776 40.295-35.018 80.585-70.513 120.879-105.531 3.356-2.879 6.235-5.277 10.073-8.633 23.983 21.108 47.969 41.734 71.952 62.838 78.669 69.073 157.337 138.149 236.484 206.741 8.633 7.194 11.993 14.868 11.993 26.862-0.481 87.62-0.482 175.243 0 262.863 0 15.831-3.837 29.741-16.789 38.374-4.796 3.356-11.031 5.758-16.308 5.758-70.513 0.481-141.507 0-212.019 0-1.443-0.477-2.402-0.958-4.318-1.436l-0.001 0.001z m106.007-621.188V162.329c0-21.585 4.796-26.862 25.422-26.862h95.457c16.308 0 22.066 6.235 22.066 24.464 0 72.911 0.481 146.302 0 219.214 0 11.512 2.879 18.706 11.031 25.903 35.018 29.741 69.073 60.44 103.61 90.657 16.789 14.868 17.27 22.066 2.879 39.813-8.633 10.554-16.789 21.585-25.903 32.62-10.554 13.433-19.668 13.91-32.139 2.879-122.318-108.408-244.158-216.336-366.476-324.742-4.319-3.837-8.633-7.194-13.433-11.512-27.343 24.464-54.682 48.447-82.025 72.433-99.291 87.779-198.105 175.562-297.4 263.344-13.433 11.993-21.585 11.031-33.097-2.879-9.114-11.512-18.706-23.505-27.82-35.018-10.554-13.91-10.073-22.543 2.879-34.059 55.163-48.928 110.808-98.334 165.97-147.261 73.873-65.236 147.741-129.994 221.616-195.711 33.578-29.741 66.194-29.741 99.773 0 39.813 35.495 79.627 70.513 119.44 106.011 1.917 1.439 4.315 3.356 8.152 6.235h-0.002z" /></svg>