<?xml version="1.0" standalone="no"?><!DOCTYPE svg PUBLIC "-//W3C//DTD SVG 1.1//EN" "http://www.w3.org/Graphics/SVG/1.1/DTD/svg11.dtd"><svg t="1580797586055" class="icon" viewBox="0 0 1024 1024" version="1.1" xmlns="http://www.w3.org/2000/svg" p-id="5581" xmlns:xlink="http://www.w3.org/1999/xlink" width="48" height="48"><defs><style type="text/css"></style></defs><path d="M711.94181844 75.63636406c154.58181844 0 275.62909125 121.09090875 275.62909031 275.93454469 0 167.62909125-130.99636406 299.21454562-333.88363594 485.06181844l-59.01818156 53.89090875-63.70909125 56.74909125a31.24363594 31.24363594 0 0 1-39.18545437 1.96363687l-2.46545438-1.96363687-74.00727281-66.04363594-64.42909125-58.90909125C224.30545437 705.96363594 127.41090875 610.55272719 75.35272719 512.93818156h210.52363687l2.77090875-0.17454562a21.81818156 21.81818156 0 0 0 15.64363594-9.94909032l45.07636406-70.99636406 84.17454563 164.09454563 1.4618175 2.44363687a21.81818156 21.81818156 0 0 0 37.04727281-1.85454562l70.84363688-128.22545438 16.32 29.3018175 1.37454562 2.18181844a21.81818156 21.81818156 0 0 0 17.3018175 9.01090875l239.86909125 4.16727281 2.55272719-0.10909031a21.81818156 21.81818156 0 0 0 19.63636406-21.3381825l-0.10909125-2.53090875a21.81818156 21.81818156 0 0 0-21.33818156-19.63636406l-227.28-3.97090875-29.32363688-52.66909125-1.50545437-2.35636313a21.81818156 21.81818156 0 0 0-36.65454563 2.42181844l-70.08 126.80727281-82.86545437-161.54181844-1.41818157-2.37818156a21.81818156 21.81818156 0 0 0-36.43636406 0.65454469l-59.0618175 93.01090969H56.69818156l-1.4618175 0.06545437-1.61454562-4.10181844c-13.74545437-36.69818156-21.03272719-74.18181844-21.03272719-113.71636312C32.58909125 196.77090875 153.74545438 75.63636406 308.28363594 75.63636406a292.97454563 292.97454563 0 0 1 201.86181843 80.92363594A292.86545438 292.86545438 0 0 1 711.96363594 75.63636406z" p-id="5582"></path></svg>