<?xml version="1.0" standalone="no"?><!DOCTYPE svg PUBLIC "-//W3C//DTD SVG 1.1//EN" "http://www.w3.org/Graphics/SVG/1.1/DTD/svg11.dtd"><svg class="icon" width="16px" height="16.00px" viewBox="0 0 1024 1024" version="1.1" xmlns="http://www.w3.org/2000/svg"><path fill="#ffffff" d="M719.114 137.021a258.439 258.439 0 0 0-180.896-73.02 257.858 257.858 0 0 0-180.472 73.02c-50.439 48.867-72.845 103.947-72.359 173.561a258.455 258.455 0 0 0 3.007 33.984c16.979 98.982 90.735 208.293 136.895 268.625a48.098 48.098 0 0 0 4.678 5.764 604.16 604.16 0 0 0 80.767 81.329l27.633 22.144 27.509-22.306a627.235 627.235 0 0 0 80.555-81.553 48.028 48.028 0 0 0 4.666-5.888c56.14-73.731 120.901-175.457 136.695-267.939a264.727 264.727 0 0 0 3.119-35.256c0.599-69.117-21.645-123.847-71.797-172.465zM537.169 408.665c-41.857 0-75.789-33.932-75.789-75.789 0-41.859 33.93-75.795 75.789-75.802 41.864 0 75.802 33.938 75.802 75.802-0.007 41.859-33.942 75.789-75.802 75.789z"  /><path fill="#ffffff" d="M730.068 827.135H162.053c-54.506 0-95.613-38.911-95.613-90.511 0-51.599 41.157-90.511 95.613-90.511h126.378c13.346-0.007 24.171 10.807 24.178 24.153v0.025c0 13.346-10.819 24.165-24.165 24.165H162.053c-22.768 0-47.27 13.187-47.27 42.155 0 27.683 23.779 42.168 47.27 42.168h568.015c13.35-0.303 24.417 10.273 24.721 23.622 0.303 13.35-10.273 24.417-23.622 24.721a25.12 25.12 0 0 1-1.098 0l-0.001 0.013z"  /><path fill="#ffffff" d="M861.935 960H214.176c-13.346 0.007-24.171-10.807-24.178-24.153v-0.012c0-13.346 10.819-24.165 24.165-24.165h647.771c22.768 0 47.283-13.199 47.283-42.168 0-28.968-24.515-42.155-47.283-42.155h-141.76c-13.35 0-24.172-10.822-24.172-24.172 0-13.35 10.822-24.172 24.172-24.172h141.76c54.518 0 95.626 38.911 95.626 90.498S916.391 960 861.935 960z"  /></svg>