<?xml version="1.0" encoding="utf-8"?>
<!-- Generator: Adobe Illustrator 22.0.1, SVG Export Plug-In . SVG Version: 6.00 Build 0)  -->
<svg version="1.1" xmlns="http://www.w3.org/2000/svg" xmlns:xlink="http://www.w3.org/1999/xlink" x="0px" y="0px"
	 viewBox="0 0 1024 1024" style="enable-background:new 0 0 1024 1024;" xml:space="preserve">
<g id="参考线">
</g>
<g id="图形">
	<path d="M709.2,456c-123.7-1.4-225.1,97.8-226.5,221.5S580.5,902.6,704.2,904c1.7,0,3.3,0,5,0c123.7-1.4,222.9-102.8,221.5-226.5
		C929.4,555.7,831,457.3,709.2,456z M799,542.4l19.8,19.8l-87.4,87.4l-19.8-19.8L799,542.4L799,542.4z M619.4,542.4l87.4,87.3
		l-19.8,19.8l-87.4-87.4L619.4,542.4L619.4,542.4z M821.2,680h-84v56h84v28h-84v84h-56v-84h-84v-28h84v-56h-84v-28h224L821.2,680
		L821.2,680z M429.2,680c0-51.1,13.9-98.8,37.8-140H219.2c-7.7,0-14-6.3-14-14c0,0,0,0,0,0v-28c0-7.7,6.2-14,14-14c0,0,0,0,0,0
		h290.2c52.6-53.8,124.6-84,199.8-84c29.2,0,57.5,4.5,84,12.8V120c0-30.9-25.1-56-56-56c0,0,0,0,0,0h-448l-196,196v644
		c0,30.9,25.1,56,56,56h560C554.5,960,429.2,834.7,429.2,680L429.2,680z M205.3,330c0-7.7,6.2-14,14-14h448c7.7,0,14,6.3,14,14
		c0,0,0,0,0,0v28c0,7.7-6.2,14-14,14c0,0,0,0,0,0h-448c-7.7,0-14-6.3-14-14c0,0,0,0,0,0V330z M345.2,694c0,7.7-6.3,14-14,14
		c0,0,0,0,0,0h-112c-7.7,0-14-6.3-14-14l0,0v-28c0-7.7,6.2-14,14-14c0,0,0,0,0,0h112c7.7,0,14,6.3,14,14V694z"/>
</g>
</svg>
