<?xml version="1.0" encoding="utf-8"?>
<!-- Generator: Adobe Illustrator 22.0.1, SVG Export Plug-In . SVG Version: 6.00 Build 0)  -->
<svg version="1.1" xmlns="http://www.w3.org/2000/svg" xmlns:xlink="http://www.w3.org/1999/xlink" x="0px" y="0px"
	 viewBox="0 0 1024 1024" style="enable-background:new 0 0 1024 1024;" xml:space="preserve">
<g id="参考线">
</g>
<g id="图形">
	<g>
		<path d="M535.4,64.2c10.9,0,21.8,0,32.7,0c21.1,11.1,28.8,28.9,28.6,52.3c-0.6,73.1-0.2,146.2-0.2,219.2c15.4,0,29.6,0,44.4,0
			c0-50.4-0.3-99.5,0-148.5c0.2-24.4,14.8-41.4,35.5-42.9c23.2-1.6,40.6,15.4,40.7,40.7c0.3,50.1,0.1,100.2,0.1,152.4
			c46.2,0,90.5,0,135.4,0c0,132.1,0,262.1,0,394.3c-25.1,0-49.2,0.5-73.1-0.2c-12.3-0.4-17.1,2.5-19.7,16.2
			c-18.1,97.2-72.8,165.6-166.9,197.4c-94.1,31.7-179.5,11.6-252.6-55.2c-41.1-37.5-65.3-85-74.6-140c-1.3-7.5,1-18.3-12.5-18
			c-27.1,0.7-54.3,1.2-81.5,1.7c0-132.2,0-264.4,0-396.5c30,0,60.1,0,90.9,0c0-7.4,0-12.2,0-16.9c0-35.7-0.5-71.5,0.1-107.2
			c0.3-23.1,17.1-42.3,36.1-43.2c18.8-0.8,35.9,15.2,39.3,38.2c1.3,8.9,0.8,18.1,0.8,27.1c0.1,33.7,0,67.4,0,100.7
			c16.1,0,29.8,0,44.3,0c0-7.9,0-14.5,0-21.1c0-57.5-0.1-115.1,0.1-172.6c0-28.3,14.6-45.5,37.9-45.7c24.2-0.2,38.3,16,38.3,44.8
			c0.1,40.6,0.1,81.2,0.1,121.8c0,24,0,48.1,0,73.1c16.4,0,31.2,0,44.8,0c0-70.1,0.8-139.1-0.4-208.1
			C503.5,100.1,509.9,78.1,535.4,64.2z M807.5,384.3c-197.5,0-393.4,0-589.3,0c0,100.9,0,200.1,0,300.3c151.1,0,301,0,452.6,0
			c0.3-7.4,0.8-13.9,0.8-20.3c0.1-46.6-0.1-93.3,0.1-139.9c0.1-31.2,18.5-51.5,46.1-51.3c26.7,0.2,44.8,20.5,44.9,50.7
			c0.2,47.3,0,94.6,0.1,141.8c0,6.3,0.9,12.7,1.4,18.8c15.7,0,29.3,0,43.4,0C807.5,583.8,807.5,484.6,807.5,384.3z"/>
		<path d="M537.3,595.3c-6.5,19.5,10.1,47.5-23.7,50.6c-11.6,1.1-22-3.5-23.4-17.3c-0.8-10.2-0.1-20.5-0.1-33.3
			c-16.2,0-31.2,0.1-46.1,0c-11-0.1-22-2.3-22.4-15.7c-0.5-14.4,11.3-15,22-15.2c12.1-0.2,24.3,0.4,36.3-0.6c3.3-0.3,6.2-5,9.3-7.6
			c-3.1-2.1-6-5.8-9.1-6c-13.4-0.8-27.1,1.2-39.8-1.4c-7-1.4-12.5-9.8-18.7-15.1c6.3-5,12.1-12.8,19.2-14.5
			c10.8-2.5,22.6-0.6,38.3-0.6c-15-23.3-27.8-43.4-40.7-63.5c-7.6-11.8-14.7-23.7,0.6-34.7c12.1-8.7,25.4-4.2,36.5,12
			c14,20.4,27.6,40.9,42.9,63.7c15.3-23,29.2-44,43.3-64.8c10.1-14.9,23.3-19.4,35-11.2c14.3,10,8.8,21.9,1.8,33.3
			c-12.8,20.4-25.8,40.7-41.3,65.2c15.1,0,27.2-1.8,38.3,0.7c7.1,1.6,12.9,9.5,19.2,14.6c-6.3,5.2-12.1,13.9-19.1,14.8
			c-16,2.3-32.6,0.5-48.9,1.4c-3.7,0.3-7.3,5-10.9,7.7c3.6,2.1,7,5.9,10.8,6.1c15.7,0.7,31.5,0.3,47.2,0.4
			c10.5,0.1,20.6,2.6,20.6,15.2c0,12.5-10.4,15.3-20.5,15.5C575,595.5,556.4,595.3,537.3,595.3z"/>
	</g>
</g>
</svg>
