<?xml version="1.0" encoding="utf-8"?>
<!-- Generator: Adobe Illustrator 22.0.1, SVG Export Plug-In . SVG Version: 6.00 Build 0)  -->
<svg version="1.1" xmlns="http://www.w3.org/2000/svg" xmlns:xlink="http://www.w3.org/1999/xlink" x="0px" y="0px"
	 viewBox="0 0 1024 1024" style="enable-background:new 0 0 1024 1024;" xml:space="preserve">
<g id="参考线">
</g>
<g id="图形">
	<path d="M764.1,344h-56c-15.5,0-28,12.5-28,28v56c0,15.5,12.5,28,28,28h56c15.5,0,28-12.5,28-28v-56C792,356.6,779.4,344,764.1,344
		z M848,176H176c-61.9,0-112,50.2-112,112v448c0,61.9,50.2,112,112,112H848c61.9,0,112-50.2,112-112V288
		C960,226.1,909.9,176,848,176z M540,736.1H204c-15.5,0-28-12.5-28-28s12.5-28,28-28h336c15.5,0,28,12.5,28,28
		C568,723.6,555.5,736.1,540,736.1z M540,624H204c-15.5,0-28-12.5-28-28s12.5-28,28-28h336c15.5,0,28,12.5,28,28
		C568,611.5,555.5,624,540,624z M848,456c0,30.9-25.1,56-56,56H680c-30.9,0-56-25.1-56-56V344c0-30.9,25.1-56,56-56h112
		c30.9,0,56,25.1,56,56V456z"/>
</g>
</svg>
