<?xml version="1.0" standalone="no"?><!DOCTYPE svg PUBLIC "-//W3C//DTD SVG 1.1//EN" "http://www.w3.org/Graphics/SVG/1.1/DTD/svg11.dtd"><svg class="icon" width="16px" height="16.00px" viewBox="0 0 1024 1024" version="1.1" xmlns="http://www.w3.org/2000/svg"><path fill="#62b5ff" d="M793.92 683.776C797.328 605.232 912 600.704 912 680c-7.68 132.32-74.784 210.592-157.136 243.008 0.288 0.096 0.656 0.096 0.96 0.192-19.536 11.152-49.2 25.04-80 30.432-339.872 48.768-480.416-193.488-502.88-349.536-20.192-140.352 54.112-245.36 57.152-269.76-18.4-72.384-116.208 1.248-118.096-15.2C134.368 188.8 301.552 198.24 344.384 216.48c258.08-258.8 475.312-133.472 460.896-22.784 65.968-4.352 95.728 25.328 91.456 49.44-14.592 61.232-75.44 68.224-118.08 60.768-34.224-5.952-53.168-22.976-53.36-15.216-0.48 26.464 64.72 28.448 57.152 37.984-24.832 10.88-127.952 27.424-137.152 49.44-21.408 202.832-177.12 176.464-163.856 167.2 61.6-47.536 32.88-112.384-15.264-79.776C230.752 644.64 371.68 938.864 606.448 935.28c-132.224-26.752-240.832-151.328-163.024-342.72 7.872-4.256 7.584 3.776 7.584 3.776-30.512 128.256 3.792 208.224 60.656 246.976 109.28 16.544 236.272-75.904 209.552-217.488C711.168 547.936 823.568 523.84 837.12 602c0.96 7.472 1.616 14.848 2.08 22.032-25.008 5.28-47.664 25.52-49.088 59.728 1.712 118.912-93.728 186.96-185.936 187.616 93.44 1.232 191.52-67.104 189.728-187.616zM679.616 258.272a45.76 45.76 0 0 0 34.688-15.888 36.16 36.16 0 0 1-53.744-31.568 36.16 36.16 0 0 1 36.208-36.112c3.504 0 6.912 0.576 10.144 1.44a45.648 45.648 0 0 0-72.976 36.48 45.536 45.536 0 0 0 45.68 45.648z m22.832-62.672a9.248 9.248 0 0 0-4.736-8.32 9.6 9.6 0 0 0-9.568 0 9.632 9.632 0 0 0-4.736 8.32 9.536 9.536 0 0 0 19.04 0z" /></svg>