<?xml version="1.0" encoding="utf-8"?>
<!-- Generator: Adobe Illustrator 22.0.1, SVG Export Plug-In . SVG Version: 6.00 Build 0)  -->
<svg version="1.1" xmlns="http://www.w3.org/2000/svg" xmlns:xlink="http://www.w3.org/1999/xlink" x="0px" y="0px"
	 viewBox="0 0 1024 1024" style="enable-background:new 0 0 1024 1024;" xml:space="preserve">
<g id="参考线">
</g>
<g id="图形">
	<g>
		<path d="M828.3,211.3c-8.2,31.9-36.6,54.4-69.5,55.2H266.4c-33.1-0.6-61.6-23.2-69.9-55.2l-25.4-93.5
			c-7.2-21.4,4.4-44.5,25.7-51.7c5.1-1.7,10.5-2.4,15.8-2h600.8c22.5-1.6,42,15.4,43.6,37.9c0.4,5.4-0.3,10.7-2,15.8L828.3,211.3z"
			/>
		<g>
			<path d="M514.1,418.8c-36,0-65.1,29.2-65.1,65.1c0,36,29.2,65.1,65.1,65.1c36,0,65.1-29.2,65.1-65.1
				C579.2,447.9,550,418.8,514.1,418.8z"/>
			<path d="M884.2,174.5l-13.2,55.2c-14.9,48.9-59.3,82.9-110.4,84.6H267.2c-51.3-1.1-96-35.4-110.4-84.6l-14.7-55.2
				c-9.8,17.3-14.8,36.8-14.7,56.7v618.5c0,61,49.4,110.4,110.4,110.4H786c60.5-1.2,109.2-49.9,110.4-110.4v-620
				C897.8,210.5,893.6,191.3,884.2,174.5z M514.1,585.8c-56.3,0-101.9-45.6-101.9-101.9S457.8,382,514.1,382S616,427.6,616,483.9
				S570.3,585.8,514.1,585.8z"/>
		</g>
	</g>
</g>
</svg>
