<?xml version="1.0" encoding="utf-8"?>
<!-- Generator: Adobe Illustrator 22.0.1, SVG Export Plug-In . SVG Version: 6.00 Build 0)  -->
<svg version="1.1" xmlns="http://www.w3.org/2000/svg" xmlns:xlink="http://www.w3.org/1999/xlink" x="0px" y="0px"
	 viewBox="0 0 1024 1024" style="enable-background:new 0 0 1024 1024;" xml:space="preserve">
<g id="参考线">
</g>
<g id="图形">
	<path d="M64,754.7c0-113.4,91.9-205.3,205.3-205.3h149.3c30.9,0,56,25.1,56,56c0,0,0,0,0,0v149.3c0,113.4-91.9,205.3-205.3,205.3
		C155.9,960,64,868.1,64,754.7z M960,269.3c0,113.4-91.9,205.3-205.3,205.3H605.4c-30.9,0-56-25.1-56-56c0,0,0,0,0,0V269.3
		C549.3,155.9,641.3,64,754.7,64C868.1,64,960,155.9,960,269.3z M64,269.3C64,155.9,155.9,64,269.3,64
		c113.4,0,205.3,91.9,205.3,205.3v149.3c0,30.9-25.1,56-56,56c0,0,0,0,0,0H269.3C155.9,474.7,64,382.8,64,269.3z M944.3,723.1
		c8.7,0,15.8,7.1,15.7,15.8v31.6c0,8.7-7.1,15.8-15.8,15.8h-18.9c-8.7,0-17.9,6.8-20.5,15.1l-10.9,26.5c-4.1,7.7-2.4,19,3.7,25.1
		l13.5,13.4c6.2,6.2,6.2,16.2,0,22.4l-22.4,22.3c-6.2,6.1-16.2,6.1-22.3,0L853,897.6c-6.1-6.2-17.5-7.8-25.1-3.7l-26.5,10.9
		c-8.3,2.6-15.1,11.8-15.1,20.5v18.9c0,8.7-7.1,15.8-15.8,15.8h-31.6c-8.7,0-15.8-7.1-15.8-15.8v-18.9c0-8.7-6.8-17.9-15.1-20.5
		L681.5,894c-7.7-4.1-18.9-2.5-25,3.7L643,911.1c-6.2,6.1-16.1,6.1-22.3,0l-22.4-22.3c-6.1-6.2-6.1-16.2,0-22.4l13.4-13.4
		c6.2-6.1,7.8-17.4,3.7-25.1l-10.9-26.5c-2.6-8.3-11.8-15.1-20.5-15.1h-19c-8.7,0-15.8-7.1-15.8-15.8v-31.6
		c0-8.7,7.1-15.8,15.8-15.8h18.9c8.7,0,17.9-6.8,20.5-15.1l10.9-26.5c4.1-7.7,2.4-18.9-3.7-25.1L598.4,643c-6.2-6.2-6.2-16.2,0-22.3
		c0,0,0,0,0,0l22.3-22.3c6.2-6.2,16.1-6.2,22.3,0l13.5,13.4c6.2,6.1,17.4,7.8,25.1,3.7l26.5-10.8c8.3-2.6,15.1-11.8,15.1-20.5v-18.9
		c0-8.7,7.1-15.8,15.8-15.8h31.6c8.7,0,15.8,7.1,15.8,15.8v19c0,8.7,6.8,17.9,15.1,20.5l26.4,10.9c7.7,4.1,19,2.4,25.1-3.7
		l13.5-13.4c6.2-6.2,16.2-6.2,22.3,0c0,0,0,0,0,0l22.4,22.3c6.2,6.1,6.2,16.2,0,22.3l-13.4,13.4c-6.2,6.2-7.8,17.5-3.7,25.1
		l10.9,26.5c2.6,8.3,11.8,15.1,20.5,15.1L944.3,723.1L944.3,723.1z M825.2,753.4c0-39.7-32.1-71.8-71.8-71.8s-71.8,32.1-71.8,71.8
		c0,39.6,32.2,71.8,71.8,71.8l0,0C793.1,825.2,825.2,793.1,825.2,753.4C825.2,753.4,825.2,753.4,825.2,753.4z"/>
</g>
</svg>
