<?xml version="1.0" encoding="utf-8"?>
<!-- Generator: Adobe Illustrator 22.0.1, SVG Export Plug-In . SVG Version: 6.00 Build 0)  -->
<svg version="1.1" xmlns="http://www.w3.org/2000/svg" xmlns:xlink="http://www.w3.org/1999/xlink" x="0px" y="0px"
	 viewBox="0 0 1024 1024" style="enable-background:new 0 0 1024 1024;" xml:space="preserve">
<g id="参考线">
</g>
<g id="图形">
	<path d="M867,681.6c-48.2,0-87.2,39.1-87.2,87.2S818.9,856,867,856s87.2-39.1,87.2-87.2C954.3,720.6,915.2,681.6,867,681.6
		L867,681.6 M910.7,797.9l-14.5,14.5L867,783.3L838,812.4l-14.5-14.5l29.1-29.1l-29.1-29.1l14.5-14.5l29.1,29.1l29.1-29.1l14.5,14.5
		l-29.1,29.1L910.7,797.9L910.7,797.9"/>
	<path d="M910.7,797.9L910.7,797.9z"/>
	<g>
		<g>
			<path d="M846.1,183.5H177.9c-27.5,0-40.4,34.1-19.7,52.3l334.1,293.8c11.3,9.9,28.2,9.9,39.4,0l334.1-293.8
				C886.5,217.6,873.7,183.5,846.1,183.5z"/>
			<g>
				<path d="M772.1,768.8c0-52.3,42.4-94.8,94.8-94.8c46.3,0,84.8,33.1,93.1,77V298.5c0-25.7-30.3-39.4-49.6-22.4l-359,315.6
					c-22.6,19.8-56.3,19.8-78.9,0l-359-315.6c-19.3-17-49.6-3.3-49.6,22.4v482.3c0,33,26.7,59.7,59.7,59.7H805
					C784.9,823.2,772.1,797.5,772.1,768.8z"/>
			</g>
		</g>
	</g>
</g>
</svg>
