<?xml version="1.0" encoding="utf-8"?>
<!-- Generator: Adobe Illustrator 22.0.1, SVG Export Plug-In . SVG Version: 6.00 Build 0)  -->
<svg version="1.1" xmlns="http://www.w3.org/2000/svg" xmlns:xlink="http://www.w3.org/1999/xlink" x="0px" y="0px"
	 viewBox="0 0 1024 1024" style="enable-background:new 0 0 1024 1024;" xml:space="preserve">
<g id="参考线">
</g>
<g id="图形">
	<path d="M902.5,63.6H184V183H96.3C79.9,183,64,194.7,64,211.2v59.4c0,16.4,15.9,31.7,32.3,31.7h87.6v60H96.3
		c-16.4,0-32.3,11.7-32.3,28.3v60c0,16.4,15.9,31.7,32.3,31.7h87.6v58.8H96.3c-16.4,0-32.3,11.7-32.3,28.3v60
		c0,16.4,15.9,31.7,32.3,31.7h87.6v60H96.3c-16.4,0-32.3,11.7-32.3,28.3v60c0,16.4,15.9,31.7,32.3,31.7h87.6v119.4h718.5
		c33,0,57.6-28.8,57.6-61.7V122.4C960.1,88.3,935.4,63.6,902.5,63.6z M362.7,899.1H243.4v-60h32.3c16.4,0,27.6-15.3,27.6-31.7v-60
		c0-16.4-11.2-28.3-27.6-28.3h-32.3v-60h32.3c16.4,0,27.6-15.3,27.6-31.7v-58.2c0-16.4-11.2-28.3-27.6-28.3h-32.3v-59.9h32.3
		c16.4,0,27.6-15.3,27.6-31.7v-59.4c0-16.4-11.2-28.3-27.6-28.3h-32.3v-59.4h32.3c16.4,0,27.6-15.3,27.6-31.7v-60
		c0-16.4-11.2-28.3-27.6-28.3h-32.3v-59.4h119.4L362.7,899.1z"/>
</g>
</svg>
