<?xml version="1.0" encoding="UTF-8"?>
<svg width="28px" height="28px" viewBox="0 0 28 28" version="1.1" xmlns="http://www.w3.org/2000/svg" xmlns:xlink="http://www.w3.org/1999/xlink">
    <!-- Generator: Sketch 63.1 (92452) - https://sketch.com -->
    <title>icon/模块图标/km_agreement</title>
    <desc>Created with Sketch.</desc>
    <g id="icon/模块图标/km_agreement" stroke="none" stroke-width="1" fill="none" fill-rule="evenodd">
        <g id="icon/合同管理" fill="#000000">
            <path d="M19.5,12.5 C23.4055377,12.5 26.5,15.5944623 26.4995815,19.5354313 C26.4072721,23.4423013 23.3776324,26.5 19.5,26.5 C15.5944623,26.5 12.5,23.4055377 12.5,19.5 C12.5,15.5944712 15.5944827,12.5 19.5,12.5 Z M17.7343246,2.64938726 L19.95,2.65 C21.1650264,2.65 22.15,3.63497355 22.15,4.85 L22.1503631,11.3493236 C21.5046235,11.1545788 20.8254089,11.0370363 20.1234501,11.0074271 L19.770625,11 L19.229375,11 C14.7685826,11 11.136755,14.5492203 11.0037726,18.9777806 L11,19.229375 L11,19.770625 C11,21.8509967 11.7719529,23.7510691 13.04504,25.2000236 L6.2,25.2 C4.98497355,25.2 4,24.2150264 4,23 L4,4.85 C4,3.63497355 4.98497355,2.65 6.2,2.65 L8.41506011,2.65012294 C8.43084273,2.75568436 8.45908261,2.86031531 8.50002671,2.96205553 L9.27054853,4.8471677 C9.29499318,4.90826124 9.32378507,4.96770864 9.35672531,5.02509921 C9.72726556,5.57784655 10.3576839,5.91991278 11.0404097,5.94799894 L14.9430085,5.94841945 C15.6973669,5.9768993 16.4097189,5.61881011 16.8084824,5.01067233 C16.8394874,4.95471297 16.8665817,4.89688079 16.8895899,4.83754978 L17.6499733,2.95724657 C17.6903907,2.85681511 17.7184286,2.75356681 17.7343246,2.64938726 Z M19.5,14 C16.4229187,14 14,16.4228894 14,19.5 C14,22.5771106 16.4228894,25 19.5,25 C22.5771106,25 24.9272957,22.5771106 25,19.5 C25,16.4228894 22.5771106,14 19.5,14 Z M19.5,16 L20.5286242,18.0842203 L22.8286978,18.4184405 L21.1643489,20.0407797 L21.5572484,22.3315595 L19.5,21.25 L17.4427516,22.3315595 L17.8356511,20.0407797 L16.1713022,18.4184405 L18.4713758,18.0842203 L19.5,16 Z M10.8265,11.924 L7.5265,11.924 C7.07997778,11.924 6.718,12.2859778 6.718,12.7325 C6.718,13.1446744 7.02643077,13.4848108 7.42508348,13.5347006 L7.5265,13.541 L10.8265,13.541 C11.2730222,13.541 11.635,13.1790222 11.635,12.7325 C11.635,12.2859778 11.2730222,11.924 10.8265,11.924 Z M15.2265,8.0575 L7.5265,8.0575 C7.07997778,8.0575 6.718,8.41947778 6.718,8.866 C6.718,9.27817436 7.02643077,9.61831085 7.42508348,9.66820064 L7.5265,9.6745 L15.2265,9.6745 C15.6730222,9.6745 16.035,9.31252222 16.035,8.866 C16.035,8.41947778 15.6730222,8.0575 15.2265,8.0575 Z M16.0959593,2.3035 C16.2478376,2.3035 16.3709593,2.42662169 16.3709593,2.5785 C16.3709593,2.61217321 16.3647749,2.6455601 16.3527139,2.6769992 L15.671,4.454 C15.524631,4.59699957 15.3253979,4.67270815 15.121,4.663 L11.051,4.663 C10.8476097,4.67285804 10.6489912,4.5993692 10.501,4.4595 L9.81883675,2.67678005 C9.76455818,2.53493205 9.83554723,2.37594004 9.97739524,2.32166147 C10.0087709,2.30965546 10.042081,2.3035 10.0756753,2.3035 L16.0959593,2.3035 Z" id="形状结合"></path>
        </g>
    </g>
</svg>