<?xml version="1.0" encoding="utf-8"?>
<!-- Generator: Adobe Illustrator 22.0.1, SVG Export Plug-In . SVG Version: 6.00 Build 0)  -->
<svg version="1.1" xmlns="http://www.w3.org/2000/svg" xmlns:xlink="http://www.w3.org/1999/xlink" x="0px" y="0px"
	 viewBox="0 0 1024 1024" style="enable-background:new 0 0 1024 1024;" xml:space="preserve">
<g id="参考线">
</g>
<g id="图形">
	<g>
		<path d="M941.5,583.2c-4.5,0-9-1.6-12.6-4.9L512,189.5l-417,388.7c-7.5,7-19.1,6.5-26.1-0.9c-6.9-7.5-6.5-19.2,0.9-26.1
			l429.5-400.4c7.1-6.6,18.1-6.6,25.2,0l429.6,400.4c7.5,6.9,7.9,18.6,0.9,26.1C951.4,581.2,946.5,583.2,941.5,583.2z"/>
		<path d="M227.4,596.5"/>
		<path d="M861.8,654.8L524.6,340.4c-7.1-6.6-18.1-6.6-25.2,0L162.2,654.8c-3.7,3.5-5.9,8.4-5.9,13.5V807
			c0,39.2,31.9,71.1,71.1,71.1h569.2c39.2,0,71.1-31.9,71.1-71.1V668.3C867.7,663.2,865.6,658.3,861.8,654.8z M617.8,559.5l-81.2,96
			c0,0.6,0.2,1.3,0.2,1.9h48.6c10.2,0,18.5,8.3,18.5,18.5c0,10.2-8.3,18.5-18.5,18.5h-53.2v24.2h53.2c10.2,0,18.5,8.3,18.5,18.5
			c0,10.2-8.3,18.5-18.5,18.5h-53.2v45.3c0,10.2-8.3,18.5-18.5,18.5c-10.2,0-18.5-8.3-18.5-18.5v-45.3h-53.2
			c-10.2,0-18.5-8.3-18.5-18.5c0-10.2,8.3-18.5,18.5-18.5h53.2v-24.2h-53.2c-10.2,0-18.5-8.3-18.5-18.5c0-10.2,8.3-18.5,18.5-18.5
			h50.7c0-0.7,0.2-1.3,0.2-2l-81.4-95.9c-6.6-7.8-5.6-19.4,2.1-26c7.8-6.6,19.4-5.6,26,2.1l70.5,83c1.2-0.2,2.2-0.7,3.4-0.7
			c1.9,0,3.6,0.5,5.3,1.1l70.5-83.4c6.6-7.8,18.2-8.8,26-2.2C623.4,540.1,624.4,551.7,617.8,559.5z"/>
	</g>
</g>
</svg>
