<?xml version="1.0" encoding="utf-8"?>
<!-- Generator: Adobe Illustrator 22.0.1, SVG Export Plug-In . SVG Version: 6.00 Build 0)  -->
<svg version="1.1" xmlns="http://www.w3.org/2000/svg" xmlns:xlink="http://www.w3.org/1999/xlink" x="0px" y="0px"
	 viewBox="0 0 1024 1024" style="enable-background:new 0 0 1024 1024;" xml:space="preserve">
<g id="参考线">
</g>
<g id="图形">
	<path d="M500.9,112.1l-15.2-6L336.6,66.3c-28.4-7.4-46.5,2.9-54,30.9L105.2,834.8c-7.5,28.7,2.8,46.8,31.2,54.6l149,39.7
		c28.8,7.8,46.9-2.8,54.4-31.6l177.5-737.2C523.4,137.7,518,121.7,500.9,112.1L500.9,112.1L500.9,112.1L500.9,112.1z M428.5,368.7
		c-1.8,6.7-5.3,12.4-10.6,17c-4.9,3.9-9.9,5-14.5,3.9h-1.2L267,353.2c-5.3-1.4-8.9-4.9-11-11c-1.2-3-2-6.2-2.1-9.5
		c-0.2-3.3,0.1-6.7,1-10c1.8-7,5.3-12.4,10.6-16.3c4.6-4.6,9.9-6,15.3-4.6l135.2,36.6h0.7c0.9,0.3,1.6,1.1,2.4,1.6
		c3.4,2,6.3,4.9,8.3,9.8c1.2,2.8,2,5.9,2.1,9.1C429.8,361.9,429.4,365.3,428.5,368.7L428.5,368.7z M451.3,279.5
		c-0.2,1.9-0.2,3.8-0.8,5.8c-1.2,4.9-3.8,8.9-6.9,12.4c-1.2,1.3-2.2,2.8-3.7,4c-1.4,1.3-2.9,1.9-4.4,2.7c-3.3,1.8-6.6,2.7-9.8,1.9
		H425l-135.2-36.2c-5.3-1.7-9.2-5.7-11.7-11.7c-1.8-4.3-1.9-8.9-1.4-13.6c0.2-1.9,0.2-3.7,0.7-5.6c0.6-2,1.6-3.6,2.5-5.4
		c2.1-4.5,4.6-8.4,8.2-11.3c5-4.2,10.3-5.7,15.6-3.9l135.2,36.2h0.7c3.1,1.2,5.4,3.5,7.3,6.3c1.1,1.5,2.1,2.9,3,4.7
		c1.2,3,1.9,6.1,2.1,9.4C452,276.6,451.5,278.1,451.3,279.5L451.3,279.5z M703.4,138.6c-2.9,6.7-4.3,14.5-4.3,23.4v765
		c0,9.2,1.4,17,4.3,23.5c3.2,6.3,7.1,9.5,11.7,9.5c4.7,0,8.2-3.2,11.4-9.5c3.2-6.4,4.9-14.2,4.9-23.5l0-765c0-8.9-1.8-16.7-4.9-23.4
		c-3.2-6.4-6.7-9.6-11.4-9.6C710.5,129,706.5,132.2,703.4,138.6L703.4,138.6z M683.8,162.1c0-8.9-1.4-16.7-4.2-23.4
		c-3.5-6.4-7.4-9.6-12.1-9.6c-4.6,0-8.1,3.2-11.3,9.6c-3.2,6.8-4.9,14.6-4.9,23.4v765c0,9.2,1.8,17,4.9,23.4
		c3.3,6.4,6.8,9.6,11.3,9.6c4.6,0,8.5-3.2,12.1-9.6c2.9-6.4,4.2-14.2,4.2-23.4V162.1L683.8,162.1z M893.2,138.6
		c-2.9,6.7-4.2,14.5-4.2,23.4v765c0,9.2,1.4,17,4.2,23.5c3.2,6.3,7.1,9.5,11.7,9.5c4.7,0,8.2-3.2,11.4-9.5
		c3.2-6.4,4.9-14.2,4.9-23.5v-765c0-8.9-1.8-16.7-4.9-23.4c-3.2-6.4-6.7-9.6-11.4-9.6C900.3,129,896.4,132.2,893.2,138.6
		L893.2,138.6L893.2,138.6z M873.7,162.1c0-8.9-1.4-16.7-4.3-23.4c-3.5-6.4-7.4-9.6-12.1-9.6c-4.6,0-8.2,3.2-11.4,9.6
		c-3.2,6.8-4.9,14.6-4.9,23.4v765c0,9.2,1.8,17,4.9,23.4c3.3,6.4,6.8,9.6,11.4,9.6c4.6,0,8.5-3.2,12.1-9.6
		c2.9-6.4,4.3-14.2,4.3-23.4V162.1L873.7,162.1z M613.5,132.9c-6.7-6.4-14.5-9.6-23.5-9.6c-9.2,0-17,3.2-23.7,9.6
		c-6.4,6.4-9.6,14.2-9.6,23.4v770.3c0,9.2,3.2,17,9.6,23.4c6.7,6.7,14.5,9.9,23.7,9.9c9,0,16.7-3.2,23.5-9.9
		c6.4-6.4,9.6-14.2,9.6-23.4V156.4C623.2,147.2,620,139.3,613.5,132.9L613.5,132.9L613.5,132.9z M763.3,132.9
		c-6.4,6.4-9.6,14.2-9.6,23.4v770.3c0,9.2,3.2,17,9.6,23.4c6.7,6.7,14.5,9.9,23.4,9.9c9.2,0,17-3.2,23.8-9.9
		c6.4-6.4,9.6-14.2,9.6-23.4V156.4c0-9.2-3.2-17-9.6-23.4c-6.7-6.4-14.5-9.6-23.8-9.6C777.8,123.3,770,126.6,763.3,132.9
		L763.3,132.9L763.3,132.9z"/>
</g>
</svg>
