<?xml version="1.0" encoding="utf-8"?>
<!-- Generator: Adobe Illustrator 22.0.1, SVG Export Plug-In . SVG Version: 6.00 Build 0)  -->
<svg version="1.1" xmlns="http://www.w3.org/2000/svg" xmlns:xlink="http://www.w3.org/1999/xlink" x="0px" y="0px"
	 viewBox="0 0 1024 1024" style="enable-background:new 0 0 1024 1024;" xml:space="preserve">
<style type="text/css">
	.st0{fill:#FFFFFF;}
</style>
<g id="参考线">
</g>
<g id="图形">
	<g>
		<g>
			<path d="M622.9,436.6H553c-2.2,0-4.1,1.8-4.1,4v69.9v0c0,2.2,1.8,4,4.1,4h69.9c2.2,0,4-1.8,4-4v-69.9
				C626.9,438.5,625.1,436.6,622.9,436.6z"/>
			<path d="M883.6,119H140.4C98.2,119,64,154.5,64,198.4v490.8c0,44,39.3,81.5,81.5,81.5h325.8V852H267.6v53h488.8v-53H552.8v-81.4
				h325.8c42.3,0,81.4-37.5,81.4-81.5V198.4C960,154.5,925.9,119,883.6,119z M635.1,677.3c-84.4,0-152.9-68.4-152.9-152.9
				c0,0,0-0.1,0-0.1c0-84.5,68.5-152.9,152.9-152.9c0,0,0.1,0,0.1,0c84.5,0,152.9,68.5,152.8,153
				C788.1,608.9,719.6,677.4,635.1,677.3z"/>
			<path d="M622.9,532.5H553c-2.2,0-4.1,1.8-4.1,4.1v69.9c0,2.2,1.8,4,4.1,4h69.9c2.2,0,4-1.8,4-4v-69.9
				C626.9,534.3,625.1,532.5,622.9,532.5z"/>
			<path d="M686.1,513.2c0,0,0.1,0.1,0.1,0.1c1.1,1.1,2.9,1,4-0.1l35.6-35.5c0,0,0,0,0,0c1.1-1.1,1.1-3,0-4.1L690.2,438
				c0,0-0.1-0.1-0.1-0.1c-1.1-1.1-2.9-1-4,0.1l-35.6,35.5c-1.1,1.2-1.1,3,0,4.1L686.1,513.2z"/>
			<path d="M723,532.5h-69.9c-2.2,0-4,1.8-4,4.1v69.9c0,2.2,1.8,4,4,4H723c2.2,0,4-1.8,4.1-4v-69.9
				C727.1,534.3,725.3,532.5,723,532.5z"/>
		</g>
		<g>
			<path class="st0" d="M416.7,376.4l-43.6,0.1c-6,0-10.8,4.8-10.8,10.8c0,6,4.8,10.8,10.8,10.8l43.6-0.1c6,0,10.8-4.8,10.8-10.8
				C427.5,381.2,422.7,376.4,416.7,376.4z"/>
			<path class="st0" d="M265.4,376.4l-43.6,0.1c-6,0-10.8,4.8-10.8,10.8c0,6,4.8,10.8,10.8,10.8l43.6-0.1c6,0,10.8-4.8,10.8-10.8
				S271.4,376.4,265.4,376.4z"/>
			<path class="st0" d="M265.5,430.4c0,0-0.1,0-0.1,0l-43.6,0.1c-6,0-10.8,4.8-10.8,10.8c0,6,4.8,10.8,10.8,10.9l43.6-0.1
				c6,0,10.8-4.9,10.8-10.9C276.3,435.3,271.5,430.4,265.5,430.4z"/>
			<path class="st0" d="M372,344c0.4,0,0.7,0,1.1,0l43.6-0.1c6,0,10.8-4.8,10.8-10.8c0-6-4.8-10.8-10.8-10.8l-43.6,0.2
				c-5.9-0.3-11,4.3-11.3,10.2C361.5,338.6,366,343.7,372,344z"/>
			<path class="st0" d="M416.7,430.4C416.7,430.4,416.7,430.4,416.7,430.4l-43.6,0.1c-6,0-10.8,4.8-10.8,10.8
				c0,6,4.8,10.8,10.8,10.9l43.6-0.1c6,0,10.8-4.9,10.8-10.9C427.5,435.2,422.7,430.4,416.7,430.4z"/>
			<path class="st0" d="M341.1,430.4l-43.6,0.1c-6,0-10.8,4.8-10.8,10.7c0,0,0,0,0,0.1c0,6,4.8,10.9,10.8,10.9l43.6-0.1
				c6,0,10.8-4.8,10.8-10.8C351.9,435.3,347.1,430.4,341.1,430.4z"/>
			<path class="st0" d="M220.7,344c0.4,0,0.7,0,1.1,0l43.6-0.1c6,0,10.8-4.8,10.8-10.8s-4.9-10.9-10.9-10.9l-43.6,0.2
				c-5.9-0.3-11,4.3-11.3,10.2C210.2,338.7,214.8,343.7,220.7,344z"/>
			<path class="st0" d="M296.4,344c0.4,0,0.7,0,1.1,0l43.6-0.1c6,0,10.8-4.8,10.8-10.8c0-6-4.8-10.8-10.8-10.8l-43.6,0.2
				c-5.9-0.3-11,4.3-11.3,10.2C285.8,338.6,290.4,343.7,296.4,344z"/>
			<path class="st0" d="M341.1,398c6-0.4,10.5-5.6,10.1-11.6c-0.4-5.4-4.7-9.7-10.1-10.1l-43.6,0.1c-6,0-10.8,4.8-10.8,10.8
				c0,6,4.8,10.9,10.8,10.9L341.1,398z"/>
			<path class="st0" d="M172.4,270.1v349.8h294V270.1H172.4z M444.6,604H194.3V285.8h250.3V604z"/>
		</g>
	</g>
</g>
</svg>
