<?xml version="1.0" encoding="utf-8"?>
<!-- Generator: Adobe Illustrator 22.0.1, SVG Export Plug-In . SVG Version: 6.00 Build 0)  -->
<svg version="1.1" xmlns="http://www.w3.org/2000/svg" xmlns:xlink="http://www.w3.org/1999/xlink" x="0px" y="0px"
	 viewBox="0 0 1024 1024" style="enable-background:new 0 0 1024 1024;" xml:space="preserve">
<g id="参考线">
</g>
<g id="图形">
	<g>
		<path d="M512,960C261.1,960,57.7,752.7,64.2,500.4C70.3,257,272.5,61.9,515.9,64c86.3,0.6,170.6,26.2,242.5,73.8
			c6.7,4.4,8.5,13.4,4.1,20c-0.1,0.1-0.2,0.3-0.3,0.4c-4.5,6.4-13.3,8-19.8,3.7C549.2,34.6,289.3,88.1,161.9,281.4
			C116.8,349.8,92.8,430,92.8,512c0,231.1,188,419.1,419.1,419.1s419.2-188,419.2-419.1c0.2-61.3-13.3-121.9-39.3-177.4
			c-3.3-7.1-0.5-15.5,6.5-19.1c7.1-3.6,15.8-0.8,19.5,6.3c0.1,0.1,0.1,0.2,0.2,0.4c27.9,59.3,42.3,124.1,42.1,189.7
			C960,759,759,960,512,960z"/>
		<path d="M859.1,267.2c0,9,7.3,16.3,16.3,16.3c9,0,16.3-7.3,16.3-16.3c0,0,0,0,0,0c0-9-7.3-16.3-16.3-16.3
			C866.4,250.9,859.1,258.2,859.1,267.2C859.1,267.2,859.1,267.2,859.1,267.2z"/>
		<path d="M512.2,331.8c9.8,0.1,17.6,8,17.6,17.8L529.5,484c0,7.4,4.5,14.1,11.5,16.7l145.2,55.5c12,4.6,18.1,18.1,13.5,30.2
			c-3.5,9.1-13.6,13.8-22.8,10.4l-171.4-62.9c-7-2.6-11.7-9.3-11.7-16.7l0.3-167.5c0-9.8,8-17.8,17.8-17.8
			C512.1,331.8,512.1,331.8,512.2,331.8L512.2,331.8z M224.4,511.7c0,158.7,128.7,287.3,287.4,287.3s287.3-128.7,287.3-287.4
			c0-158.6-128.6-287.2-287.2-287.3c-158.7-0.1-287.4,128.5-287.5,287.2C224.5,511.5,224.5,511.6,224.4,511.7L224.4,511.7z"/>
	</g>
</g>
</svg>
