<?xml version="1.0" encoding="utf-8"?>
<!-- Generator: Adobe Illustrator 22.0.1, SVG Export Plug-In . SVG Version: 6.00 Build 0)  -->
<svg version="1.1" xmlns="http://www.w3.org/2000/svg" xmlns:xlink="http://www.w3.org/1999/xlink" x="0px" y="0px"
	 viewBox="0 0 1024 1024" style="enable-background:new 0 0 1024 1024;" xml:space="preserve">
<g id="参考线">
</g>
<g id="图形">
	<path d="M820.3,850.3c-77.1,0-139.7-62.5-139.7-139.7S743.2,571,820.3,571S960,633.5,960,710.7l0,0
		C959.9,787.8,897.4,850.2,820.3,850.3z M698.1,369.8l50-55.4c55.6,50.4,93.6,117.2,108.5,190.8l-73.1,14.5
		C771.7,461.9,741.8,409.3,698.1,369.8z M581.3,395.1H444.7c-43.4,0-78.6-35.2-78.6-78.6V179.9c0-43.4,35.2-78.6,78.6-78.6h136.6
		c43.4,0,78.6,35.2,78.6,78.6v136.6C659.9,359.9,624.7,395,581.3,395.1z M96.1,840L64,784l117.6-202.7l64.8,1L355.8,785L323.1,840
		H96.1z M169.5,519.1c12.3-77.2,50.1-148.1,107.3-201.3l50.7,54.7c-45,41.9-74.7,97.6-84.4,158.3L169.5,519.1z M514.3,848.2
		c49.8,0,98.7-13.5,141.4-39.2l38.5,63.9C595.7,932,474.4,939,369.8,891.5l30.9-67.9C436.4,839.9,475.1,848.3,514.3,848.2z"/>
</g>
</svg>
