<?xml version="1.0" encoding="utf-8"?>
<!-- Generator: Adobe Illustrator 22.0.1, SVG Export Plug-In . SVG Version: 6.00 Build 0)  -->
<svg version="1.1" xmlns="http://www.w3.org/2000/svg" xmlns:xlink="http://www.w3.org/1999/xlink" x="0px" y="0px"
	 viewBox="0 0 1024 1024" style="enable-background:new 0 0 1024 1024;" xml:space="preserve">
<g id="参考线">
</g>
<g id="图形">
	<path d="M708,204.5v196h56l0-196c0-46.4-37.6-84-84-84h-56v56h56C695.5,176.5,708,189,708,204.5z M274,232.5c23.2,0,42-18.8,42-42
		v-84c0-23.2-18.8-42-42-42c-23.2,0-42,18.8-42,42v84C232,213.7,250.8,232.5,274,232.5z M484,120.5H344v56h140V120.5z M554,232.5
		c23.2,0,42-18.8,42-42v-84c0-23.2-18.8-42-42-42c-23.2,0-42,18.8-42,42v84C512,213.7,530.8,232.5,554,232.5z M120,820.5v-616
		c0-15.5,12.5-28,28-28h56v-56h-56c-46.4,0-84,37.6-84,84v616c0,46.4,37.6,84,84,84h168v-56H148C132.5,848.5,120,835.9,120,820.5z
		 M232,400.5h364c15.5,0,28-12.5,28-28c0-15.4-12.5-28-28-28l-364,0c-15.5,0-28,12.6-28,28C204,387.9,216.5,400.5,232,400.5z
		 M316,540.5h-84c-15.5,0-28,12.5-28,28c0,15.4,12.5,28,28,28h84c15.5,0,28-12.5,28-28C344,553,331.5,540.5,316,540.5z M958.9,691.8
		c-8.6-23-21.7-38.6-49.8-35.4c-4.1,0.4-11.5-8-13.8-13.8c-13.3-34.4-26-69-38.1-103.9c-7.6-22.1-23-36.5-44.3-42.4
		c-28.8-8-58.4-12.8-87.6-19c-42.7-6.3-81.3-6.6-128.1,0c-16.6,2.6-33.4,4.6-49.9,7.8c-44,8.5-78.4,27.6-90.9,75.3
		c-7.5,28.3-18.7,55.8-29.2,83.2c-2,5.3-8.9,13.2-12.6,12.7c-30.7-3.9-42.7,14.9-50.8,39.2c-1.5,5.6-0.6,10.8,0,15
		c11.8,3.1,23.6,6.2,31.9,8.4c-0.6,44.5-1.2,88.6-1.7,132.7c-0.2,23.8-1.2,47.6,0.4,71.3c0.8,10.9,4.9,27.9,10.8,32.2
		c4.4,5.9,83.2,5.7,97.9,0c6.7-2.6,10.1-37.3,15.7-57.9h288.9c7.1,19.5-6.5,43.6,15.6,57.9c6.6,4.6,91.6,4.9,95.5-1.7
		c4-2.5,9.8-18.1,10-28.2c1.1-56.2,0.8-112.4,0.3-168.6c-0.1-12.3-2.8-24.6-4.3-36.7c10.7-3,22.4-6.2,34.1-9.4
		C959.8,705.9,960.9,698.8,958.9,691.8z M541.7,792.4c-2.3,6.3-11.6,12.3-19,13.9c-10.1,2.4-21.3,2.7-31.9,2.7c0,0.4,0,0.2,0,0
		c0,0,0,0,0,0c-15.5-1.6-31.3-2-46.5-5.2c-19.7-4.1-25.3-18.9-19.3-45.3c4.1-18.1,18.2-18.9,30.8-14.7c25.4,8.3,50.3,18.5,74.6,29.8
		C536.3,776.4,543.3,787.9,541.7,792.4z M465.4,665.5c14.6-40.9,27.2-78.7,41.9-115.7c2.8-7.1,13.7-13.3,21.9-15.3
		c20-4.8,40.7-9.6,61.1-9.4c61.9,0.4,123.9,2.7,185.8,5.5c25.4,1.1,42.5,14.1,49.6,40.5c8.3,30.7,19.3,60.7,30.3,94.5
		C725.4,693.6,598.2,693,465.4,665.5z M881.9,803c-16.3,3.8-33.3,4.4-47,6c-15.7-1.3-28.4-1-40.5-3.7c-15.1-3.3-19.8-21.1-6.6-27.5
		c28.8-14,59.3-25.2,89.9-34.7c12.3-3.8,20.7,6.4,21.2,20C899.5,779.1,904.2,797.9,881.9,803z M490.8,809.1
		C490.9,808.7,490.9,808.9,490.8,809.1L490.8,809.1z"/>
</g>
</svg>
