<?xml version="1.0" encoding="utf-8"?>
<!-- Generator: Adobe Illustrator 22.0.1, SVG Export Plug-In . SVG Version: 6.00 Build 0)  -->
<svg version="1.1" xmlns="http://www.w3.org/2000/svg" xmlns:xlink="http://www.w3.org/1999/xlink" x="0px" y="0px"
	 viewBox="0 0 1024 1024" style="enable-background:new 0 0 1024 1024;" xml:space="preserve">
<g id="参考线">
</g>
<g id="图形">
	<path d="M960,785.2c3,18-0.8,34.2-11.3,48.6C938.2,848.3,924,857,906,860l-108,17.1c-17.4,3-33.5-0.8-48.2-11.3
		C735,855.3,726.2,841,723.2,823l-91.8-581.7c-1.2-9-0.8-17.6,1.4-25.7s5.6-15.6,10.4-22.5s11-12.6,18.5-17.1s15.8-7.7,24.8-9.5
		l107.1-17.1c18-3,34.2,0.9,48.6,11.7c14.4,10.8,23.1,25.2,26.1,43.2L960,785.2z M507.1,145.9c18,0,33.3,6.3,45.9,18.9
		c12.6,12.6,18.9,27.9,18.9,45.9v601.5c0,18-6.3,33.3-18.9,45.9s-27.9,18.9-45.9,18.9h-93.6c-18,0-33.3-6.3-45.9-18.9
		c-12.6-12.6-18.9-27.9-18.9-45.9V210.8c0-18,4.8-33.3,14.4-45.9c9.6-12.6,23.7-18.9,42.3-18.9C405.4,145.9,507.1,145.9,507.1,145.9
		z M507.1,599.7c6,0,11.1-2.9,15.3-8.6s6.3-12.5,6.3-20.3c0-8.4-2.1-15.3-6.3-20.7c-4.2-5.4-9.3-8.1-15.3-8.1h-93.6
		c-6,0-11.1,2.7-15.3,8.1c-4.2,5.4-6.3,12.3-6.3,20.7c0,7.8,2.1,14.6,6.3,20.3c4.2,5.7,9.3,8.6,15.3,8.6H507.1z M507.1,485.4
		c6,0,11.1-2.9,15.3-8.6c4.2-5.7,6.3-12.8,6.3-21.2s-2.1-15.3-6.3-20.7c-4.2-5.4-9.3-8.1-15.3-8.1h-93.6c-6,0-11.1,2.7-15.3,8.1
		c-4.2,5.4-6.3,12.3-6.3,20.7c0,8.4,2.1,15.5,6.3,21.2c4.2,5.7,9.3,8.6,15.3,8.6H507.1z M224.4,145.9c18,0,33.5,6.3,46.4,18.9
		c12.9,12.6,19.4,27.9,19.4,45.9v601.5c0,18-6.5,33.3-19.4,45.9s-28.4,18.9-46.4,18.9h-93.6c-18,0-33.5-6.3-46.4-18.9
		S65,830.2,65,812.2V210.8c0-18,6.5-33.3,19.4-45.9s28.4-18.9,46.4-18.9C130.7,145.9,224.4,145.9,224.4,145.9z M134.3,371
		c-6.6,0-12,2.7-16.2,8.1c-4.2,5.4-6.3,12.3-6.3,20.7c0,7.8,2.1,14.6,6.3,20.3c4.2,5.7,9.6,8.6,16.2,8.6h86.4
		c6.6,0,11.9-2.9,15.8-8.6c3.9-5.7,5.9-12.5,5.9-20.3c0-8.4-2-15.3-5.9-20.7c-3.9-5.4-9.2-8.1-15.8-8.1H134.3z M224.4,653.8
		c6.6,0,11.9-2.7,15.8-8.1c3.9-5.4,5.9-12,5.9-19.8c0-8.4-2-15.2-5.9-20.3c-3.9-5.1-9.2-7.7-15.8-7.7h-90c-6.6,0-12,2.6-16.2,7.7
		c-4.2,5.1-6.3,11.9-6.3,20.3c0,7.8,2.1,14.4,6.3,19.8c4.2,5.4,9.6,8.1,16.2,8.1H224.4z M224.4,543c6.6,0,11.9-2.7,15.8-8.1
		c3.9-5.4,5.9-12.3,5.9-20.7s-2-15.3-5.9-20.7c-3.9-5.4-9.2-8.1-15.8-8.1h-90c-6.6,0-12,2.7-16.2,8.1c-4.2,5.4-6.3,12.3-6.3,20.7
		s2.1,15.3,6.3,20.7c4.2,5.4,9.6,8.1,16.2,8.1H224.4z"/>
</g>
</svg>
