<?xml version="1.0" encoding="utf-8"?>
<!-- Generator: Adobe Illustrator 22.0.1, SVG Export Plug-In . SVG Version: 6.00 Build 0)  -->
<svg version="1.1" xmlns="http://www.w3.org/2000/svg" xmlns:xlink="http://www.w3.org/1999/xlink" x="0px" y="0px"
	 viewBox="0 0 1024 1024" style="enable-background:new 0 0 1024 1024;" xml:space="preserve">
<style type="text/css">
	.st0{fill:#2C2C2C;}
</style>
<g id="参考线">
</g>
<g id="图形">
	<g>
		<path class="st0" d="M512.7,849.8c-0.9,0-1.8,0-2.7-0.1c-0.8,0-1.5-0.1-2.3-0.2c-1.9-0.2-2.9-0.3-3.9-0.5
			c-57.9-10-124.8-15.3-192.9-15.3c-68.1,0-135,5.3-193.5,15.4c-2.2,0.5-4.9,0.7-7.7,0.7c-10.7,0-21.1-3.8-29.3-10.8
			C69.9,830.4,64,817.6,64,804.2V278.7c0-77.1,127.5-104.5,246.8-104.5c84.8,0,159.1,14.1,201.2,38c42.2-23.9,116.5-38,201.2-38
			c119.3,0,246.8,27.5,246.8,104.5v525.5c0,13.4-5.9,26.2-16.2,34.8c-10.2,8.6-24.3,12.1-36.9,10c-58.5-10.1-125.4-15.5-193.6-15.5
			c-68.2,0-135.1,5.3-193.5,15.4c-0.2,0-1.1,0.1-1.3,0.2C517,849.5,514.9,849.8,512.7,849.8z M310.8,810.6
			c69.5,0,137.7,5.5,197.3,15.8c0.2,0,1.2,0.1,1.4,0.1l1.5,0.2c0.3,0,1.1,0.1,1.4,0.1l0.2,0c0.8,0,1.6-0.2,2.5-0.3
			c0.2,0,1.1-0.1,1.3-0.2c59-10.2,127.3-15.7,196.8-15.7c69.5,0,137.7,5.5,197.4,15.8c5.7,0.9,13.2-0.7,18.3-5
			c5.1-4.3,8-10.6,8-17.2V278.7c0-56.3-112.4-81.5-223.8-81.5c-84.9,0-157.8,14.2-195,38.1c-3.8,2.4-8.6,2.4-12.4,0
			c-37.2-23.8-110.1-38.1-195-38.1C199.4,197.2,87,222.4,87,278.7v525.5c0,6.6,2.9,12.9,8,17.2c4.1,3.4,9.2,5.3,14.5,5.3
			c1.3,0,2.4-0.1,3.5-0.3C173.1,816,241.3,810.6,310.8,810.6L310.8,810.6z"/>
		<path class="st0" d="M880.5,287.1v480.3C829,760.6,771.3,757,713.3,757c-58,0-115.7,3.6-167.3,10.4V287.1
			c12.8-10.3,68.8-30.6,167.3-30.6S867.7,276.8,880.5,287.1z"/>
		<path class="st0" d="M880.5,779c-0.5,0-1,0-1.5-0.1c-103-13.6-230.6-13.4-331.5,0c-3.3,0.5-6.6-0.6-9.1-2.7
			c-2.5-2.2-3.9-5.3-3.9-8.7V287.1c0-3.5,1.6-6.8,4.3-9c16.5-13.3,76.6-33.1,174.5-33.1c98,0,158,19.8,174.5,33.1
			c2.7,2.2,4.3,5.5,4.3,9v480.3C892,773.8,886.9,778.9,880.5,779C880.5,779,880.5,779,880.5,779L880.5,779z M713.3,745.5
			c53.4,0,106.9,3.1,155.7,8.9v-461c-15.2-8.1-63.8-25.3-155.7-25.3c-91.9,0-140.6,17.2-155.7,25.3v461
			C605.9,748.6,659.4,745.5,713.3,745.5z"/>
		<path class="st0" d="M478,287.1v480.3c-52.3-6.9-110-10.6-167.3-10.6s-115,3.6-167.3,10.6V287.1c12.8-10.3,68.8-30.6,167.3-30.6
			C409.2,256.5,465.3,276.8,478,287.1z"/>
		<path class="st0" d="M478,779c-0.5,0-1,0-1.5-0.1c-103.1-13.7-228.3-13.7-331.5,0c-3.3,0.5-6.6-0.6-9.1-2.7
			c-2.5-2.2-3.9-5.3-3.9-8.7V287.1c0-3.5,1.6-6.8,4.3-9c16.5-13.3,76.6-33.1,174.5-33.1c98.3,0,158.1,19.8,174.5,33.1
			c2.7,2.2,4.3,5.5,4.3,8.9v480.3C489.5,773.8,484.4,778.9,478,779C478,779,478,779,478,779L478,779z M155,293.4v461
			c98.2-11.8,213.3-11.8,311.5,0V293.3c-17.3-9.5-70.5-25.2-155.1-25.2C218.9,268.1,170.2,285.3,155,293.4z"/>
	</g>
</g>
</svg>
