<?xml version="1.0" encoding="utf-8"?>
<!-- Generator: Adobe Illustrator 22.0.1, SVG Export Plug-In . SVG Version: 6.00 Build 0)  -->
<svg version="1.1" xmlns="http://www.w3.org/2000/svg" xmlns:xlink="http://www.w3.org/1999/xlink" x="0px" y="0px"
	 viewBox="0 0 1024 1024" style="enable-background:new 0 0 1024 1024;" xml:space="preserve">
<g id="参考线">
</g>
<g id="图形">
	<path d="M698,686.6H318.2l-0.4-10.3c-0.2-4.6-0.3-9.3-0.3-14c0-143.5,85.4-363.4,190.6-363.4c105.2,0,190.6,219.9,190.6,363.4
		c0,4.6-0.1,9.3-0.3,14L698,686.6z M509.8,295.1c-56,0-101.5-44.6-101.5-99.4c0-54.8,45.5-99.4,101.5-99.4
		c56,0,101.5,44.6,101.5,99.4C611.3,250.4,565.7,295.1,509.8,295.1z M958.3,686.6H735.2l0.5-11.2c0.2-5,0.3-10.1,0.3-15.2
		c0-75.1-52.8-247.3-85.1-294.6l-4.9-7.2l6-6.3c33.6-34.9,73.8-53.3,116.4-53.3c105.2,0,190.6,219.9,190.6,363.4
		c0,4.6-0.1,9.3-0.3,14L958.3,686.6z M770.1,295.1c-56,0-101.5-44.6-101.5-99.4c0-54.8,45.5-99.4,101.5-99.4
		c56,0,101.5,44.6,101.5,99.4C871.6,250.4,826.1,295.1,770.1,295.1z M287.8,686.6H64.7l-0.4-10.3c-0.2-4.6-0.3-9.3-0.3-14
		c0-143.5,85.4-363.4,190.6-363.4c42.6,0,82.8,18.4,116.4,53.3l6.1,6.3l-4.9,7.2C339.8,413,287,585.2,287,660.3
		c0,5.1,0.1,10.1,0.3,15.2L287.8,686.6z M252.9,295.1c-56,0-101.5-44.6-101.5-99.4c0-54.8,45.6-99.4,101.5-99.4
		s101.5,44.6,101.5,99.4C354.4,250.4,308.9,295.1,252.9,295.1z M64,719.9h896v207.9H64V719.9z"/>
</g>
</svg>
