<?xml version="1.0" encoding="utf-8"?>
<!-- Generator: Adobe Illustrator 22.0.1, SVG Export Plug-In . SVG Version: 6.00 Build 0)  -->
<svg version="1.1" xmlns="http://www.w3.org/2000/svg" xmlns:xlink="http://www.w3.org/1999/xlink" x="0px" y="0px"
	 viewBox="0 0 1024 1024" style="enable-background:new 0 0 1024 1024;" xml:space="preserve">
<g id="参考线">
</g>
<g id="图形">
	<g>
		<path d="M512,64C262.4,64,64,262.4,64,512s198.4,448,448,448s448-198.4,448-448C960,268.8,761.6,64,512,64z M512,896
			c-211.2,0-384-172.8-384-384s172.8-384,384-384s384,172.8,384,384S723.2,896,512,896z"/>
		<path d="M595.2,377.6L512,192l-83.2,185.6L256,416l121.6,153.6l-19.2,204.8l160-89.6l160,89.6l-19.2-204.8L780.8,416L595.2,377.6
			L595.2,377.6z"/>
	</g>
</g>
</svg>
