<?xml version="1.0" encoding="UTF-8"?>
<svg width="28px" height="28px" viewBox="0 0 28 28" version="1.1" xmlns="http://www.w3.org/2000/svg" xmlns:xlink="http://www.w3.org/1999/xlink">
    <!-- Generator: Sketch 63.1 (92452) - https://sketch.com -->
    <title>icon/模块图标/km_relative</title>
    <desc>Created with Sketch.</desc>
    <g id="icon/模块图标/km_relative" stroke="none" stroke-width="1" fill="none" fill-rule="evenodd">
        <g id="icon/相对方管理" fill="#000000" fill-rule="nonzero">
            <path d="M24.057858,5 C25.1260167,5 26,5.89310834 26,6.98502752 L26,22.0149725 C26,23.1067177 25.126041,24 24.057858,24 L3.94228785,24 C2.87398334,24 2,23.1067426 2,22.0149725 L2,6.98502752 C2,5.89310834 2.87398336,5 3.94228785,5 L24.057858,5 Z M7.76135251,15.3569828 L7.26025964,15.3569828 L7.09509964,15.3622805 C5.72933361,15.45013 4.6386256,16.6194257 4.6386256,18.0365067 L4.6386256,18.0365067 L4.6386256,18.3314433 L4.64532383,18.4575031 C4.70729071,19.0374313 5.19147747,19.4925811 5.77453171,19.4925811 L5.77453171,19.4925811 L12.8899094,19.4925811 L13.0132454,19.4857349 C13.5806417,19.4223991 14.025937,18.9275115 14.025937,18.3314433 L14.025937,18.3314433 L14.025937,18.0365067 L14.0207532,17.8677023 C13.9347915,16.4717984 12.7906293,15.3569828 11.4043273,15.3569828 L11.4043273,15.3569828 L10.9030643,15.3569828 L10.6997788,15.444791 C10.2848948,15.6085673 9.82140056,15.7002185 9.33213546,15.7002185 C8.76161788,15.7002185 8.22573971,15.575471 7.76135251,15.3569828 L7.76135251,15.3569828 Z M20.3910211,13.8617879 L16.3828165,13.8617879 L16.2927424,13.8701056 C16.0587972,13.9138094 15.880022,14.1244398 15.880022,14.3757843 L15.880022,14.3757843 L15.880022,14.7182746 L15.8881607,14.8103803 C15.9309232,15.0495873 16.1370102,15.2322709 16.3828165,15.2322709 L16.3828165,15.2322709 L20.3910211,15.2322709 L20.4811378,15.2239532 C20.7151811,15.1802494 20.8939371,14.969619 20.8939371,14.7182746 L20.8939371,14.7182746 L20.8939371,14.3757843 L20.8857983,14.2836785 C20.8430345,14.0444715 20.6369355,13.8617879 20.3910211,13.8617879 L20.3910211,13.8617879 Z M9.33213546,9.42213838 C7.87983152,9.42213838 6.70238241,10.6255874 6.70238241,12.1101095 C6.70238241,13.5946317 7.87983154,14.7980559 9.33213546,14.7980559 C10.7847554,14.7980559 11.9621802,13.5946068 11.9621802,12.1101095 C11.9621802,10.6255874 10.7847554,9.42213838 9.33213546,9.42213838 Z M22.1285144,10.7571424 L16.3828165,10.7571424 L16.2927424,10.7654601 C16.0587972,10.8091639 15.880022,11.0197943 15.880022,11.2711387 L15.880022,11.2711387 L15.880022,11.613629 L15.8881607,11.7057348 C15.9309232,11.9449418 16.1370102,12.1276254 16.3828165,12.1276254 L16.3828165,12.1276254 L22.1285144,12.1276254 L22.2186311,12.1193077 C22.4526744,12.0756039 22.6314304,11.8649735 22.6314304,11.613629 L22.6314304,11.613629 L22.6314304,11.2711387 L22.6232915,11.179033 C22.5805277,10.939826 22.3744287,10.7571424 22.1285144,10.7571424 L22.1285144,10.7571424 Z" id="形状结合"></path>
        </g>
    </g>
</svg>