<?xml version="1.0" encoding="utf-8"?>
<!-- Generator: Adobe Illustrator 22.0.1, SVG Export Plug-In . SVG Version: 6.00 Build 0)  -->
<svg version="1.1" xmlns="http://www.w3.org/2000/svg" xmlns:xlink="http://www.w3.org/1999/xlink" x="0px" y="0px"
	 viewBox="0 0 1024 1024" style="enable-background:new 0 0 1024 1024;" xml:space="preserve">
<g id="参考线">
</g>
<g id="图形">
	<path d="M938,678.8c-1.5-9-3-16.5-6-23.9L803.4,361.7c-13.5-31.4-43.4-50.9-74.8-50.9V104.4c0-22.4-19.4-40.4-41.9-40.4H308.2
		c-22.4,0-40.4,17.9-40.4,40.4v204.9c-32.9,3-62.8,25.4-73.3,58.3L91.3,660.8c-1.5,3-1.5,6-1.5,9c-3,6-4.5,13.5-4.5,20.9v219.9
		c0,26.9,22.4,49.4,49.4,49.4h753.9c26.9,0,49.4-22.4,49.4-49.4V690.8C939.5,686.3,938,683.3,938,678.8z M267.8,639.9h-95.7
		l86.8-249.8c1.5-4.5,4.5-7.5,7.5-9v258.8L267.8,639.9z M620.9,520.2H374.1c-7.5,0-13.5-6-13.5-13.5c0-7.5,6-13.5,13.5-13.5h246.8
		c7.5,0,13.5,6,13.5,13.5C635.8,514.2,628.3,520.2,620.9,520.2L620.9,520.2z M620.9,412.5H374.1c-7.5,0-13.5-6-13.5-13.5
		s6-13.5,13.5-13.5h246.8c7.5,0,13.5,6,13.5,13.5C635.8,406.5,628.3,412.5,620.9,412.5L620.9,412.5z M620.9,304.8H374.1
		c-7.5,0-13.5-6-13.5-13.5c0-7.5,6-13.5,13.5-13.5h246.8c7.5,0,13.5,6,13.5,13.5C634.3,298.8,628.3,304.8,620.9,304.8L620.9,304.8z
		 M620.9,195.6H374.1c-7.5,0-13.5-6-13.5-13.5c0-7.5,6-13.5,13.5-13.5h246.8c7.5,0,13.5,6,13.5,13.5
		C635.8,189.6,628.3,195.6,620.9,195.6L620.9,195.6z M728.6,639.9V379.6c4.5,1.5,9,4.5,12,9l109.2,251.3H728.6z"/>
</g>
</svg>
