<?xml version="1.0" encoding="utf-8"?>
<!-- Generator: Adobe Illustrator 22.0.1, SVG Export Plug-In . SVG Version: 6.00 Build 0)  -->
<svg version="1.1" xmlns="http://www.w3.org/2000/svg" xmlns:xlink="http://www.w3.org/1999/xlink" x="0px" y="0px"
	 viewBox="0 0 1024 1024" style="enable-background:new 0 0 1024 1024;" xml:space="preserve">
<g id="参考线">
</g>
<g id="图形">
	<g>
		<path d="M299.4,324.4c22.5,68.1,85.2,68.1,107.1,0c7.1-3.8,14.8-15.4,15.9-24.7c1.1-9.9,0.5-23.1-9.3-23.1
			c-2.2-31.9-19.8-58.8-59.3-58.8c-39,0-58.8,23.6-61,58.8c-9.9,0-11,13.2-9.3,23.1C284.6,309,292.3,320.5,299.4,324.4z"/>
		<path d="M443.9,691.9c25.8,0,47.2-21.4,47.2-47.2V643l183.5-183.5c4.9-4.9,4.9-13.2,0-18.1c-4.9-4.9-13.2-4.9-18.1,0L490.6,606.8
			v-156c0-34.1-24.7-63.2-59.3-70.9l-25.3-5.5c-22,43.4-84.1,43.4-105.5,0l-25.3,5.5c-34.6,7.1-59.3,36.8-59.3,70.9v193.9
			c0,25.8,20.9,47.2,47.2,47.2c0,13.2,10.4,23.6,23.6,23.6h133.5C433.4,715.5,443.9,704.5,443.9,691.9L443.9,691.9z"/>
		<path d="M144.5,672.1c20.3,8.8,43.4-5.5,43.4-28c0-9.9-6-18.1-15.4-21.4c-29.1-10.4-50.5-37.9-50.5-70.9V195.3
			c0-41.8,33.5-75.3,75.3-75.3h626.3c41.8,0,75.3,33.5,75.3,75.3v356.5c0,41.8-33.5,75.3-75.3,75.3H574.1c-15.4,0-28,12.6-28,28
			c0,15.4,12.6,28,28,28h250c72.5,0,131.3-58.8,131.3-131.3V195.3C955.3,122.8,896.5,64,824,64H197.8
			c-72.5,0-131.3,58.8-131.3,131.3v356.5C65.9,605.7,98.3,651.8,144.5,672.1z M250,761.1h-98.3c-47.2,0-85.7,38.5-85.7,85.7V960
			h269.7V846.8C335.7,799.6,297.2,761.1,250,761.1z M560.9,761.1h-97.8c-47.2,0-85.7,38.5-85.7,85.7V960h269.7V846.8
			C646.6,799.6,608.1,761.1,560.9,761.1L560.9,761.1z M871.8,761.1H774c-47.2,0-85.7,38.5-85.7,85.7V960h269.7V846.8
			C958.1,799.6,919.6,761.1,871.8,761.1L871.8,761.1z"/>
	</g>
</g>
</svg>
