<?xml version="1.0" encoding="utf-8"?>
<!-- Generator: Adobe Illustrator 22.0.1, SVG Export Plug-In . SVG Version: 6.00 Build 0)  -->
<svg version="1.1" xmlns="http://www.w3.org/2000/svg" xmlns:xlink="http://www.w3.org/1999/xlink" x="0px" y="0px"
	 viewBox="0 0 1024 1024" style="enable-background:new 0 0 1024 1024;" xml:space="preserve">
<g id="参考线">
</g>
<g id="图形">
	<g>
		<path d="M595.5,143H422v8.1c-1.2,109.1-90.6,196.6-199.7,195.4c-62.9-0.7-121.7-31.3-158.3-82.4v531.6
			c-0.1,47.2,38,85.5,85.2,85.7h446.3c47.1-0.1,85.2-38.3,85.3-85.3V228.2C680.6,181.2,642.5,143.2,595.5,143z M454,639.8
			c0,11.3-9,20.4-20.3,20.5c-5.5,0-10.7-2.1-14.5-6l-46.7-46.7l-46.8,46.5c-1.8,1.8-4,3.3-6.4,4.3c-2.5,1.1-5.2,1.6-7.9,1.6
			c-5.3-0.1-10.3-2.2-14.1-5.9c-1.8-1.9-3.3-4-4.3-6.4c-1.1-2.5-1.6-5.2-1.6-7.9v-67c48.9,34.2,114,34.2,163,0L454,639.8z
			 M373.1,578.7c-0.2,0-0.4,0-0.6,0v-0.6c-67.5,0-122.2-54.7-122.2-122.2S305,333.7,372.5,333.7s122.2,54.7,122.2,122.2
			C495.1,523.4,440.7,578.4,373.1,578.7z"/>
		<path d="M777.4,239.5l-47.9-12.3c-8-1.9-16,3-17.9,10.9c-0.3,1.1-0.4,2.3-0.4,3.5v603.2h1.1c3.7-1,9.9-4.3,18.8-26.4
			c1.7-4.3,3.8-10.1,5.9-17l107.2-455.4C854.8,298.1,825,250.7,777.4,239.5z M923.5,396.5l-29.4-15.2c-7.3-3.8-16.2-1-20,6.3
			c-0.5,1.1-1,2.2-1.3,3.3L763.5,829.5h1.4c7.5-3.1,13.8-8.5,18-15.4c2.8-3.7,5.3-7.6,7.5-11.6l162.1-315.1
			C969.5,454.3,956.5,413.7,923.5,396.5L923.5,396.5z"/>
		<path d="M225.4,348.2c109.1,0,197.5-88.4,197.5-197.5v-8.1H153.3c-49.2,0.1-89,40-89.1,89.1v32.5
			C100.9,316.8,161.1,348.2,225.4,348.2z"/>
		<path d="M225.4,348.2c109.1,0,197.5-88.4,197.5-197.5v-8.1H153.3c-49.2,0.1-89,40-89.1,89.1v32.5
			C100.9,316.8,161.1,348.2,225.4,348.2z"/>
	</g>
</g>
</svg>
