<?xml version="1.0" encoding="utf-8"?>
<!-- Generator: Adobe Illustrator 22.0.1, SVG Export Plug-In . SVG Version: 6.00 Build 0)  -->
<svg version="1.1" xmlns="http://www.w3.org/2000/svg" xmlns:xlink="http://www.w3.org/1999/xlink" x="0px" y="0px"
	 viewBox="0 0 1024 1024" style="enable-background:new 0 0 1024 1024;" xml:space="preserve">
<g id="参考线">
</g>
<g id="图形">
	<path d="M842.1,64H589.8c-33,0-61.3,16.5-80.2,40.1C488.4,80.5,460.1,64,424.8,64H184.3C118.2,64,64,118.2,64,184.3v655.5
		c0,66,54.2,120.3,120.3,120.3h655.5c66,0,120.3-54.2,120.3-120.3V184.3C960,118.2,908.1,64,842.1,64z M535.6,653.5
		c0,11.8-11.8,23.6-23.6,23.6c-14.1,0-23.6-9.4-23.6-23.6V229.1c0-11.8,9.4-23.6,23.6-23.6c11.8,0,23.6,9.4,23.6,23.6V653.5z"/>
</g>
</svg>
