<?xml version="1.0" encoding="utf-8"?>
<!-- Generator: Adobe Illustrator 22.0.1, SVG Export Plug-In . SVG Version: 6.00 Build 0)  -->
<svg version="1.1" xmlns="http://www.w3.org/2000/svg" xmlns:xlink="http://www.w3.org/1999/xlink" x="0px" y="0px"
	 viewBox="0 0 1024 1024" style="enable-background:new 0 0 1024 1024;" xml:space="preserve">
<g id="参考线">
</g>
<g id="图形">
	<path d="M902.1,64H184.3v119.3H96.7c-16.4,0-32.3,11.7-32.3,28.2v59.3c0,16.4,15.9,31.7,32.3,31.7h87.5v59.9H96.7
		c-16.4,0-32.3,11.7-32.3,28.2v59.9c0,16.4,15.9,31.7,32.3,31.7h87.5v58.8H96.7c-16.4,0-32.3,11.7-32.3,28.2v59.9
		c0,16.4,15.9,31.7,32.3,31.7h87.5v59.9H96.7c-16.4,0-32.3,11.7-32.3,28.2V809c0,16.4,15.9,31.7,32.3,31.7h87.5V960h717.9
		c32.9,0,57.5-28.8,57.5-61.7V122.8C959.7,88.7,935,64,902.1,64z M362.8,898.8H243.6v-59.9h32.3c16.4,0,27.6-15.3,27.6-31.7v-59.9
		c0-16.4-11.1-28.2-27.6-28.2h-32.3v-59.9h32.3c16.4,0,27.6-15.3,27.6-31.7v-58.2c0-16.4-11.1-28.2-27.6-28.2h-32.3v-59.9h32.3
		c16.4,0,27.6-15.3,27.6-31.7V390c0-16.4-11.1-28.2-27.6-28.2h-32.3v-59.3h32.3c16.4,0,27.6-15.3,27.6-31.7v-59.9
		c0-16.4-11.1-28.2-27.6-28.2h-32.3v-59.3h119.3L362.8,898.8z"/>
</g>
</svg>
