<?xml version="1.0" encoding="utf-8"?>
<!-- Generator: Adobe Illustrator 22.0.1, SVG Export Plug-In . SVG Version: 6.00 Build 0)  -->
<svg version="1.1" xmlns="http://www.w3.org/2000/svg" xmlns:xlink="http://www.w3.org/1999/xlink" x="0px" y="0px"
	 viewBox="0 0 1024 1024" style="enable-background:new 0 0 1024 1024;" xml:space="preserve">
<g id="参考线">
</g>
<g id="图形">
	<path d="M99.3,64h288.9l206.3,367.3H346.9L99.3,64z M512.2,470.1c-136.8,0-247.7,109.7-247.7,245c0,135.3,110.9,245,247.7,245
		s247.7-109.7,247.7-245C759.8,579.7,649,470.1,512.2,470.1z M592.3,847.6l-81.7-59.8l-83.1,57.6l29.7-98.9l-78.6-64.1l100-1.3
		l34.6-97.2l32.1,98.1l100,4l-80.2,61.9L592.3,847.6z M594.5,64h330.1L635.8,431.3L512,195.2L594.5,64"/>
</g>
</svg>
