<?xml version="1.0" encoding="utf-8"?>
<!-- Generator: Adobe Illustrator 22.0.1, SVG Export Plug-In . SVG Version: 6.00 Build 0)  -->
<svg version="1.1" xmlns="http://www.w3.org/2000/svg" xmlns:xlink="http://www.w3.org/1999/xlink" x="0px" y="0px"
	 viewBox="0 0 1024 1024" style="enable-background:new 0 0 1024 1024;" xml:space="preserve">
<g id="参考线">
</g>
<g id="图形">
	<g>
		<path d="M725.8,171.8H281.5L64,482.9v311.2h48.8v58.1h791v-58.1H960V482.9L725.8,171.8z M917.7,576.7H693.4v88.6l-362.8,0v-88.6
			H106.4v-73.2l192.6-286.8h31.6v43.6h359.9v-43.6h33l194,286.8L917.7,576.7z"/>
		<path d="M285.7,396.7v-45h-45v90h-41.2v88.6H383v87.2h260.1v-87.2h183.5v-88.6H782v45H242.1v-45H782v-90h-46.5v45H285.7z"/>
		<path d="M285.7,351.7h449.9v-91.4h-44.9V306H330.7v-45.7h-45V351.7z"/>
	</g>
</g>
</svg>
