<?xml version="1.0" encoding="utf-8"?>
<!-- Generator: Adobe Illustrator 21.0.0, SVG Export Plug-In . SVG Version: 6.00 Build 0)  -->
<svg version="1.1" id="图层_1" xmlns="http://www.w3.org/2000/svg" xmlns:xlink="http://www.w3.org/1999/xlink" x="0px" y="0px"
	 viewBox="0 0 1024 1024" style="enable-background:new 0 0 1024 1024;" xml:space="preserve">
<style type="text/css">
	.st0{fill-rule:evenodd;clip-rule:evenodd;}
</style>
<g>
	<g>
		<path class="st0" d="M129.9,512h63.9c17.6,0,31.9-14.3,31.9-31.9c0-17.6-14.3-31.9-31.9-31.9h-63.9c-17.6,0-31.9,14.3-31.9,31.9
			C98,497.7,112.3,512,129.9,512z M129.9,256.6h63.8c17.7,0,32-14.3,32-31.9h0c0-17.6-14.3-31.9-32-31.9h-63.9
			c-17.6,0-31.9,14.3-31.9,31.9C98,242.3,112.3,256.6,129.9,256.6z M864.1,99l-63.8-2c0-17.6-14.3-31.9-31.9-31.9H193.7
			c-17.6,0-31.9,14.3-31.9,31.9v61.9h31.9c0,0,62.9,5.9,62.9,63.8c0,0,1.3,63.9-64.5,63.9l-30.3,1.9l1.9,125.7l29.9-0.1
			c0,0,63.7,0,63.7,67.8c0,0-4.1,61.9-64,61.9h-30.1l-0.5,125.7h31.8c0,0,61.8,2,61.8,65.9c0,0,1.8,65.8-64,65.8l-30-1.9l-0.5,63.8
			c0,0,38,95.8,93.7,95.8h610.7c0,0,29.8-6,29.8-30v-798C896,130.9,890,99,864.1,99z M330.4,373.5l175.7-73.2c0.7-0.3,1.5-0.3,2.2,0
			l161,73.2c2.2,1,2.2,4.1,0,5.1l-53.7,24.4c-1,0.5-1.6,1.5-1.6,2.6v31.5c0,0.1,0,0.1,0,0.2c-0.2,3.4-7.7,115.9-106.8,121.3
			c-99.1-5.4-106.6-118-106.8-121.4c0-0.1,0-0.1,0-0.2v-27.3c0-1.1-0.7-2.2-1.7-2.6l-68.3-28.4C328.1,377.8,328.1,374.5,330.4,373.5
			z M313.4,667.1c0-0.7,0.3-1.4,0.8-2c7.9-8,59.7-79.9,77.8-97.1c14.9-14.2,32.7-8.8,36.5-8.7c1,0,1.9,0.6,2.4,1.4l54.7,96
			c1.4,2.5,5.3,1.5,5.3-1.4v-4.6c0,0-0.3-7.2,0-16.6V603c0-9,7.3-16.3,16.3-16.3c9,0,16.3,7.3,16.3,16.3v50.7c0,2.9,3.8,3.9,5.3,1.4
			l54.2-94.8c0.5-0.9,1.4-1.4,2.4-1.4c3.8-0.1,25.7-1.4,40.7,12.9c18.2,17.3,66.4,85.2,74.3,93.2c0.5,0.5,0.8,1.2,0.8,2
			c0,7.1,3,44.6-26,44.6H339.3C310.5,711.6,313.5,674.3,313.4,667.1z M800.3,895.1H257.6c0,0-32.9-11-32.9-32.9l543.8,1
			c17.6,0,31.9-14.3,31.9-31.9V125.9l32.9,11h0v728.2C833.2,865.1,834.3,895.1,800.3,895.1z M225.7,735.5
			c0-17.6-14.3-31.9-31.9-31.9h-63.9c-17.6,0-31.9,14.3-31.9,31.9c0,17.6,14.3,31.9,31.9,31.9h63.9
			C211.4,767.4,225.7,753.1,225.7,735.5z M594.4,462.7c-14.9,16.7-41.1,32.4-87.1,34.9c-46-2.5-72.2-18.5-87.1-35.2
			c-1.2-1.4-3.5-0.2-3,1.6c6.1,23.6,26.7,75.6,90.1,79.4c63.4-3.8,84-55.4,90.1-79.1C597.8,462.5,595.6,461.3,594.4,462.7z
			 M507.2,482.4c78.8-4.7,91.5-55.7,92.5-60.1c0-0.2,0.1-0.4,0.1-0.6v-7.1c0-2-2.1-3.4-4-2.6l-87.4,39.7c-0.7,0.3-1.5,0.3-2.2,0
			l-87.5-36.5c-1.9-0.8-3.9,0.6-3.9,2.6v3.5c0,0.2,0,0.4,0.1,0.6C415.7,426.5,428.5,477.7,507.2,482.4z"/>
	</g>
</g>
</svg>
