<?xml version="1.0" encoding="utf-8"?>
<!-- Generator: Adobe Illustrator 22.0.1, SVG Export Plug-In . SVG Version: 6.00 Build 0)  -->
<svg version="1.1" xmlns="http://www.w3.org/2000/svg" xmlns:xlink="http://www.w3.org/1999/xlink" x="0px" y="0px"
	 viewBox="0 0 1024 1024" style="enable-background:new 0 0 1024 1024;" xml:space="preserve">
<g id="参考线">
</g>
<g id="图形">
	<g>
		<path d="M740,472.8c-20.7-117.6-122.4-204.6-243.7-204.6c-136.7,0-248,111.2-248,248s111.2,248,248,248c17.4,0,34.8-2,51.7-5.6
			c-6.7-21.4-10.1-43.7-10.1-66.1C537.8,576.9,626.8,482.2,740,472.8L740,472.8z M496.3,600.3c-46.4,0-84.1-37.7-84.1-84.1
			s37.7-84.1,84.1-84.1c46.4,0,84.1,37.7,84.1,84.1S542.6,600.3,496.3,600.3z"/>
		<path d="M552.6,771.3c-18.5,4.1-37.4,6.3-56.3,6.3c-144.1,0-261.4-117.2-261.4-261.4s117.3-261.4,261.4-261.4
			c127.3-0.2,236.1,91.7,257.2,217.3c1.7,0,3.3-0.3,5-0.3c74,0,139.4,36.6,179.4,92.5c5-2,8.3-6.9,8.3-12.3v-80.2
			c0-20.7-32-28.6-43.3-29.7l-45.8-4.4c-9.1-41-26.7-81.5-52.6-120.7l25.4-32.4c12.1-14.8,13.4-34.7,2.8-45.3l-64-63.7
			c-10.6-10.6-30.1-9.2-45.4,3.3l-33.9,27.5c-36.5-22.8-76.8-38.9-119-47.5l-4.8-49.5c-1.6-16-11.9-38.5-29.7-38.5h-90.2
			c-17.8,0-28.1,22.5-29.7,38.5l-5,49.9c-39.6,9.5-77.8,26.4-114,50.1l-38.7-31c-15.2-12.5-34.7-13.8-45.4-3.1L149,239.1
			c-10.6,10.6-9.1,30.1,3.4,45.4l32.9,40.5c-21.3,34.4-36.5,72.2-45.2,111.7l-47.2,5.4C75.3,443.9,64,455.6,64,471.9V562
			c0,16.3,11.3,27.9,28.7,29.7l51.1,5.5c9.2,40.4,24.2,77.3,44.4,109.9l-35,42.4c-12.6,15.4-14.1,34.9-3.7,45.3l63.6,63.8
			c10.5,10.5,30,9.1,45.2-3.3l41.8-34c33.9,21.7,71.3,37.5,110.5,46.9l5.4,51.3c1.9,19.1,14.7,33.5,29.7,33.5h90.2
			c15,0,27.8-14.4,29.7-33.5l5.1-49l7.1-1c13.5-1.9,27.3-4,39.5-7.7c-0.8-0.7-1.5-1.4-2.2-2.1C587.1,835.9,565.7,805.5,552.6,771.3
			L552.6,771.3z"/>
		<path d="M755.1,486.4c-113.2,0-204.9,91.8-204.9,204.9s91.8,204.9,204.9,204.9c113.2,0,204.9-91.8,204.9-204.9
			S868.3,486.4,755.1,486.4z M759,847.2c-86.8,0-157.4-70.6-157.4-157.4S672.2,532.3,759,532.3c86.8,0,157.4,70.6,157.4,157.4
			S845.8,847.2,759,847.2z"/>
		<path d="M759,545.6c-79.4,0-144.1,64.6-144.1,144.1S679.5,833.8,759,833.8S903,769.1,903,689.7S838.4,545.6,759,545.6L759,545.6z
			 M759,763.4c-40.6,0-73.7-33.1-73.7-73.7S718.3,616,759,616c40.6,0,73.7,33.1,73.7,73.7S799.6,763.4,759,763.4z"/>
	</g>
</g>
</svg>
