<?xml version="1.0" encoding="utf-8"?>
<!-- Generator: Adobe Illustrator 21.0.0, SVG Export Plug-In . SVG Version: 6.00 Build 0)  -->
<svg version="1.1" id="图层_1" xmlns="http://www.w3.org/2000/svg" xmlns:xlink="http://www.w3.org/1999/xlink" x="0px" y="0px"
	 viewBox="0 0 1024 1024" style="enable-background:new 0 0 1024 1024;" xml:space="preserve">
<style type="text/css">
	.st0{fill-rule:evenodd;clip-rule:evenodd;}
</style>
<path class="st0" d="M942.6,398.6c-13.3-25-31.8-47.1-55-64.7c-21.2-16.1-44.9-27.6-69.9-34.1l45.3-55.1
	c60.6-8.2,116.5,34.2,124.8,94.8L942.6,398.6z M902.9,450.4L734.3,671.1c-26-54-75.4-93.3-133.6-107l175.5-213.8
	C834.8,353.9,885.6,394,902.9,450.4z M689.9,712.1l-157.5,68.4l38.7-164.1C625.5,622.6,672.4,659.7,689.9,712.1z M489.1,836.5
	l256.5-97.1V899c0,19.9-16.1,36-36,36H127.8c-19.9,0-36-16.1-36-36V125c0-19.9,16.1-36,36-36h581.9c19.9,0,36,16.1,36,36v196.1
	L532.5,581.3L489.1,836.5z M485.9,320.2c-0.7-6.3-4.7-11.8-11.8-13.4h-0.7c-14-3.2-24.2-10.9-32-24.3c-7-11.8-9.3-26.6-4.7-40
	c2.3-5.5,0.7-12.5-4.7-17.3c-14.7-14.1-32.8-25-53-32.1c-5.4-2.3-11.8-0.7-17.2,4.8c-8.6,10.9-21.8,16.4-36.7,16.4
	c-13.3,0-25.8-6.3-36.7-17.3c-6.3-6.3-12.5-5.5-17.2-3.9c-20.4,8.6-37.4,18.8-52.3,31.4c-5.4,3.9-7.7,10.9-5.4,17.3
	c3.9,14.8,2.3,28.9-4.7,41.6c-6.3,10.9-17.9,19.6-32,23.4c-0.7,0-0.7,0-1.6,0.7c-4.7,2.3-7.7,6.3-10.2,11.8v0.7
	c-2.3,11.8-3.2,21.8-3.2,32.1c0,10.2,0.7,21.8,3.2,31.4c0.7,6.3,4.7,11.8,11.8,13.4h0.7c14,3.2,24.2,10.9,32,24.3
	c7,11.8,9.3,26.6,4.7,40c-2.3,5.5-0.7,12.5,4.7,17.3c14.7,14.1,32.8,25,53.9,32.1c0.7,0,1.6,0.7,3.2,0.7h2.3c3.9,0,8.6-1.6,12.5-5.5
	c8.6-10.2,21.8-16.4,36.7-16.4c13.3,0,25.8,6.3,36.7,17.3c3.2,3.2,7,5.5,10.9,5.5c1.6,0,3.9,0,5.4-0.7c20.4-8.6,37.4-18.8,52.3-31.4
	c5.4-3.2,7.7-10.9,5.4-17.3c-3.9-14.8-2.3-28.9,4.7-41.6c6.3-10.9,17.9-19.6,32-23.4c0.7,0,0.7,0,1.6-0.7c4.7-2.3,7.7-6.3,10.2-11.8
	v-0.7c2.3-11.8,3.2-21.8,3.2-32.1C489.1,341.3,488.2,330.4,485.9,320.2z M325.1,406.3c-30.4,0-54.6-24.3-54.6-54.8
	s24.2-54.8,54.6-54.8s54.6,24.3,54.6,54.8C379.7,382,355.6,406.3,325.1,406.3z M325.1,331.7c-11.1,0-19.8,8.7-19.8,19.8
	c0,11.1,8.7,19.8,19.8,19.8c11.3,0,19.8-8.5,19.8-19.8C344.9,340.4,336.2,331.7,325.1,331.7z"/>
</svg>
