<?xml version="1.0" encoding="utf-8"?>
<!-- Generator: Adobe Illustrator 22.0.1, SVG Export Plug-In . SVG Version: 6.00 Build 0)  -->
<svg version="1.1" xmlns="http://www.w3.org/2000/svg" xmlns:xlink="http://www.w3.org/1999/xlink" x="0px" y="0px"
	 viewBox="0 0 1024 1024" style="enable-background:new 0 0 1024 1024;" xml:space="preserve">
<g id="参考线">
</g>
<g id="图形">
	<g>
		<path d="M752.6,437.3c-6.2-27.9-29-49-57.3-53.1l-99.5-14.7l-49.3,113.2l-6.4-55.8c-0.1-1.8-1.6-3.1-3.4-3.1h-28.2
			c-1.8,0-3.3,1.3-3.4,3.1l-5.7,57.2l-50-114.6l-99.6,14.7c-28.2,4.1-51,25.3-57.3,53.1l-24.5,109.6h509.4L752.6,437.3L752.6,437.3z
			"/>
		<path d="M488.1,373.6c0,10.3,8.6,24.1,13.7,29.3c5.2,5.2,13.8,5.2,20.7,5.2c7,0,15.6,0,20.8-5.2c5.1-5.2,13.7-19,13.7-29.3
			c0.1-12.1-21-13.8-34.4-13.8C509.2,359.8,488,361.5,488.1,373.6z"/>
		<path d="M417.6,193.4c0,71.4,46.9,129.4,104.9,129.4c57.9,0,104.9-57.9,105-129.3c0,0,0-0.1,0-0.1C627.5,122,580.5,64,522.6,64
			C464.6,64,417.6,121.9,417.6,193.4C417.6,193.3,417.6,193.4,417.6,193.4z"/>
		<path d="M73.7,580.7v95.6h197.2V960H753V676.2h197.3v-95.6H73.7z M622.3,776.8h-50.2v109.3H451.8V776.8h-50.1v-80.5h220.6
			L622.3,776.8L622.3,776.8z"/>
	</g>
</g>
</svg>
