<?xml version="1.0" encoding="utf-8"?>
<!-- Generator: Adobe Illustrator 22.0.1, SVG Export Plug-In . SVG Version: 6.00 Build 0)  -->
<svg version="1.1" xmlns="http://www.w3.org/2000/svg" xmlns:xlink="http://www.w3.org/1999/xlink" x="0px" y="0px"
	 viewBox="0 0 1024 1024" style="enable-background:new 0 0 1024 1024;" xml:space="preserve">
<g id="参考线">
</g>
<g id="图形">
	<path d="M957.9,788c-14.9-42.7-64.1-48.9-105.2-66.1c-45.2-18.9-95.2-40.8-140.3-59.1c-12.9-3.5-25.7-6.9-38.6-10.4
		c-15.3-10.5-30.4-45.3-38.6-62.6c-8.2-1.1-16.4-2.3-24.6-3.5c1.3-26.8,18-28.2,24.6-48.7c5.8-18.1,0.6-41.5,9.8-58.2
		c6.4-11.6,20.7-11.7,28-21.6c6.5-9,10.8-24.8,12.9-35.8c3.7-20.2,6.9-47.9-2.7-67.9c-5.6-11.5-9.1-12.6-10.6-26.6
		c-1.9-16.9,5-72.2,5.3-84.1c0.7-31-0.1-33.5-7.6-63.7c0,0-9.2-27.4-23.6-35.6l-28.7-4.9l-17.7-16.3c-71.5-43.6-148.1-13-189.1,3.5
		c-59.1,19-96.5,76.5-70.4,199.1c4.4,20.9-11.6,30.3-10.5,41.7c2.3,25,2.8,85.1,26.6,99.9c2.2,1.3,19.1,5.6,19,4.4
		c2.3,24.4,4.7,48.7,7,73c5.9,16.2,20.2,18,24.4,40.8l-18.3,4.4c-8.2,17.3-23.2,52.1-38.6,62.6c-12.9,3.5-25.7,7-38.6,10.4
		c-45,18.3-95.1,40.3-140.3,59.1C130.2,739.1,81,745.2,66.1,788c0,29-2.7,97.6-2,135.6h393.2l28.9-195.5l-24-50.2l55.4-26.3
		l46.6,25.8l-25.7,51.7L584,923.6h375.9C960.6,885.6,957.9,817,957.9,788"/>
</g>
</svg>
