<?xml version="1.0" standalone="no"?><!DOCTYPE svg PUBLIC "-//W3C//DTD SVG 1.1//EN" "http://www.w3.org/Graphics/SVG/1.1/DTD/svg11.dtd"><svg class="icon" width="16px" height="16.00px" viewBox="0 0 1024 1024" version="1.1" xmlns="http://www.w3.org/2000/svg"><path fill="#62b5ff" d="M942.4 289.088S815.04 417.472 802.048 430.592c-12.992 13.056-56.96 11.712-56.96 11.712S628.8 429.12 611.968 412.416c-16.64-16.768-28.16-138.496-28.16-138.496s-3.264-33.856 13.504-50.688c16.704-16.768 141.056-141.184 141.056-141.184S754.304 64.128 731.2 64c-74.56-0.256-226.048 1.472-299.392 75.008l-15.232 15.04c-84.736 85.376-92.224 213.184-27.52 307.072L104.64 712.96c-34.176 34.176-71.104 135.168 0 206.4s171.776 34.176 205.824-0.064c0 0 203.264-228.928 252.608-283.2 93.568 67.136 222.336 60.48 308.096-25.6l15.104-15.104C957.376 524.032 959.68 373.76 960 297.728c0.192-24.256-17.6-8.64-17.6-8.64zM229.312 878.976c-46.656 0-84.352-37.632-84.352-84.288 0-46.528 37.76-84.288 84.352-84.288 46.592 0 84.224 37.824 84.224 84.288 0 46.656-37.632 84.288-84.224 84.288z" /></svg>