<?xml version="1.0" encoding="utf-8"?>
<!-- Generator: Adobe Illustrator 22.0.1, SVG Export Plug-In . SVG Version: 6.00 Build 0)  -->
<svg version="1.1" xmlns="http://www.w3.org/2000/svg" xmlns:xlink="http://www.w3.org/1999/xlink" x="0px" y="0px"
	 viewBox="0 0 1024 1024" style="enable-background:new 0 0 1024 1024;" xml:space="preserve">
<g id="参考线">
</g>
<g id="图形">
	<path d="M890.6,854.6c-1.6,2.9-3.6,5.1-6,6.7c-2.4,1.6-5.1,2.6-8.1,3c-3,0.4-5.8,0.6-8.6,0.6c-6.3,0-14.6-0.1-24.8-0.2
		c-10.2-0.1-20.6-0.2-31.4-0.2c-10.8,0-21.2-0.1-31.1-0.2c-9.9-0.1-18-0.2-24.1-0.2c-5.5,0-9.8,0.7-13,2.1c-3.2,1.4-4.9,4.7-5.1,10
		c0,2.3-0.1,5-0.2,8.1c-0.1,3.1-0.2,6.2-0.3,9.4c-0.1,3.2-0.2,6.2-0.2,9.2v7.9c0,7.6-2.4,12.1-7.1,13.5c-4.8,1.4-10.8-0.9-18.3-6.8
		c-6.8-5.5-14.4-11.7-23-18.7c-8.6-7-17.3-14-26.2-21.1c-8.9-7.1-17.5-14-25.7-20.6c-8.3-6.7-15.3-12.5-21.3-17.6
		c-5.9-4.9-8.8-9.6-8.7-14.1c0.1-4.6,3.3-9.4,9.7-14.4c6.8-5.3,14.6-11.4,23.3-18.4c8.8-7,17.7-14.1,26.7-21.3
		c9-7.2,17.8-14.2,26.5-21.1c8.7-6.9,16.2-12.9,22.5-17.9c6.3-4.9,11.5-6.3,15.6-4.3c4,2,6,6.7,6,14.1c0,4.4,0.1,9.6,0.3,15.4
		c0.2,5.8,0.3,10.8,0.3,15.1c-0.2,5.7,2.1,9.4,6.8,11c4.8,1.6,11.2,2.4,19.2,2.4h23.2c9.7,0,19.7,0.1,30,0.2
		c10.3,0.1,19.9,0.2,29,0.2h20c9.3,0,16.1,1.6,20.3,4.8c1.1,0.8,2,1.8,2.8,3c-20.8-161.4-143-291.5-300.5-324.1
		c77.9-30.9,133.1-106.8,133.1-195.5c0-116-94.4-210.3-210.3-210.3s-210.3,94.3-210.3,210.3c0,88.7,55.3,164.6,133.1,195.5
		c-173.1,35.8-303.7,189.4-303.7,373c0,44.6,31.3,59.4,56.5,71.3l1.4,0.6C290.6,950.5,437.3,960,508,960c77.1,0,228-12.5,328.3-47.1
		c35.7-13.7,54.7-35.7,56.5-65.5C892.4,850.2,891.7,852.6,890.6,854.6z"/>
</g>
</svg>
