<?xml version="1.0" encoding="utf-8"?>
<!-- Generator: Adobe Illustrator 22.0.1, SVG Export Plug-In . SVG Version: 6.00 Build 0)  -->
<svg version="1.1" xmlns="http://www.w3.org/2000/svg" xmlns:xlink="http://www.w3.org/1999/xlink" x="0px" y="0px"
	 viewBox="0 0 1024 1024" style="enable-background:new 0 0 1024 1024;" xml:space="preserve">
<g id="参考线">
</g>
<g id="图形">
	<path d="M884.5,839.5c-5.9,5.1-13,11-21.3,17.6c-8.3,6.7-16.8,13.5-25.7,20.6c-8.9,7.1-17.6,14.1-26.2,21.1
		c-8.6,7-16.2,13.2-23,18.7c-7.4,5.9-13.5,8.2-18.3,6.8c-4.8-1.4-7.1-5.9-7.1-13.5V903c0-3-0.1-6-0.2-9.2c-0.1-3.2-0.2-6.3-0.3-9.4
		c-0.1-3.1-0.2-5.8-0.2-8.1c-0.2-5.3-1.9-8.6-5.1-10c-3.2-1.4-7.5-2.1-13-2.1c-6.1,0-14.2,0.1-24.1,0.2c-9.9,0.1-20.3,0.2-31.1,0.2
		s-21.3,0.1-31.4,0.2c-10.2,0.1-18.4,0.2-24.8,0.2c-2.8,0-5.6-0.2-8.6-0.6c-3-0.4-5.7-1.4-8.1-3c-2.4-1.6-4.4-3.8-6-6.7
		s-2.4-6.6-2.4-11.3c0-5.7-0.1-11.2-0.2-16.5c-0.1-5.3-0.2-11.2-0.2-17.8l0,0c0-8.9,2.1-14.9,6.3-18.1c4.2-3.2,11-4.8,20.3-4.8h20
		c9.1,0,18.8-0.1,29-0.2c10.3-0.1,20.3-0.2,30-0.2h23.2c8,0,14.4-0.8,19.2-2.4c4.8-1.6,7-5.2,6.8-11c0-4.2,0.1-9.3,0.3-15.1
		c0.2-5.8,0.3-11,0.3-15.4c0-7.4,2-12.1,6-14.1c4-2,9.2-0.6,15.6,4.3c6.3,5.1,13.9,11.1,22.5,17.9s17.5,13.9,26.5,21.1
		c9,7.2,17.9,14.3,26.7,21.3c8.8,7,16.6,13.1,23.3,18.4c4.3,3.5,7.2,6.8,8.6,10c-9.9-173.8-136.8-316.8-303-351.2
		c77.9-30.9,133.1-106.8,133.1-195.5C722.3,158.3,628,64,512,64s-210.3,94.3-210.3,210.3c0,88.7,55.3,164.6,133.1,195.5
		c-173.1,35.8-303.7,189.4-303.7,373c0,44.6,31.3,59.4,56.5,71.3l1.4,0.6C290.5,950.5,437.2,960,507.9,960
		c77.1,0,228-12.5,328.3-47.1c37.6-14.4,56.6-38,56.6-70.1c0-4.5-0.1-9-0.3-13.4C891.4,832.6,888.8,836,884.5,839.5z"/>
</g>
</svg>
