<?xml version="1.0" encoding="utf-8"?>
<!-- Generator: Adobe Illustrator 22.0.1, SVG Export Plug-In . SVG Version: 6.00 Build 0)  -->
<svg version="1.1" xmlns="http://www.w3.org/2000/svg" xmlns:xlink="http://www.w3.org/1999/xlink" x="0px" y="0px"
	 viewBox="0 0 1024 1024" style="enable-background:new 0 0 1024 1024;" xml:space="preserve">
<g id="参考线">
</g>
<g id="图形">
	<g>
		<g>
			<path d="M952.8,821.9c-5.1,4.4-11.3,9.5-18.4,15.2c-7.1,5.8-14.5,11.7-22.2,17.8c-7.7,6.1-15.2,12.2-22.6,18.3
				c-7.4,6-14,11.4-19.9,16.2c-6.4,5.1-11.7,7.1-15.8,5.9c-4.1-1.2-6.2-5.1-6.2-11.7v-6.9c0-2.6,0-5.2-0.1-8
				c-0.1-2.7-0.2-5.4-0.3-8.1c-0.1-2.7-0.1-5-0.1-7c-0.2-4.6-1.6-7.5-4.4-8.6c-2.7-1.2-6.5-1.8-11.3-1.8c-5.3,0-12.3,0-20.9,0.1
				c-8.6,0.1-17.6,0.1-26.9,0.1s-18.4,0-27.2,0.1s-15.9,0.1-21.4,0.1c-2.4,0-4.8-0.2-7.4-0.5c-2.6-0.4-4.9-1.2-7-2.6
				c-2.1-1.4-3.8-3.3-5.2-5.8s-2.1-5.7-2.1-9.7c0-4.9,0-9.7-0.1-14.3s-0.1-9.7-0.1-15.4l0,0c0-7.7,1.8-12.9,5.5-15.6
				c3.7-2.7,9.5-4.1,17.6-4.1h17.3c7.9,0,16.2,0,25.1-0.1c8.9-0.1,17.5-0.1,25.9-0.1h20c7,0,12.5-0.7,16.6-2.1
				c4.1-1.4,6.1-4.5,5.9-9.5c0-3.7,0.1-8,0.3-13c0.2-5,0.3-9.5,0.3-13.3c0-6.4,1.7-10.5,5.2-12.2c3.5-1.7,8-0.5,13.5,3.7
				c5.5,4.4,12,9.6,19.5,15.5c7.5,5.9,15.1,12,22.9,18.3s15.5,12.4,23.1,18.4c7.6,6,14.3,11.3,20.2,15.9c3.7,3,6.2,5.9,7.5,8.7
				c-8.5-150.3-118.3-274-262-303.6c67.3-26.7,115.1-92.3,115.1-169c0-100.3-81.6-181.9-181.9-181.9s-181.9,81.6-181.9,181.9
				c0,76.7,47.8,142.3,115.1,169C414.2,533.1,301.4,666,301.4,824.7c0,38.6,27.1,51.4,48.8,61.7l1.2,0.5
				c87.7,31,214.6,39.2,275.7,39.2c66.7,0,197.2-10.8,283.9-40.8c32.5-12.5,49-32.9,49-60.6c0-3.9-0.1-7.8-0.2-11.6
				C958.8,815.9,956.5,818.9,952.8,821.9z"/>
			<path d="M478.4,486.9c-43.1-40.2-70.2-97.3-70.2-160.8c0-77.8,40.5-146.1,101.5-185.2v0c-0.4-0.5-0.9-0.8-1.4-1.3
				c-0.4-0.5-0.7-1.1-1.2-1.5c-32.3-25.9-72.4-40.1-113.8-40.1c-100.3,0-181.9,81.6-181.9,181.9c0,76.7,47.8,142.3,115.1,169
				C176.9,479.7,64,612.6,64,771.3c0,27.8,16.5,48.2,49.4,60.8c48.7,16.8,109.2,26.5,152.5,31.8c-1.8-14.6-2.7-29.3-2.7-44
				C263.1,671.6,351.5,544.1,478.4,486.9z"/>
		</g>
	</g>
</g>
</svg>
