<?xml version="1.0" encoding="utf-8"?>
<!-- Generator: Adobe Illustrator 22.0.1, SVG Export Plug-In . SVG Version: 6.00 Build 0)  -->
<svg version="1.1" xmlns="http://www.w3.org/2000/svg" xmlns:xlink="http://www.w3.org/1999/xlink" x="0px" y="0px"
	 viewBox="0 0 1024 1024" style="enable-background:new 0 0 1024 1024;" xml:space="preserve">
<g id="参考线">
</g>
<g id="图形">
	<path d="M512,64.1C265,64.1,64.1,265,64.1,512c-2,104.1,42.4,190.5,44.3,194.5l-4.8,188.6c-0.9,13.9,10.9,36.3,35.4,35.4l201.7-4.7
		c0,0,73.2,34.6,171.4,34.1c247.1,0,447.9-200.9,447.9-448S759.1,64.1,512,64.1z M512,816.2c-167.7,0-304.2-136.5-304.2-304.2
		c3.5-47.4,67.6-44.3,69.1,0c0,129.6,105.5,235.1,235.1,235.1S747.1,641.6,747.1,512c-0.1-42.7,67.1-48.3,69.1-0.1c0,0,0,0,0,0.1
		C816.1,679.8,679.7,816.2,512,816.2L512,816.2z"/>
</g>
</svg>
