<?xml version="1.0" encoding="utf-8"?>
<!-- Generator: Adobe Illustrator 22.0.1, SVG Export Plug-In . SVG Version: 6.00 Build 0)  -->
<svg version="1.1" xmlns="http://www.w3.org/2000/svg" xmlns:xlink="http://www.w3.org/1999/xlink" x="0px" y="0px"
	 viewBox="0 0 1024 1024" style="enable-background:new 0 0 1024 1024;" xml:space="preserve">
<g id="参考线">
</g>
<g id="图形">
	<path d="M890,960H134.1c-38.7,0-70-31.4-70-70V134c0-38.7,31.3-70,70-70H890c38.7,0,70,31.3,70,70V890C960,928.6,928.6,960,890,960
		L890,960z M918,624V134c0-15.5-12.6-28-28-28l-755.9,0c-15.5,0-28,12.5-28,28v490v126L400,456l154,196l98,126l14-14l-96.7-124.4
		L708.1,526l210,183.7L918,624L918,624z M665.8,302c0-38.7,31.2-70,69.9-70h0.3c38.7,0,69.9,31.3,69.9,70c0,38.7-31.2,70-69.9,70
		h-0.3C697,372,665.8,340.7,665.8,302L665.8,302z"/>
</g>
</svg>
