<?xml version="1.0" encoding="utf-8"?>
<!-- Generator: Adobe Illustrator 22.0.1, SVG Export Plug-In . SVG Version: 6.00 Build 0)  -->
<svg version="1.1" xmlns="http://www.w3.org/2000/svg" xmlns:xlink="http://www.w3.org/1999/xlink" x="0px" y="0px"
	 viewBox="0 0 1024 1024" style="enable-background:new 0 0 1024 1024;" xml:space="preserve">
<g id="参考线">
</g>
<g id="图形">
	<path d="M923.5,777c0-9.1-9.1-18.2-18.2-18.2H561l285-285c13.7-13.7,13.7-38.8,0-52.4L592.9,170.6c-13.7-13.7-38.8-13.7-52.4,0
		L205.4,505.7c-13.7,13.7-13.7,38.8,0,52.4L406,756.5H118.7c-9.1,0-18.2,9.1-18.2,18.2L64,845.4c0,9.1,9.1,18.2,18.2,18.2h859.5
		c9.1,0,18.2-9.1,18.2-18.2L923.5,777L923.5,777z M442.5,478.4l59.3,63.8l120.8-123.1l18.2,20.5L501.7,581l-79.8-82.1
		C421.9,498.9,442.5,478.4,442.5,478.4z M312.5,831.8l18.2-29.6h362.5l18.2,29.6H312.5L312.5,831.8z"/>
</g>
</svg>
