<?xml version="1.0" standalone="no"?><!DOCTYPE svg PUBLIC "-//W3C//DTD SVG 1.1//EN" "http://www.w3.org/Graphics/SVG/1.1/DTD/svg11.dtd"><svg class="icon" width="16px" height="16.00px" viewBox="0 0 1024 1024" version="1.1" xmlns="http://www.w3.org/2000/svg"><path fill="#62b5ff" d="M868.224 531.456c63.616-156.8 17.408-339.072 17.408-339.072-161.408 7.168-217.472 56.448-217.472 56.448C608.256 130.816 510.976 64 510.976 64s-97.28 66.816-157.312 184.96c0 0-55.936-49.28-217.472-56.448 0 0-46.208 182.144 17.664 339.072C201.088 647.552 321.92 748.032 480.64 759.552c-0.384 2.048-0.64 4.224-0.64 6.4v162.56c0 16.896 13.952 30.848 31.104 30.848s31.104-13.952 31.104-30.848v-162.56c0-2.176-0.256-4.352-0.64-6.4 158.464-11.648 279.424-112.128 326.656-228.096zM418.56 867.072s-38.4-32-117.248-69.248c-77.952-36.992-155.136-42.112-155.136-42.112-21.76-2.432-34.176 0.64-40.832 16.256-6.656 15.488-62.336 33.792-46.592 40.448 0 0 105.216 16.256 155.392 37.248C257.92 867.968 354.688 959.36 354.688 959.36c15.744 6.656 69.504-33.152 76.288-48.768 6.528-15.744 2.688-29.824-12.416-43.52z m500.096-95.232c-6.656-15.616-19.072-18.688-40.832-16.256 0 0-77.184 5.248-155.264 42.112-78.72 37.504-117.12 69.376-117.12 69.376-15.104 13.696-19.072 27.776-12.416 43.392 6.784 15.616 60.544 55.424 76.288 48.768 0 0 96.768-91.392 140.544-109.696 50.176-20.992 155.392-37.248 155.392-37.248 15.744-6.656-39.808-24.832-46.592-40.448z" /></svg>