<?xml version="1.0" encoding="utf-8"?>
<!-- Generator: Adobe Illustrator 22.1.0, SVG Export Plug-In . SVG Version: 6.00 Build 0)  -->
<svg version="1.1" id="图层_1" xmlns="http://www.w3.org/2000/svg" xmlns:xlink="http://www.w3.org/1999/xlink" x="0px" y="0px"
	 viewBox="0 0 1024 1024" style="enable-background:new 0 0 1024 1024;" xml:space="preserve">
<g id="参考线">
</g>
<g>
	<path d="M739,277.7h15.2c17.2,0.4,31.4-13.3,31.7-30.4c0,0,0,0,0,0V94.4c-0.3-17.2-14.5-30.8-31.7-30.4c0,0,0,0,0,0H739
		c-17.2-0.4-31.4,13.3-31.7,30.4c0,0,0,0,0,0v152.8C707.7,264.4,721.8,278,739,277.7C739,277.7,739,277.7,739,277.7z M269.8,277.7
		H285c17.2,0.4,31.4-13.3,31.7-30.4c0,0,0,0,0,0V94.4C316.3,77.3,302.2,63.7,285,64c0,0,0,0,0,0h-15.2
		c-17.2-0.4-31.4,13.3-31.7,30.4c0,0,0,0,0,0v152.8C238.4,264.4,252.6,278,269.8,277.7C269.8,277.7,269.8,277.7,269.8,277.7z"/>
	<path d="M872.5,143.9h-63.4v112.2c-0.3,30.5-25.3,54.9-55.8,54.5c0,0,0,0,0,0h-15.2c-30.5,0.4-55.4-24.1-55.8-54.5c0,0,0,0,0,0
		V143.9H339.8v112.2c-0.3,30.5-25.3,54.9-55.8,54.5c0,0,0,0,0,0h-15.2c-30.5,0.4-55.4-24.1-55.8-54.5c0,0,0,0,0,0V143.9h-63.4
		c-45.1,1-81.2,37.9-81.2,83.1v650c0,45.9,37.2,83.1,83.1,83.1h0h721c45.9,0,83.1-37.2,83.1-83.1v0V227
		C955.6,181.1,918.4,143.9,872.5,143.9C872.5,143.9,872.5,143.9,872.5,143.9z M276.4,793.2c-0.3,23.6-19.6,42.5-43.1,42.5h-41.2
		c-23.6,0-42.8-18.9-43.1-42.5v-14c1-23.1,20-41.2,43.1-41.2h40.6c23.6,0,42.8,18.9,43.1,42.5L276.4,793.2z M276.4,622.7
		c-0.3,23.6-19.6,42.5-43.1,42.5h-41.2c-23.6,0-42.8-18.9-43.1-42.5v-11.4c0-23.8,19.3-43.1,43.1-43.1h40.6
		c23.8,0,43.1,19.3,43.1,43.1L276.4,622.7z M276.4,452.1c0,23.8-19.3,43.1-43.1,43.1c0,0,0,0,0,0h-41.2c-23.8,0-43.1-19.3-43.1-43.1
		c0,0,0,0,0,0v-14c0-23.8,19.3-43.1,43.1-43.1h0h40.6c23.8,0,43.1,19.3,43.1,43.1l0,0L276.4,452.1z M473.6,793.2
		c-0.3,23.6-19.6,42.5-43.1,42.5h-39.3c-23.6,0-42.8-18.9-43.1-42.5v-14c1-23.1,20-41.2,43.1-41.2h40.6c23.6,0,42.8,18.9,43.1,42.5
		L473.6,793.2z M473.6,622.7c-0.3,23.6-19.6,42.5-43.1,42.5h-39.3c-23.6,0-42.8-18.9-43.1-42.5v-11.4c-1.1-23.8,17.4-43.9,41.2-45
		c0.6,0,1.3,0,1.9,0h40.6c23.8,0.7,42.6,20.5,41.9,44.3c0,0.2,0,0.5,0,0.7V622.7z M473.6,452.1c0,23.8-19.3,43.1-43.1,43.1
		c0,0,0,0,0,0h-39.3c-23.8,0-43.1-19.3-43.1-43.1c0,0,0,0,0,0v-14c0.3-23.6,19.6-42.5,43.1-42.5h40.6c23.8,0,43.1,19.3,43.1,43.1
		l0,0L473.6,452.1z M677.8,622.7c-0.3,23.6-19.6,42.5-43.1,42.5h-40.6c-23.6,0-42.8-18.9-43.1-42.5v-11.4
		c0-23.8,19.3-43.1,43.1-43.1h40.6c23.8,0,43.1,19.3,43.1,43.1V622.7z M677.8,452.1c0,23.8-19.3,43.1-43.1,43.1h-40.6
		c-23.8,0-43.1-19.3-43.1-43.1v-14c0-23.8,19.3-43.1,43.1-43.1h40.6c23.8,0,43.1,19.3,43.1,43.1V452.1z M875,622.7
		c-0.3,23.6-19.6,42.5-43.1,42.5h-40.6c-23.6,0-42.8-18.9-43.1-42.5v-11.4c0-23.8,19.3-43.1,43.1-43.1h40.6
		c23.8,0,43.1,19.3,43.1,43.1V622.7z M875,452.1c0,23.8-19.3,43.1-43.1,43.1h-40.6c-23.8,0-43.1-19.3-43.1-43.1v-14
		c0-23.8,19.3-43.1,43.1-43.1h40.6c23.8,0,43.1,19.3,43.1,43.1V452.1z"/>
</g>
</svg>
