<?xml version="1.0" encoding="utf-8"?>
<!-- Generator: Adobe Illustrator 22.0.1, SVG Export Plug-In . SVG Version: 6.00 Build 0)  -->
<svg version="1.1" xmlns="http://www.w3.org/2000/svg" xmlns:xlink="http://www.w3.org/1999/xlink" x="0px" y="0px"
	 viewBox="0 0 1024 1024" style="enable-background:new 0 0 1024 1024;" xml:space="preserve">
<g id="参考线">
</g>
<g id="图形">
	<path d="M890,960L890,960z M486.8,222.8c-27.6,0-52.2-25.9-52.2-55.1s24.6-55.1,52.2-55.1c30.7,0,52.2,25.9,52.2,55.1
		C539,203.3,514.4,222.8,486.8,222.8L486.8,222.8z M630.8,138.5c-15.3,0-24.6-13-24.6-25.9l0,0c0-25.9-21.5-48.6-49-48.6H413
		c-27.6,0-49,22.6-49,48.6l0,0c0,16.2-12.3,25.9-24.6,25.9H321c-15.3,0-24.6,13-24.6,25.9v77.8c0,16.2,12.3,25.9,24.6,25.9h325.1
		c15.3,0,24.6-13,24.6-25.9v-77.8c0-16.2-12.3-25.9-24.6-25.9H630.8L630.8,138.5z M738.3,472.3l-273,337.3
		c-6.1,9.7-24.6,6.6-33.8-3.3L247.5,647.5c-3.1-3.3-6.1-9.7,0-13l33.8-42.2c3.1-3.3,9.2-3.3,12.3,0l144.2,123.2
		c6.1,3.3,12.3,3.3,18.4-3.3L683,420.5c3.1-6.6,9.2-6.6,12.3-3.3l43,38.9C744.4,459.3,747.5,462.6,738.3,472.3L738.3,472.3
		L738.3,472.3z M738.3,196.9v113.5c0,16.2-12.3,25.9-24.6,25.9l-457,3.3c-15.3,0-24.6-13-24.6-25.9V200.2
		c0-16.2-12.3-25.9-24.6-25.9h-15.3c-39.9-3.3-58.2,22.6-58.2,58.4v632.2c0,29.2,27.6,68.1,64.5,68.1h573.5
		c30.7,0,64.5-35.6,64.5-68.1V229.2c0-29.2-21.5-58.4-55.3-58.4h-15.3C750.6,171,738.3,180.6,738.3,196.9L738.3,196.9L738.3,196.9z
		 M368.5,759L368.5,759z"/>
</g>
</svg>
