<?xml version="1.0" encoding="utf-8"?>
<!-- Generator: Adobe Illustrator 22.0.1, SVG Export Plug-In . SVG Version: 6.00 Build 0)  -->
<svg version="1.1" xmlns="http://www.w3.org/2000/svg" xmlns:xlink="http://www.w3.org/1999/xlink" x="0px" y="0px"
	 viewBox="0 0 1024 1024" style="enable-background:new 0 0 1024 1024;" xml:space="preserve">
<g id="参考线">
</g>
<g id="图形">
	<path d="M942.6,452.9c-0.4-3.6-2.7-6.7-6.7-7.6h-0.4c-8-1.8-13.8-6.2-18.2-13.8c-4-6.7-5.3-15.1-2.7-22.7c1.3-3.1,0.4-7.1-2.7-9.8
		c-8.4-8-18.7-14.2-30.2-18.2c-3.1-1.3-6.7-0.4-9.8,2.7c-4.9,6.2-12.4,9.3-20.9,9.3c-7.6,0-14.7-3.6-20.9-9.8
		c-3.6-3.6-7.1-3.1-9.8-2.2c-11.6,4.9-21.3,10.7-29.8,17.8c-3.1,2.2-4.4,6.2-3.1,9.8c2.2,8.4,1.3,16.4-2.7,23.6
		c-3.6,6.2-10.2,11.1-18.2,13.3c-0.4,0-0.4,0-0.9,0.4c-2.7,1.3-4.4,3.6-5.8,6.7v0.4c-1.3,6.7-1.8,12.4-1.8,18.2
		c0,5.8,0.4,12.4,1.8,17.8c0.4,3.6,2.7,6.7,6.7,7.6h0.4c8,1.8,13.8,6.2,18.2,13.8c4,6.7,5.3,15.1,2.7,22.7c-1.3,3.1-0.4,7.1,2.7,9.8
		c8.4,8,18.7,14.2,30.7,18.2c0.4,0,0.9,0.4,1.8,0.4h1.3c2.2,0,4.9-0.9,7.1-3.1c4.9-5.8,12.4-9.3,20.9-9.3c7.6,0,14.7,3.6,20.9,9.8
		c1.8,1.8,4,3.1,6.2,3.1c0.9,0,2.2,0,3.1-0.4c11.6-4.9,21.3-10.7,29.8-17.8c3.1-1.8,4.4-6.2,3.1-9.8c-2.2-8.4-1.3-16.4,2.7-23.6
		c3.6-6.2,10.2-11.1,18.2-13.3c0.4,0,0.4,0,0.9-0.4c2.7-1.3,4.4-3.6,5.8-6.7v-0.4c1.3-6.7,1.8-12.4,1.8-18.2
		C944.4,464.9,943.9,458.7,942.6,452.9L942.6,452.9z M851,501.8c-17.3,0-31.1-13.8-31.1-31.1c0-17.3,13.8-31.1,31.1-31.1
		s31.1,13.8,31.1,31.1C882.1,488,868.4,501.8,851,501.8z"/>
	<g>
		<path d="M930.6,513.7c-0.5,0.7-1,1.4-1.4,2.2c-4.7,8.3-5.7,17.6-3.1,27.5c1.6,4.2,0,9.3-3.6,11.4c-9.9,8.3-21.3,15-34.8,20.8
			c-1,0.5-2.6,0.5-3.6,0.5c-2.6,0-5.2-1.6-7.3-3.6c-7.3-7.3-15.6-11.4-24.4-11.4c-9.9,0-18.7,4.2-24.4,10.9
			c-2.6,2.6-5.7,3.6-8.3,3.6h-1.6c-1,0-1.6-0.5-2.1-0.5c-14-4.7-25.9-11.9-35.8-21.3c-3.6-3.1-4.7-7.8-3.1-11.4
			c3.1-8.8,1.6-18.7-3.1-26.5c-5.2-8.8-11.9-14-21.3-16.1h-0.5c-4.7-1-7.3-4.7-7.8-8.8c-1.6-6.2-2.1-14-2.1-20.8s0.5-13.5,2.1-21.3
			v-0.5c1.6-3.6,3.6-6.2,6.7-7.8c0.5-0.5,0.5-0.5,1-0.5c9.3-2.6,17.1-8.3,21.3-15.6c4.7-8.3,5.7-17.6,3.1-27.5
			c-1.6-4.2,0-8.8,3.6-11.4c4-3.4,8.3-6.5,12.9-9.4L549,132c-37.4-37.5-111.3-68-164.2-68H160.2c-53,0-96.2,43.2-96.2,96.2v224.6
			c0,52.8,30.6,126.8,68.1,164.2l382.9,382.9c37.4,37.5,98.5,37.5,136,0L931.9,651c37.4-37.5,37.4-98.7,0-136.1L930.6,513.7z
			 M288,384c-53,0-96-43-96-96c0-53,43-96,96-96c53,0,96,43,96,96C384,341,341,384,288,384z"/>
	</g>
</g>
</svg>
