<?xml version="1.0" encoding="utf-8"?>
<!-- Generator: Adobe Illustrator 22.0.1, SVG Export Plug-In . SVG Version: 6.00 Build 0)  -->
<svg version="1.1" xmlns="http://www.w3.org/2000/svg" xmlns:xlink="http://www.w3.org/1999/xlink" x="0px" y="0px"
	 viewBox="0 0 1024 1024" style="enable-background:new 0 0 1024 1024;" xml:space="preserve">
<g id="参考线">
</g>
<g id="图形">
	<path d="M236.3,684.3h-68.9V477.5h310.2V339.7h68.9v137.8h310.2v206.8h-68.9V546.5H546.5v137.8h-68.9V546.5H236.3V684.3z
		 M512,270.8c56.9,0,103.4-46.5,103.4-103.4S568.9,64,512,64s-103.4,46.5-103.4,103.4S455.1,270.8,512,270.8z M512,753.2
		c-56.9,0-103.4,46.5-103.4,103.4c0,56.9,46.5,103.4,103.4,103.4s103.4-46.5,103.4-103.4C615.4,799.8,568.9,753.2,512,753.2z
		 M201.8,753.2c-56.9,0-103.4,46.5-103.4,103.4C98.5,913.5,145,960,201.8,960s103.4-46.5,103.4-103.4
		C305.2,799.8,258.7,753.2,201.8,753.2z M822.2,753.2c-56.9,0-103.4,46.5-103.4,103.4c0,56.9,46.5,103.4,103.4,103.4
		c56.9,0,103.4-46.5,103.4-103.4C925.5,799.8,879,753.2,822.2,753.2z"/>
</g>
</svg>
