<?xml version="1.0" encoding="utf-8"?>
<!-- Generator: Adobe Illustrator 22.0.1, SVG Export Plug-In . SVG Version: 6.00 Build 0)  -->
<svg version="1.1" xmlns="http://www.w3.org/2000/svg" xmlns:xlink="http://www.w3.org/1999/xlink" x="0px" y="0px"
	 viewBox="0 0 1024 1024" style="enable-background:new 0 0 1024 1024;" xml:space="preserve">
<g id="参考线">
</g>
<g id="图形">
	<path d="M296,285.3L296,285.3L296,285.3z M246.7,323c30.3,0,54.8-30.2,54.8-67.4v-75.7c0-37.2-24.5-67.4-54.8-67.4
		c-30.3,0-54.8,30.2-54.8,67.4v75.7C191.9,292.8,216.4,323,246.7,323z M959.6,250.6c-2.5-61.7-59.5-57.6-59.5-57.6h-32.7v107
		c0,0-0.7,47-46.3,47.1c-2.9,0-5.7,0-8.6,0c-14.8,0-41.2-0.1-70.6,0c-6.8,0-11.3,0-12.6,0c-46.4-1.5-44.2-45.9-44.2-45.9V193H339
		v108.3c0,0,2.2,44.3-44.2,45.9c-1.3,0-5.8,0-12.6,0c-29.4-0.1-55.8,0-70.6,0c-2.9,0-5.7,0-8.6,0c-45.6-0.1-46.3-47.1-46.3-47.1V193
		h-32.7c0,0-57-4.1-59.5,57.6c-0.4,2.5-0.4,4-0.4,4s0.1,569.8,0.1,595.1c0,61.2,62,61.8,62,61.8h771.8c0,0,62-0.6,62-61.8
		c0-25.3,0.1-595.1,0.1-595.1S959.9,253.1,959.6,250.6L959.6,250.6z M513.2,786c0,46.8-89.5,57.4-173.6,57.4
		c-83.9,0-174.6-10.6-174.6-57.4v-12.9c0-34.3,61.9-69.1,114.6-88.2c3.8-1.4,22-11.3,11.8-38c-26.1-26.7-45.9-69.9-45.9-112.5
		c0-65.2,43.1-99.3,93.5-99.3c50.4,0,93.7,34.2,93.7,99.3c0,42.4-19.9,85.4-45.8,112.2h0.1c-10,30.3,6,37.5,8.5,38.3
		c55.3,18.3,117.5,52.8,117.5,88.2V786z M820.7,764.6H624.9c-23.2,0-42-18.8-42-42c0-23.2,18.8-42,42-42h195.8c23.2,0,42,18.8,42,42
		C862.7,745.7,843.9,764.6,820.7,764.6z M820.7,598.1H624.9c-23.2,0-42-18.8-42-42c0-23.2,18.8-42,42-42h195.8c23.2,0,42,18.8,42,42
		C862.7,579.3,843.9,598.1,820.7,598.1z M777.5,323c30.3,0,54.8-30.2,54.8-67.4v-75.7c0-37.2-26.6-67.4-56.9-67.4
		c-30.3,0-52.8,30.2-52.8,67.4v75.7C722.7,292.8,747.2,323,777.5,323z"/>
</g>
</svg>
