<?xml version="1.0" encoding="utf-8"?>
<!-- Generator: Adobe Illustrator 22.0.1, SVG Export Plug-In . SVG Version: 6.00 Build 0)  -->
<svg version="1.1" xmlns="http://www.w3.org/2000/svg" xmlns:xlink="http://www.w3.org/1999/xlink" x="0px" y="0px"
	 viewBox="0 0 1024 1024" style="enable-background:new 0 0 1024 1024;" xml:space="preserve">
<g id="参考线">
</g>
<g id="图形">
	<g>
		<path d="M574.7,64L416.2,77.9l33.3,380.3l158.5-13.9L574.7,64z M524.7,405.8c-19.5,1.7-36.6-12.7-38.3-32.2s12.7-36.6,32.2-38.3
			c19.5-1.7,36.6,12.7,38.3,32.2C558.4,386.9,544.1,404.1,524.7,405.8z"/>
		<path d="M668.3,323.6l10,114.5l6.2,70.5l-70.5,6.2l-158.5,13.9l-70.5,6.2l-6.2-70.5l-12.3-140.7h-300L84.9,960h854.2l18.3-636.3
			H668.3V323.6z M304.7,433.6l-5.5,190.3H168.8l-5.5-190.3C163.3,433.6,304.7,433.6,304.7,433.6z M176.6,701h318.1
			c14.6,0,26.6,11.8,26.6,26.6c0,14.7-11.8,26.6-26.6,26.6H176.6c-14.6,0-26.6-11.8-26.6-26.6C150,712.8,161.9,701,176.6,701z
			 M812.8,865.4H176.6c-14.6,0-26.6-11.8-26.6-26.6c0-14.7,11.8-26.6,26.6-26.6h636.3c14.6,0,26.6,11.8,26.6,26.6
			C839.4,853.6,827.4,865.4,812.8,865.4z"/>
	</g>
</g>
</svg>
