<?xml version="1.0" encoding="utf-8"?>
<!-- Generator: Adobe Illustrator 22.0.1, SVG Export Plug-In . SVG Version: 6.00 Build 0)  -->
<svg version="1.1" xmlns="http://www.w3.org/2000/svg" xmlns:xlink="http://www.w3.org/1999/xlink" x="0px" y="0px"
	 viewBox="0 0 1024 1024" style="enable-background:new 0 0 1024 1024;" xml:space="preserve">
<g id="参考线">
</g>
<g id="图形">
	<g>
		<path d="M527.1,733.5c0-125.5,101.8-227.3,227.3-227.3c38.1,0,73.9,9.5,105.4,26V230.6c0-51.9-42.7-94.6-94.6-94.6h-37.1v-13
			c0-16.7-9.3-50.1-48.2-50.1s-51.9,33.4-51.9,50.1v13H297.7v-13c0-16.7-9.3-50.1-48.2-50.1c-39,0-51.9,33.4-51.9,50.1v13h-39
			c-51.9,0-94.6,42.7-94.6,94.6v508.3c0,51.9,42.7,94.6,94.6,94.6h391.8C535.6,803.2,527.1,769.4,527.1,733.5z M783.7,462.4
			c0,22.3-16.7,39-39,39h-77.9c-22.3,0-39-16.7-39-39c-1.9-20.4,16.7-39,39-39h77.9C767,423.5,783.7,440.2,783.7,462.4z
			 M190.1,228.7h523.1c27.8,0,48.2,22.3,48.2,48.2c0,27.8-22.3,48.2-48.2,48.2H190.1c-27.8,0-48.2-22.3-48.2-48.2
			C141.9,251,164.2,228.7,190.1,228.7z M529.6,462.4c0,22.3-16.7,39-39,39h-77.9c-22.3,0-39-16.7-39-39c0-20.4,18.5-39,39-39h77.9
			C512.9,423.5,529.6,440.2,529.6,462.4z M258.8,677.6h-77.9c-22.3,0-39-16.7-39-39c0-22.3,16.7-39,39-39h77.9c22.3,0,39,16.7,39,39
			C297.7,660.9,281,677.6,258.8,677.6z M258.8,501.4h-77.9c-22.3,0-39-16.7-39-39c0-20.4,16.7-39,39-39h77.9c22.3,0,39,16.7,39,39
			C297.7,484.7,281,501.4,258.8,501.4z M490.6,677.6h-77.9c-22.3,0-39-16.7-39-39c0-22.3,18.5-39,39-39h77.9c22.3,0,39,16.7,39,39
			C529.6,660.9,512.9,677.6,490.6,677.6z"/>
		<path d="M745.1,524.9c-120,0-198.8,94.9-198.8,213.1c0,118.2,80.6,213.1,198.8,213.1C863.3,951.1,960,856.2,960,738
			C960,619.8,865.1,524.9,745.1,524.9z M836.4,731.4l-111,90.5c-14.3,13.7-43,12-51.9,1.7l-62.7-59.8c-10.7-10.2-16.1-42.7-5.4-52.9
			c10.7-10.2,39.4-8.5,53.7,6.8l57.3,51.2l78.8-87.1c10.7-8.5,32.2-22.2,53.7,0C866.9,704.1,847.2,722.9,836.4,731.4z"/>
	</g>
</g>
</svg>
