<?xml version="1.0" standalone="no"?><!DOCTYPE svg PUBLIC "-//W3C//DTD SVG 1.1//EN" "http://www.w3.org/Graphics/SVG/1.1/DTD/svg11.dtd"><svg class="icon" width="16px" height="16.00px" viewBox="0 0 1024 1024" version="1.1" xmlns="http://www.w3.org/2000/svg"><path fill="#62b5ff" d="M120.1 612.7c35.6 14.2 74 19.9 112.2 16.8l74.6-121.2 56.1 30.3L265.4 358 69 359.7l56.1 43.8-52.7 101c-26.3 47.1 19.1 92.5 47.7 108.2zM76.9 609.3c1.3 1.4 2.7 2.8 4 4.1l-4-7.5v3.4zM81 613.5l116.6 216.9c31.3 29.7 74.6 43.3 117.3 37h127.4v-211H200.9c-44.5 4.2-88.4-11.6-119.9-42.9zM519.6 213.2l70.1 124-56.1 34.2h205.3L835.4 197l-65.6 28-62.8-95.3c-28.1-46-89.8-28.1-117.3-10.7-30.5 25.4-54.6 57.7-70.1 94.2zM615 86.5v-2.2l-253.6-2.8c-41.5 12.8-74.6 44.1-89.8 84.7l-61.7 112.2L395 381.6l118.4-209.8c18.8-42.7 56.3-74.2 101.6-85.3zM765.9 659.8H623.4l-3.9-63.4-99.9 177.8 106.6 168.3 7.3-70.7 112.2-9c56.1 0 67.9-64.5 66.2-97.6-6.8-38.2-22.6-74.3-46-105.4zM831.5 805.7c0.1-0.3 0.2-0.7 0.3-1l-0.3 0.5v0.5zM925.8 465.7L858.4 358 680 470.2l126.2 205.3c27.9 36.9 37.3 84.5 25.5 129.1l124.8-220c8.9-42.2-2.5-86.2-30.7-118.9z" /></svg>