<?xml version="1.0" encoding="utf-8"?>
<!-- Generator: Adobe Illustrator 22.0.1, SVG Export Plug-In . SVG Version: 6.00 Build 0)  -->
<svg version="1.1" xmlns="http://www.w3.org/2000/svg" xmlns:xlink="http://www.w3.org/1999/xlink" x="0px" y="0px"
	 viewBox="0 0 1024 1024" style="enable-background:new 0 0 1024 1024;" xml:space="preserve">
<g id="参考线">
</g>
<g id="图形">
	<g>
		<path d="M512,951.5c-102.8,0-199-39.6-271.6-110.8c-9.4-9-9.4-24.1-0.5-33.5s24.1-9.4,33.5-0.5c63.7,62.7,148.5,97.6,238.6,97.6
			c83.9,0,165.1-31.1,227.8-87.2c9.9-8.5,24.5-8,33.5,1.9c8.5,9.9,8,24.5-1.9,33.5C699.7,916.1,607.7,951.5,512,951.5z M868,661
			c-1.9,0-3.3,0-5.2-0.5c-12.7-2.8-20.7-15.6-17.9-28.3c4.7-21.2,7.1-43.9,7.1-67.9c0-150.4-100.4-284.8-244.7-326.8
			c-12.7-3.8-19.8-17-16-29.2c3.8-12.3,17-19.8,29.2-16c78.8,23.1,150,72.2,199.9,137.7c51.4,67.9,78.8,149,78.8,234.4
			c0,27.4-2.8,53.8-8,78.3C888.8,653.5,878.9,661,868,661z M156,662c-10.8,0-20.7-8-23.1-18.9c-5.2-27.4-8-53.3-8-78.8
			c0-171.2,109.4-319.7,272.6-370.2c12.3-3.8,25.5,3.3,29.7,15.6c3.8,12.3-3.3,25.5-15.6,29.7C268.2,283.8,172,413.9,172,564.3
			c0,22.2,2.4,45.3,7.1,69.3c2.4,12.7-5.7,25-18.4,27.8C158.8,662,157.4,662,156,662z"/>
		<path d="M509.2,329c-70.7,0-128.3-57.5-128.3-128.3S438.4,72.5,509.2,72.5c70.7,0,128.3,57.5,128.3,128.3S579.9,329,509.2,329z
			 M831.7,869c-33,0-64.6-12.7-88.2-35.4c-25.9-24.5-40.1-57.5-40.1-92.9c0-70.7,57.5-128.3,128.3-128.3S960,670,960,740.7
			S902.5,869,831.7,869z M192.3,869C121.5,869,64,811.5,64,740.7s57.5-128.3,128.3-128.3S320.5,670,320.5,740.7S263,869,192.3,869z
			 M506.8,687.9c-72.2,0-131.1-58.9-131.1-131.1s58.9-131.1,131.1-131.1s131.1,58.9,131.1,131.1S579,687.9,506.8,687.9z"/>
	</g>
</g>
</svg>
