<?xml version="1.0" encoding="utf-8"?>
<!-- Generator: Adobe Illustrator 22.0.1, SVG Export Plug-In . SVG Version: 6.00 Build 0)  -->
<svg version="1.1" xmlns="http://www.w3.org/2000/svg" xmlns:xlink="http://www.w3.org/1999/xlink" x="0px" y="0px"
	 viewBox="0 0 1024 1024" style="enable-background:new 0 0 1024 1024;" xml:space="preserve">
<g id="参考线">
</g>
<g id="图形">
	<path d="M919.3,206.5H567c-22.4,0-42.8-4.1-52.9-24.4l-46.8-83.5C457,78.3,436.7,64,414.3,64H104.7c-34.6,0-61.1,26.5-61.1,61.1
		v773.8c0,34.6,26.5,61.1,61.1,61.1h814.5c34.6,0,61.1-26.5,61.1-61.1V267.6C980.4,235.1,951.9,206.5,919.3,206.5L919.3,206.5z
		 M776.7,532.4H247.3c-12.2,0-20.4-8.1-20.4-20.4c0-12.2,8.1-20.4,20.4-20.4h529.5c12.2,0,20.4,8.1,20.4,20.4
		C797.1,524.2,786.9,532.4,776.7,532.4z"/>
</g>
</svg>
