<?xml version="1.0" encoding="utf-8"?>
<!-- Generator: Adobe Illustrator 22.0.1, SVG Export Plug-In . SVG Version: 6.00 Build 0)  -->
<svg version="1.1" xmlns="http://www.w3.org/2000/svg" xmlns:xlink="http://www.w3.org/1999/xlink" x="0px" y="0px"
	 viewBox="0 0 1024 1024" style="enable-background:new 0 0 1024 1024;" xml:space="preserve">
<g id="参考线">
</g>
<g id="图形">
	<path d="M661.3,230.6c-6,0-11.2-2.2-15.7-6.7c-4.5-4.5-8.2-9.7-11.2-15.7c-3-6-5.2-12.1-6.7-18.4c-1.5-6.3-2.2-11.5-2.2-15.7V64
		h1.8c4.8,0,9.7,0.6,14.8,1.8s11,4,17.9,8.5c6.9,4.5,15.2,10.8,25.1,18.8s22.2,18.7,37.2,31.8c16.1,14.3,28.8,26.4,38.1,36.3
		c9.3,9.9,16.4,18.2,21.5,25.1c5.1,6.9,8.2,12.7,9.4,17.5c1.2,4.8,1.8,9,1.8,12.5v14.3H661.3L661.3,230.6z M454.4,736
		c0,34,6.9,65.7,20.6,95c13.7,29.3,32.6,54.4,56.4,75.3H235.7c-11.3,0-23.7-3.3-37.2-9.9c-13.4-6.6-26-15.2-37.6-26
		s-21.4-23.1-29.1-37.2c-7.8-14-11.6-28.5-11.6-43.5V179.6c0-12.5,3-25.7,9-39.4c6-13.7,13.9-26.1,23.7-37.2
		c9.9-11,21.1-20.3,33.6-27.8C199,67.7,212.2,64,225.9,64h342.2v112c0,11.3,1.8,23.6,5.4,36.7c3.6,13.1,9.3,25.2,17,36.3
		c7.8,11,17.6,20.3,29.6,27.8c11.9,7.5,26,11.2,42.1,11.2H793v249.1c-16.1-9.6-33.6-16.9-52.4-22c-18.8-5.1-38.4-7.6-58.7-7.6
		c-43,0-82,10.6-116.9,31.8c-34.9,21.2-62.3,49.4-82,84.7H288.6c-15.5,0-28.8,5.5-39.9,16.6c-11,11-16.6,24.3-16.6,39.9
		c0,15.5,5.5,28.7,16.6,39.4c11,10.8,24.3,16.1,39.9,16.1L454.4,736L454.4,736z M288.6,400c-15.5,0-28.8,5.4-39.9,16.1
		s-16.6,23.9-16.6,39.4c0,15.5,5.5,28.8,16.6,39.9c11,11,24.3,16.6,39.9,16.6h336c15.5,0,28.8-5.5,39.9-16.6
		c11-11,16.6-24.3,16.6-39.9c0-15.5-5.5-28.7-16.6-39.4c-11-10.8-24.3-16.1-39.9-16.1C624.6,400,288.6,400,288.6,400z M889.8,901.7
		c8.4,10.2,13,18.7,13.9,25.5c0.9,6.9-1.9,13.9-8.5,21.1c-7.2,8.4-14.9,12.2-23.3,11.6c-8.4-0.6-16.7-4.2-25.1-10.8l-76.2-73.5
		c-16.1,10.2-33.6,17.5-52.4,22c-18.8,4.5-37.5,6-56,4.5s-36.6-6.1-54.2-13.9c-17.6-7.8-33.6-19.1-47.9-34
		c-16.1-16.1-28.4-34.6-36.7-55.5s-12.5-42.1-12.5-63.6s4.2-42.6,12.5-63.2s20.6-39.3,36.7-56c16.1-16.1,34.3-28.4,54.7-36.7
		s41.2-12.5,62.7-12.5s42.6,4.2,63.2,12.5c20.6,8.4,39,20.6,55.1,36.7c14.3,14.9,25.4,31.4,33.1,49.3c7.8,17.9,12.4,36.3,13.9,55.1
		c1.5,18.8,0,37.5-4.5,56c-4.5,18.5-11.8,35.8-22,52L889.8,901.7z M678.3,846.2c14.9,0,29-3,42.1-9c13.1-6,24.6-13.9,34.5-23.7
		c9.9-9.9,17.6-21.5,23.3-34.9c5.7-13.4,8.5-27.9,8.5-43.5c0-14.9-2.8-29.1-8.5-42.6c-5.7-13.4-13.4-25.2-23.3-35.4
		c-9.9-10.2-21.4-18.1-34.5-23.7c-13.1-5.7-27.2-8.5-42.1-8.5c-15.5,0-29.9,2.8-43,8.5c-13.1,5.7-24.6,13.6-34.5,23.7
		c-9.9,10.2-17.6,22-23.3,35.4s-8.5,27.6-8.5,42.6c0,15.5,2.8,30,8.5,43.5c5.7,13.4,13.4,25.1,23.3,34.9
		c9.9,9.9,21.4,17.8,34.5,23.7C648.5,843.2,662.8,846.2,678.3,846.2z"/>
</g>
</svg>
