<?xml version="1.0" encoding="utf-8"?>
<!-- Generator: Adobe Illustrator 22.0.1, SVG Export Plug-In . SVG Version: 6.00 Build 0)  -->
<svg version="1.1" xmlns="http://www.w3.org/2000/svg" xmlns:xlink="http://www.w3.org/1999/xlink" x="0px" y="0px"
	 viewBox="0 0 1024 1024" style="enable-background:new 0 0 1024 1024;" xml:space="preserve">
<g id="参考线">
</g>
<g id="图形">
	<g>
		<path d="M351.9,224.1H191.9C121.6,224.1,64,281.7,64,352.1v447.8c0,70.4,57.6,127.9,127.9,127.9h607.7
			c70.4,0,127.9-57.6,127.9-127.9V480H607.8L351.9,224.1z"/>
		<path d="M729.3,214.5l12.8,32c12.8,32,41.6,54.4,76.8,60.8l51.2,9.6l-38.4,48H646.1L595,310.5l44.8-6.4
			c32-6.4,60.8-28.8,76.8-60.8L729.3,214.5 M729.3,96.2c-12.8,0-25.6,6.4-32,19.2l-44.8,102.4c-3.2,9.6-12.8,19.2-25.6,19.2
			l-102.4,19.2c-25.6,3.2-38.4,38.4-19.2,60.8l102.4,105.6c6.4,6.4,16,9.6,22.4,9.6h217.5c9.6,0,19.2-3.2,25.6-12.8L950,316.9
			c19.2-22.4,9.6-57.6-19.2-60.8l-102.4-16c-9.6-3.2-19.2-9.6-25.6-19.2l-44.8-102.4C751.7,102.6,738.9,96.2,729.3,96.2z"/>
	</g>
</g>
</svg>
