<?xml version="1.0" encoding="utf-8"?>
<!-- Generator: Adobe Illustrator 22.0.1, SVG Export Plug-In . SVG Version: 6.00 Build 0)  -->
<svg version="1.1" xmlns="http://www.w3.org/2000/svg" xmlns:xlink="http://www.w3.org/1999/xlink" x="0px" y="0px"
	 viewBox="0 0 1024 1024" style="enable-background:new 0 0 1024 1024;" xml:space="preserve">
<style type="text/css">
	.st0{fill:none;stroke:#3E3A39;stroke-width:60;stroke-linejoin:round;stroke-miterlimit:10;}
	.st1{fill:none;stroke:#3E3A39;stroke-width:60;stroke-linecap:round;stroke-linejoin:round;stroke-miterlimit:10;}
</style>
<g id="参考线">
</g>
<g id="图形">
	<g>
		<path class="st0" d="M100,920.8v-54.1L243.3,798l-48.4-68v-85.3c0-47.6,38.6-83.8,86.1-83.8l0,0c47.6,0,86.1,36.3,86.1,83.8V730
			l-46.7,68l137.4,68.7v54.1H100z"/>
		<path class="st0" d="M553.1,920.8v-54.1L696.5,798l-48.4-68v-85.3c0-47.6,38.6-83.8,86.1-83.8l0,0c47.6,0,86.1,36.3,86.1,83.8V730
			l-46.7,68l137.4,68.7v54.1H553.1z"/>
		<line class="st0" x1="636" y1="713" x2="372.4" y2="713"/>
		<path class="st0" d="M118.7,713C98.4,713,82,701.3,82,687V129.1c0-14.3,16.4-26,36.7-26h786.7c20.2,0,36.7,11.6,36.7,26v473.2V687
			c0,14.3-16.4,26-36.7,26"/>
		<line class="st1" x1="512" y1="431.5" x2="309.9" y2="431.5"/>
		<line class="st1" x1="698.6" y1="281.8" x2="309.9" y2="281.8"/>
	</g>
</g>
</svg>
