<?xml version="1.0" encoding="utf-8"?>
<!-- Generator: Adobe Illustrator 22.0.1, SVG Export Plug-In . SVG Version: 6.00 Build 0)  -->
<svg version="1.1" xmlns="http://www.w3.org/2000/svg" xmlns:xlink="http://www.w3.org/1999/xlink" x="0px" y="0px"
	 viewBox="0 0 1024 1024" style="enable-background:new 0 0 1024 1024;" xml:space="preserve">
<g id="参考线">
</g>
<g id="图形">
	<g>
		<path d="M245.2,596.2v47.2H82.5V380.6h62.3v215.6H245.2z"/>
		<path d="M366.8,380.6c72.8,0,118.2,40.1,118.2,128.3c0,93.6-49.9,134.4-121.6,134.4h-84.6V380.6H366.8z M366.8,599.6
			c33.3,0,56.3-23.6,56.3-87.6c0-62.7-22.9-87.6-62.7-87.6h-20.9v175.2H366.8z"/>
		<path d="M728.9,643.4h-62.3l-15.2-61.6h-80.5l-14.8,61.6h-57.6l67-262.7h96L728.9,643.4z M619.8,451.4c-3-11.8-5.7-23.9-7.4-36
			h-1.7c-2,12.1-4.7,24.3-7.7,36l-20.5,83.2H640L619.8,451.4z"/>
		<path d="M845.5,380.6c62.3,0,96,27.6,96,86.6c0,64.7-42.4,93-102.4,93h-20.9v83.2h-58.9V380.6H845.5z M842.4,516.4
			c21.6,0,36.7-13.5,36.7-45.8c0-31.7-15.2-46.1-36.7-46.1h-24.3v92H842.4z"/>
	</g>
</g>
</svg>
