<?xml version="1.0" encoding="utf-8"?>
<!-- Generator: Adobe Illustrator 21.0.0, SVG Export Plug-In . SVG Version: 6.00 Build 0)  -->
<svg version="1.1" id="图层_1" xmlns="http://www.w3.org/2000/svg" xmlns:xlink="http://www.w3.org/1999/xlink" x="0px" y="0px"
	 viewBox="0 0 1024 1024" style="enable-background:new 0 0 1024 1024;" xml:space="preserve">
<style type="text/css">
	.st0{fill-rule:evenodd;clip-rule:evenodd;}
</style>
<path class="st0" d="M987.7,778.7v0.7c-2.5,5.5-5.4,9.5-10.2,11.8c-0.9,0.7-0.9,0.7-1.6,0.7c-14,3.9-25.6,12.5-32,23.4
	c-7,12.7-8.6,26.8-4.7,41.6c2.3,6.3,0,14.1-5.4,17.3c-14.9,12.5-32,22.7-52.3,31.4c-1.6,0.7-3.9,0.7-5.4,0.7
	c-3.9,0-7.7-2.3-10.9-5.5c-10.9-10.9-23.4-17.3-36.7-17.3c-14.9,0-28.1,6.2-36.7,16.4c-3.9,3.9-8.6,5.5-12.5,5.5H777
	c-1.6,0-2.5-0.7-3.2-0.7c-21.1-7-39.2-18-53.9-32.1c-5.4-4.8-7-11.8-4.7-17.3c4.6-13.4,2.3-28.2-4.7-40c-7.7-13.4-17.9-21.1-32-24.3
	h-0.7c-7-1.6-11.1-7-11.8-13.4c-2.5-9.5-3.2-21.1-3.2-31.4c0-10.2,0.9-20.3,3.2-32.1v-0.7c2.5-5.5,5.4-9.5,10.2-11.8
	c0.9-0.7,0.9-0.7,1.6-0.7c14-3.9,25.6-12.5,32-23.4c7-12.7,8.6-26.8,4.7-41.6c-2.3-6.3,0-13.4,5.4-17.3c14.9-12.5,32-22.7,52.3-31.4
	c4.7-1.6,10.9-2.5,17.2,3.9c10.9,10.9,23.4,17.3,36.7,17.3c14.9,0,28.1-5.5,36.7-16.4c5.4-5.5,11.8-7,17.2-4.8
	c20.2,7,38.3,18,53,32.1c5.4,4.8,7,11.8,4.7,17.3c-4.6,13.4-2.3,28.2,4.7,40c7.7,13.4,17.9,21.1,32,24.3h0.7c7,1.6,11.1,7,11.8,13.4
	c2.3,10.2,3.2,21.1,3.9,32.2C990.8,756.9,989.9,766.9,987.7,778.7z M826.1,691c-30.4,0-54.6,24.3-54.6,54.8
	c0,30.5,24.2,54.8,54.6,54.8c30.6,0,54.6-24.3,54.6-54.8C880.7,715.3,856.5,691,826.1,691z M826.1,765.6c-11.1,0-19.8-8.7-19.8-19.8
	c0-11.1,8.7-19.8,19.8-19.8c11.1,0,19.8,8.7,19.8,19.8C845.9,757.1,837.4,765.6,826.1,765.6z M839.4,547.2l-1.6,1.6l-1.4,1.8
	c-2.2,2.8-6.9,3.4-10.4,3.4c-4.9,0-10.5-4.9-13.4-7.8c-11.1-11.1-24.7-16.9-39.6-16.9c-6.3,0-12.6,1.1-19.2,3.3l-1.4,0.5l-1.4,0.6
	c-25.7,10.9-47.7,24-67,40.1c-18.4,14.1-26.2,38.4-19.3,60.5c1.8,7.9,0.1,12.7-1.7,16.1c-1.5,2.3-5,5.4-10.5,7.3
	c-6,1.3-10.6,3.7-13.7,5.7c-11.3,6.5-19.9,16.4-26.1,30.1l-3.4,7.6v5.6c-2.4,13.4-3.5,26-3.5,39.2c0,16.3,1.4,30.5,4.2,42.3
	c3.7,22.6,20.2,40.2,42.6,45.3l3.6,0.8c2.6,1,4.8,2.9,7.7,7.8l0.3,0.4c2.2,3.7,3,8.1,2,11.5c-3.3,8.9-4.1,18.3-2.7,27.4H187.2
	c-65.8,0-121.4-58-121.4-126.7V314.6C65.8,246,121.4,188,187.2,188h156.2l-46.7-61.5c-6.9-13.1-3.2-29.2,8.7-38
	c12.4-7.2,27.5-2.4,35.7,11.3l61.5,88.3h132.1l61.4-88c8.2-13.9,23.3-18.7,35.9-11.5c11.8,8.8,15.4,24.8,8.7,37.9L593.9,188h168.3
	l-0.1-0.1c65.8,0,121.4,58,121.4,126.7v214.9c-1-0.1-2.1-0.1-3.1-0.1C865.4,529.4,850.9,535.7,839.4,547.2z M626.1,482.4l-0.2-0.1
	c-10.4-6.6-61.6-36.4-125.8-73c-18.2-10.5-35.2-20.4-48.2-28l-0.5-0.3c-12.4-7.2-21.3-12.4-23.1-13.4c-6.8-3.6-13.5-5.3-20-5.3
	c-20.6,0-37.4,18.5-37.4,41.2v231.8c0,22.2,16.1,39,37.4,39c5.9,0.3,11.7-1.7,16-5.8l1.4-1.5l1.9-0.6c2-0.7,12-6.7,21.7-12.5
	c14-8.4,32.7-19.6,53.1-30.8c36.7-21.4,67.3-39.7,89.7-52.9l1.2-0.7c18.5-11,29.6-17.7,33.4-19.7l0,0v0
	c10.4-6.2,17.3-19.5,17.3-33.8C643.7,502,636.8,488.7,626.1,482.4z"/>
</svg>
