<?xml version="1.0" encoding="utf-8"?>
<!-- Generator: Adobe Illustrator 22.0.1, SVG Export Plug-In . SVG Version: 6.00 Build 0)  -->
<svg version="1.1" xmlns="http://www.w3.org/2000/svg" xmlns:xlink="http://www.w3.org/1999/xlink" x="0px" y="0px"
	 viewBox="0 0 1024 1024" style="enable-background:new 0 0 1024 1024;" xml:space="preserve">
<g id="参考线">
</g>
<g id="图形">
	<path d="M609.4,64v233.7h233.7L609.4,64z M64,960h701.2V648.3H64V960z M297.7,765.2h77.9v77.9h-77.9V765.2z M141.9,765.2h77.9v77.9
		h-77.9V765.2z M804.2,648.3V960l155.8,0V648.3H804.2z M843.1,336.4l-272.7,0.3V64H180.9v545.4h662.3L843.1,336.4L843.1,336.4z
		 M765.2,531.5H258.8v-39h506.4L765.2,531.5L765.2,531.5z M765.2,453.6H258.8v-39h506.4L765.2,453.6L765.2,453.6z"/>
</g>
</svg>
