<?xml version="1.0" encoding="utf-8"?>
<!-- Generator: Adobe Illustrator 22.0.1, SVG Export Plug-In . SVG Version: 6.00 Build 0)  -->
<svg version="1.1" xmlns="http://www.w3.org/2000/svg" xmlns:xlink="http://www.w3.org/1999/xlink" x="0px" y="0px"
	 viewBox="0 0 1024 1024" style="enable-background:new 0 0 1024 1024;" xml:space="preserve">
<style type="text/css">
	.st0{fill:#110F0F;}
</style>
<g id="参考线">
</g>
<g id="图形">
	<path class="st0" d="M791.7,250.6c15,4.6,29.1,12.8,40.9,24.6L960,402.6V181.4C960,116.6,907.4,64,842.6,64H181.4
		C116.6,64,64,116.6,64,181.4v661.2C64,907.4,116.6,960,181.4,960h263.7L296.5,811.4c-13.2-13.2-21.7-29.1-26-45.9 M687.7,766.3
		H269.4c2.3-23.5,12.4-46.4,30.4-64.4l419.9-420.6c19.3-19.3,44.3-29.5,69.6-30.7v414C789.3,744.2,789.6,766.3,687.7,766.3z"/>
</g>
</svg>
