<?xml version="1.0" encoding="utf-8"?>
<!-- Generator: Adobe Illustrator 22.0.1, SVG Export Plug-In . SVG Version: 6.00 Build 0)  -->
<svg version="1.1" xmlns="http://www.w3.org/2000/svg" xmlns:xlink="http://www.w3.org/1999/xlink" x="0px" y="0px"
	 viewBox="0 0 1024 1024" style="enable-background:new 0 0 1024 1024;" xml:space="preserve">
<style type="text/css">
	.st0{fill:none;stroke:#141313;stroke-width:60;stroke-miterlimit:10;}
</style>
<g id="参考线">
</g>
<g id="图形">
	<g>
		<path class="st0" d="M315.1,382.1c0,0-10.1-0.5-25.4,8c-13.4,7.5-15.3,15.5-15.3,28.4c-0.2,78.4-0.1,156.7-0.1,235.1
			c0,24.3,17.5,33.4,36.5,33.4c19.7,0,80.9,0,91.3,0c10.5,0,22.3-5.7,30.3-15.9c19.2-24.7,38.6-49.2,59.1-72.8
			c15.6-17.9,32.6-18.8,48.3,1.1C602,677.6,747.3,861,747.3,861s-401.6,0.4-584.3,0c-45.8-0.1-67.4-21.9-67.4-66.9
			c-0.3-171.8-0.3-343.7-0.1-515.5c0.1-45.6,24-66.1,70.6-66.1c68.7,0,134.8,0.2,204,0c25-0.1,44.1,8.5,62.5,25.2
			c23.6,21.5,44.7,39.2,68.3,60.4c10.9,9.8,20.2,9.9,30.5,1.3c16-13.3,25.9-22.6,42.8-38.3c39.8-37.1,77.1-46.9,129.3-47.1
			c52.3-0.2,108.5-0.2,164.4,0c48.5,0.2,70.7,22.5,68.1,71.1c-7.9,145.6-1.5,291.3-3.5,436.9c-0.4,25.1,1,50.2,1.2,75.3
			c0.2,39.3-18.8,60.9-57.9,63.1c-32.5,0.2-125.9,0-125.9,0"/>
		<path class="st0" d="M894.4,232.1C868,253.4,557.6,492.7,545.1,503.6c-18.4,15.2-42.4,15.2-59.1,0.1
			c-17.7-16-269.8-202.5-358.6-276.5"/>
		<path class="st0" d="M609.4,686.3c0,0,92.6-0.1,114.7,0c20.6,0.1,29.2-9.6,29.1-29.7c-0.3-79.4-0.1-158.8-0.2-238.1
			c0-12.9-2.6-20.3-16.4-28c-7.6-4.3-24.1-7.8-24.1-7.8"/>
	</g>
</g>
</svg>
