<?xml version="1.0" encoding="utf-8"?>
<!-- Generator: Adobe Illustrator 22.0.1, SVG Export Plug-In . SVG Version: 6.00 Build 0)  -->
<svg version="1.1" xmlns="http://www.w3.org/2000/svg" xmlns:xlink="http://www.w3.org/1999/xlink" x="0px" y="0px"
	 viewBox="0 0 1024 1024" style="enable-background:new 0 0 1024 1024;" xml:space="preserve">
<g id="参考线">
</g>
<g id="图形">
	<g>
		<path d="M220.7,586.3v39.3H81.5V398.4h136.6v39.3h-84.2v53.9h75.7v37.9h-75.7v56.8H220.7z"/>
		<path d="M305.8,459.6c0,12.8-0.9,24.2-2,37h1.2c7.3-12.5,15.7-25.6,24.5-37l48.4-61.2h65.5l-85.3,94.4l85.6,132.8h-65l-55.9-94.4
			l-16.9,18.6v75.7h-53V398.4h53V459.6z"/>
		<path d="M544.3,398.4c53.9,0,83,23.9,83,74.9c0,55.9-36.7,80.4-88.6,80.4h-18.1v71.9h-51V398.4H544.3z M541.7,515.8
			c18.6,0,31.8-11.7,31.8-39.6c0-27.4-13.1-39.9-31.8-39.9h-21v79.5H541.7z"/>
		<path d="M729.3,554.5h-81.6v-40.8h81.6V554.5z"/>
		<path d="M840.3,398.4c62.9,0,102.2,34.7,102.2,111c0,81-43.1,116.2-105.2,116.2h-73.1V398.4H840.3z M840.3,587.7
			c28.8,0,48.6-20.4,48.6-75.7c0-54.2-19.8-75.7-54.2-75.7h-18.1v151.5H840.3z"/>
	</g>
</g>
</svg>
