<?xml version="1.0" encoding="utf-8"?>
<!-- Generator: Adobe Illustrator 22.0.1, SVG Export Plug-In . SVG Version: 6.00 Build 0)  -->
<svg version="1.1" xmlns="http://www.w3.org/2000/svg" xmlns:xlink="http://www.w3.org/1999/xlink" x="0px" y="0px"
	 viewBox="0 0 1024 1024" style="enable-background:new 0 0 1024 1024;" xml:space="preserve">
<g id="参考线">
</g>
<g id="图形">
	<path d="M205.4,237.5h86c4.9,0,8.9-3.9,8.9-8.7c0,0-1.1-72.1-1.1-92.1v-0.2c0-16.5,3.5-30.8,9.7-42.8l2.9-5.4
		c-0.4,0.1-0.7,0.2-1,0.5l-167,162c-0.3,0.2-0.5,0.6-0.6,0.9c3.5-1.7,8.2-4,8.8-4.2C166.6,241.1,184.2,237.5,205.4,237.5z
		 M874.3,219.9c-6.8-35.8-28.6-53.4-48.2-60.3c-21.2-7.5-64.2-15.3-118.2-21.5c-43.4-5-94.5-4.6-125.4-3.7
		c-3.7-24.8-21.5-47.5-41.4-55.3c-53-20.9-135-15.8-156-10.1c-16.7,4.6-35.2,13.9-45.5,28.4c-6.9,9.7-11.4,22-11.4,39.3
		c0,9.8,0.3,32.8,0.5,53.2c0.2,20.5,0.5,38.8,0.5,39c0,18.3-15.1,33.1-33.9,33.1h-86c-18.3,0-32.3,3-43.1,7.8
		c-10.7,4.8-18.3,11.2-24.1,18.8c-11.5,15.1-13.5,33.7-13.4,52.7c0,0,0.2,15.5,4,45.5c3.2,23.2,28.9,185.6,53.4,235
		c9.5,19.2,15.8,27.2,34.4,35.7c41.5,17.4,136.4,36.7,180.9,42.3c44.4,5.6,72.2,17.2,88.8-16.8c0.1-0.1,3.3-8.5,7.8-20.8
		c14.4-42.7,16.4-80.6,16.4-108c0-2.8,4.2-2.9,4.2,0c0,19.4-3.8,87.9,49.1,106.3c20.9,7.2,64.2,13.7,108.3,18.8
		c39.8,4.5,68.7,19.8,68.7,119.7c0,60.8-13.1,69.1-81.3,69.1c-55.3,0-76.4,1.4-76.4-41.6c0-34.8,35.2-31.1,61.2-31.1
		c11.6,0,3.2-8.5,3.2-29.9c0-21.3,13.6-33.7,0.7-34c-90-2.4-143-0.1-143,110.1c0,100,39.1,118.6,166.9,118.6
		c100.2,0,135.5-3.2,176.9-128.8c8.2-24.8,28-100.4,40-227.5C900.7,523.5,886,281.1,874.3,219.9L874.3,219.9z M699.6,487.8
		c-11.8-0.4-23.7,0.3-35.4,2.1c3.1-24.7,13.5-55,50.4-53.7c40.8,1.4,46.6,39.1,46.7,64.7C744.2,493.4,722.8,488.6,699.6,487.8z"/>
</g>
</svg>
