<?xml version="1.0" encoding="utf-8"?>
<!-- Generator: Adobe Illustrator 22.0.1, SVG Export Plug-In . SVG Version: 6.00 Build 0)  -->
<svg version="1.1" xmlns="http://www.w3.org/2000/svg" xmlns:xlink="http://www.w3.org/1999/xlink" x="0px" y="0px"
	 viewBox="0 0 1024 1024" style="enable-background:new 0 0 1024 1024;" xml:space="preserve">
<g id="参考线">
</g>
<g id="图形">
	<g>
		<path d="M426.5,465.4h-10.9v91.5h14.3c17.4,0,29.4-12.3,29.4-45.7C459.2,478.4,447.3,465.4,426.5,465.4z"/>
		<path d="M904,258.2H568h-7.3c-9.5,0-10.9,0-21.1,0c-36.4-1.5-71.3-24-83.6-56.7l-0.4-0.4c-7.5-22.3-28.7-53.5-54.8-55.5l-0.8-0.8
			H120c-30.5,0-56,26.2-56,56.7v621.1c0,30.5,25.5,56.7,56,56.7h784c30.5,0,56-26.2,56-56.7V653.1V540.4V314.9
			C960,284.4,934.5,258.2,904,258.2z M428.1,579.7h-44.2V442.5h45.9c38,0,61.8,20.9,61.8,67C491.6,558.4,465.6,579.7,428.1,579.7z
			 M554.9,536.8h-49.3v-24.6h49.3V536.8z M640.1,542.4c0,24.6-15.7,39.1-43.8,39.1c-23,0-33.4-8.1-41-32l26.4-8.8
			c3.2,14.4,7.7,20.6,15.3,20.6c7,0,10.6-4.6,10.6-15.1V442.5h32.5V542.4z"/>
	</g>
</g>
</svg>
