<?xml version="1.0" encoding="utf-8"?>
<!-- Generator: Adobe Illustrator 22.0.1, SVG Export Plug-In . SVG Version: 6.00 Build 0)  -->
<svg version="1.1" xmlns="http://www.w3.org/2000/svg" xmlns:xlink="http://www.w3.org/1999/xlink" x="0px" y="0px"
	 viewBox="0 0 1024 1024" style="enable-background:new 0 0 1024 1024;" xml:space="preserve">
<g id="参考线">
</g>
<g id="图形">
	<g>
		<path d="M951.1,285.6c-15.3-11.5-28.9-24.6-39.5-40.7c-14-21.3-20-44.4-14.8-69.8c3.9-19,12.5-35.8,24.2-51
			c8.6-11.2,16.5-23.2,30.4-29.5c6.7-3,7.4-10.2,6.7-17c-0.7-6.4-4.5-10.5-10.4-12c-4.9-1.2-10.2-1.6-15.3-1.6
			C807.7,64,683.1,64,558.5,64c-121.3,0-242.6,0-363.8,0c-5.3,0-10.7,0.1-16,0.4c-23.2,1.3-44.3,8.3-62.3,23.7
			c-22.7,19.3-35,44.5-41.9,72.7c-6.8,28-8.9,56.5-8.9,85.2c-0.1,189.3-0.1,378.5,0,567.8c0,22.1,2.2,43.9,9.8,64.9
			c7.2,19.9,18.8,36.6,35.9,49.3c18,13.4,38.4,21.1,60,25.8c22.9,5,46.2,5.3,69.6,5.3c70.3,0,140.6,0.1,210.9,0.2
			c129.8,0.2,259.6,0.5,389.3,0.8c15.1,0,29.9-1.8,44-7.6c27.9-11.6,45.9-32.9,57.6-60c11.8-27.2,15.7-55.9,15.7-85.3
			c0-168.8,0-337.5,0.1-506.3C958.5,294.1,956.4,289.5,951.1,285.6z M668.8,796c-22.1-0.8-18.9,1.6-18.9-18.9v-73.3
			c0-5.5,0.8-7.9,7.1-7.1c4.7,0.8,9.5,0.8,14.2,0c5.5-0.8,6.3,1.6,5.5,7.1v41.7v41.7C677.5,793.6,675.1,796,668.8,796z M700.3,683.3
			c0,5.5-2.4,8.7-8.7,8.7h-54.3c-6.3,0-8.7-3.2-8.7-9.5v-37c-0.8-6.3,2.4-8.7,8.7-8.7h53.6c6.3,0,8.7,2.4,9.5,9.5V683.3z
			 M649.9,625.8v-73.3c0-6.3,2.4-8.7,8.7-8.7c21.3,0,18.9-2.4,18.9,18.9v26v37c0,4.7-1.6,5.5-5.5,5.5c-5.5,0-11-0.8-16.5,0
			C650.7,631.4,649.9,629.8,649.9,625.8z M759.4,770c0,5.5,0,11-0.8,15.8c0,1.6,0.8,3.2,0,4.7c-4.7,9.5-13.4,3.2-20.5,4.7
			c-4.7,0.8-6.3-2.4-6.3-7.1v-37c0-3.2,0.8-4.7,4.7-4.7h18.9c3.2-0.8,3.9,0.8,3.9,3.9V770z M781.4,734.5c0,4.7-2.4,7.1-7.9,7.1
			h-55.9c-5.5,0-7.9-2.4-7.9-7.9v-39.4c0-5.5,2.4-7.9,7.9-7.9h55.9c5.5-0.8,7.9,2.4,7.9,8.7V734.5z M731.8,661.3V553.4
			c0-6.3,2.4-8.7,8.7-8.7c20.5,0,18.9-2.4,18.9,18.1v111.8c0,5.5-0.8,7.1-6.3,6.3c-7.1-0.8-15.8,2.4-19.7-1.6
			C729.4,675.5,732.6,666.8,731.8,661.3z M835.8,729v57.5c0,7.1-2.4,9.5-9.5,9.5c-18.9-0.8-17.3,0.8-17.3-18.1V670.7
			c0-4.7,0.8-7.1,6.3-6.3c4.7,0.8,10.2,0.8,15,0c3.9-0.8,5.5,0.8,5.5,5.5V729z M857.8,650.3c0,6.3-3.2,8.7-8.7,8.7h-54.3
			c-6.3,0-8.7-2.4-8.7-8.7v-37.8c0-6.3,2.4-8.7,8.7-8.7h54.3c6.3,0,8.7,2.4,8.7,8.7V650.3z M809,577.8V551c0-4.7,1.6-7.1,6.3-7.1
			h1.6c21.3,0,18.9-2.4,18.9,18.1v30.7c0,4.7-0.8,6.3-5.5,6.3c-7.1-0.8-16.5,1.6-20.5-1.6C805.9,594.3,809,584.9,809,577.8z
			 M923.8,296.7c-204,0.5-408.1,1-612.1,1.6c-23,0.1-46-0.1-69,0.4c-21.5,0.5-40.7-5.8-57.7-18.6c-19-14.3-33.8-32.6-45.8-52.9
			c-12.2-20.8-9.9-41.5,2.7-61.3c13.9-21.6,30.5-40.8,53.2-53.9c14.2-8.3,29.5-12.9,46.1-12.9c222.7,0,445.4,0,668.1,0
			c1.3,0,2.7,0,5.3,0c-1.8,2.3-3,3.9-4.2,5.5c-15.2,18.9-27.1,39.5-32.5,63.4c-8,35.5,0.5,67.4,22.6,95.6
			c8.1,10.3,17.9,19.2,26.9,28.7c1.1,1.2,2.3,2.2,4.7,4.4C928.3,296.7,926.1,296.7,923.8,296.7z"/>
		<path d="M147.4,337H212v566.3h-64.5V337z"/>
	</g>
</g>
</svg>
