<?xml version="1.0" encoding="UTF-8"?>
<svg width="12px" height="12px" viewBox="0 0 12 12" version="1.1" xmlns="http://www.w3.org/2000/svg" xmlns:xlink="http://www.w3.org/1999/xlink">
    <title>通用图标/线性/12/[通用类-人员&amp;用户]iconCommon_line_12_user</title>
    <g id="通用图标/线性/12/[通用类-人员&amp;用户]iconCommon_line_12_user" stroke="none" stroke-width="1" fill="none" fill-rule="evenodd">
        <rect id="矩形" x="0" y="0" width="12" height="12"></rect>
        <path d="M6,0.5 C7.93299662,0.5 9.5,2.06700338 9.5,4 C9.5,5.93299662 7.93299662,7.5 6,7.5 C4.06700338,7.5 2.5,5.93299662 2.5,4 C2.5,2.06700338 4.06700338,0.5 6,0.5 Z M6,1.5 C4.61928813,1.5 3.5,2.61928813 3.5,4 C3.5,5.38071187 4.61928813,6.5 6,6.5 C7.38071187,6.5 8.5,5.38071187 8.5,4 C8.5,2.61928813 7.38071187,1.5 6,1.5 Z" id="椭圆形" fill="#999999" fill-rule="nonzero"></path>
        <path d="M8.43844719,7 C9.87946972,7 11.135572,7.98073499 11.4850713,9.37873219 L11.4850713,9.37873219 L11.6744373,10.1361966 C11.8753604,10.9398889 11.3867194,11.7542907 10.583027,11.9552138 C10.4640461,11.984959 10.3418663,12 10.2192236,12 L10.2192236,12 L1.78077641,12 C0.952349282,12 0.280776406,11.3284271 0.280776406,10.5 C0.280776406,10.3773573 0.29581743,10.2551775 0.325562656,10.1361966 L0.325562656,10.1361966 L0.51492875,9.37873219 C0.86442805,7.98073499 2.12053028,7 3.56155281,7 L3.56155281,7 Z M8.43844719,8 L3.56155281,8 C2.57939793,8 1.7232788,8.66843761 1.48507125,9.62126781 L1.48507125,9.62126781 L1.29570516,10.3787322 C1.28579008,10.4183925 1.28077641,10.4591191 1.28077641,10.5 C1.28077641,10.7761424 1.50463403,11 1.78077641,11 L1.78077641,11 L10.2192236,11 C10.2601045,11 10.3008311,10.9949863 10.3404914,10.9850713 C10.6083889,10.9180969 10.7712692,10.6466296 10.7042948,10.3787322 L10.7042948,10.3787322 L10.5149287,9.62126781 C10.2767212,8.66843761 9.42060207,8 8.43844719,8 L8.43844719,8 Z" id="路径" fill="#999999" fill-rule="nonzero"></path>
        <path d="M7.30426432,8.24157263 L8.17296284,8.73691381 C7.73142015,9.51126389 6.90814355,10 6,10 C5.1844803,10 4.43629689,9.60594411 3.97185166,8.9620408 L3.86980726,8.80907821 L4.72139002,8.28485803 C4.99299911,8.72608029 5.47259091,9 6,9 C6.49571973,9 6.94871265,8.75783486 7.22636233,8.36413726 L7.30426432,8.24157263 Z" id="路径" fill="#999999" fill-rule="nonzero"></path>
    </g>
</svg>