<?xml version="1.0" encoding="UTF-8"?>
<svg width="16px" height="16px" viewBox="0 0 16 16" version="1.1" xmlns="http://www.w3.org/2000/svg" xmlns:xlink="http://www.w3.org/1999/xlink">
    <title>通用图标/线性/16/[操作类-播放按钮&amp;开启]iconCommon_line_16_btnPlay</title>
    <g id="通用图标/线性/16/[操作类-播放按钮&amp;开启]iconCommon_line_16_btnPlay" stroke="none" stroke-width="1" fill="none" fill-rule="evenodd">
        <rect id="矩形" x="0" y="0" width="16" height="16"></rect>
        <path d="M8,0 C12.418278,0 16,3.581722 16,8 C16,12.418278 12.418278,16 8,16 C3.581722,16 0,12.418278 0,8 C0,3.581722 3.581722,0 8,0 Z M8,1 C4.13400675,1 1,4.13400675 1,8 C1,11.8659932 4.13400675,15 8,15 C11.8659932,15 15,11.8659932 15,8 C15,4.13400675 11.8659932,1 8,1 Z" id="椭圆形" fill="#FF943E" fill-rule="nonzero"></path>
        <path d="M6,4.5 C6,4.08392591 6.4785413,3.84987911 6.80697031,4.10532389 L6.80697031,4.10532389 L11.3069703,7.60532389 C11.5643432,7.80550283 11.5643432,8.19449717 11.3069703,8.39467611 L11.3069703,8.39467611 L6.80697031,11.8946761 C6.4785413,12.1501209 6,11.9160741 6,11.5 L6,11.5 Z M7,5.522 L7,10.477 L10.186,8 L7,5.522 Z" id="路径" fill="#FF943E" fill-rule="nonzero"></path>
    </g>
</svg>