<?xml version="1.0" encoding="UTF-8"?>
<svg width="12px" height="12px" viewBox="0 0 12 12" version="1.1" xmlns="http://www.w3.org/2000/svg" xmlns:xlink="http://www.w3.org/1999/xlink">
    <title>通用图标/线性/12/[通用类-搜索]iconCommon_line_12_search</title>
    <g id="通用图标/线性/12/[通用类-搜索]iconCommon_line_12_search" stroke="none" stroke-width="1" fill="none" fill-rule="evenodd">
        <rect id="矩形" x="0" y="0" width="12" height="12"></rect>
        <polygon id="路径" fill="#999999" fill-rule="nonzero" points="9.35355339 8.64644661 11.8535534 11.1464466 11.1464466 11.8535534 8.64644661 9.35355339"></polygon>
        <path d="M5.5,0 C8.53756612,0 11,2.46243388 11,5.5 C11,8.53756612 8.53756612,11 5.5,11 C2.46243388,11 0,8.53756612 0,5.5 C0,2.46243388 2.46243388,0 5.5,0 Z M5.5,1 C3.01471863,1 1,3.01471863 1,5.5 C1,7.98528137 3.01471863,10 5.5,10 C7.98528137,10 10,7.98528137 10,5.5 C10,3.01471863 7.98528137,1 5.5,1 Z" id="椭圆形" fill="#999999" fill-rule="nonzero"></path>
    </g>
</svg>