<?xml version="1.0" encoding="UTF-8"?>
<svg width="16px" height="16px" viewBox="0 0 16 16" version="1.1" xmlns="http://www.w3.org/2000/svg" xmlns:xlink="http://www.w3.org/1999/xlink">
    <title>通用图标/线性/16/[编辑类-草稿&amp;草稿新建]iconCommon_line_16_draftAdd</title>
    <g id="通用图标/线性/16/[编辑类-草稿&amp;草稿新建]iconCommon_line_16_draftAdd" stroke="none" stroke-width="1" fill="none" fill-rule="evenodd">
        <rect id="矩形" x="0" y="0" width="16" height="16"></rect>
        <g id="编组" fill="#FF943E" fill-rule="nonzero">
            <g id="路径">
                <polygon points="13 10 13 12 15 12 15 13 13 13 13 15 12 15 12 13 10 13 10 12 12 12 12 10"></polygon>
            </g>
        </g>
        <path d="M12.4997282,0.991665995 C13.2794701,0.991337467 13.9203917,1.58613254 13.9931998,2.3468225 L13.999,2.499 L13.999939,8.99310303 L12.999939,8.99310303 L12.999,2.48 L12.9920211,2.40157228 C12.9549524,2.19750211 12.7940189,2.03664109 12.5899015,1.99968374 L12.500014,1.99166599 L3.51186849,1.99301404 C3.26634036,1.99311755 3.06213768,2.17007737 3.01973784,2.40330266 L3.01165771,2.49316406 L3.01165771,13.4751049 C3.01165771,13.7197782 3.18744307,13.9235483 3.4198266,13.9666864 L3.50939068,13.9750998 L9.00226704,14.0000051 L8.99773296,14.9999949 L3.5048566,14.9750895 C2.72766707,14.9715656 2.09072733,14.3774489 2.01848248,13.6191132 L2.01165771,13.4751049 L2.01165771,2.49302826 C2.01186945,1.71351466 2.60655579,1.07289783 3.36713474,0.999937296 L3.51158272,0.993014095 L12.4997282,0.991665995 Z" id="路径" fill="#FF943E" fill-rule="nonzero"></path>
        <polygon id="路径" fill="#FF943E" fill-rule="nonzero" points="7 10 7 11 4.00201416 11 4.00201416 10"></polygon>
        <polygon id="路径" fill="#FF943E" fill-rule="nonzero" points="12 7 12 8 4.01928711 8 4.01928711 7"></polygon>
        <polygon id="路径" fill="#FF943E" fill-rule="nonzero" points="11.9827271 4.01525879 11.9827271 5.01525879 4.00201416 5.01525879 4.00201416 4.01525879"></polygon>
    </g>
</svg>