<?xml version="1.0" encoding="UTF-8"?>
<svg width="16px" height="16px" viewBox="0 0 16 16" version="1.1" xmlns="http://www.w3.org/2000/svg" xmlns:xlink="http://www.w3.org/1999/xlink">
    <title>通用/16px/d 分页器/a 刷新</title>
    <defs>
        <path d="M1.26672109,6.87 C1.2833876,6.14166667 1.43338618,5.435 1.71505017,4.77 C2.00338077,4.08666667 2.41671018,3.475 2.94337184,2.94666667 C3.47003351,2.41833333 4.08336102,2.005 4.76668787,1.71666667 C5.47334783,1.41833333 6.22334071,1.26666667 6.99833335,1.26666667 C7.77332599,1.26666667 8.52331887,1.41833333 9.22831218,1.71666667 C9.90997238,2.005 10.5232999,2.41833333 11.0499616,2.94666667 C11.21496,3.11166667 11.3699585,3.28666667 11.5132905,3.47 L10.5099667,4.25333333 C10.4216342,4.32166667 10.4516339,4.46166667 10.5599662,4.48833333 L13.4882717,5.205 C13.5716043,5.225 13.6532702,5.16166667 13.6532702,5.07666667 L13.6666034,2.06166667 C13.6666034,1.95 13.5382713,1.88666667 13.4516054,1.95666667 L12.5116143,2.69166667 C11.2299598,1.05166667 9.23664543,0 6.9966667,0 C3.17836961,0 0.071732436,3.06 3.25501679e-05,6.86333333 C-0.00160020116,6.93833333 0.0583992293,7 0.133398517,7 L1.13338902,7 C1.20672166,7 1.26505444,6.94166667 1.26672109,6.87 Z M13.8666015,7 L12.866611,7 C12.7932783,7 12.7349456,7.05833333 12.7332789,7.13 C12.7166124,7.85833333 12.5666138,8.565 12.2849498,9.23 C11.9966192,9.91333333 11.5832898,10.5266667 11.0566282,11.0533333 C10.5299665,11.58 9.91663898,11.995 9.23331213,12.2833333 C8.52665217,12.5816667 7.77665929,12.7333333 7.00166665,12.7333333 C6.22667401,12.7333333 5.47668113,12.5816667 4.77002117,12.2833333 C4.08836097,11.995 3.47503346,11.5816667 2.9483718,11.0533333 C2.78337336,10.8883333 2.62837483,10.7133333 2.48504286,10.53 L3.48836667,9.74666667 C3.57669916,9.67833333 3.54669945,9.53833333 3.43836714,9.51166667 L0.510061608,8.795 C0.426729066,8.775 0.345063175,8.83833333 0.345063175,8.92333333 L0.333396619,11.94 C0.333396619,12.0516667 0.461728734,12.115 0.548394578,12.045 L1.48838565,11.31 C2.77004015,12.9483333 4.76335457,14 7.0033333,14 C10.823297,14 13.9282676,10.9383333 13.9999674,7.13666667 C14.0016002,7.06166667 13.9416008,7 13.8666015,7 Z" id="path-1"></path>
    </defs>
    <g id="通用/16px/d-分页器/a-刷新" stroke="none" stroke-width="1" fill="none" fill-rule="evenodd">
        <g id="图标颜色" transform="translate(1.000000, 1.000000)">
            <mask id="mask-2" fill="white">
                <use xlink:href="#path-1"></use>
            </mask>
            <use id="蒙版" fill="#FFFFFF" fill-rule="nonzero" xlink:href="#path-1"></use>
            <g id="编组" mask="url(#mask-2)">
                <g transform="translate(-1.000000, -1.000000)" id="图标颜色">
                    <rect id="color/brand/lanblue" fill="#4285F4" x="0" y="0" width="16" height="16"></rect>
                </g>
            </g>
        </g>
    </g>
</svg>