<?xml version="1.0" encoding="UTF-8"?>
<svg width="12px" height="12px" viewBox="0 0 12 12" version="1.1" xmlns="http://www.w3.org/2000/svg" xmlns:xlink="http://www.w3.org/1999/xlink">
    <title>通用图标/线性/12/[通用类-时间&amp;记录&amp;历史]iconCommon_line_12_time</title>
    <g id="通用图标/线性/12/[通用类-时间&amp;记录&amp;历史]iconCommon_line_12_time" stroke="none" stroke-width="1" fill="none" fill-rule="evenodd">
        <rect id="矩形" x="0" y="0" width="12" height="12"></rect>
        <path d="M6,0 C9.3137085,0 12,2.6862915 12,6 C12,9.3137085 9.3137085,12 6,12 C2.6862915,12 0,9.3137085 0,6 C0,2.6862915 2.6862915,0 6,0 Z M6,1 C3.23857625,1 1,3.23857625 1,6 C1,8.76142375 3.23857625,11 6,11 C8.76142375,11 11,8.76142375 11,6 C11,3.23857625 8.76142375,1 6,1 Z" id="椭圆形" fill="#999999" fill-rule="nonzero"></path>
        <path d="M5.5,3 L6.5,3 L6.5,5.79289322 L7.85355339,7.14644661 L7.14644661,7.85355339 L5.79289322,6.5 C5.6366129,6.34371968 5.53740171,6.1410383 5.50867243,5.9243372 L5.5,5.79289322 L5.5,3 Z" id="路径" fill="#999999" fill-rule="nonzero"></path>
    </g>
</svg>