<?xml version="1.0" standalone="no"?><!DOCTYPE svg PUBLIC "-//W3C//DTD SVG 1.1//EN" "http://www.w3.org/Graphics/SVG/1.1/DTD/svg11.dtd"><svg class="icon" width="200px" height="200.00px" viewBox="0 0 1024 1024" version="1.1" xmlns="http://www.w3.org/2000/svg"><path fill="#666666" d="M673.76678293 382.3573656c8.55641387 0 15.55711614 1.94463953 20.87246428 5.63945461a26.90084679 26.90084679 0 0 1 10.69551735 14.90890285 41.09671526 41.09671526 0 0 1 0 20.80764283 58.40400698 58.40400698 0 0 1-11.53819461 22.88192487c-24.04870858 30.8549469-47.2547403 60.93203834-69.48845222 90.42573757-22.29853302 29.49369923-43.81921059 57.04275931-64.56203198 82.77682241a60.28382504 60.28382504 0 0 1-19.83532308 15.94604403 54.579549 54.579549 0 0 1-46.54170553 1.49089018 45.37492221 45.37492221 0 0 1-18.73336084-14.39033244c-11.5381946-14.7144389-23.59495961-29.81780606-36.04065251-45.18045825l-38.3093985-46.28242052a5468.65043045 5468.65043045 0 0 0-37.20743586-45.43974328c-12.31605041-14.90890284-23.78942356-29.42887816-34.48494092-43.43028269a49.91241416 49.91241416 0 0 1-9.78801904-20.3538935 38.17975598 38.17975598 0 0 1 0.38892792-19.25193121 27.74352367 27.74352367 0 0 1 10.30658945-14.39033243 31.89208808 31.89208808 0 0 1 19.57603806-5.63945461c10.37141089 0 24.69692187-0.06482144 42.97653335-0.2592854 18.27961147-0.19446396 38.24457707-0.2592854 59.89489713-0.25928501h221.81854755z"  /></svg>