<?xml version="1.0" standalone="no"?><!DOCTYPE svg PUBLIC "-//W3C//DTD SVG 1.1//EN" "http://www.w3.org/Graphics/SVG/1.1/DTD/svg11.dtd"><svg class="icon" width="200px" height="200.00px" viewBox="0 0 1024 1024" version="1.1" xmlns="http://www.w3.org/2000/svg"><path fill="#666666" d="M853.333333 166.570667c50.289778 0 91.022222 39.992889 91.022223 89.315555v528.839111c0 49.322667-40.732444 89.315556-91.022223 89.315556H168.106667c-50.232889 0-91.022222-39.992889-91.022223-89.315556V255.886222c0-49.322667 40.789333-89.315556 91.022223-89.315555H853.333333z m0 67.015111H168.106667c-12.515556 0-22.755556 9.955556-22.755556 22.300444v528.839111c0 12.344889 10.24 22.357333 22.755556 22.357334H853.333333c12.515556 0 22.755556-10.012444 22.755556-22.357334V255.886222a22.528 22.528 0 0 0-22.755556-22.300444zM94.776889 309.134222l364.657778 265.671111a85.390222 85.390222 0 0 0 103.025777-0.568889l355.896889-265.329777c16.156444-12.060444 20.536889-36.522667 9.784889-54.613334-10.752-18.147556-32.540444-23.04-48.696889-10.979555L523.548444 508.586667a21.333333 21.333333 0 0 1-25.770666 0.113777l-364.657778-265.671111c-16.270222-11.889778-38.115556-6.712889-48.64 11.548445-10.581333 18.204444-5.973333 42.666667 10.296889 54.499555z" /></svg>