<?xml version="1.0" standalone="no"?><!DOCTYPE svg PUBLIC "-//W3C//DTD SVG 1.1//EN" "http://www.w3.org/Graphics/SVG/1.1/DTD/svg11.dtd"><svg class="icon" width="200px" height="200.00px" viewBox="0 0 1024 1024" version="1.1" xmlns="http://www.w3.org/2000/svg"><path fill="#666666" d="M659.171556 17.635556c19.342222 0 34.986667 15.928889 34.986666 35.726222v32.369778h119.011556c72.419556 0 131.413333 62.008889 131.413333 138.183111v639.886222c0 76.231111-58.993778 138.183111-131.413333 138.183111H210.830222c-72.419556 0-131.413333-62.008889-131.413333-138.183111V223.914667c0-76.231111 58.993778-138.183111 131.413333-138.183111h118.897778l0.056889-32.426667c0-19.683556 15.701333-35.669333 35.043555-35.669333 19.342222 0 34.986667 15.928889 34.986667 35.726222v32.369778h224.312889v-32.426667c0-19.683556 15.701333-35.669333 35.043556-35.669333z m-329.386667 139.548444h-118.897778c-33.848889 0-61.44 29.923556-61.44 66.730667v639.886222c0 36.807111 27.591111 66.730667 61.44 66.730667h602.282667c33.792 0 61.383111-29.923556 61.383111-66.730667V223.914667c0-36.807111-27.591111-66.730667-61.44-66.730667h-118.954667v32.426667a35.384889 35.384889 0 0 1-34.986666 35.726222 35.384889 35.384889 0 0 1-34.986667-35.726222l-0.056889-32.426667H399.815111v32.426667a35.384889 35.384889 0 0 1-34.986667 35.726222 35.384889 35.384889 0 0 1-35.043555-35.726222v-32.426667z m337.92 553.528889c19.342222 0 34.986667 15.928889 34.986667 35.726222a35.384889 35.384889 0 0 1-34.986667 35.669333H356.295111a35.384889 35.384889 0 0 1-35.043555-35.669333c0-19.740444 15.701333-35.726222 35.043555-35.726222h311.409778z m0-190.691556c19.342222 0 34.986667 15.985778 34.986667 35.726223a35.384889 35.384889 0 0 1-34.986667 35.726222H356.295111a35.384889 35.384889 0 0 1-35.043555-35.726222c0-19.740444 15.701333-35.726222 35.043555-35.726223h311.409778z m0-166.798222c19.342222 0 34.986667 15.928889 34.986667 35.726222a35.384889 35.384889 0 0 1-34.986667 35.726223H356.295111a35.384889 35.384889 0 0 1-35.043555-35.726223c0-19.740444 15.701333-35.726222 35.043555-35.726222h311.409778z" /></svg>