<?xml version="1.0" standalone="no"?><!DOCTYPE svg PUBLIC "-//W3C//DTD SVG 1.1//EN" "http://www.w3.org/Graphics/SVG/1.1/DTD/svg11.dtd"><svg class="icon" width="200px" height="200.00px" viewBox="0 0 1024 1024" version="1.1" xmlns="http://www.w3.org/2000/svg"><path fill="#666666" d="M376.490667 314.026667l107.406222-217.6a65.422222 65.422222 0 0 1 117.304889 0l107.406222 217.543111 240.071111 34.929778a65.422222 65.422222 0 0 1 36.295111 111.559111l-173.738666 169.358222 40.96 239.160889a65.422222 65.422222 0 0 1-94.890667 69.006222l-214.755556-112.924444-214.755555 112.924444a65.422222 65.422222 0 0 1-94.947556-69.006222l41.016889-239.160889L100.124444 460.458667a65.422222 65.422222 0 0 1 36.238223-111.559111l240.128-34.929778z m166.058666-169.358223L440.832 350.72a65.422222 65.422222 0 0 1-49.265778 35.84l-227.441778 32.995556 164.579556 160.426666c15.416889 15.075556 22.471111 36.693333 18.773333 57.969778l-38.798222 226.474667 203.434667-106.951111a65.422222 65.422222 0 0 1 60.871111 0l203.434667 106.951111-38.855112-226.474667a65.422222 65.422222 0 0 1 18.773334-57.912889l164.636444-160.426667-227.441778-33.052444a65.422222 65.422222 0 0 1-49.265777-35.84L542.549333 144.668444z" /></svg>