<?xml version="1.0" encoding="UTF-8"?>
<svg width="17px" height="15px" viewBox="0 0 17 15" version="1.1" xmlns="http://www.w3.org/2000/svg" xmlns:xlink="http://www.w3.org/1999/xlink">
    <!-- Generator: Sketch 52.2 (67145) - http://www.bohemiancoding.com/sketch -->
    <title>Combined Shape</title>
    <desc>Created with Sketch.</desc>
    <g id="Symbols" stroke="none" stroke-width="1" fill="none" fill-rule="evenodd">
        <g id="审批语-copy-12" transform="translate(-4.000000, -5.000000)" fill="#4285F4" fill-rule="nonzero">
            <g id="对话" transform="translate(4.000000, 5.000000)">
                <path d="M4.48866995,14.987395 C4.40492611,14.987395 4.32118227,14.9705882 4.25418719,14.9369748 C4.0364532,14.8529412 3.88571429,14.6680672 3.83546798,14.4495798 L3.45024631,12.5336134 L1.50738916,12.5336134 C0.669950739,12.5336134 -4.61852778e-14,11.8613445 -4.61852778e-14,11.0210084 L-4.61852778e-14,1.52521008 C-4.61852778e-14,0.68487395 0.669950739,0.012605042 1.50738916,0.012605042 L15.4758621,0.012605042 C16.3133005,0.012605042 16.9832512,0.68487395 16.9832512,1.52521008 L16.9832512,11.0042017 C16.9832512,11.8445378 16.3133005,12.5168067 15.4758621,12.5168067 L8.05615764,12.5168067 L4.89064039,14.8529412 C4.77339901,14.9369748 4.63940887,14.987395 4.48866995,14.987395 Z M4.48866995,4.01260504 L4.48866995,5.42436975 L12.5950739,5.42436975 L12.5950739,4.01260504 L4.48866995,4.01260504 Z M4.48866995,7.08823529 L4.48866995,8.5 L12.5950739,8.5 L12.5950739,7.08823529 L4.48866995,7.08823529 Z" id="Combined-Shape"></path>
            </g>
        </g>
    </g>
</svg>