<?xml version="1.0" encoding="UTF-8"?>
<svg width="13px" height="18px" viewBox="0 0 13 18" version="1.1" xmlns="http://www.w3.org/2000/svg" xmlns:xlink="http://www.w3.org/1999/xlink">
    <!-- Generator: Sketch 52.2 (67145) - http://www.bohemiancoding.com/sketch -->
    <title>Shape</title>
    <desc>Created with Sketch.</desc>
    <g id="Symbols" stroke="none" stroke-width="1" fill="none" fill-rule="evenodd">
        <g id="电子章-copy-7" transform="translate(-6.000000, -3.000000)" fill="#4285F4" fill-rule="nonzero">
            <g id="语音" transform="translate(6.000000, 3.000000)">
                <path d="M12.7573702,6.1048951 C12.6130152,5.96103896 12.4506159,5.89810189 12.2431056,5.89810191 C12.0446175,5.89810191 11.873196,5.97002998 11.728841,6.1048951 C11.5844861,6.23976022 11.5123086,6.4105894 11.5123086,6.61738261 L11.5123086,8.25374626 C11.5123086,9.16183818 11.2867539,10.006993 10.8356447,10.7712288 C10.3845354,11.5354645 9.7710268,12.1468531 9.00414103,12.5964036 C8.23725526,13.0459541 7.38916984,13.2707293 6.4869513,13.2707293 C5.57571057,13.2707293 4.72762514,13.045954 3.96073939,12.5964036 C3.19385364,12.1468532 2.58034502,11.5354645 2.12923574,10.7712288 C1.67812647,10.006993 1.45257185,9.16183816 1.45257185,8.25374626 L1.45257185,6.61738261 C1.45257185,6.41958042 1.38039436,6.24875124 1.24506158,6.1048951 C1.10070661,5.96103896 0.93830728,5.89810189 0.730797011,5.89810191 C0.532308936,5.89810191 0.360887408,5.97002998 0.216532445,6.1048951 C0.0721774817,6.24875124 0,6.4105894 0,6.61738261 L0,8.25374626 C0,9.05394607 0.144354963,9.83616384 0.442087084,10.5824176 C0.730797011,11.3286713 1.13679535,11.985015 1.63301555,12.5424576 C2.13825794,13.0999001 2.74274436,13.5764236 3.43745264,13.9450549 C4.13216091,14.3226773 4.88100231,14.5564436 5.66593244,14.6553447 L5.75615429,14.6643357 L5.75615429,16.5434565 L3.21189801,16.5434565 C3.01340993,16.5434565 2.8419884,16.6153846 2.69763344,16.7592408 C2.55327848,16.9030969 2.49012317,17.0649351 2.49012317,17.2717283 C2.49012317,17.4695305 2.56230065,17.6403596 2.69763344,17.7842158 C2.8419884,17.9280719 3.00438774,18 3.21189801,18 L9.78004898,18 C9.97853705,18 10.1499586,17.9280719 10.2943135,17.7842158 C10.4386685,17.6403596 10.510846,17.4785215 10.510846,17.2717283 C10.510846,17.0739261 10.4386685,16.9030969 10.2943135,16.7592408 C10.1499586,16.6153846 9.98755925,16.5434565 9.78004898,16.5434565 L7.21774833,16.5434565 L7.21774833,14.6733267 L7.30797018,14.6643357 C8.0929003,14.5654346 8.8417417,14.3316683 9.53644997,13.954046 C10.2311582,13.5764236 10.8356447,13.1088911 11.3408871,12.5514486 C11.8461295,11.994006 12.2431056,11.3376623 12.5318155,10.5914086 C12.8205255,9.84515486 12.9739026,9.06293707 12.9739026,8.26273726 L12.9739026,6.61738261 C12.9648804,6.41958042 12.9017251,6.24875124 12.7573702,6.1048951 Z M8.75151985,0.935064932 C8.12898906,0.314685316 7.37112548,0 6.49597349,0 C5.6208215,0 4.86295793,0.314685316 4.24042714,0.935064932 C3.61789635,1.55544455 3.30211986,2.3106893 3.30211986,3.18281718 L3.30211986,8.26273726 C3.30211986,9.13486514 3.61789635,9.8901099 4.24042714,10.5104895 C4.86295793,11.1308691 5.6208215,11.4455544 6.49597349,11.4455544 C7.37112548,11.4455544 8.12898906,11.1308691 8.75151985,10.5104895 C9.37405064,9.8901099 9.68982713,9.13486514 9.68982713,8.26273726 L9.68982713,3.17382618 C9.68080493,2.3016983 9.37405064,1.54645355 8.75151985,0.935064932 Z" id="Shape"></path>
            </g>
        </g>
    </g>
</svg>