<?xml version="1.0" encoding="UTF-8"?>
<svg width="20px" height="14px" viewBox="0 0 20 14" version="1.1" xmlns="http://www.w3.org/2000/svg" xmlns:xlink="http://www.w3.org/1999/xlink">
    <!-- Generator: Sketch 52.2 (67145) - http://www.bohemiancoding.com/sketch -->
    <title>Combined Shape</title>
    <desc>Created with Sketch.</desc>
    <g id="流程" stroke="none" stroke-width="1" fill="none" fill-rule="evenodd">
        <g id="流程-废弃（同一高度）" transform="translate(-448.000000, -1042.000000)" fill="#4285F4" fill-rule="nonzero">
            <g id="编组" transform="translate(0.000000, 522.000000)">
                <g id="Group-7" transform="translate(282.000000, 508.000000)">
                    <g id="Group-6" transform="translate(166.000000, 12.000000)">
                        <path d="M10.2907504,5.4621993 L18.2872545,0.845415487 C18.7655471,0.569273112 19.3771375,0.733148267 19.6532799,1.21144089 C19.9294223,1.68973351 19.7655471,2.30132392 19.2872545,2.57746629 L11.2513722,7.2169851 C11.0552759,7.52816939 10.7128357,7.69609644 10.3661759,7.6826842 C9.94493414,7.78662723 9.48879498,7.60603656 9.26097506,7.21144089 C9.25144321,7.19493124 9.24243564,7.17826277 9.23394717,7.16145476 L1.24544099,2.54928857 C0.767148368,2.27314619 0.603273213,1.66155579 0.879415587,1.18326316 C1.15555796,0.704970541 1.76714837,0.541095386 2.24544099,0.817237761 L10.2907504,5.4621993 Z M9.87118639,11.2902079 L18.4723511,6.3243231 C18.9506438,6.04818072 19.5622342,6.21205588 19.8383765,6.6903485 C20.1145189,7.16864112 19.9506438,7.78023153 19.4723511,8.0563739 L11.1429587,12.8653509 C11.1208376,12.9523609 11.0865385,13.0378189 11.0394382,13.1193989 C10.7632959,13.5976915 10.1517055,13.7615667 9.67341283,13.4854243 L1.01315879,8.48542433 C0.534866168,8.20928195 0.370991013,7.59769155 0.647133388,7.11939892 C0.923275763,6.6411063 1.53486617,6.47723114 2.01315879,6.75337352 L9.87118639,11.2902079 Z" id="Combined-Shape"></path>
                    </g>
                </g>
            </g>
        </g>
    </g>
</svg>