<?xml version="1.0" encoding="UTF-8"?>
<svg width="21px" height="21px" viewBox="0 0 21 21" version="1.1" xmlns="http://www.w3.org/2000/svg" xmlns:xlink="http://www.w3.org/1999/xlink">
    <!-- Generator: Sketch 52.2 (67145) - http://www.bohemiancoding.com/sketch -->
    <title>Combined Shape</title>
    <desc>Created with Sketch.</desc>
    <g id="Symbols" stroke="none" stroke-width="1" fill="none" fill-rule="evenodd">
        <g id="审批语-copy-10" transform="translate(-1.000000, 0.000000)" fill="#4285F4" fill-rule="nonzero">
            <g id="粗版2_手写" transform="translate(1.000000, 0.000000)">
                <path d="M5.00422213,5.87163688 C5.04551346,5.22702018 5.38843034,4.6160863 5.97840837,4.26802014 C6.48618791,3.96855751 6.86254077,4.01880029 7.20338472,4.27198675 C7.25230162,4.22181842 7.30912728,4.17771639 7.37330984,4.14164846 C8.74046626,3.37336323 9.89010383,2.21528742 10.8254821,0.654512705 C11.0384113,0.299218432 11.4990475,0.183808758 11.8543418,0.396737983 C12.2096361,0.609667209 12.3250457,1.07030337 12.1121165,1.42559764 C11.0550072,3.18949297 9.73138922,4.528107 8.14444871,5.42882172 L9.788451,8.33789167 L14.8827208,6.83748949 C15.7207582,6.34346404 16.7927277,6.63656791 17.2768006,7.49305769 L19.0291006,12.5908276 L20.3428875,14.9155216 L21,16.0780924 L13.6394639,20.4182671 L12.652919,21 L11.2558978,18.5285303 C10.8686395,18.3933892 10.5234364,18.1271346 10.3026466,17.7364786 L7.0324168,15.5308161 C6.6381493,14.8322891 7.00876075,13.9552149 7.45515917,12.6982244 L7.77539199,11.4756904 L7.11784142,10.3122247 L5.42832036,7.32282433 C3.95955669,8.06564925 2.82571077,9.17952887 2.01318381,10.6802651 C1.81597065,11.0445176 1.36081285,11.1799297 0.9965604,10.9827165 C0.632307952,10.7855034 0.496895851,10.3303456 0.694109007,9.96609312 C1.67565525,8.15317845 3.07789095,6.79792179 4.88613565,5.91738196 C4.92480151,5.89855329 4.96429203,5.88334923 5.00422213,5.87163688 Z M18.7355904,14.7571113 C18.6317666,14.8609282 18.5187432,14.9575854 18.3868827,15.0354481 L12.6962884,18.3915993 L13.1343634,19.166199 L19.2043306,15.5863044 L18.7355904,14.7571113 Z" id="Combined-Shape"></path>
            </g>
        </g>
    </g>
</svg>