<?xml version="1.0" encoding="UTF-8"?>
<svg width="14px" height="14px" viewBox="0 0 14 14" version="1.1" xmlns="http://www.w3.org/2000/svg" xmlns:xlink="http://www.w3.org/1999/xlink">
    <!-- Generator: Sketch 63 (92445) - https://sketch.com -->
    <title>复制</title>
    <desc>Created with Sketch.</desc>
    <g id="复制" stroke="none" stroke-width="1" fill="none" fill-rule="evenodd">
        <g fill="#999999" fill-rule="nonzero" id="file-copy">
            <g transform="translate(1.000000, 0.000000)">
                <path d="M10.5,0 L2.125,0 C2.05625,0 2,0.05625 2,0.125 L2,1 C2,1.06875 2.05625,1.125 2.125,1.125 L9.875,1.125 L9.875,11.875 C9.875,11.94375 9.93125,12 10,12 L10.875,12 C10.94375,12 11,11.94375 11,11.875 L11,0.5 C11,0.2234375 10.7765625,0 10.5,0 Z" id="路径"></path>
                <path d="M8.5,2 L0.5,2 C0.2234375,2 0,2.2234375 0,2.5 L0,10.7921875 C0,10.925 0.053125,11.0515625 0.146875,11.1453125 L2.8546875,13.853125 C2.8890625,13.8875 2.928125,13.915625 2.9703125,13.9390625 L2.9703125,13.96875 L3.0359375,13.96875 C3.090625,13.9890625 3.1484375,14 3.2078125,14 L8.5,14 C8.7765625,14 9,13.7765625 9,13.5 L9,2.5 C9,2.2234375 8.7765625,2 8.5,2 Z M2.96875,12.378125 L1.6234375,11.03125 L2.96875,11.03125 L2.96875,12.378125 Z M7.875,12.875 L3.96875,12.875 L3.96875,10.65625 C3.96875,10.3109375 3.6890625,10.03125 3.34375,10.03125 L1.125,10.03125 L1.125,3.125 L7.875,3.125 L7.875,12.875 Z" id="形状"></path>
            </g>
        </g>
    </g>
</svg>