<?xml version="1.0" encoding="UTF-8"?>
<svg width="20px" height="20px" viewBox="0 0 20 20" version="1.1" xmlns="http://www.w3.org/2000/svg" xmlns:xlink="http://www.w3.org/1999/xlink">
    <!-- Generator: Sketch 63 (92445) - https://sketch.com -->
    <title>删除</title>
    <desc>Created with Sketch.</desc>
    <g id="删除" stroke="none" stroke-width="1" fill="none" fill-rule="evenodd">
        <g fill="#999999">
            <g transform="translate(1.750000, 1.250000)">
                <path d="M4.86328125,1.640625 L11.5429688,1.640625 L11.5429688,3.28125 L13.125,3.28125 L13.125,1.45833333 C13.125,0.653971354 12.4943848,0 11.71875,0 L4.6875,0 C3.91186523,0 3.28125,0.653971354 3.28125,1.45833333 L3.28125,3.28125 L4.86328125,3.28125 L4.86328125,1.640625 Z" id="路径" fill-rule="nonzero"></path>
                <path d="M15.7226562,3.28125 L0.68359375,3.28125 C0.305480957,3.28125 0,3.59120141 0,3.97484756 L0,4.66844512 C0,4.76381479 0.0769042969,4.84184451 0.170898438,4.84184451 L1.46118164,4.84184451 L1.98883057,16.1778296 C2.02301025,16.9169446 2.62542725,17.5 3.35388184,17.5 L13.0523682,17.5 C13.782959,17.5 14.3832397,16.919112 14.4174194,16.1778296 L14.9450684,4.84184451 L16.2353516,4.84184451 C16.3293457,4.84184451 16.40625,4.76381479 16.40625,4.66844512 L16.40625,3.97484756 C16.40625,3.59120141 16.100769,3.28125 15.7226562,3.28125 Z M12.8878784,15.9394055 L3.51837158,15.9394055 L3.00140381,4.84184451 L13.4048462,4.84184451 L12.8878784,15.9394055 Z" id="形状" fill-rule="nonzero"></path>
                <polygon id="矩形" transform="translate(6.015625, 10.624047) rotate(-270.000000) translate(-6.015625, -10.624047) " points="2.734375 9.84375 9.296875 9.84375 9.296875 11.4043445 2.734375 11.4043445"></polygon>
                <polygon id="矩形备份" transform="translate(10.390625, 10.624047) rotate(-270.000000) translate(-10.390625, -10.624047) " points="7.109375 9.84375 13.671875 9.84375 13.671875 11.4043445 7.109375 11.4043445"></polygon>
            </g>
        </g>
    </g>
</svg>