<?xml version="1.0" standalone="no"?><!DOCTYPE svg PUBLIC "-//W3C//DTD SVG 1.1//EN" "http://www.w3.org/Graphics/SVG/1.1/DTD/svg11.dtd"><svg class="icon" width="10px" height="10.00px" viewBox="0 0 1024 1024" version="1.1" xmlns="http://www.w3.org/2000/svg"><path fill="#D8D8D8" d="M620.288 667.794286l47.030857 64.292571c14.884571-6.838857 31.451429-10.605714 48.932572-10.605714 64.182857 0 116.224 51.309714 116.224 114.688 0 63.341714-52.041143 114.688-116.224 114.688s-116.224-51.346286-116.224-114.688c0-29.549714 11.337143-56.502857 29.915428-76.8l-49.005714-67.035429a163.986286 163.986286 0 0 1-66.157714 13.824 163.364571 163.364571 0 0 1-102.473143-35.84L355.108571 723.273143c7.972571 15.542857 12.434286 33.097143 12.434286 51.712 0 63.341714-52.004571 114.688-116.187428 114.688-64.182857 0-116.224-51.346286-116.224-114.688 0-63.341714 52.041143-114.688 116.224-114.688a116.662857 116.662857 0 0 1 74.788571 26.88l54.601143-50.541714a158.390857 158.390857 0 0 1-28.672-91.062858c0-17.700571 2.925714-34.742857 8.301714-50.724571l-82.578286-43.044571a116.589714 116.589714 0 0 1-88.429714 40.228571C125.184 492.068571 73.142857 440.685714 73.142857 377.380571c0-63.341714 52.041143-114.688 116.224-114.688s116.224 51.346286 116.224 114.688c0 11.958857-1.828571 23.478857-5.302857 34.304l80.932571 42.203429a163.145143 163.145143 0 0 1 133.558858-68.864c9.362286 0 18.541714 0.804571 27.428571 2.267429l19.456-65.536a114.285714 114.285714 0 0 1-54.637714-97.28C507.026286 161.024 559.067429 109.714286 623.250286 109.714286c64.219429 0 116.224 51.346286 116.224 114.688 0 63.378286-52.004571 114.724571-116.224 114.724571-6.070857 0-12.068571-0.475429-17.92-1.353143l-18.834286 63.634286a161.170286 161.170286 0 0 1 87.881143 112.64l80.786286-8.045714a115.017143 115.017143 0 0 1-0.182858-6.290286c0-63.378286 52.041143-114.724571 116.224-114.724571S987.428571 436.333714 987.428571 499.712c0 63.341714-52.041143 114.688-116.224 114.688a116.370286 116.370286 0 0 1-104.045714-63.488l-90.294857 8.96a159.597714 159.597714 0 0 1-56.576 107.958857z m-40.228571-27.282286a114.176 114.176 0 0 0 50.944-94.939429c0-63.341714-52.041143-114.688-116.224-114.688s-116.224 51.346286-116.224 114.688c0 63.341714 52.041143 114.724571 116.224 114.724572 20.48 0 39.753143-5.266286 56.466285-14.445714a23.369143 23.369143 0 0 1 8.777143-5.339429zM189.330286 446.171429c38.509714 0 69.741714-30.829714 69.741714-68.827429 0-38.034286-31.232-68.827429-69.741714-68.827429s-69.741714 30.829714-69.741715 68.827429c0 38.034286 31.232 68.827429 69.741715 68.827429z m61.988571 397.641142c38.509714 0 69.741714-30.829714 69.741714-68.827428 0-38.034286-31.232-68.827429-69.741714-68.827429s-69.741714 30.829714-69.741714 68.827429c0 38.034286 31.232 68.827429 69.741714 68.827428z m464.896 61.147429c38.509714 0 69.741714-30.793143 69.741714-68.790857 0-38.034286-31.232-68.827429-69.741714-68.827429s-69.741714 30.793143-69.741714 68.827429c0 37.997714 31.232 68.790857 69.741714 68.790857z m154.953143-336.457143c38.509714 0 69.741714-30.793143 69.741714-68.790857 0-38.034286-31.232-68.827429-69.741714-68.827429s-69.741714 30.793143-69.741714 68.827429c0 37.997714 31.232 68.790857 69.741714 68.790857z m-247.954286-275.273143c38.509714 0 69.741714-30.793143 69.741715-68.827428 0-37.997714-31.232-68.790857-69.741715-68.790857s-69.705143 30.793143-69.705143 68.790857c0 38.034286 31.195429 68.827429 69.705143 68.827428z" /></svg>