<?xml version="1.0" standalone="no"?><!DOCTYPE svg PUBLIC "-//W3C//DTD SVG 1.1//EN" "http://www.w3.org/Graphics/SVG/1.1/DTD/svg11.dtd"><svg class="icon" width="10px" height="10.00px" viewBox="0 0 1024 1024" version="1.1" xmlns="http://www.w3.org/2000/svg"><path fill="#D8D8D8" d="M451.84 700.416h233.435429c4.461714 0 8.118857-3.657143 8.118857-8.118857v-325.997714c0-4.498286-3.657143-8.118857-8.118857-8.118858H166.473143c-4.498286 0-8.118857 3.657143-8.118857 8.118858v325.997714c0 4.498286 3.657143 8.118857 8.118857 8.118857h190.061714v95.817143l95.305143-95.817143z m20.150857 48.896L307.931429 914.285714v-164.937143H166.473143A56.905143 56.905143 0 0 1 109.714286 692.297143v-325.997714c0-31.488 25.417143-57.051429 56.758857-57.051429h518.802286c31.341714 0 56.758857 25.563429 56.758857 57.051429v325.997714c0 31.488-25.417143 57.051429-56.758857 57.051428h-213.284572z m-86.674286-474.441143h-48.64V203.337143c0-31.524571 25.417143-57.051429 56.758858-57.051429h464.091428C888.868571 146.285714 914.285714 171.812571 914.285714 203.337143v325.961143c0 31.488-25.417143 57.051429-56.758857 57.051428h-65.828571v-48.896h65.828571c4.498286 0 8.118857-3.657143 8.118857-8.155428V203.337143c0-4.498286-3.657143-8.155429-8.118857-8.155429h-464.091428c-4.461714 0-8.118857 3.657143-8.118858 8.155429v71.533714z" /></svg>