<?xml version="1.0" standalone="no"?><!DOCTYPE svg PUBLIC "-//W3C//DTD SVG 1.1//EN" "http://www.w3.org/Graphics/SVG/1.1/DTD/svg11.dtd"><svg class="icon" width="10px" height="10.00px" viewBox="0 0 1024 1024" version="1.1" xmlns="http://www.w3.org/2000/svg"><path fill="#D8D8D8" d="M483.84 540.16h-56.246857v56.246857c0 31.085714-25.161143 56.246857-56.246857 56.246857H202.532571c-31.085714 0-56.246857-25.197714-56.246857-56.246857v-168.813714c0-31.085714 25.197714-56.246857 56.246857-56.246857h168.813715c31.085714 0 56.246857 25.197714 56.246857 56.246857v56.283428h56.283428V315.062857a84.406857 84.406857 0 0 1 84.370286-84.370286h84.406857v-28.16c0-31.085714 25.197714-56.246857 56.283429-56.246857h112.530286C852.553143 146.285714 877.714286 171.483429 877.714286 202.532571v112.530286c0 31.085714-25.197714 56.283429-56.246857 56.283429h-112.530286c-31.085714 0-56.283429-25.197714-56.283429-56.283429v-28.123428h-84.406857a28.16 28.16 0 0 0-28.123428 28.16v168.777142h112.530285v-28.16c0-31.085714 25.197714-56.246857 56.283429-56.246857h112.530286c31.085714 0 56.246857 25.197714 56.246857 56.283429v112.493714c0 31.085714-25.197714 56.283429-56.246857 56.283429h-112.530286c-31.085714 0-56.283429-25.197714-56.283429-56.283429v-28.123428H540.16v168.813714c0 15.506286 12.617143 28.123429 28.16 28.123428h84.370286v-28.16c0-31.085714 25.197714-56.246857 56.283428-56.246857h112.530286c31.085714 0 56.246857 25.197714 56.246857 56.283429v112.530286c0 31.085714-25.197714 56.246857-56.246857 56.246857h-112.530286c-31.085714 0-56.283429-25.197714-56.283428-56.246857v-28.16h-84.406857a84.406857 84.406857 0 0 1-84.370286-84.370286v-168.813714z m225.097143-309.467429v84.406858h112.530286V202.496h-112.530286v28.16z m0 506.368v84.406858h112.530286v-112.530286h-112.530286v28.123428zM202.532571 427.593143v168.813714h168.813715v-168.813714H202.532571z m506.404572 28.16v112.493714h112.530286v-112.493714h-112.530286z" /></svg>