<?xml version="1.0" standalone="no"?><!DOCTYPE svg PUBLIC "-//W3C//DTD SVG 1.1//EN" "http://www.w3.org/Graphics/SVG/1.1/DTD/svg11.dtd"><svg class="icon" width="10px" height="9.48px" viewBox="0 0 1080 1024" version="1.1" xmlns="http://www.w3.org/2000/svg"><path fill="#D8D8D8" d="M937.00000039 614.89999971v-411.49999951c0-35.4999999-28.00000019-64.2499998-62.45000068-64.24999981H199.45000039c-34.40000039 0-62.4499998 28.8-62.45000068 64.24999981v411.49999951c0 35.39999971 28.00000019 64.2499998 62.45000068 64.25000068h675.09999932c34.40000039 0 62.4499998-28.8500001 62.45000068-64.25000068zM874.54999971 62C950.3 62 1012.0000001 125.3999999 1012.0000001 203.4000002v411.49999951c0 77.9500002-61.65 141.4000002-137.45000039 141.40000019H574.4999999v56.85000029c21.9999999 10.00000019 37.50000029 32.60000039 37.5000003 58.84999981v12.84999961h287.4999999c20.6499999 0 37.50000029 17.34999961 37.50000029 38.55000058a38.14999981 38.14999981 0 0 1-37.50000029 38.54999971H549.55000039L549.50000029 962h-25.00000049-349.9999998a38.14999981 38.14999981 0 0 1-37.50000029-38.5999998c0-21.2000001 16.85000039-38.54999971 37.50000029-38.55000059H461.9999999V872c0-26.25000029 15.50000039-48.84999961 37.50000029-58.84999981v-56.85000029H199.45000039C123.65 756.2999999 62 692.8499999 62 614.89999971v-411.49999951C62 125.3999999 123.7000001 62 199.45000039 62h675.09999932zM811.99999971 537.65V280.59999981a12.75000029 12.75000029 0 0 0-12.5499999-12.89999971H274.55000029A12.75000029 12.75000029 0 0 0 262.00000039 280.59999981v257.05000019c0 7.09999981 5.64999961 12.89999971 12.5499999 12.89999971h524.89999952A12.75000029 12.75000029 0 0 0 811.99999971 537.65z m-12.5499999-347.10000029c48.2500002 0 87.54999961 40.39999981 87.55000048 90.0500001v257.05000019c0 49.65000029-39.30000029 90-87.55000048 90H274.55000029c-48.30000029 0-87.54999961-40.34999971-87.55000048-90V280.59999981c0-49.65000029 39.25000019-90.0500001 87.55000048-90.0500001h524.89999952z" /></svg>