<?xml version="1.0" standalone="no"?><!DOCTYPE svg PUBLIC "-//W3C//DTD SVG 1.1//EN" "http://www.w3.org/Graphics/SVG/1.1/DTD/svg11.dtd"><svg class="icon" width="10px" height="10.00px" viewBox="0 0 1024 1024" version="1.1" xmlns="http://www.w3.org/2000/svg"><path fill="#D8D8D8" d="M227.474286 433.737143a27.611429 27.611429 0 0 1 0.036571 2.048v415.780571c0 4.937143 3.986286 8.96 8.886857 8.96h119.588572v-277.211428h300.982857v277.211428h125.915428c4.900571 0 8.850286-4.022857 8.850286-8.96v-415.817143c0-2.230857 0.292571-4.388571 0.804572-6.509714l-267.044572-215.369143-298.057143 219.867429z m-53.028572 39.131428l-22.528 16.603429a26.331429 26.331429 0 0 1-37.12-5.888 27.099429 27.099429 0 0 1 5.851429-37.558857L526.957714 146.285714l377.307429 304.347429a27.099429 27.099429 0 0 1 4.242286 37.741714 26.331429 26.331429 0 0 1-37.302858 4.278857l-26.331428-21.211428v380.123428c0 34.633143-27.757714 62.72-61.988572 62.72H236.397714a62.354286 62.354286 0 0 1-61.988571-62.72V472.868571z m234.678857 387.657143h194.742858v-223.451428h-194.742858v223.451428z" /></svg>