<?xml version="1.0" encoding="UTF-8"?>
<svg width="22px" height="22px" viewBox="0 0 22 22" version="1.1" xmlns="http://www.w3.org/2000/svg" xmlns:xlink="http://www.w3.org/1999/xlink">
    <title>学习任务/mylearning_icon_already</title>
    <g id="页面-1" stroke="none" stroke-width="1" fill="none" fill-rule="evenodd">
        <g id="培训学习-样式" transform="translate(-66.000000, -2148.000000)">
            <g id="Group-7-Copy" transform="translate(32.000000, 2053.000000)">
                <g id="学习任务/mylearning_icon_already" transform="translate(35.000000, 96.000000)">
                    <rect id="矩形" fill-opacity="0.01" fill="#FFFFFF" x="0" y="0" width="20" height="20"></rect>
                    <path d="M13.8333333,9.62400001 C13.5885681,9.39178499 13.1947652,9.39178499 12.95,9.62400001 L9.325,13.104 L8,11.832 C7.75523477,11.599785 7.36143189,11.599785 7.11666666,11.832 C6.875,12.064 6.875,12.448 7.11666666,12.68 L8.73333334,14.232 C9.05833334,14.544 9.58333334,14.544 9.90833334,14.232 L13.825,10.472 C14.075,10.24 14.075,9.856 13.8333333,9.62400001 L13.8333333,9.62400001 Z M16.3333333,3.60000001 L15.5,3.60000001 L15.5,2.80000001 C15.5,2.36 15.125,2 14.6666667,2 C14.2083333,2 13.8333333,2.36 13.8333333,2.80000001 L13.8333333,3.60000001 L7.16666666,3.60000001 L7.16666666,2.80000001 C7.16666666,2.36 6.79166666,2 6.33333334,2 C5.87500002,2 5.5,2.36 5.5,2.80000001 L5.5,3.60000001 L4.66666666,3.60000001 C3.74166666,3.60000001 3.00833332,4.32000001 3.00833334,5.2 L3,16.4 C3,16.8243464 3.17559473,17.2313126 3.48815536,17.5313708 C3.80071599,17.8314291 4.22463918,18 4.66666666,18 L16.3333333,18 C17.25,18 18,17.28 18,16.4 L18,5.2 C18,4.32000001 17.25,3.60000001 16.3333333,3.60000001 Z M15.5,16.4 L5.5,16.4 C5.04166666,16.4 4.66666666,16.04 4.66666666,15.6 L4.66666666,7.6 L16.3333333,7.6 L16.3333333,15.6 C16.3333333,16.04 15.9583333,16.4 15.5,16.4 L15.5,16.4 Z" id="形状" fill="#4285F4" fill-rule="nonzero"></path>
                </g>
            </g>
        </g>
    </g>
</svg>