<?xml version="1.0" encoding="UTF-8"?>
<svg width="20px" height="20px" viewBox="0 0 20 20" version="1.1" xmlns="http://www.w3.org/2000/svg" xmlns:xlink="http://www.w3.org/1999/xlink">
    <title>学习任务/mylearning_icon_learning</title>
    <g id="页面-1" stroke="none" stroke-width="1" fill="none" fill-rule="evenodd">
        <g id="培训学习-样式" transform="translate(-693.000000, -2147.000000)">
            <g id="Group-7-Copy-4" transform="translate(637.000000, 2053.000000)">
                <g id="学习任务/mylearning_icon_learning" transform="translate(56.000000, 94.000000)">
                    <rect id="矩形" fill-opacity="0.01" fill="#FFFFFF" x="0" y="0" width="20" height="20"></rect>
                    <g id="map_px_rounded" transform="translate(3.000000, 3.000000)" fill="#F96262" fill-rule="nonzero">
                        <path d="M9.70833334,1.58842105 L5.54166666,0.114736836 C5.19166666,-0.0115789539 4.80833332,-0.0115789539 4.45833334,0.106315796 L1.13333334,1.23473684 C0.46666668,1.47052632 0.00833333984,2.11052631 0.00833333984,2.83473685 L0.00833333984,12.8136842 C0.00833333984,14.0010526 1.18333334,14.8094737 2.275,14.38 L4.71666666,13.42 C4.9,13.3442105 5.10833332,13.3442105 5.29166666,13.4115789 L9.45833334,14.8852632 C9.80833334,15.011579 10.1916667,15.011579 10.5416667,14.8936842 L13.8666667,13.7652632 C14.5416667,13.5378947 15,12.8894737 15,12.1652632 L15,2.18631578 C15,0.998947362 13.825,0.190526309 12.7333333,0.619999993 L10.2916667,1.57999999 C10.1,1.64736841 9.90833332,1.65578947 9.70833334,1.58842105 Z M10.0083333,13.3021053 L5.00833334,11.5252632 L5.00833334,1.69789474 L10.0083333,3.47473684 L10.0083333,13.3021053 Z" id="形状"></path>
                    </g>
                </g>
            </g>
        </g>
    </g>
</svg>