<?xml version="1.0" encoding="UTF-8"?>
<svg width="20px" height="20px" viewBox="0 0 20 20" version="1.1" xmlns="http://www.w3.org/2000/svg" xmlns:xlink="http://www.w3.org/1999/xlink">
    <title>学习任务/mylearning_icon_remind</title>
    <g id="页面-1" stroke="none" stroke-width="1" fill="none" fill-rule="evenodd">
        <g id="培训学习-样式" transform="translate(-1096.000000, -2147.000000)">
            <g id="Group-7-Copy-6" transform="translate(1040.000000, 2053.000000)">
                <g id="学习任务/mylearning_icon_remind" transform="translate(56.000000, 94.000000)">
                    <rect id="矩形" fill="#FFFFFF" opacity="0.01" x="0" y="0" width="20" height="20"></rect>
                    <g id="notifications_px_rounded" transform="translate(4.000000, 2.000000)" fill="#4285F4" fill-rule="nonzero">
                        <path d="M6.5,17 C7.44156378,17 8.21193415,16.2153846 8.21193415,15.2564103 L4.78806585,15.2564103 C4.78806585,15.718839 4.96842982,16.1623279 5.28947975,16.4893144 C5.61052968,16.8163009 6.04596683,17 6.5,17 L6.5,17 Z M11.6358025,11.7692308 L11.6358025,7.41025642 C11.6358025,4.73384615 10.2320165,2.49333334 7.78395062,1.90051281 L7.78395062,1.30769231 C7.78395062,0.584102571 7.21045267,0 6.5,0 C5.78954733,0 5.21604938,0.584102571 5.21604938,1.30769231 L5.21604938,1.90051281 C2.75942388,2.49333334 1.36419753,4.7251282 1.36419753,7.41025642 L1.36419753,11.7692308 L0.26,12.8938462 C-0.279259259,13.4430769 0.0973662485,14.3846154 0.859176961,14.3846154 L12.1322634,14.3846154 C12.8940741,14.3846154 13.2792593,13.4430769 12.74,12.8938462 L11.6358025,11.7692308 Z" id="形状"></path>
                    </g>
                </g>
            </g>
        </g>
    </g>
</svg>