<?xml version="1.0" encoding="UTF-8"?>
<svg width="20px" height="20px" viewBox="0 0 20 20" version="1.1" xmlns="http://www.w3.org/2000/svg" xmlns:xlink="http://www.w3.org/1999/xlink">
    <title>学习任务/mylearning_icon_training</title>
    <g id="页面-1" stroke="none" stroke-width="1" fill="none" fill-rule="evenodd">
        <g id="培训学习-样式" transform="translate(-901.000000, -2147.000000)">
            <g id="Group-7-Copy-5" transform="translate(838.000000, 2053.000000)">
                <g id="学习任务/mylearning_icon_training" transform="translate(63.000000, 94.000000)">
                    <rect id="矩形" fill-opacity="0.01" fill="#FFFFFF" x="0" y="0" width="20" height="20"></rect>
                    <path d="M13.2727273,9.14285714 C14.6309091,9.14285714 15.7190909,7.99428572 15.7190909,6.57142857 C15.7190909,5.14857142 14.6309091,4 13.2727273,4 C11.9145455,4 10.8181818,5.14857142 10.8181818,6.57142857 C10.8181818,7.99428572 11.9145455,9.14285714 13.2727273,9.14285714 Z M6.72727272,9.14285714 C8.08545454,9.14285714 9.17363637,7.99428572 9.17363637,6.57142857 C9.17363637,5.14857142 8.08545454,4 6.72727272,4 C5.36909089,4 4.27272726,5.14857144 4.27272726,6.57142857 C4.27272726,7.9942857 5.36909089,9.14285714 6.72727272,9.14285714 L6.72727272,9.14285714 Z M6.72727272,10.8571429 C4.82090909,10.8571429 1,11.86 1,13.8571429 L1,15.1428571 C1,15.6142857 1.36818182,16 1.81818181,16 L11.6363636,16 C12.0863636,16 12.4545455,15.6142857 12.4545455,15.1428571 L12.4545455,13.8571429 C12.4545455,11.86 8.63363637,10.8571429 6.72727272,10.8571429 Z M13.2727273,10.8571429 C13.0354546,10.8571429 12.7654546,10.8742857 12.4790909,10.9 C12.4954545,10.9085714 12.5036364,10.9257143 12.5118182,10.9342857 C13.4445455,11.6457143 14.0909091,12.5971429 14.0909091,13.8571429 L14.0909091,15.1428571 C14.0909091,15.4428571 14.0336364,15.7342857 13.9436364,16 L18.1818182,16 C18.6318182,16 19,15.6142857 19,15.1428571 L19,13.8571429 C19,11.86 15.1790909,10.8571429 13.2727273,10.8571429 Z" id="形状" fill="#FE8D51" fill-rule="nonzero"></path>
                </g>
            </g>
        </g>
    </g>
</svg>