<?xml version="1.0" encoding="UTF-8"?>
<svg width="12px" height="12px" viewBox="0 0 12 12" version="1.1" xmlns="http://www.w3.org/2000/svg" xmlns:xlink="http://www.w3.org/1999/xlink">
    <title>通用/12px/待审</title>
    <g id="通用/12px/待审" stroke="none" stroke-width="1" fill="none" fill-rule="evenodd">
        <path d="M6.00008828,0.5 C6.69041815,0.5 7.3153939,0.779820823 7.76778761,1.23222785 C8.22018664,1.68464019 8.5,2.30964238 8.5,3 C8.5,3.44357198 8.38202938,3.8773327 8.16060527,4.25771827 L8.16060527,4.25771827 L7.50003142,5.17231369 L7.49999382,8.21392593 L9.92857143,8.21428571 L10.5,10.9285714 L2.07142857,11.5 L1.5,8.78571429 L4.49996919,8.21239591 L4.50015742,5.16751747 L4.00016313,4.50000565 C3.6121912,3.98269452 3.45497845,3.36395341 3.51102205,2.76714502 C3.56702988,2.17071758 3.83574153,1.59604601 4.30024375,1.16668448 C4.92274055,0.689355631 5.45146715,0.5 6.00008828,0.5 Z" id="形状结合" stroke="#4285F4" fill-rule="nonzero"></path>
    </g>
</svg>