<?xml version="1.0" encoding="UTF-8"?>
<svg width="12px" height="12px" viewBox="0 0 12 12" version="1.1" xmlns="http://www.w3.org/2000/svg" xmlns:xlink="http://www.w3.org/1999/xlink">
    <title>通用/12px/结束</title>
    <g id="通用/12px/结束" stroke="#4285F4" stroke-width="1" fill="none" fill-rule="evenodd">
        <path d="M6,0 C9.3137085,0 12,2.6862915 12,6 C12,9.3137085 9.3137085,12 6,12 C2.6862915,12 0,9.3137085 0,6 C0,2.6862915 2.6862915,0 6,0 Z M6,1 C3.23857625,1 1,3.23857625 1,6 C1,8.76142375 3.23857625,11 6,11 C8.76142375,11 11,8.76142375 11,6 C11,3.23857625 8.76142375,1 6,1 Z" id="椭圆形" fill="#979797" fill-rule="nonzero"></path>
        <path d="M6.14644661,3.14644661 L6.85355339,3.85355339 L5.20710678,5.5 L8.35355339,8.64644661 L7.64644661,9.35355339 L4.5,6.20710678 C4.13951604,5.84662282 4.1117865,5.27939176 4.41681139,4.88710056 L4.5,4.79289322 L6.14644661,3.14644661 Z" id="路径" fill="#979797" fill-rule="nonzero" transform="translate(6.280330, 6.250000) rotate(-90.000000) translate(-6.280330, -6.250000) "></path>
    </g>
</svg>