<svg xmlns="http://www.w3.org/2000/svg" xmlns:xlink="http://www.w3.org/1999/xlink" viewBox="0 0 500 500"><defs><style>.cls-1{fill:url(#未命名的渐变_66);}.cls-2{fill:url(#未命名的渐变_66-2);}.cls-3{fill:#fff;}</style><linearGradient id="未命名的渐变_66" x1="250" y1="497.78" x2="250" y2="-7.89" gradientUnits="userSpaceOnUse"><stop offset="0" stop-color="#3296fa"/><stop offset="1" stop-color="#0da4ff"/></linearGradient><linearGradient id="未命名的渐变_66-2" x1="250" y1="497.78" x2="250" y2="-7.89" xlink:href="#未命名的渐变_66"/></defs><title>资源 1</title><g id="图层_2" data-name="图层 2"><g id="logo素材"><rect class="cls-1" width="500" height="500"/><g id="_编组_" data-name="&lt;编组&gt;"><path id="_路径_" data-name="&lt;路径&gt;" class="cls-2" d="M102.53,0C46.14,0,0,46.15,0,102.55V397.47C0,453.86,46.14,500,102.53,500H397.45C453.85,500,500,453.86,500,397.47V102.55C500,46.15,453.85,0,397.45,0Z"/></g><path id="_路径_2" data-name="&lt;路径&gt;" class="cls-3" d="M363.46,172.8c-10.24-4.06-84.36-31.09-113.84-41.91-61.13-22.44-131.65-56-142.49-61a5.41,5.41,0,0,0-7.49,3.9c-3.93,23.88,5,65.22,26.67,80.38,13.22,9.26,99.95,37.55,135.26,48.82a.82.82,0,0,1-.43,1.58c-36.84-8.34-133.66-30.8-135.61-31a5.27,5.27,0,0,0-4.76,1.59,5.5,5.5,0,0,0-1.34,4.63c4.76,26.79,30.06,61.18,52.21,65.65,13,2.61,66.79,1.32,89,.78a.82.82,0,0,1,.14,1.63c-25.13,3.57-86.21,12.84-87.72,13.11a5.21,5.21,0,0,0-3.73,2.81,5.41,5.41,0,0,0,0,4.92c3.74,7.88,14.67,18.4,14.67,18.4,23.85,24.36,49.94,21.49,56.44,20.29,6.1-1.12,21.36-6,29.75-9.71a.82.82,0,0,1,1.11,1l-13.9,49.87a.81.81,0,0,0,.78,1l41.51.29a.82.82,0,0,1,.78,1.06l-24.3,78.61a.82.82,0,0,0,1.43.75l91-115.49a.82.82,0,0,0-.64-1.33H324.7a.82.82,0,0,1-.71-1.24c5.83-9.59,44-72.6,56.28-97,3.92-6.89,5.55-16.92,2.84-24.47S374.57,177.2,363.46,172.8Z"/></g></g></svg>