<?xml version="1.0" encoding="UTF-8"?>
<svg width="38px" height="38px" viewBox="0 0 38 38" version="1.1" xmlns="http://www.w3.org/2000/svg" xmlns:xlink="http://www.w3.org/1999/xlink">
    <title>导师任务看板/mentor_icon_01test</title>
    <g id="页面-1" stroke="none" stroke-width="1" fill="none" fill-rule="evenodd">
        <g id="培训学习-样式" transform="translate(-56.000000, -2351.000000)" fill="#4285F4" fill-rule="nonzero">
            <g id="分组-3" transform="translate(32.000000, 2327.000000)">
                <g id="导师任务看板/mentor_icon_01test" transform="translate(24.000000, 24.000000)">
                    <path d="M27.7825386,2.16395316 L13.8550195,16.0876752 L13.8702077,24.150676 L21.9161218,24.1373864 L35.8341483,10.2174614 C37.2510646,12.9278615 37.9891857,15.9415847 37.9851842,19 C37.9851842,29.4855082 29.4855082,37.9851679 19,37.9851679 C8.5144918,37.9851679 0.0148321475,29.4855082 0.0148321475,19 C0.0148321475,8.5144918 8.5144918,0.0148127779 19,0.0148127779 C22.0582301,0.0104552709 25.0718909,0.747909679 27.7825386,2.16395316 Z M35.1108134,0.206582372 L37.7934176,2.89108507 L20.3422514,20.3422514 L17.6615457,20.3479469 L17.6577486,17.6577486 L35.1089149,0.204683841 L35.1108134,0.206582372 Z" id="形状"></path>
                </g>
            </g>
        </g>
    </g>
</svg>