<?xml version="1.0" encoding="UTF-8"?>
<svg width="38px" height="38px" viewBox="0 0 38 38" version="1.1" xmlns="http://www.w3.org/2000/svg" xmlns:xlink="http://www.w3.org/1999/xlink">
    <title>导师任务看板/mentor_icon_04course</title>
    <g id="页面-1" stroke="none" stroke-width="1" fill="none" fill-rule="evenodd">
        <g id="培训学习-样式" transform="translate(-963.000000, -2351.000000)">
            <g id="分组-3" transform="translate(32.000000, 2327.000000)">
                <g id="04" transform="translate(907.000000, 0.000000)">
                    <g id="导师任务看板/mentor_icon_04course" transform="translate(24.000000, 24.000000)">
                        <rect id="矩形" fill-opacity="0.01" fill="#FFFFFF" x="0" y="0" width="38" height="38"></rect>
                        <path d="M34.1472222,37.9703357 L7.78472221,37.9703357 C5.97204117,37.9703357 4.23360282,37.2702596 2.95184377,36.0241163 C1.67008472,34.7779729 0.95,33.0878398 0.95,31.3255269 L0.95,5.69555035 C0.95,2.54998475 3.57286517,0 6.80833333,0 L34.1472222,0 C35.2257116,0 36.1,0.849994923 36.1,1.8985168 L36.1,36.0718189 C36.1,37.1203408 35.2257116,37.9703357 34.1472222,37.9703357 L34.1472222,37.9703357 Z M32.1944445,34.1733021 L32.1944445,28.4777518 L7.78472221,28.4777518 C6.16698813,28.4777518 4.85555554,29.7527441 4.85555554,31.3255269 C4.85555554,32.8983097 6.16698813,34.1733021 7.78472221,34.1733021 L32.1944445,34.1733021 L32.1944445,34.1733021 Z M14.6194445,3.7970336 L14.6194445,18.9851679 L21.4541667,15.1881343 L28.2888889,18.9851679 L28.2888889,3.7970336 L14.6194445,3.7970336 Z" id="形状" fill="#4285F4" fill-rule="nonzero"></path>
                    </g>
                </g>
            </g>
        </g>
    </g>
</svg>